%TF.GenerationSoftware,KiCad,Pcbnew,7.0.11+dfsg-1build4*%
%TF.CreationDate,2026-09-30T10:49:51+00:00*%
%TF.ProjectId,ai_glasses,61695f67-6c61-4737-9365-732e6b696361,1.0*%
%TF.SameCoordinates,Original*%
%TF.FileFunction,Copper,L4,Bot*%
%TF.FilePolarity,Positive*%
%FSLAX46Y46*%
G04 Gerber Fmt 4.6, Leading zero omitted, Abs format (unit mm)*
G04 Created by KiCad (PCBNEW 7.0.11+dfsg-1build4) date 2026-09-30 10:49:51*
%MOMM*%
%LPD*%
G01*
G04 APERTURE LIST*
G04 Aperture macros list*
%AMRoundRect*
0 Rectangle with rounded corners*
0 $1 Rounding radius*
0 $2 $3 $4 $5 $6 $7 $8 $9 X,Y pos of 4 corners*
0 Add a 4 corners polygon primitive as box body*
4,1,4,$2,$3,$4,$5,$6,$7,$8,$9,$2,$3,0*
0 Add four circle primitives for the rounded corners*
1,1,$1+$1,$2,$3*
1,1,$1+$1,$4,$5*
1,1,$1+$1,$6,$7*
1,1,$1+$1,$8,$9*
0 Add four rect primitives between the rounded corners*
20,1,$1+$1,$2,$3,$4,$5,0*
20,1,$1+$1,$4,$5,$6,$7,0*
20,1,$1+$1,$6,$7,$8,$9,0*
20,1,$1+$1,$8,$9,$2,$3,0*%
G04 Aperture macros list end*
%TA.AperFunction,HeatsinkPad*%
%ADD10C,0.600000*%
%TD*%
%TA.AperFunction,ComponentPad*%
%ADD11O,1.000000X2.100000*%
%TD*%
%TA.AperFunction,ComponentPad*%
%ADD12O,1.000000X1.800000*%
%TD*%
%TA.AperFunction,HeatsinkPad*%
%ADD13C,0.500000*%
%TD*%
%TA.AperFunction,HeatsinkPad*%
%ADD14R,1.230000X1.230000*%
%TD*%
%TA.AperFunction,SMDPad,CuDef*%
%ADD15RoundRect,0.135000X0.135000X0.185000X-0.135000X0.185000X-0.135000X-0.185000X0.135000X-0.185000X0*%
%TD*%
%TA.AperFunction,SMDPad,CuDef*%
%ADD16RoundRect,0.225000X0.250000X-0.225000X0.250000X0.225000X-0.250000X0.225000X-0.250000X-0.225000X0*%
%TD*%
%TA.AperFunction,SMDPad,CuDef*%
%ADD17RoundRect,0.140000X0.170000X-0.140000X0.170000X0.140000X-0.170000X0.140000X-0.170000X-0.140000X0*%
%TD*%
%TA.AperFunction,SMDPad,CuDef*%
%ADD18RoundRect,0.135000X0.185000X-0.135000X0.185000X0.135000X-0.185000X0.135000X-0.185000X-0.135000X0*%
%TD*%
%TA.AperFunction,SMDPad,CuDef*%
%ADD19C,1.000000*%
%TD*%
%TA.AperFunction,SMDPad,CuDef*%
%ADD20RoundRect,0.150000X0.150000X0.625000X-0.150000X0.625000X-0.150000X-0.625000X0.150000X-0.625000X0*%
%TD*%
%TA.AperFunction,SMDPad,CuDef*%
%ADD21RoundRect,0.250000X0.350000X0.650000X-0.350000X0.650000X-0.350000X-0.650000X0.350000X-0.650000X0*%
%TD*%
%TA.AperFunction,SMDPad,CuDef*%
%ADD22RoundRect,0.150000X-0.587500X-0.150000X0.587500X-0.150000X0.587500X0.150000X-0.587500X0.150000X0*%
%TD*%
%TA.AperFunction,SMDPad,CuDef*%
%ADD23RoundRect,0.250000X0.475000X-0.250000X0.475000X0.250000X-0.475000X0.250000X-0.475000X-0.250000X0*%
%TD*%
%TA.AperFunction,SMDPad,CuDef*%
%ADD24RoundRect,0.218750X0.218750X0.256250X-0.218750X0.256250X-0.218750X-0.256250X0.218750X-0.256250X0*%
%TD*%
%TA.AperFunction,SMDPad,CuDef*%
%ADD25R,0.900000X1.700000*%
%TD*%
%TA.AperFunction,SMDPad,CuDef*%
%ADD26RoundRect,0.150000X0.512500X0.150000X-0.512500X0.150000X-0.512500X-0.150000X0.512500X-0.150000X0*%
%TD*%
%TA.AperFunction,SMDPad,CuDef*%
%ADD27RoundRect,0.140000X0.140000X0.170000X-0.140000X0.170000X-0.140000X-0.170000X0.140000X-0.170000X0*%
%TD*%
%TA.AperFunction,SMDPad,CuDef*%
%ADD28RoundRect,0.112500X-0.187500X-0.112500X0.187500X-0.112500X0.187500X0.112500X-0.187500X0.112500X0*%
%TD*%
%TA.AperFunction,ViaPad*%
%ADD29C,0.500000*%
%TD*%
%TA.AperFunction,Conductor*%
%ADD30C,0.300000*%
%TD*%
%TA.AperFunction,Conductor*%
%ADD31C,0.150000*%
%TD*%
G04 APERTURE END LIST*
D10*
%TO.P,U1,41*%
%TO.N,GND*%
X64560000Y-63900000D03*
X65960000Y-63900000D03*
X63860000Y-63200000D03*
X65260000Y-63200000D03*
X66660000Y-63200000D03*
X64560000Y-62500000D03*
X65960000Y-62500000D03*
X63860000Y-61800000D03*
X65260000Y-61800000D03*
X66660000Y-61800000D03*
X64560000Y-61100000D03*
X65960000Y-61100000D03*
%TD*%
D11*
%TO.P,J1,S1*%
%TO.N,GND*%
X87680000Y-65215000D03*
D12*
X87680000Y-69395000D03*
D11*
X96320000Y-65215000D03*
D12*
X96320000Y-69395000D03*
%TD*%
D13*
%TO.P,U7,17*%
%TO.N,GND*%
X149635000Y-54635000D03*
X149635000Y-55365000D03*
D14*
X150000000Y-55000000D03*
D13*
X150365000Y-54635000D03*
X150365000Y-55365000D03*
%TD*%
D15*
%TO.P,R4,1*%
%TO.N,CHG_PROG*%
X96010000Y-62400000D03*
%TO.P,R4,2*%
%TO.N,GND*%
X94990000Y-62400000D03*
%TD*%
D16*
%TO.P,C4,1*%
%TO.N,+3V3*%
X80200000Y-53775000D03*
%TO.P,C4,2*%
%TO.N,GND*%
X80200000Y-52225000D03*
%TD*%
D17*
%TO.P,C14,1*%
%TO.N,EN*%
X64200000Y-65280000D03*
%TO.P,C14,2*%
%TO.N,GND*%
X64200000Y-64320000D03*
%TD*%
D18*
%TO.P,R7,1*%
%TO.N,+3V3*%
X73800000Y-56110000D03*
%TO.P,R7,2*%
%TO.N,BOOT*%
X73800000Y-55090000D03*
%TD*%
D19*
%TO.P,TP3,1*%
%TO.N,GND*%
X58200000Y-59400000D03*
%TD*%
D20*
%TO.P,J3,1*%
%TO.N,VBAT*%
X84000000Y-66800000D03*
%TO.P,J3,2*%
%TO.N,GND*%
X83000000Y-66800000D03*
D21*
%TO.P,J3,MP*%
%TO.N,N/C*%
X85300000Y-70675000D03*
X81700000Y-70675000D03*
%TD*%
D18*
%TO.P,R6,1*%
%TO.N,+3V3*%
X62600000Y-65310000D03*
%TO.P,R6,2*%
%TO.N,EN*%
X62600000Y-64290000D03*
%TD*%
D19*
%TO.P,TP1,1*%
%TO.N,UART_TX*%
X58200000Y-55000000D03*
%TD*%
D22*
%TO.P,Q1,1*%
%TO.N,VBUS*%
X90562500Y-56350000D03*
%TO.P,Q1,2*%
%TO.N,VSYS*%
X90562500Y-54450000D03*
%TO.P,Q1,3*%
%TO.N,VBAT*%
X92437500Y-55400000D03*
%TD*%
D23*
%TO.P,C12,1*%
%TO.N,+3V3*%
X59000000Y-65450000D03*
%TO.P,C12,2*%
%TO.N,GND*%
X59000000Y-63550000D03*
%TD*%
D24*
%TO.P,D3,1*%
%TO.N,GND*%
X72387500Y-61000000D03*
%TO.P,D3,2*%
%TO.N,LED_STATUS_A*%
X70812500Y-61000000D03*
%TD*%
D25*
%TO.P,SW2,1*%
%TO.N,EN*%
X65200000Y-53000000D03*
%TO.P,SW2,2*%
%TO.N,GND*%
X61800000Y-53000000D03*
%TD*%
D26*
%TO.P,U2,1*%
%TO.N,CHG_STAT*%
X96637500Y-58450000D03*
%TO.P,U2,2*%
%TO.N,GND*%
X96637500Y-59400000D03*
%TO.P,U2,3*%
%TO.N,VBAT*%
X96637500Y-60350000D03*
%TO.P,U2,4*%
%TO.N,VBUS*%
X94362500Y-60350000D03*
%TO.P,U2,5*%
%TO.N,CHG_PROG*%
X94362500Y-58450000D03*
%TD*%
D15*
%TO.P,R5,1*%
%TO.N,CHG_LED_K*%
X90510000Y-59200000D03*
%TO.P,R5,2*%
%TO.N,CHG_STAT*%
X89490000Y-59200000D03*
%TD*%
D17*
%TO.P,C13,1*%
%TO.N,+3V3*%
X61000000Y-65280000D03*
%TO.P,C13,2*%
%TO.N,GND*%
X61000000Y-64320000D03*
%TD*%
D16*
%TO.P,C2,1*%
%TO.N,VBAT*%
X99200000Y-60175000D03*
%TO.P,C2,2*%
%TO.N,GND*%
X99200000Y-58625000D03*
%TD*%
D25*
%TO.P,SW1,1*%
%TO.N,BOOT*%
X71700000Y-53000000D03*
%TO.P,SW1,2*%
%TO.N,GND*%
X68300000Y-53000000D03*
%TD*%
D27*
%TO.P,C15,1*%
%TO.N,VBAT_SENSE*%
X67880000Y-63800000D03*
%TO.P,C15,2*%
%TO.N,GND*%
X66920000Y-63800000D03*
%TD*%
D15*
%TO.P,R10,1*%
%TO.N,VBAT_SENSE*%
X67910000Y-62400000D03*
%TO.P,R10,2*%
%TO.N,GND*%
X66890000Y-62400000D03*
%TD*%
%TO.P,R8,1*%
%TO.N,LED_STATUS*%
X72110000Y-62800000D03*
%TO.P,R8,2*%
%TO.N,LED_STATUS_A*%
X71090000Y-62800000D03*
%TD*%
D19*
%TO.P,TP4,1*%
%TO.N,+3V3*%
X58200000Y-61600000D03*
%TD*%
D15*
%TO.P,R9,1*%
%TO.N,VBAT*%
X67910000Y-61000000D03*
%TO.P,R9,2*%
%TO.N,VBAT_SENSE*%
X66890000Y-61000000D03*
%TD*%
D24*
%TO.P,D2,1*%
%TO.N,CHG_LED_K*%
X90787500Y-61000000D03*
%TO.P,D2,2*%
%TO.N,VBUS*%
X89212500Y-61000000D03*
%TD*%
D28*
%TO.P,D1,1*%
%TO.N,VSYS*%
X90450000Y-51800000D03*
%TO.P,D1,2*%
%TO.N,VBUS*%
X92550000Y-51800000D03*
%TD*%
D19*
%TO.P,TP2,1*%
%TO.N,UART_RX*%
X58200000Y-57200000D03*
%TD*%
D18*
%TO.P,R3,1*%
%TO.N,VBUS*%
X88000000Y-56810000D03*
%TO.P,R3,2*%
%TO.N,GND*%
X88000000Y-55790000D03*
%TD*%
D16*
%TO.P,C3,1*%
%TO.N,VSYS*%
X88000000Y-53775000D03*
%TO.P,C3,2*%
%TO.N,GND*%
X88000000Y-52225000D03*
%TD*%
D26*
%TO.P,U3,1*%
%TO.N,VSYS*%
X85137500Y-52050000D03*
%TO.P,U3,2*%
%TO.N,GND*%
X85137500Y-53000000D03*
%TO.P,U3,3*%
%TO.N,VSYS*%
X85137500Y-53950000D03*
%TO.P,U3,4*%
%TO.N,N/C*%
X82862500Y-53950000D03*
%TO.P,U3,5*%
%TO.N,+3V3*%
X82862500Y-52050000D03*
%TD*%
D29*
%TO.N,+1V2_CAM*%
X88499400Y-57476300D03*
X101137500Y-56206100D03*
X91643600Y-60660300D03*
%TO.N,+2V8_CAM*%
X92288100Y-54572000D03*
X101137500Y-52284300D03*
%TO.N,+3V3*%
X78576600Y-70843400D03*
X58810000Y-68586000D03*
X87620200Y-57742400D03*
X97780700Y-56774900D03*
%TO.N,AMP_BCLK*%
X148720400Y-53562500D03*
X66618900Y-68607200D03*
%TO.N,AMP_DIN*%
X111039900Y-56311600D03*
X77519900Y-70279100D03*
%TO.N,AMP_LRCLK*%
X150490100Y-52757200D03*
X70861100Y-68550300D03*
%TO.N,AMP_SD*%
X147807800Y-56041800D03*
X70165400Y-68610300D03*
%TO.N,BOOT*%
X74892500Y-52055300D03*
%TO.N,CAM_D0*%
X83742200Y-57785000D03*
X82960600Y-58750300D03*
%TO.N,CAM_D1*%
X82286300Y-57629200D03*
X76436200Y-64175000D03*
%TO.N,CAM_D2*%
X76441700Y-62905000D03*
X81640900Y-57632500D03*
%TO.N,CAM_D3*%
X82315400Y-58752100D03*
X83250000Y-57356100D03*
%TO.N,CAM_D4*%
X84233300Y-58616300D03*
X80010600Y-60365000D03*
%TO.N,CAM_D5*%
X81266000Y-59091000D03*
X84801700Y-57520000D03*
%TO.N,CAM_D7*%
X76458400Y-56555000D03*
X81746200Y-54757100D03*
%TO.N,CAM_PWDN*%
X60496000Y-51113900D03*
X86840200Y-62800000D03*
X89214100Y-55249900D03*
%TO.N,CAM_RESET*%
X88156000Y-60693600D03*
X66020500Y-54278600D03*
X89636300Y-57452900D03*
%TO.N,CAM_SIOC*%
X66043700Y-53625200D03*
X87994700Y-59316800D03*
%TO.N,CAM_XCLK*%
X66747800Y-53434600D03*
X83576300Y-54981100D03*
%TO.N,CHG_STAT*%
X96197000Y-57760200D03*
X91368000Y-57917000D03*
%TO.N,EN*%
X65252500Y-54238100D03*
X61886400Y-64230700D03*
%TO.N,GND*%
X108600000Y-52800000D03*
X156600000Y-56800000D03*
X88000000Y-55130000D03*
X57540000Y-70925000D03*
X86168800Y-53000000D03*
X73600000Y-57800000D03*
X164600000Y-70800000D03*
X77600000Y-67800000D03*
X160600000Y-70800000D03*
X160600000Y-54800000D03*
X164600000Y-56800000D03*
X151600000Y-63800000D03*
X160600000Y-68800000D03*
X67600000Y-57800000D03*
X160600000Y-56800000D03*
X86600000Y-68800000D03*
X164600000Y-58800000D03*
X156600000Y-68800000D03*
X94600000Y-68800000D03*
X66920000Y-64955000D03*
X162600000Y-70800000D03*
X69600000Y-59800000D03*
X164600000Y-52800000D03*
X152600000Y-52800000D03*
X158600000Y-66800000D03*
X90600000Y-68800000D03*
X149600000Y-69800000D03*
X156600000Y-64800000D03*
X60599999Y-60800000D03*
X162600000Y-54800000D03*
X162600000Y-68800000D03*
X110600000Y-52800000D03*
X162600000Y-52800000D03*
X147756000Y-54750000D03*
X59050000Y-59400000D03*
X91535000Y-60000000D03*
X151600000Y-50800000D03*
X151600000Y-69800000D03*
X156600000Y-52800000D03*
X106600000Y-52800000D03*
X65599999Y-57800000D03*
X67498900Y-53462500D03*
X153600000Y-69800000D03*
X92600000Y-68800000D03*
X159600000Y-50800000D03*
X158600000Y-68800000D03*
X65599999Y-59800000D03*
X154600000Y-52800000D03*
X78600000Y-56800000D03*
X149600000Y-65800000D03*
X156600000Y-58800000D03*
X85600000Y-59800000D03*
X82231200Y-66400000D03*
X80654800Y-67730400D03*
X80200000Y-51387500D03*
X92600000Y-52800000D03*
X162600000Y-56800000D03*
X162600000Y-64800000D03*
X61000000Y-63665000D03*
X162600000Y-58800000D03*
X57540000Y-53425000D03*
X153600000Y-65800000D03*
X71600000Y-57800000D03*
X61599999Y-55800000D03*
X84600000Y-62800000D03*
X97831200Y-56000000D03*
X163600000Y-50800000D03*
X77600000Y-51800000D03*
X151600000Y-57800000D03*
X83370000Y-70300000D03*
X160600000Y-52800000D03*
X73600000Y-63800000D03*
X154600000Y-56800000D03*
X84600000Y-68800000D03*
X105035000Y-53100000D03*
X94775000Y-61162500D03*
X162600000Y-62800000D03*
X60599999Y-66800000D03*
X92250000Y-57325000D03*
X97668800Y-59400000D03*
X152244000Y-54750000D03*
X80080000Y-71055000D03*
X89170000Y-62800000D03*
X63599999Y-50800000D03*
X94200000Y-57730000D03*
X151600000Y-67800000D03*
X156600000Y-66800000D03*
X162600000Y-66800000D03*
X63599999Y-59800000D03*
X151600000Y-61800000D03*
X164600000Y-54800000D03*
X158600000Y-62800000D03*
X59599999Y-55800000D03*
X98600000Y-62800000D03*
X94990000Y-63160000D03*
X59000000Y-62687500D03*
X158600000Y-54800000D03*
X149600000Y-63800000D03*
X149600000Y-61800000D03*
X69600000Y-65800000D03*
X151600000Y-65800000D03*
X149750000Y-52756200D03*
X79350000Y-66058000D03*
X149600000Y-67800000D03*
X99200000Y-57787500D03*
X164600000Y-62800000D03*
X100600000Y-60800000D03*
X162600000Y-60800000D03*
X153600000Y-61800000D03*
X63599999Y-57800000D03*
X160600000Y-66800000D03*
X164600000Y-68800000D03*
X160600000Y-64800000D03*
X153600000Y-63800000D03*
X67600000Y-59800000D03*
X57599999Y-50800000D03*
X156600000Y-62800000D03*
X107600000Y-50800000D03*
X153535000Y-59900000D03*
X157600000Y-50800000D03*
X109600000Y-50800000D03*
X164600000Y-64800000D03*
X88000000Y-51387500D03*
X85750000Y-57325000D03*
X62599999Y-62800000D03*
X156600000Y-60800000D03*
X151012000Y-59900000D03*
X60998900Y-53462500D03*
X155600000Y-50800000D03*
X59599999Y-57800000D03*
X149600000Y-50800000D03*
X153600000Y-67800000D03*
X100600000Y-58800000D03*
X105035000Y-51600000D03*
X81600000Y-61800000D03*
X92980000Y-57831800D03*
X69600000Y-57800000D03*
X90880000Y-62155000D03*
X153600000Y-50800000D03*
X73225000Y-61000000D03*
X69600000Y-63800000D03*
X97831200Y-52400000D03*
X164600000Y-60800000D03*
X164600000Y-66800000D03*
X57599999Y-65800000D03*
X91535000Y-58600000D03*
X158600000Y-70800000D03*
X158600000Y-52800000D03*
X156600000Y-70800000D03*
X161600000Y-50800000D03*
X103600000Y-57800000D03*
X82136600Y-67279300D03*
X71600000Y-59800000D03*
X95600000Y-55800000D03*
X105035000Y-55200000D03*
X105035000Y-56700000D03*
%TO.N,LED_STATUS*%
X71955700Y-68350400D03*
X72007700Y-63507700D03*
%TO.N,MIC_SD*%
X82086700Y-68447200D03*
X79600000Y-64304500D03*
%TO.N,MIC_WS*%
X78000100Y-65432000D03*
X72299000Y-67669100D03*
%TO.N,UART_RX*%
X62915100Y-53431100D03*
%TO.N,UART_TX*%
X59876600Y-53692800D03*
%TO.N,VBAT_SENSE*%
X65757100Y-66046400D03*
%TO.N,VBUS*%
X93268300Y-62931000D03*
X90024600Y-65702400D03*
%TO.N,VSYS*%
X109803800Y-54631500D03*
X145216000Y-55539900D03*
%TD*%
D30*
%TO.N,+3V3*%
X59000000Y-65450000D02*
X59000000Y-65280000D01*
X81137500Y-53775000D02*
X82572900Y-52339600D01*
X84126700Y-54248900D02*
X87620200Y-57742400D01*
X80200000Y-53775000D02*
X81137500Y-53775000D01*
X82572900Y-52339600D02*
X82862500Y-52050000D01*
X58200000Y-61600000D02*
X63690000Y-56110000D01*
X76135000Y-53775000D02*
X80200000Y-53775000D01*
X82572900Y-52339600D02*
X84126700Y-53893500D01*
X73800000Y-56110000D02*
X76135000Y-53775000D01*
X84126700Y-53893500D02*
X84126700Y-54248900D01*
X59000000Y-65280000D02*
X57931400Y-64211400D01*
X57931400Y-64211400D02*
X57931400Y-61868600D01*
X59000000Y-68396000D02*
X59000000Y-65450000D01*
X61030000Y-65310000D02*
X62600000Y-65310000D01*
X61000000Y-65280000D02*
X61030000Y-65310000D01*
X58810000Y-68586000D02*
X59000000Y-68396000D01*
X59000000Y-65280000D02*
X61000000Y-65280000D01*
X57931400Y-61868600D02*
X58200000Y-61600000D01*
X63690000Y-56110000D02*
X73800000Y-56110000D01*
D31*
%TO.N,BOOT*%
X72027000Y-53000000D02*
X73800000Y-53000000D01*
X73947800Y-53000000D02*
X74892500Y-52055300D01*
X73800000Y-53000000D02*
X73947800Y-53000000D01*
X73800000Y-55090000D02*
X73800000Y-53000000D01*
X71700000Y-53000000D02*
X72027000Y-53000000D01*
%TO.N,CAM_RESET*%
X88156000Y-60693600D02*
X88463800Y-60385800D01*
X88463800Y-60385800D02*
X88463800Y-58625400D01*
X88463800Y-58625400D02*
X89636300Y-57452900D01*
%TO.N,CHG_LED_K*%
X90510000Y-60722500D02*
X90787500Y-61000000D01*
X90510000Y-59200000D02*
X90510000Y-60722500D01*
%TO.N,CHG_PROG*%
X94362500Y-59153700D02*
X95485900Y-60277100D01*
X95485900Y-61875900D02*
X96010000Y-62400000D01*
X94362500Y-58450000D02*
X94362500Y-59153700D01*
X95485900Y-60277100D02*
X95485900Y-61875900D01*
%TO.N,CHG_STAT*%
X91368000Y-57917000D02*
X90773000Y-57917000D01*
X90773000Y-57917000D02*
X89490000Y-59200000D01*
X96637500Y-58450000D02*
X96197000Y-58009500D01*
X96197000Y-58009500D02*
X96197000Y-57760200D01*
%TO.N,EN*%
X63210000Y-64290000D02*
X62600000Y-64290000D01*
X65200000Y-53000000D02*
X65200000Y-54053900D01*
X62600000Y-64290000D02*
X61945700Y-64290000D01*
X65200000Y-54053900D02*
X65252500Y-54106400D01*
X65252500Y-54106400D02*
X65252500Y-54238100D01*
X64200000Y-65280000D02*
X63210000Y-64290000D01*
X61945700Y-64290000D02*
X61886400Y-64230700D01*
D30*
%TO.N,GND*%
X85137500Y-53000000D02*
X86168800Y-53000000D01*
X66920000Y-63800000D02*
X66920000Y-64955000D01*
X83000000Y-66800000D02*
X82136600Y-67279300D01*
X88000000Y-52225000D02*
X88000000Y-51387500D01*
X99200000Y-58625000D02*
X99200000Y-57787500D01*
X80200000Y-52225000D02*
X80200000Y-51387500D01*
X66660000Y-61800000D02*
X66890000Y-62030000D01*
X68300000Y-53000000D02*
X67498900Y-53462500D01*
X61000000Y-64320000D02*
X61000000Y-63665000D01*
X150365000Y-55365000D02*
X150000000Y-55000000D01*
X64560000Y-63900000D02*
X64200000Y-64260000D01*
X59000000Y-63550000D02*
X59000000Y-62687500D01*
X94990000Y-62400000D02*
X94990000Y-63160000D01*
X58200000Y-59400000D02*
X59050000Y-59400000D01*
X72387500Y-61000000D02*
X73225000Y-61000000D01*
X88000000Y-55790000D02*
X88000000Y-55130000D01*
X66890000Y-62030000D02*
X66890000Y-62400000D01*
X64200000Y-64260000D02*
X64200000Y-64320000D01*
X61800000Y-53000000D02*
X60998900Y-53462500D01*
X96637500Y-59400000D02*
X97668800Y-59400000D01*
D31*
%TO.N,LED_STATUS*%
X72110000Y-63405400D02*
X72007700Y-63507700D01*
X72110000Y-62800000D02*
X72110000Y-63405400D01*
%TO.N,LED_STATUS_A*%
X70812500Y-62522500D02*
X70812500Y-61000000D01*
X71090000Y-62800000D02*
X70812500Y-62522500D01*
%TO.N,UART_RX*%
X58200000Y-57200000D02*
X59220800Y-57200000D01*
X59220800Y-57200000D02*
X62915100Y-53505700D01*
X62915100Y-53505700D02*
X62915100Y-53431100D01*
%TO.N,UART_TX*%
X58569400Y-55000000D02*
X59876600Y-53692800D01*
X58200000Y-55000000D02*
X58569400Y-55000000D01*
D30*
%TO.N,VBAT*%
X96637500Y-60350000D02*
X99025000Y-60350000D01*
X95368300Y-59508000D02*
X95368300Y-58112800D01*
X96637500Y-60350000D02*
X96210300Y-60350000D01*
X95368300Y-58112800D02*
X92655500Y-55400000D01*
X92655500Y-55400000D02*
X92437500Y-55400000D01*
X92562700Y-66800000D02*
X84000000Y-66800000D01*
X96637500Y-62725200D02*
X92562700Y-66800000D01*
X99025000Y-60350000D02*
X99200000Y-60175000D01*
X71775500Y-64865500D02*
X67910000Y-61000000D01*
X96210300Y-60350000D02*
X95368300Y-59508000D01*
X84000000Y-66341200D02*
X82524300Y-64865500D01*
X84000000Y-66800000D02*
X84000000Y-66341200D01*
X82524300Y-64865500D02*
X71775500Y-64865500D01*
X96637500Y-60350000D02*
X96637500Y-62725200D01*
D31*
%TO.N,VBAT_SENSE*%
X67910000Y-63770000D02*
X67880000Y-63800000D01*
X67880000Y-63800000D02*
X67880000Y-64678700D01*
X67910000Y-62020000D02*
X66890000Y-61000000D01*
X66512300Y-66046400D02*
X65757100Y-66046400D01*
X67880000Y-64678700D02*
X66512300Y-66046400D01*
X67910000Y-62400000D02*
X67910000Y-62020000D01*
X67910000Y-62400000D02*
X67910000Y-63770000D01*
D30*
%TO.N,VBUS*%
X92550000Y-51800000D02*
X91736200Y-52613800D01*
X89183600Y-58567900D02*
X88879200Y-58872300D01*
X90192200Y-56810000D02*
X88000000Y-56810000D01*
X88879200Y-58872300D02*
X88879200Y-60666700D01*
X88879200Y-60666700D02*
X89212500Y-61000000D01*
X90192200Y-56810000D02*
X90192200Y-57691200D01*
X91736200Y-54663800D02*
X90562500Y-55837500D01*
X91736200Y-52613800D02*
X91736200Y-54663800D01*
X90192200Y-56810000D02*
X90562500Y-56439700D01*
X93268300Y-61444200D02*
X93268300Y-62931000D01*
X90562500Y-55837500D02*
X90562500Y-56350000D01*
X94362500Y-60350000D02*
X93268300Y-61444200D01*
X89315500Y-58567900D02*
X89183600Y-58567900D01*
X90192200Y-57691200D02*
X89315500Y-58567900D01*
X90024600Y-65702400D02*
X90024600Y-61812100D01*
X90562500Y-56439700D02*
X90562500Y-56350000D01*
X90024600Y-61812100D02*
X89212500Y-61000000D01*
%TO.N,VSYS*%
X89887500Y-52362500D02*
X89887500Y-53775000D01*
X86722500Y-53775000D02*
X85312500Y-53775000D01*
X85312500Y-53775000D02*
X85137500Y-53950000D01*
X90562500Y-54450000D02*
X89887500Y-53775000D01*
X86722500Y-53775000D02*
X86722500Y-52657400D01*
X109803800Y-54631500D02*
X105244900Y-54631500D01*
X86115100Y-52050000D02*
X85137500Y-52050000D01*
X105244900Y-54631500D02*
X101842200Y-51228800D01*
X88000000Y-53775000D02*
X86722500Y-53775000D01*
X86722500Y-52657400D02*
X86115100Y-52050000D01*
X89887500Y-53775000D02*
X88000000Y-53775000D01*
X101842200Y-51228800D02*
X91021200Y-51228800D01*
X91021200Y-51228800D02*
X90450000Y-51800000D01*
X90450000Y-51800000D02*
X89887500Y-52362500D01*
%TD*%
%TA.AperFunction,Conductor*%
%TO.N,GND*%
G36*
X86711060Y-54125752D02*
G01*
X86724750Y-54126887D01*
X86751841Y-54129132D01*
X86751841Y-54129131D01*
X86751844Y-54129132D01*
X86757243Y-54127764D01*
X86775409Y-54125500D01*
X87291049Y-54125500D01*
X87338615Y-54142813D01*
X87356980Y-54165900D01*
X87401472Y-54253220D01*
X87496780Y-54348528D01*
X87616874Y-54409719D01*
X87716511Y-54425500D01*
X87716512Y-54425500D01*
X88283489Y-54425500D01*
X88361564Y-54413134D01*
X88383126Y-54409719D01*
X88503220Y-54348528D01*
X88598528Y-54253220D01*
X88643018Y-54165902D01*
X88680037Y-54131383D01*
X88708951Y-54125500D01*
X89559516Y-54125500D01*
X89607082Y-54142813D01*
X89632392Y-54186650D01*
X89632742Y-54210165D01*
X89629239Y-54234215D01*
X89624500Y-54266737D01*
X89624500Y-54633264D01*
X89634427Y-54701393D01*
X89634427Y-54701394D01*
X89685801Y-54806482D01*
X89685802Y-54806483D01*
X89768517Y-54889198D01*
X89873607Y-54940573D01*
X89941740Y-54950500D01*
X90775166Y-54950500D01*
X90822732Y-54967813D01*
X90848042Y-55011650D01*
X90839252Y-55061500D01*
X90827492Y-55076826D01*
X90345786Y-55558530D01*
X90333938Y-55568152D01*
X90321833Y-55576061D01*
X90321825Y-55576068D01*
X90302091Y-55601421D01*
X90296036Y-55608280D01*
X90294129Y-55610187D01*
X90294124Y-55610193D01*
X90282349Y-55626685D01*
X90280523Y-55629134D01*
X90249983Y-55668373D01*
X90247067Y-55673762D01*
X90246755Y-55673593D01*
X90245633Y-55675772D01*
X90245952Y-55675928D01*
X90243259Y-55681436D01*
X90229077Y-55729068D01*
X90228145Y-55731976D01*
X90212000Y-55779009D01*
X90210991Y-55785058D01*
X90208662Y-55784669D01*
X90194687Y-55823066D01*
X90150850Y-55848376D01*
X90138000Y-55849500D01*
X89941735Y-55849500D01*
X89873606Y-55859427D01*
X89873605Y-55859427D01*
X89768517Y-55910801D01*
X89685801Y-55993517D01*
X89634427Y-56098605D01*
X89634427Y-56098606D01*
X89624500Y-56166735D01*
X89624500Y-56385500D01*
X89607187Y-56433066D01*
X89563350Y-56458376D01*
X89550500Y-56459500D01*
X88474621Y-56459500D01*
X88427055Y-56442187D01*
X88422295Y-56437826D01*
X88380404Y-56395935D01*
X88358601Y-56385768D01*
X88317903Y-56366790D01*
X88282111Y-56330998D01*
X88277699Y-56280571D01*
X88306733Y-56239107D01*
X88317904Y-56232657D01*
X88380112Y-56203648D01*
X88463648Y-56120112D01*
X88513577Y-56013040D01*
X88520000Y-55964253D01*
X88520000Y-55915000D01*
X87480001Y-55915000D01*
X87480001Y-55964253D01*
X87486422Y-56013040D01*
X87486423Y-56013042D01*
X87536351Y-56120111D01*
X87536351Y-56120112D01*
X87619887Y-56203648D01*
X87619889Y-56203649D01*
X87682095Y-56232656D01*
X87717888Y-56268449D01*
X87722301Y-56318875D01*
X87693267Y-56360340D01*
X87682097Y-56366789D01*
X87619598Y-56395933D01*
X87619595Y-56395935D01*
X87535935Y-56479595D01*
X87485931Y-56586828D01*
X87484014Y-56601393D01*
X87479599Y-56634936D01*
X87479500Y-56635685D01*
X87479500Y-56927366D01*
X87462187Y-56974932D01*
X87418350Y-57000242D01*
X87368500Y-56991452D01*
X87353174Y-56979692D01*
X86038482Y-55665000D01*
X87480000Y-55665000D01*
X87875000Y-55665000D01*
X87875000Y-55320000D01*
X88125000Y-55320000D01*
X88125000Y-55665000D01*
X88519999Y-55665000D01*
X88519999Y-55615746D01*
X88513577Y-55566959D01*
X88513576Y-55566957D01*
X88463648Y-55459888D01*
X88463648Y-55459887D01*
X88380112Y-55376351D01*
X88273039Y-55326422D01*
X88273040Y-55326422D01*
X88224253Y-55320000D01*
X88125000Y-55320000D01*
X87875000Y-55320000D01*
X87775746Y-55320000D01*
X87726959Y-55326422D01*
X87726957Y-55326423D01*
X87619888Y-55376351D01*
X87619887Y-55376351D01*
X87536351Y-55459887D01*
X87486422Y-55566959D01*
X87480000Y-55615746D01*
X87480000Y-55665000D01*
X86038482Y-55665000D01*
X85623382Y-55249900D01*
X88758967Y-55249900D01*
X88777402Y-55378123D01*
X88777402Y-55378124D01*
X88777403Y-55378126D01*
X88831218Y-55495963D01*
X88916051Y-55593867D01*
X89025031Y-55663904D01*
X89149328Y-55700400D01*
X89278872Y-55700400D01*
X89403169Y-55663904D01*
X89512149Y-55593867D01*
X89596982Y-55495963D01*
X89650797Y-55378126D01*
X89669233Y-55249900D01*
X89650797Y-55121674D01*
X89596982Y-55003837D01*
X89512149Y-54905933D01*
X89430177Y-54853253D01*
X89403168Y-54835895D01*
X89278872Y-54799400D01*
X89149328Y-54799400D01*
X89025031Y-54835895D01*
X88916054Y-54905931D01*
X88916050Y-54905934D01*
X88831219Y-55003835D01*
X88777402Y-55121676D01*
X88758967Y-55249900D01*
X85623382Y-55249900D01*
X84950308Y-54576826D01*
X84928916Y-54530950D01*
X84942017Y-54482055D01*
X84983481Y-54453021D01*
X85002634Y-54450500D01*
X85683254Y-54450500D01*
X85683260Y-54450500D01*
X85751393Y-54440573D01*
X85856483Y-54389198D01*
X85939198Y-54306483D01*
X85990573Y-54201393D01*
X85992403Y-54188828D01*
X86016393Y-54144257D01*
X86063422Y-54125533D01*
X86065630Y-54125500D01*
X86664012Y-54125500D01*
X86704952Y-54125500D01*
X86711060Y-54125752D01*
G37*
%TD.AperFunction*%
%TA.AperFunction,Conductor*%
G36*
X164002642Y-50250688D02*
G01*
X164243697Y-50267929D01*
X164254146Y-50269430D01*
X164487733Y-50320244D01*
X164497843Y-50323214D01*
X164721814Y-50406751D01*
X164731404Y-50411130D01*
X164941212Y-50525694D01*
X164950086Y-50531397D01*
X165126421Y-50663400D01*
X165141438Y-50674641D01*
X165149418Y-50681555D01*
X165318444Y-50850581D01*
X165325358Y-50858561D01*
X165468601Y-51049912D01*
X165474307Y-51058791D01*
X165574416Y-51242126D01*
X165588864Y-51268584D01*
X165593250Y-51278189D01*
X165676782Y-51502146D01*
X165679757Y-51512276D01*
X165730568Y-51745852D01*
X165732070Y-51756303D01*
X165749311Y-51997357D01*
X165749500Y-52002636D01*
X165749500Y-69997363D01*
X165749311Y-70002642D01*
X165732070Y-70243696D01*
X165730568Y-70254147D01*
X165679757Y-70487723D01*
X165676782Y-70497853D01*
X165593250Y-70721810D01*
X165588864Y-70731415D01*
X165474309Y-70941206D01*
X165468601Y-70950087D01*
X165325358Y-71141438D01*
X165318444Y-71149418D01*
X165149418Y-71318444D01*
X165141438Y-71325358D01*
X164950087Y-71468601D01*
X164941206Y-71474309D01*
X164731415Y-71588864D01*
X164721810Y-71593250D01*
X164497853Y-71676782D01*
X164487723Y-71679757D01*
X164254147Y-71730568D01*
X164243696Y-71732070D01*
X164002643Y-71749311D01*
X163997364Y-71749500D01*
X144324500Y-71749500D01*
X144276934Y-71732187D01*
X144251624Y-71688350D01*
X144250500Y-71675500D01*
X144250500Y-56531961D01*
X144251922Y-56517523D01*
X144255408Y-56499999D01*
X144245892Y-56452162D01*
X144243438Y-56439826D01*
X144235966Y-56402260D01*
X144180601Y-56319399D01*
X144164943Y-56308937D01*
X144097740Y-56264034D01*
X144066415Y-56257803D01*
X144024674Y-56249500D01*
X144000000Y-56244592D01*
X143982475Y-56248078D01*
X143968038Y-56249500D01*
X112023665Y-56249500D01*
X112012932Y-56248718D01*
X112008566Y-56248078D01*
X111987030Y-56244921D01*
X111987029Y-56244921D01*
X111946695Y-56255096D01*
X111943035Y-56255921D01*
X111902261Y-56264033D01*
X111896265Y-56266516D01*
X111890402Y-56269302D01*
X111857035Y-56294135D01*
X111853970Y-56296298D01*
X111835059Y-56308935D01*
X111819401Y-56319398D01*
X111819398Y-56319400D01*
X111804856Y-56341162D01*
X111798245Y-56349648D01*
X111552391Y-56621843D01*
X111507660Y-56645538D01*
X111458163Y-56634936D01*
X111427061Y-56595000D01*
X111428907Y-56544414D01*
X111430144Y-56541540D01*
X111476597Y-56439826D01*
X111495033Y-56311600D01*
X111476597Y-56183374D01*
X111422782Y-56065537D01*
X111402214Y-56041800D01*
X147352667Y-56041800D01*
X147371102Y-56170023D01*
X147371102Y-56170024D01*
X147371103Y-56170026D01*
X147424918Y-56287863D01*
X147509751Y-56385767D01*
X147618731Y-56455804D01*
X147743028Y-56492300D01*
X147872572Y-56492300D01*
X147996869Y-56455804D01*
X148105849Y-56385767D01*
X148190682Y-56287863D01*
X148244497Y-56170026D01*
X148262933Y-56041800D01*
X148244497Y-55913574D01*
X148190682Y-55795737D01*
X148159542Y-55759799D01*
X149416976Y-55759799D01*
X149446138Y-55778541D01*
X149446144Y-55778544D01*
X149570298Y-55815000D01*
X149699701Y-55815000D01*
X149823859Y-55778543D01*
X149823862Y-55778541D01*
X149853023Y-55759800D01*
X149853022Y-55759799D01*
X150146976Y-55759799D01*
X150176138Y-55778541D01*
X150176144Y-55778544D01*
X150300298Y-55815000D01*
X150429701Y-55815000D01*
X150553859Y-55778543D01*
X150553862Y-55778541D01*
X150583023Y-55759800D01*
X150365000Y-55541777D01*
X150146976Y-55759799D01*
X149853022Y-55759799D01*
X149635000Y-55541777D01*
X149416976Y-55759799D01*
X148159542Y-55759799D01*
X148105849Y-55697833D01*
X148015081Y-55639500D01*
X147996868Y-55627795D01*
X147872572Y-55591300D01*
X147743028Y-55591300D01*
X147618731Y-55627795D01*
X147509754Y-55697831D01*
X147509750Y-55697834D01*
X147424919Y-55795735D01*
X147371102Y-55913576D01*
X147352667Y-56041800D01*
X111402214Y-56041800D01*
X111337949Y-55967633D01*
X111256050Y-55915000D01*
X111228968Y-55897595D01*
X111104672Y-55861100D01*
X110975128Y-55861100D01*
X110850831Y-55897595D01*
X110741854Y-55967631D01*
X110741850Y-55967634D01*
X110657019Y-56065535D01*
X110603202Y-56183376D01*
X110584767Y-56311600D01*
X110603202Y-56439823D01*
X110603202Y-56439824D01*
X110603203Y-56439826D01*
X110657018Y-56557663D01*
X110741851Y-56655567D01*
X110850831Y-56725604D01*
X110975128Y-56762100D01*
X111104672Y-56762100D01*
X111228969Y-56725604D01*
X111309418Y-56673902D01*
X111358791Y-56662750D01*
X111403783Y-56685945D01*
X111423340Y-56732633D01*
X111408311Y-56780970D01*
X111404340Y-56785756D01*
X99810130Y-69622207D01*
X98195617Y-71409704D01*
X97910742Y-71725101D01*
X97866011Y-71748796D01*
X97855826Y-71749500D01*
X86043198Y-71749500D01*
X85995632Y-71732187D01*
X85970322Y-71688350D01*
X85979112Y-71638500D01*
X85983658Y-71631557D01*
X86011190Y-71594252D01*
X86052793Y-71537882D01*
X86097646Y-71409699D01*
X86100500Y-71379266D01*
X86100500Y-69970734D01*
X86097646Y-69940301D01*
X86061621Y-69837347D01*
X86980000Y-69837347D01*
X86995347Y-69963746D01*
X86995349Y-69963750D01*
X87055628Y-70122694D01*
X87152195Y-70262596D01*
X87279434Y-70375320D01*
X87429954Y-70454318D01*
X87554999Y-70485138D01*
X87555000Y-70485138D01*
X87555000Y-70071341D01*
X87651840Y-70098895D01*
X87763521Y-70088546D01*
X87805000Y-70067891D01*
X87805000Y-70485138D01*
X87930045Y-70454318D01*
X88080565Y-70375320D01*
X88207804Y-70262596D01*
X88304371Y-70122694D01*
X88364650Y-69963750D01*
X88364652Y-69963746D01*
X88379999Y-69837347D01*
X95620000Y-69837347D01*
X95635347Y-69963746D01*
X95635349Y-69963750D01*
X95695628Y-70122694D01*
X95792195Y-70262596D01*
X95919434Y-70375320D01*
X96069954Y-70454318D01*
X96194999Y-70485138D01*
X96195000Y-70485138D01*
X96195000Y-70071341D01*
X96291840Y-70098895D01*
X96403521Y-70088546D01*
X96445000Y-70067891D01*
X96445000Y-70485138D01*
X96570045Y-70454318D01*
X96720565Y-70375320D01*
X96847804Y-70262596D01*
X96944371Y-70122694D01*
X97004650Y-69963750D01*
X97004652Y-69963746D01*
X97019999Y-69837347D01*
X97020000Y-69837340D01*
X97020000Y-69520000D01*
X96620000Y-69520000D01*
X96620000Y-69270000D01*
X97020000Y-69270000D01*
X97020000Y-68952660D01*
X97019999Y-68952652D01*
X97004652Y-68826253D01*
X97004650Y-68826249D01*
X96944371Y-68667305D01*
X96847804Y-68527403D01*
X96720565Y-68414679D01*
X96570045Y-68335681D01*
X96445000Y-68304859D01*
X96445000Y-68718658D01*
X96348160Y-68691105D01*
X96236479Y-68701454D01*
X96195000Y-68722108D01*
X96195000Y-68304860D01*
X96194999Y-68304859D01*
X96069954Y-68335681D01*
X95919434Y-68414679D01*
X95792195Y-68527403D01*
X95695628Y-68667305D01*
X95635349Y-68826249D01*
X95635347Y-68826253D01*
X95620000Y-68952652D01*
X95620000Y-69270000D01*
X96020000Y-69270000D01*
X96020000Y-69520000D01*
X95620000Y-69520000D01*
X95620000Y-69837347D01*
X88379999Y-69837347D01*
X88380000Y-69837340D01*
X88380000Y-69520000D01*
X87980000Y-69520000D01*
X87980000Y-69270000D01*
X88380000Y-69270000D01*
X88380000Y-68952660D01*
X88379999Y-68952652D01*
X88364652Y-68826253D01*
X88364650Y-68826249D01*
X88304371Y-68667305D01*
X88207804Y-68527403D01*
X88080565Y-68414679D01*
X87930045Y-68335681D01*
X87805000Y-68304859D01*
X87805000Y-68718658D01*
X87708160Y-68691105D01*
X87596479Y-68701454D01*
X87555000Y-68722108D01*
X87555000Y-68304860D01*
X87554999Y-68304859D01*
X87429954Y-68335681D01*
X87279434Y-68414679D01*
X87152195Y-68527403D01*
X87055628Y-68667305D01*
X86995349Y-68826249D01*
X86995347Y-68826253D01*
X86980000Y-68952652D01*
X86980000Y-69270000D01*
X87380000Y-69270000D01*
X87380000Y-69520000D01*
X86980000Y-69520000D01*
X86980000Y-69837347D01*
X86061621Y-69837347D01*
X86052793Y-69812118D01*
X86052792Y-69812116D01*
X85972153Y-69702853D01*
X85972146Y-69702846D01*
X85862883Y-69622207D01*
X85862881Y-69622206D01*
X85734704Y-69577355D01*
X85734705Y-69577355D01*
X85734700Y-69577354D01*
X85734699Y-69577354D01*
X85704266Y-69574500D01*
X84895734Y-69574500D01*
X84865301Y-69577354D01*
X84865299Y-69577354D01*
X84865295Y-69577355D01*
X84737118Y-69622206D01*
X84737116Y-69622207D01*
X84627853Y-69702846D01*
X84627846Y-69702853D01*
X84547207Y-69812116D01*
X84547206Y-69812118D01*
X84502355Y-69940295D01*
X84502354Y-69940299D01*
X84502354Y-69940301D01*
X84499500Y-69970734D01*
X84499500Y-71379266D01*
X84502354Y-71409699D01*
X84502354Y-71409701D01*
X84502355Y-71409704D01*
X84547206Y-71537880D01*
X84616342Y-71631557D01*
X84630658Y-71680110D01*
X84610416Y-71726505D01*
X84565087Y-71749035D01*
X84556802Y-71749500D01*
X82443198Y-71749500D01*
X82395632Y-71732187D01*
X82370322Y-71688350D01*
X82379112Y-71638500D01*
X82383658Y-71631557D01*
X82411190Y-71594252D01*
X82452793Y-71537882D01*
X82497646Y-71409699D01*
X82500500Y-71379266D01*
X82500500Y-69970734D01*
X82497646Y-69940301D01*
X82452793Y-69812118D01*
X82452792Y-69812116D01*
X82372153Y-69702853D01*
X82372146Y-69702846D01*
X82262883Y-69622207D01*
X82262881Y-69622206D01*
X82134704Y-69577355D01*
X82134705Y-69577355D01*
X82134700Y-69577354D01*
X82134699Y-69577354D01*
X82104266Y-69574500D01*
X81295734Y-69574500D01*
X81265301Y-69577354D01*
X81265299Y-69577354D01*
X81265295Y-69577355D01*
X81137118Y-69622206D01*
X81137116Y-69622207D01*
X81027853Y-69702846D01*
X81027846Y-69702853D01*
X80947207Y-69812116D01*
X80947206Y-69812118D01*
X80902355Y-69940295D01*
X80902354Y-69940299D01*
X80902354Y-69940301D01*
X80899500Y-69970734D01*
X80899500Y-71379266D01*
X80902354Y-71409699D01*
X80902354Y-71409701D01*
X80902355Y-71409704D01*
X80947206Y-71537880D01*
X81016342Y-71631557D01*
X81030658Y-71680110D01*
X81010416Y-71726505D01*
X80965087Y-71749035D01*
X80956802Y-71749500D01*
X56874000Y-71749500D01*
X56826434Y-71732187D01*
X56801124Y-71688350D01*
X56800000Y-71675500D01*
X56800000Y-70843400D01*
X78121467Y-70843400D01*
X78139902Y-70971623D01*
X78139902Y-70971624D01*
X78139903Y-70971626D01*
X78193718Y-71089463D01*
X78278551Y-71187367D01*
X78387531Y-71257404D01*
X78511828Y-71293900D01*
X78641372Y-71293900D01*
X78765669Y-71257404D01*
X78874649Y-71187367D01*
X78959482Y-71089463D01*
X79013297Y-70971626D01*
X79031733Y-70843400D01*
X79013297Y-70715174D01*
X78959482Y-70597337D01*
X78874649Y-70499433D01*
X78807632Y-70456364D01*
X78765668Y-70429395D01*
X78641372Y-70392900D01*
X78511828Y-70392900D01*
X78387531Y-70429395D01*
X78278554Y-70499431D01*
X78278550Y-70499434D01*
X78193719Y-70597335D01*
X78139902Y-70715176D01*
X78121467Y-70843400D01*
X56800000Y-70843400D01*
X56800000Y-70279100D01*
X77064767Y-70279100D01*
X77083202Y-70407323D01*
X77083202Y-70407324D01*
X77083203Y-70407326D01*
X77137018Y-70525163D01*
X77221851Y-70623067D01*
X77330831Y-70693104D01*
X77455128Y-70729600D01*
X77584672Y-70729600D01*
X77708969Y-70693104D01*
X77817949Y-70623067D01*
X77902782Y-70525163D01*
X77956597Y-70407326D01*
X77975033Y-70279100D01*
X77956597Y-70150874D01*
X77902782Y-70033037D01*
X77817949Y-69935133D01*
X77750932Y-69892064D01*
X77708968Y-69865095D01*
X77584672Y-69828600D01*
X77455128Y-69828600D01*
X77330831Y-69865095D01*
X77221854Y-69935131D01*
X77221850Y-69935134D01*
X77137019Y-70033035D01*
X77083202Y-70150876D01*
X77064767Y-70279100D01*
X56800000Y-70279100D01*
X56800000Y-61600000D01*
X57494355Y-61600000D01*
X57514859Y-61768873D01*
X57576091Y-61930329D01*
X57580900Y-61956569D01*
X57580900Y-64167374D01*
X57579325Y-64182559D01*
X57576357Y-64196711D01*
X57576357Y-64196716D01*
X57580332Y-64228602D01*
X57580900Y-64237755D01*
X57580900Y-64240448D01*
X57584233Y-64260421D01*
X57584673Y-64263442D01*
X57590825Y-64312787D01*
X57592576Y-64318665D01*
X57592234Y-64318766D01*
X57592980Y-64321095D01*
X57593316Y-64320980D01*
X57595307Y-64326780D01*
X57618967Y-64370500D01*
X57620367Y-64373220D01*
X57642201Y-64417883D01*
X57645766Y-64422876D01*
X57645475Y-64423083D01*
X57646933Y-64425039D01*
X57647216Y-64424820D01*
X57650982Y-64429658D01*
X57687541Y-64463313D01*
X57689749Y-64465431D01*
X58115066Y-64890748D01*
X58136458Y-64936624D01*
X58124311Y-64981957D01*
X58124798Y-64982215D01*
X58123670Y-64984347D01*
X58123357Y-64985519D01*
X58122289Y-64987005D01*
X58122209Y-64987112D01*
X58122206Y-64987119D01*
X58077355Y-65115295D01*
X58077354Y-65115299D01*
X58077354Y-65115301D01*
X58074500Y-65145734D01*
X58074500Y-65754266D01*
X58077354Y-65784699D01*
X58077354Y-65784701D01*
X58077355Y-65784704D01*
X58122206Y-65912881D01*
X58122207Y-65912883D01*
X58202846Y-66022146D01*
X58202853Y-66022153D01*
X58312116Y-66102792D01*
X58312118Y-66102793D01*
X58440295Y-66147644D01*
X58440301Y-66147646D01*
X58470734Y-66150500D01*
X58575500Y-66150500D01*
X58623066Y-66167813D01*
X58648376Y-66211650D01*
X58649500Y-66224500D01*
X58649500Y-68113228D01*
X58632187Y-68160794D01*
X58615508Y-68175481D01*
X58511951Y-68242033D01*
X58511950Y-68242034D01*
X58427119Y-68339935D01*
X58373302Y-68457776D01*
X58354867Y-68586000D01*
X58373302Y-68714223D01*
X58373302Y-68714224D01*
X58373303Y-68714226D01*
X58427118Y-68832063D01*
X58511951Y-68929967D01*
X58620931Y-69000004D01*
X58745228Y-69036500D01*
X58874772Y-69036500D01*
X58999069Y-69000004D01*
X59108049Y-68929967D01*
X59192882Y-68832063D01*
X59246697Y-68714226D01*
X59255036Y-68656219D01*
X59268057Y-68623752D01*
X59268373Y-68623308D01*
X59268376Y-68623306D01*
X59279874Y-68607200D01*
X66163767Y-68607200D01*
X66182202Y-68735423D01*
X66182202Y-68735424D01*
X66182203Y-68735426D01*
X66236018Y-68853263D01*
X66320851Y-68951167D01*
X66429831Y-69021204D01*
X66554128Y-69057700D01*
X66683672Y-69057700D01*
X66807969Y-69021204D01*
X66916949Y-68951167D01*
X67001782Y-68853263D01*
X67055597Y-68735426D01*
X67073587Y-68610300D01*
X69710267Y-68610300D01*
X69728702Y-68738523D01*
X69728702Y-68738524D01*
X69728703Y-68738526D01*
X69782518Y-68856363D01*
X69867351Y-68954267D01*
X69976331Y-69024304D01*
X70100628Y-69060800D01*
X70230172Y-69060800D01*
X70354469Y-69024304D01*
X70463449Y-68954267D01*
X70490477Y-68923072D01*
X70534709Y-68898462D01*
X70584413Y-68908040D01*
X70586410Y-68909279D01*
X70656408Y-68954264D01*
X70672031Y-68964304D01*
X70796328Y-69000800D01*
X70925872Y-69000800D01*
X71050169Y-68964304D01*
X71159149Y-68894267D01*
X71243982Y-68796363D01*
X71297797Y-68678526D01*
X71316233Y-68550300D01*
X71297797Y-68422074D01*
X71265064Y-68350400D01*
X71500567Y-68350400D01*
X71519002Y-68478623D01*
X71519002Y-68478624D01*
X71519003Y-68478626D01*
X71572818Y-68596463D01*
X71657651Y-68694367D01*
X71766631Y-68764404D01*
X71890928Y-68800900D01*
X72020472Y-68800900D01*
X72144769Y-68764404D01*
X72253749Y-68694367D01*
X72338582Y-68596463D01*
X72392397Y-68478626D01*
X72396915Y-68447200D01*
X81631567Y-68447200D01*
X81650002Y-68575423D01*
X81650002Y-68575424D01*
X81650003Y-68575426D01*
X81703818Y-68693263D01*
X81788651Y-68791167D01*
X81897631Y-68861204D01*
X82021928Y-68897700D01*
X82151472Y-68897700D01*
X82275769Y-68861204D01*
X82384749Y-68791167D01*
X82469582Y-68693263D01*
X82523397Y-68575426D01*
X82541833Y-68447200D01*
X82523397Y-68318974D01*
X82469582Y-68201137D01*
X82384749Y-68103233D01*
X82317732Y-68060164D01*
X82275768Y-68033195D01*
X82151472Y-67996700D01*
X82021928Y-67996700D01*
X81897631Y-68033195D01*
X81788654Y-68103231D01*
X81788650Y-68103234D01*
X81703819Y-68201135D01*
X81650002Y-68318976D01*
X81631567Y-68447200D01*
X72396915Y-68447200D01*
X72410833Y-68350400D01*
X72392397Y-68222174D01*
X72383183Y-68202000D01*
X72379171Y-68151543D01*
X72408532Y-68110309D01*
X72429647Y-68100257D01*
X72488069Y-68083104D01*
X72597049Y-68013067D01*
X72681882Y-67915163D01*
X72735697Y-67797326D01*
X72754133Y-67669100D01*
X72735697Y-67540874D01*
X72681882Y-67423037D01*
X72597049Y-67325133D01*
X72573500Y-67309999D01*
X79194508Y-67309999D01*
X79214353Y-67435300D01*
X79214353Y-67435301D01*
X79214354Y-67435303D01*
X79271950Y-67548341D01*
X79361658Y-67638049D01*
X79474696Y-67695645D01*
X79537219Y-67705547D01*
X79568480Y-67710499D01*
X79568481Y-67710499D01*
X79631520Y-67710499D01*
X79654965Y-67706785D01*
X79725304Y-67695645D01*
X79838342Y-67638049D01*
X79928050Y-67548341D01*
X79985646Y-67435303D01*
X80005492Y-67309999D01*
X79985646Y-67184695D01*
X79928050Y-67071657D01*
X79838342Y-66981949D01*
X79726574Y-66925000D01*
X82500001Y-66925000D01*
X82500001Y-67458224D01*
X82509912Y-67526250D01*
X82561213Y-67631188D01*
X82643810Y-67713785D01*
X82748750Y-67765087D01*
X82816781Y-67774999D01*
X82874999Y-67774998D01*
X82875000Y-67774998D01*
X82875000Y-66925000D01*
X82500001Y-66925000D01*
X79726574Y-66925000D01*
X79725304Y-66924353D01*
X79725302Y-66924352D01*
X79725301Y-66924352D01*
X79631520Y-66909499D01*
X79631519Y-66909499D01*
X79568481Y-66909499D01*
X79568480Y-66909499D01*
X79474698Y-66924352D01*
X79361656Y-66981950D01*
X79271951Y-67071655D01*
X79214353Y-67184697D01*
X79194508Y-67309999D01*
X72573500Y-67309999D01*
X72530032Y-67282064D01*
X72488068Y-67255095D01*
X72363772Y-67218600D01*
X72234228Y-67218600D01*
X72109931Y-67255095D01*
X72000954Y-67325131D01*
X72000950Y-67325134D01*
X71916119Y-67423035D01*
X71862302Y-67540876D01*
X71843867Y-67669100D01*
X71862302Y-67797326D01*
X71871515Y-67817498D01*
X71875528Y-67867957D01*
X71846166Y-67909191D01*
X71825052Y-67919241D01*
X71766633Y-67936394D01*
X71657654Y-68006431D01*
X71657650Y-68006434D01*
X71572819Y-68104335D01*
X71572818Y-68104336D01*
X71572818Y-68104337D01*
X71548904Y-68156700D01*
X71519002Y-68222176D01*
X71500567Y-68350400D01*
X71265064Y-68350400D01*
X71243982Y-68304237D01*
X71159149Y-68206333D01*
X71073894Y-68151543D01*
X71050168Y-68136295D01*
X70925872Y-68099800D01*
X70796328Y-68099800D01*
X70672031Y-68136295D01*
X70563054Y-68206331D01*
X70563049Y-68206334D01*
X70536020Y-68237528D01*
X70491786Y-68262138D01*
X70442082Y-68252557D01*
X70440088Y-68251320D01*
X70354468Y-68196295D01*
X70230172Y-68159800D01*
X70100628Y-68159800D01*
X69976331Y-68196295D01*
X69867354Y-68266331D01*
X69867350Y-68266334D01*
X69782519Y-68364235D01*
X69728702Y-68482076D01*
X69710267Y-68610300D01*
X67073587Y-68610300D01*
X67074033Y-68607200D01*
X67055597Y-68478974D01*
X67001782Y-68361137D01*
X66916949Y-68263233D01*
X66821673Y-68202003D01*
X66807968Y-68193195D01*
X66683672Y-68156700D01*
X66554128Y-68156700D01*
X66429831Y-68193195D01*
X66320854Y-68263231D01*
X66320850Y-68263234D01*
X66236019Y-68361135D01*
X66182202Y-68478976D01*
X66163767Y-68607200D01*
X59279874Y-68607200D01*
X59280172Y-68606782D01*
X59281958Y-68604387D01*
X59312517Y-68565126D01*
X59312520Y-68565115D01*
X59315435Y-68559732D01*
X59315752Y-68559903D01*
X59316870Y-68557733D01*
X59316547Y-68557575D01*
X59319240Y-68552066D01*
X59333424Y-68504420D01*
X59334358Y-68501504D01*
X59350500Y-68454488D01*
X59350500Y-68454485D01*
X59351510Y-68448438D01*
X59351862Y-68448496D01*
X59352214Y-68446084D01*
X59351858Y-68446040D01*
X59352615Y-68439958D01*
X59352617Y-68439953D01*
X59350563Y-68390280D01*
X59350500Y-68387223D01*
X59350500Y-66224500D01*
X59367813Y-66176934D01*
X59411650Y-66151624D01*
X59424500Y-66150500D01*
X59529258Y-66150500D01*
X59529266Y-66150500D01*
X59559699Y-66147646D01*
X59687882Y-66102793D01*
X59797150Y-66022150D01*
X59877793Y-65912882D01*
X59922646Y-65784699D01*
X59925500Y-65754266D01*
X59925500Y-65704500D01*
X59942813Y-65656934D01*
X59986650Y-65631624D01*
X59999500Y-65630500D01*
X60528308Y-65630500D01*
X60575874Y-65647813D01*
X60580634Y-65652174D01*
X60631684Y-65703224D01*
X60740513Y-65753972D01*
X60790099Y-65760500D01*
X61209900Y-65760499D01*
X61259487Y-65753972D01*
X61368316Y-65703224D01*
X61389366Y-65682174D01*
X61435242Y-65660782D01*
X61441692Y-65660500D01*
X62125379Y-65660500D01*
X62172945Y-65677813D01*
X62177705Y-65682174D01*
X62219596Y-65724065D01*
X62326827Y-65774068D01*
X62375684Y-65780500D01*
X62375686Y-65780500D01*
X62824314Y-65780500D01*
X62824316Y-65780500D01*
X62873173Y-65774068D01*
X62980404Y-65724065D01*
X63064065Y-65640404D01*
X63114068Y-65533173D01*
X63120500Y-65484316D01*
X63120500Y-65135684D01*
X63114068Y-65086827D01*
X63064065Y-64979596D01*
X62980404Y-64895935D01*
X62980402Y-64895933D01*
X62934886Y-64874709D01*
X62918495Y-64867066D01*
X62882702Y-64831274D01*
X62878290Y-64780848D01*
X62907324Y-64739383D01*
X62918492Y-64732934D01*
X62980404Y-64704065D01*
X63055101Y-64629367D01*
X63100976Y-64607976D01*
X63149870Y-64621076D01*
X63159752Y-64629368D01*
X63667826Y-65137442D01*
X63689218Y-65183318D01*
X63689500Y-65189768D01*
X63689500Y-65459899D01*
X63696027Y-65509485D01*
X63696028Y-65509487D01*
X63746776Y-65618316D01*
X63831684Y-65703224D01*
X63940513Y-65753972D01*
X63990099Y-65760500D01*
X64409900Y-65760499D01*
X64459487Y-65753972D01*
X64568316Y-65703224D01*
X64653224Y-65618316D01*
X64703972Y-65509487D01*
X64710500Y-65459901D01*
X64710499Y-65100100D01*
X64703972Y-65050513D01*
X64653224Y-64941684D01*
X64568316Y-64856776D01*
X64563738Y-64852198D01*
X64566038Y-64849897D01*
X64544284Y-64818703D01*
X64548790Y-64768285D01*
X64563472Y-64747359D01*
X64652807Y-64658024D01*
X64703481Y-64549354D01*
X64710000Y-64499838D01*
X64710000Y-64432460D01*
X64727313Y-64384894D01*
X64763157Y-64361456D01*
X64769844Y-64359493D01*
X64814206Y-64330982D01*
X65705792Y-64330982D01*
X65750152Y-64359490D01*
X65750161Y-64359494D01*
X65888107Y-64399999D01*
X65888109Y-64400000D01*
X66031891Y-64400000D01*
X66031892Y-64399999D01*
X66169842Y-64359493D01*
X66169844Y-64359493D01*
X66214206Y-64330982D01*
X65960000Y-64076776D01*
X65705792Y-64330982D01*
X64814206Y-64330982D01*
X64415715Y-63932492D01*
X64460000Y-63932492D01*
X64498197Y-63985065D01*
X64544162Y-64000000D01*
X64575838Y-64000000D01*
X64621803Y-63985065D01*
X64660000Y-63932492D01*
X64660000Y-63900000D01*
X64736776Y-63900000D01*
X64992765Y-64155989D01*
X65044680Y-64042315D01*
X65065141Y-63900000D01*
X65046085Y-63767461D01*
X65056452Y-63717915D01*
X65096241Y-63686624D01*
X65140180Y-63685927D01*
X65188107Y-63699999D01*
X65188109Y-63700000D01*
X65331890Y-63700000D01*
X65379818Y-63685927D01*
X65430335Y-63689137D01*
X65466970Y-63724068D01*
X65473914Y-63767460D01*
X65454858Y-63899999D01*
X65475319Y-64042312D01*
X65527234Y-64155988D01*
X65750731Y-63932492D01*
X65860000Y-63932492D01*
X65898197Y-63985065D01*
X65944162Y-64000000D01*
X65975838Y-64000000D01*
X66021803Y-63985065D01*
X66060000Y-63932492D01*
X66060000Y-63867508D01*
X66021803Y-63814935D01*
X65975838Y-63800000D01*
X65944162Y-63800000D01*
X65898197Y-63814935D01*
X65860000Y-63867508D01*
X65860000Y-63932492D01*
X65750731Y-63932492D01*
X65783223Y-63900000D01*
X65783223Y-63899999D01*
X65260000Y-63376776D01*
X65020135Y-63616639D01*
X64964430Y-63672346D01*
X64736776Y-63900000D01*
X64660000Y-63900000D01*
X64660000Y-63867508D01*
X64621803Y-63814935D01*
X64575838Y-63800000D01*
X64544162Y-63800000D01*
X64498197Y-63814935D01*
X64460000Y-63867508D01*
X64460000Y-63932492D01*
X64415715Y-63932492D01*
X64393631Y-63910408D01*
X64393631Y-63910407D01*
X63860000Y-63376776D01*
X63605792Y-63630982D01*
X63650152Y-63659490D01*
X63650161Y-63659494D01*
X63788107Y-63699999D01*
X63788109Y-63700000D01*
X63924998Y-63700000D01*
X63972564Y-63717313D01*
X63997874Y-63761150D01*
X63989084Y-63811000D01*
X63950307Y-63843537D01*
X63945708Y-63845043D01*
X63940646Y-63846518D01*
X63831975Y-63897192D01*
X63747192Y-63981975D01*
X63696518Y-64090645D01*
X63690000Y-64140161D01*
X63690000Y-64201732D01*
X63672687Y-64249298D01*
X63628850Y-64274608D01*
X63579000Y-64265818D01*
X63563674Y-64254058D01*
X63429145Y-64119529D01*
X63419942Y-64108314D01*
X63408626Y-64091378D01*
X63408624Y-64091376D01*
X63398601Y-64084679D01*
X63388644Y-64078025D01*
X63388641Y-64078023D01*
X63341873Y-64046774D01*
X63317495Y-64030485D01*
X63297325Y-64026473D01*
X63237133Y-64014500D01*
X63237132Y-64014500D01*
X63237130Y-64014499D01*
X63210001Y-64009103D01*
X63210000Y-64009103D01*
X63190017Y-64013078D01*
X63175580Y-64014500D01*
X63136811Y-64014500D01*
X63089245Y-63997187D01*
X63069745Y-63971775D01*
X63064066Y-63959598D01*
X63064064Y-63959595D01*
X62980404Y-63875935D01*
X62933787Y-63854197D01*
X62873173Y-63825932D01*
X62873171Y-63825931D01*
X62837178Y-63821193D01*
X62824316Y-63819500D01*
X62375684Y-63819500D01*
X62364318Y-63820996D01*
X62326828Y-63825931D01*
X62226458Y-63872735D01*
X62176031Y-63877146D01*
X62155177Y-63867921D01*
X62075468Y-63816695D01*
X61951172Y-63780200D01*
X61821628Y-63780200D01*
X61697331Y-63816695D01*
X61588354Y-63886731D01*
X61588346Y-63886737D01*
X61533260Y-63950311D01*
X61489027Y-63974921D01*
X61439323Y-63965342D01*
X61425009Y-63954177D01*
X61368024Y-63897192D01*
X61259353Y-63846518D01*
X61259354Y-63846518D01*
X61209838Y-63840000D01*
X61125000Y-63840000D01*
X61125000Y-64371000D01*
X61107687Y-64418566D01*
X61063850Y-64443876D01*
X61051000Y-64445000D01*
X60490000Y-64445000D01*
X60490000Y-64499838D01*
X60496518Y-64549354D01*
X60547192Y-64658024D01*
X60636527Y-64747359D01*
X60657919Y-64793235D01*
X60644818Y-64842130D01*
X60635523Y-64851459D01*
X60636262Y-64852198D01*
X60580634Y-64907826D01*
X60534758Y-64929218D01*
X60528308Y-64929500D01*
X59872625Y-64929500D01*
X59825059Y-64912187D01*
X59813090Y-64899449D01*
X59797150Y-64877850D01*
X59797146Y-64877847D01*
X59797144Y-64877845D01*
X59687883Y-64797207D01*
X59687881Y-64797206D01*
X59559704Y-64752355D01*
X59559705Y-64752355D01*
X59559700Y-64752354D01*
X59559699Y-64752354D01*
X59529266Y-64749500D01*
X59529260Y-64749500D01*
X58995833Y-64749500D01*
X58948267Y-64732187D01*
X58943507Y-64727826D01*
X58592007Y-64376325D01*
X58570615Y-64330448D01*
X58583716Y-64281554D01*
X58625180Y-64252520D01*
X58644333Y-64249999D01*
X58875000Y-64249999D01*
X58875000Y-63675000D01*
X59125000Y-63675000D01*
X59125000Y-64249999D01*
X59529194Y-64249999D01*
X59529205Y-64249998D01*
X59559602Y-64247149D01*
X59559611Y-64247147D01*
X59687643Y-64202347D01*
X59697598Y-64195000D01*
X60490000Y-64195000D01*
X60875000Y-64195000D01*
X60875000Y-63840000D01*
X60790162Y-63840000D01*
X60740645Y-63846518D01*
X60631975Y-63897192D01*
X60547192Y-63981975D01*
X60496518Y-64090645D01*
X60490000Y-64140161D01*
X60490000Y-64195000D01*
X59697598Y-64195000D01*
X59796791Y-64121792D01*
X59796792Y-64121791D01*
X59877347Y-64012643D01*
X59922146Y-63884614D01*
X59922148Y-63884606D01*
X59924999Y-63854198D01*
X59925000Y-63854197D01*
X59925000Y-63675000D01*
X59125000Y-63675000D01*
X58875000Y-63675000D01*
X58875000Y-62850000D01*
X59125000Y-62850000D01*
X59125000Y-63425000D01*
X59924999Y-63425000D01*
X59924999Y-63245806D01*
X59924998Y-63245794D01*
X59922149Y-63215397D01*
X59922147Y-63215388D01*
X59916763Y-63200000D01*
X63354858Y-63200000D01*
X63375319Y-63342312D01*
X63427234Y-63455988D01*
X63650731Y-63232492D01*
X63760000Y-63232492D01*
X63798197Y-63285065D01*
X63844162Y-63300000D01*
X63875838Y-63300000D01*
X63921803Y-63285065D01*
X63960000Y-63232492D01*
X63960000Y-63200000D01*
X64036776Y-63200000D01*
X64559999Y-63723223D01*
X64799862Y-63483360D01*
X64799863Y-63483360D01*
X65050731Y-63232492D01*
X65160000Y-63232492D01*
X65198197Y-63285065D01*
X65244162Y-63300000D01*
X65275838Y-63300000D01*
X65321803Y-63285065D01*
X65360000Y-63232492D01*
X65360000Y-63200000D01*
X65436776Y-63200000D01*
X65959999Y-63723223D01*
X66199862Y-63483360D01*
X66199863Y-63483360D01*
X66450731Y-63232492D01*
X66560000Y-63232492D01*
X66598197Y-63285065D01*
X66644162Y-63300000D01*
X66675838Y-63300000D01*
X66721803Y-63285065D01*
X66760000Y-63232492D01*
X66760000Y-63167508D01*
X66721803Y-63114935D01*
X66675838Y-63100000D01*
X66644162Y-63100000D01*
X66598197Y-63114935D01*
X66560000Y-63167508D01*
X66560000Y-63232492D01*
X66450731Y-63232492D01*
X66483223Y-63200000D01*
X66483223Y-63199999D01*
X65960000Y-62676776D01*
X65720135Y-62916639D01*
X65664430Y-62972346D01*
X65436776Y-63200000D01*
X65360000Y-63200000D01*
X65360000Y-63167508D01*
X65321803Y-63114935D01*
X65275838Y-63100000D01*
X65244162Y-63100000D01*
X65198197Y-63114935D01*
X65160000Y-63167508D01*
X65160000Y-63232492D01*
X65050731Y-63232492D01*
X65083223Y-63200000D01*
X65083223Y-63199999D01*
X64560000Y-62676776D01*
X64320135Y-62916639D01*
X64264430Y-62972346D01*
X64036776Y-63200000D01*
X63960000Y-63200000D01*
X63960000Y-63167508D01*
X63921803Y-63114935D01*
X63875838Y-63100000D01*
X63844162Y-63100000D01*
X63798197Y-63114935D01*
X63760000Y-63167508D01*
X63760000Y-63232492D01*
X63650731Y-63232492D01*
X63683223Y-63200000D01*
X63683223Y-63199999D01*
X63427234Y-62944010D01*
X63375319Y-63057687D01*
X63354858Y-63200000D01*
X59916763Y-63200000D01*
X59877347Y-63087356D01*
X59796792Y-62978208D01*
X59796791Y-62978207D01*
X59687643Y-62897652D01*
X59687644Y-62897652D01*
X59559614Y-62852853D01*
X59559606Y-62852851D01*
X59529198Y-62850000D01*
X59125000Y-62850000D01*
X58875000Y-62850000D01*
X58470806Y-62850000D01*
X58470793Y-62850001D01*
X58440397Y-62852850D01*
X58440388Y-62852852D01*
X58380340Y-62873864D01*
X58329725Y-62873233D01*
X58291358Y-62840215D01*
X58281900Y-62804017D01*
X58281900Y-62359253D01*
X58299213Y-62311687D01*
X58338189Y-62287403D01*
X58450225Y-62259790D01*
X58505113Y-62230982D01*
X63605792Y-62230982D01*
X63650152Y-62259490D01*
X63650161Y-62259494D01*
X63788107Y-62299999D01*
X63788109Y-62300000D01*
X63931890Y-62300000D01*
X63979818Y-62285927D01*
X64030335Y-62289137D01*
X64066970Y-62324068D01*
X64073914Y-62367460D01*
X64054858Y-62499999D01*
X64073914Y-62632539D01*
X64063547Y-62682085D01*
X64023757Y-62713375D01*
X63979819Y-62714073D01*
X63931889Y-62700000D01*
X63788109Y-62700000D01*
X63650156Y-62740507D01*
X63650154Y-62740507D01*
X63605793Y-62769017D01*
X63859999Y-63023222D01*
X64099862Y-62783360D01*
X64099863Y-62783360D01*
X64350731Y-62532492D01*
X64460000Y-62532492D01*
X64498197Y-62585065D01*
X64544162Y-62600000D01*
X64575838Y-62600000D01*
X64621803Y-62585065D01*
X64660000Y-62532492D01*
X64660000Y-62500000D01*
X64736776Y-62500000D01*
X65259999Y-63023223D01*
X65499862Y-62783360D01*
X65499863Y-62783360D01*
X65750731Y-62532492D01*
X65860000Y-62532492D01*
X65898197Y-62585065D01*
X65944162Y-62600000D01*
X65975838Y-62600000D01*
X66021803Y-62585065D01*
X66060000Y-62532492D01*
X66060000Y-62467508D01*
X66021803Y-62414935D01*
X65975838Y-62400000D01*
X65944162Y-62400000D01*
X65898197Y-62414935D01*
X65860000Y-62467508D01*
X65860000Y-62532492D01*
X65750731Y-62532492D01*
X65783223Y-62500000D01*
X65783223Y-62499999D01*
X65260000Y-61976776D01*
X65020135Y-62216639D01*
X64964430Y-62272346D01*
X64736776Y-62500000D01*
X64660000Y-62500000D01*
X64660000Y-62467508D01*
X64621803Y-62414935D01*
X64575838Y-62400000D01*
X64544162Y-62400000D01*
X64498197Y-62414935D01*
X64460000Y-62467508D01*
X64460000Y-62532492D01*
X64350731Y-62532492D01*
X64383223Y-62500000D01*
X64383223Y-62499999D01*
X63860000Y-61976776D01*
X63605792Y-62230982D01*
X58505113Y-62230982D01*
X58600852Y-62180734D01*
X58728183Y-62067929D01*
X58824818Y-61927930D01*
X58873335Y-61800000D01*
X63354858Y-61800000D01*
X63375319Y-61942312D01*
X63427234Y-62055988D01*
X63650731Y-61832492D01*
X63760000Y-61832492D01*
X63798197Y-61885065D01*
X63844162Y-61900000D01*
X63875838Y-61900000D01*
X63921803Y-61885065D01*
X63960000Y-61832492D01*
X63960000Y-61800000D01*
X64036776Y-61800000D01*
X64559999Y-62323223D01*
X64799862Y-62083360D01*
X64799863Y-62083360D01*
X65050731Y-61832492D01*
X65160000Y-61832492D01*
X65198197Y-61885065D01*
X65244162Y-61900000D01*
X65275838Y-61900000D01*
X65321803Y-61885065D01*
X65360000Y-61832492D01*
X65360000Y-61800000D01*
X65436776Y-61800000D01*
X65959999Y-62323223D01*
X66199862Y-62083360D01*
X66199863Y-62083360D01*
X66450731Y-61832492D01*
X66560000Y-61832492D01*
X66598197Y-61885065D01*
X66644162Y-61900000D01*
X66675838Y-61900000D01*
X66721803Y-61885065D01*
X66760000Y-61832492D01*
X66760000Y-61767508D01*
X66721803Y-61714935D01*
X66675838Y-61700000D01*
X66644162Y-61700000D01*
X66598197Y-61714935D01*
X66560000Y-61767508D01*
X66560000Y-61832492D01*
X66450731Y-61832492D01*
X66483223Y-61800000D01*
X66483223Y-61799999D01*
X65960000Y-61276776D01*
X65720135Y-61516639D01*
X65664430Y-61572346D01*
X65436776Y-61800000D01*
X65360000Y-61800000D01*
X65360000Y-61767508D01*
X65321803Y-61714935D01*
X65275838Y-61700000D01*
X65244162Y-61700000D01*
X65198197Y-61714935D01*
X65160000Y-61767508D01*
X65160000Y-61832492D01*
X65050731Y-61832492D01*
X65083223Y-61800000D01*
X65083223Y-61799999D01*
X64560000Y-61276776D01*
X64320135Y-61516639D01*
X64264430Y-61572346D01*
X64036776Y-61800000D01*
X63960000Y-61800000D01*
X63960000Y-61767508D01*
X63921803Y-61714935D01*
X63875838Y-61700000D01*
X63844162Y-61700000D01*
X63798197Y-61714935D01*
X63760000Y-61767508D01*
X63760000Y-61832492D01*
X63650731Y-61832492D01*
X63683223Y-61800000D01*
X63683223Y-61799999D01*
X63427234Y-61544010D01*
X63375319Y-61657687D01*
X63354858Y-61800000D01*
X58873335Y-61800000D01*
X58885140Y-61768872D01*
X58905645Y-61600000D01*
X58905603Y-61599658D01*
X58887254Y-61448538D01*
X58898706Y-61399232D01*
X58908383Y-61387297D01*
X58926663Y-61369017D01*
X63605793Y-61369017D01*
X63859999Y-61623222D01*
X64099862Y-61383360D01*
X64099863Y-61383360D01*
X64350731Y-61132492D01*
X64460000Y-61132492D01*
X64498197Y-61185065D01*
X64544162Y-61200000D01*
X64575838Y-61200000D01*
X64621803Y-61185065D01*
X64660000Y-61132492D01*
X64660000Y-61100000D01*
X64736776Y-61100000D01*
X65259999Y-61623223D01*
X65499862Y-61383360D01*
X65499863Y-61383360D01*
X65750731Y-61132492D01*
X65860000Y-61132492D01*
X65898197Y-61185065D01*
X65944162Y-61200000D01*
X65975838Y-61200000D01*
X66021803Y-61185065D01*
X66060000Y-61132492D01*
X66060000Y-61067508D01*
X66021803Y-61014935D01*
X65975838Y-61000000D01*
X65944162Y-61000000D01*
X65898197Y-61014935D01*
X65860000Y-61067508D01*
X65860000Y-61132492D01*
X65750731Y-61132492D01*
X65783223Y-61100000D01*
X65783223Y-61099999D01*
X65527234Y-60844010D01*
X65475319Y-60957687D01*
X65454858Y-61100000D01*
X65473914Y-61232539D01*
X65463547Y-61282085D01*
X65423757Y-61313375D01*
X65379819Y-61314073D01*
X65331889Y-61300000D01*
X65188110Y-61300000D01*
X65140179Y-61314073D01*
X65089662Y-61310862D01*
X65053028Y-61275930D01*
X65046085Y-61232538D01*
X65065141Y-61099999D01*
X65044680Y-60957687D01*
X64992764Y-60844010D01*
X64736776Y-61099999D01*
X64736776Y-61100000D01*
X64660000Y-61100000D01*
X64660000Y-61067508D01*
X64621803Y-61014935D01*
X64575838Y-61000000D01*
X64544162Y-61000000D01*
X64498197Y-61014935D01*
X64460000Y-61067508D01*
X64460000Y-61132492D01*
X64350731Y-61132492D01*
X64383223Y-61100000D01*
X64383223Y-61099999D01*
X64127234Y-60844010D01*
X64075319Y-60957687D01*
X64054858Y-61100000D01*
X64073914Y-61232539D01*
X64063547Y-61282085D01*
X64023757Y-61313375D01*
X63979819Y-61314073D01*
X63931889Y-61300000D01*
X63788109Y-61300000D01*
X63650156Y-61340507D01*
X63650154Y-61340507D01*
X63605793Y-61369017D01*
X58926663Y-61369017D01*
X59626663Y-60669017D01*
X64305793Y-60669017D01*
X64559999Y-60923223D01*
X64814204Y-60669017D01*
X65705793Y-60669017D01*
X65959999Y-60923223D01*
X66214204Y-60669017D01*
X66169842Y-60640506D01*
X66031891Y-60600000D01*
X65888109Y-60600000D01*
X65750156Y-60640507D01*
X65750154Y-60640507D01*
X65705793Y-60669017D01*
X64814204Y-60669017D01*
X64769842Y-60640506D01*
X64631891Y-60600000D01*
X64488109Y-60600000D01*
X64350156Y-60640507D01*
X64350154Y-60640507D01*
X64305793Y-60669017D01*
X59626663Y-60669017D01*
X61204681Y-59091000D01*
X80810867Y-59091000D01*
X80829302Y-59219223D01*
X80829302Y-59219224D01*
X80829303Y-59219226D01*
X80883118Y-59337063D01*
X80967951Y-59434967D01*
X81076931Y-59505004D01*
X81201228Y-59541500D01*
X81330772Y-59541500D01*
X81455069Y-59505004D01*
X81564049Y-59434967D01*
X81648882Y-59337063D01*
X81702697Y-59219226D01*
X81721133Y-59091000D01*
X81702697Y-58962774D01*
X81648882Y-58844937D01*
X81568440Y-58752100D01*
X81860267Y-58752100D01*
X81878702Y-58880323D01*
X81878702Y-58880324D01*
X81878703Y-58880326D01*
X81932518Y-58998163D01*
X82017351Y-59096067D01*
X82126331Y-59166104D01*
X82250628Y-59202600D01*
X82380172Y-59202600D01*
X82504469Y-59166104D01*
X82599394Y-59105099D01*
X82648767Y-59093947D01*
X82679403Y-59105097D01*
X82771531Y-59164304D01*
X82895828Y-59200800D01*
X83025372Y-59200800D01*
X83149669Y-59164304D01*
X83258649Y-59094267D01*
X83343482Y-58996363D01*
X83397297Y-58878526D01*
X83415733Y-58750300D01*
X83397297Y-58622074D01*
X83343482Y-58504237D01*
X83258649Y-58406333D01*
X83152470Y-58338096D01*
X83149668Y-58336295D01*
X83025372Y-58299800D01*
X82895828Y-58299800D01*
X82771529Y-58336296D01*
X82676604Y-58397299D01*
X82627229Y-58408450D01*
X82596591Y-58397299D01*
X82504468Y-58338095D01*
X82380172Y-58301600D01*
X82250628Y-58301600D01*
X82126331Y-58338095D01*
X82017354Y-58408131D01*
X82017350Y-58408134D01*
X81932519Y-58506035D01*
X81878702Y-58623876D01*
X81860267Y-58752100D01*
X81568440Y-58752100D01*
X81564049Y-58747033D01*
X81468974Y-58685932D01*
X81455068Y-58676995D01*
X81330772Y-58640500D01*
X81201228Y-58640500D01*
X81076931Y-58676995D01*
X80967954Y-58747031D01*
X80967950Y-58747034D01*
X80883119Y-58844935D01*
X80829302Y-58962776D01*
X80810867Y-59091000D01*
X61204681Y-59091000D01*
X62663182Y-57632500D01*
X81185767Y-57632500D01*
X81204202Y-57760723D01*
X81204202Y-57760724D01*
X81204203Y-57760726D01*
X81258018Y-57878563D01*
X81342851Y-57976467D01*
X81451831Y-58046504D01*
X81576128Y-58083000D01*
X81705672Y-58083000D01*
X81829969Y-58046504D01*
X81926162Y-57984684D01*
X81975534Y-57973533D01*
X82006172Y-57984684D01*
X82097231Y-58043204D01*
X82221528Y-58079700D01*
X82351072Y-58079700D01*
X82475369Y-58043204D01*
X82584349Y-57973167D01*
X82669182Y-57875263D01*
X82722997Y-57757426D01*
X82739593Y-57641992D01*
X82763499Y-57597376D01*
X82810492Y-57578562D01*
X82858583Y-57594357D01*
X82868766Y-57604065D01*
X82870388Y-57605937D01*
X82951951Y-57700067D01*
X83060931Y-57770104D01*
X83185228Y-57806600D01*
X83226051Y-57806600D01*
X83273617Y-57823913D01*
X83298927Y-57867750D01*
X83299298Y-57870069D01*
X83305502Y-57913223D01*
X83305502Y-57913224D01*
X83305503Y-57913226D01*
X83359318Y-58031063D01*
X83444151Y-58128967D01*
X83543011Y-58192500D01*
X83553131Y-58199004D01*
X83677428Y-58235500D01*
X83805130Y-58235500D01*
X83852696Y-58252813D01*
X83878006Y-58296650D01*
X83869216Y-58346500D01*
X83861056Y-58357959D01*
X83850420Y-58370232D01*
X83850419Y-58370234D01*
X83796602Y-58488076D01*
X83778167Y-58616300D01*
X83796602Y-58744523D01*
X83796602Y-58744524D01*
X83796603Y-58744526D01*
X83850418Y-58862363D01*
X83935251Y-58960267D01*
X84044231Y-59030304D01*
X84168528Y-59066800D01*
X84298072Y-59066800D01*
X84422369Y-59030304D01*
X84531349Y-58960267D01*
X84616182Y-58862363D01*
X84669997Y-58744526D01*
X84688433Y-58616300D01*
X84669997Y-58488074D01*
X84616182Y-58370237D01*
X84531349Y-58272333D01*
X84434066Y-58209813D01*
X84422368Y-58202295D01*
X84298072Y-58165800D01*
X84170370Y-58165800D01*
X84122804Y-58148487D01*
X84097494Y-58104650D01*
X84106284Y-58054800D01*
X84114444Y-58043341D01*
X84125079Y-58031067D01*
X84125080Y-58031065D01*
X84125079Y-58031065D01*
X84125082Y-58031063D01*
X84178897Y-57913226D01*
X84197333Y-57785000D01*
X84178897Y-57656774D01*
X84125082Y-57538937D01*
X84108673Y-57520000D01*
X84346567Y-57520000D01*
X84365002Y-57648223D01*
X84365002Y-57648224D01*
X84365003Y-57648226D01*
X84418818Y-57766063D01*
X84503651Y-57863967D01*
X84612631Y-57934004D01*
X84736928Y-57970500D01*
X84866472Y-57970500D01*
X84990769Y-57934004D01*
X85099749Y-57863967D01*
X85184582Y-57766063D01*
X85238397Y-57648226D01*
X85256833Y-57520000D01*
X85238397Y-57391774D01*
X85184582Y-57273937D01*
X85099749Y-57176033D01*
X85032732Y-57132964D01*
X84990768Y-57105995D01*
X84866472Y-57069500D01*
X84736928Y-57069500D01*
X84612631Y-57105995D01*
X84503654Y-57176031D01*
X84503650Y-57176034D01*
X84418819Y-57273935D01*
X84418818Y-57273936D01*
X84418818Y-57273937D01*
X84402485Y-57309700D01*
X84365002Y-57391776D01*
X84346567Y-57520000D01*
X84108673Y-57520000D01*
X84040249Y-57441033D01*
X83973232Y-57397964D01*
X83931268Y-57370995D01*
X83806972Y-57334500D01*
X83766149Y-57334500D01*
X83718583Y-57317187D01*
X83693273Y-57273350D01*
X83692902Y-57271031D01*
X83690645Y-57255338D01*
X83686697Y-57227874D01*
X83632882Y-57110037D01*
X83548049Y-57012133D01*
X83480939Y-56969004D01*
X83439068Y-56942095D01*
X83314772Y-56905600D01*
X83185228Y-56905600D01*
X83060931Y-56942095D01*
X82951954Y-57012131D01*
X82951950Y-57012134D01*
X82867119Y-57110035D01*
X82813302Y-57227876D01*
X82796706Y-57343305D01*
X82772800Y-57387924D01*
X82725807Y-57406737D01*
X82677715Y-57390942D01*
X82667533Y-57381234D01*
X82656821Y-57368872D01*
X82584349Y-57285233D01*
X82517332Y-57242164D01*
X82475368Y-57215195D01*
X82351072Y-57178700D01*
X82221528Y-57178700D01*
X82097231Y-57215195D01*
X82001039Y-57277014D01*
X81951664Y-57288166D01*
X81921025Y-57277014D01*
X81829968Y-57218495D01*
X81705672Y-57182000D01*
X81576128Y-57182000D01*
X81451831Y-57218495D01*
X81342854Y-57288531D01*
X81342850Y-57288534D01*
X81258019Y-57386435D01*
X81258018Y-57386436D01*
X81258018Y-57386437D01*
X81244410Y-57416234D01*
X81204202Y-57504276D01*
X81185767Y-57632500D01*
X62663182Y-57632500D01*
X63813508Y-56482174D01*
X63859384Y-56460782D01*
X63865834Y-56460500D01*
X73325379Y-56460500D01*
X73372945Y-56477813D01*
X73377705Y-56482174D01*
X73419596Y-56524065D01*
X73526827Y-56574068D01*
X73575684Y-56580500D01*
X73575686Y-56580500D01*
X74024314Y-56580500D01*
X74024316Y-56580500D01*
X74073173Y-56574068D01*
X74114064Y-56555000D01*
X76003267Y-56555000D01*
X76021702Y-56683223D01*
X76021702Y-56683224D01*
X76021703Y-56683226D01*
X76075518Y-56801063D01*
X76160351Y-56898967D01*
X76269331Y-56969004D01*
X76393628Y-57005500D01*
X76523172Y-57005500D01*
X76647469Y-56969004D01*
X76756449Y-56898967D01*
X76841282Y-56801063D01*
X76895097Y-56683226D01*
X76913533Y-56555000D01*
X76895097Y-56426774D01*
X76841282Y-56308937D01*
X76756449Y-56211033D01*
X76687520Y-56166735D01*
X76647468Y-56140995D01*
X76523172Y-56104500D01*
X76393628Y-56104500D01*
X76269331Y-56140995D01*
X76160354Y-56211031D01*
X76160350Y-56211034D01*
X76075519Y-56308935D01*
X76075518Y-56308936D01*
X76075518Y-56308937D01*
X76063923Y-56334326D01*
X76021702Y-56426776D01*
X76003267Y-56555000D01*
X74114064Y-56555000D01*
X74180404Y-56524065D01*
X74264065Y-56440404D01*
X74314068Y-56333173D01*
X74320500Y-56284316D01*
X74320500Y-56115834D01*
X74337813Y-56068268D01*
X74342174Y-56063508D01*
X76258508Y-54147174D01*
X76304384Y-54125782D01*
X76310834Y-54125500D01*
X79491049Y-54125500D01*
X79538615Y-54142813D01*
X79556980Y-54165900D01*
X79601472Y-54253220D01*
X79696780Y-54348528D01*
X79816874Y-54409719D01*
X79916511Y-54425500D01*
X79916512Y-54425500D01*
X80483489Y-54425500D01*
X80561564Y-54413134D01*
X80583126Y-54409719D01*
X80703220Y-54348528D01*
X80798528Y-54253220D01*
X80843018Y-54165902D01*
X80880037Y-54131383D01*
X80908951Y-54125500D01*
X81093475Y-54125500D01*
X81108659Y-54127074D01*
X81122815Y-54130043D01*
X81153019Y-54126277D01*
X81154703Y-54126068D01*
X81163856Y-54125500D01*
X81166534Y-54125500D01*
X81166540Y-54125500D01*
X81186569Y-54122157D01*
X81189527Y-54121726D01*
X81238893Y-54115573D01*
X81238899Y-54115569D01*
X81244768Y-54113823D01*
X81244871Y-54114170D01*
X81247196Y-54113425D01*
X81247079Y-54113084D01*
X81252877Y-54111093D01*
X81252877Y-54111092D01*
X81252881Y-54111092D01*
X81296643Y-54087407D01*
X81299304Y-54086039D01*
X81343984Y-54064198D01*
X81348976Y-54060634D01*
X81349184Y-54060926D01*
X81351140Y-54059468D01*
X81350919Y-54059184D01*
X81355758Y-54055418D01*
X81360285Y-54050500D01*
X81389438Y-54018830D01*
X81391508Y-54016672D01*
X82520565Y-52887615D01*
X82566440Y-52866224D01*
X82615335Y-52879325D01*
X82625215Y-52887615D01*
X82740855Y-53003263D01*
X83060747Y-53323176D01*
X83082138Y-53369053D01*
X83069035Y-53417947D01*
X83027569Y-53446979D01*
X83008419Y-53449500D01*
X82316735Y-53449500D01*
X82248606Y-53459427D01*
X82248605Y-53459427D01*
X82143517Y-53510801D01*
X82060801Y-53593517D01*
X82009427Y-53698605D01*
X82009427Y-53698606D01*
X81999500Y-53766735D01*
X81999500Y-54133264D01*
X82009427Y-54201393D01*
X82009427Y-54201394D01*
X82029162Y-54241762D01*
X82034499Y-54292099D01*
X82006232Y-54334089D01*
X81957587Y-54348086D01*
X81940585Y-54343773D01*
X81940347Y-54344587D01*
X81810972Y-54306600D01*
X81681428Y-54306600D01*
X81557131Y-54343095D01*
X81448154Y-54413131D01*
X81448150Y-54413134D01*
X81363319Y-54511035D01*
X81363318Y-54511036D01*
X81363318Y-54511037D01*
X81357095Y-54524663D01*
X81309502Y-54628876D01*
X81291067Y-54757100D01*
X81309502Y-54885323D01*
X81309502Y-54885324D01*
X81309503Y-54885326D01*
X81363318Y-55003163D01*
X81448151Y-55101067D01*
X81557131Y-55171104D01*
X81681428Y-55207600D01*
X81810972Y-55207600D01*
X81935269Y-55171104D01*
X82044249Y-55101067D01*
X82129082Y-55003163D01*
X82182897Y-54885326D01*
X82201333Y-54757100D01*
X82182897Y-54628874D01*
X82139147Y-54533078D01*
X82135137Y-54482619D01*
X82164498Y-54441386D01*
X82213495Y-54428673D01*
X82238961Y-54435857D01*
X82248607Y-54440573D01*
X82316740Y-54450500D01*
X82316746Y-54450500D01*
X83316637Y-54450500D01*
X83364203Y-54467813D01*
X83389513Y-54511650D01*
X83380723Y-54561500D01*
X83356644Y-54586753D01*
X83278254Y-54637130D01*
X83278250Y-54637134D01*
X83193419Y-54735035D01*
X83193418Y-54735036D01*
X83193418Y-54735037D01*
X83180611Y-54763080D01*
X83139602Y-54852876D01*
X83121167Y-54981100D01*
X83139602Y-55109323D01*
X83139602Y-55109324D01*
X83139603Y-55109326D01*
X83193418Y-55227163D01*
X83278251Y-55325067D01*
X83387231Y-55395104D01*
X83511528Y-55431600D01*
X83641072Y-55431600D01*
X83765369Y-55395104D01*
X83874349Y-55325067D01*
X83959182Y-55227163D01*
X84012997Y-55109326D01*
X84031433Y-54981100D01*
X84012997Y-54852874D01*
X83996781Y-54817368D01*
X83992771Y-54766911D01*
X84022132Y-54725677D01*
X84071129Y-54712964D01*
X84116421Y-54734303D01*
X87154460Y-57772342D01*
X87175381Y-57814137D01*
X87183502Y-57870623D01*
X87183502Y-57870624D01*
X87183503Y-57870626D01*
X87237318Y-57988463D01*
X87322151Y-58086367D01*
X87431131Y-58156404D01*
X87555428Y-58192900D01*
X87684972Y-58192900D01*
X87809269Y-58156404D01*
X87918249Y-58086367D01*
X88003082Y-57988463D01*
X88056897Y-57870626D01*
X88060604Y-57844838D01*
X88084508Y-57800221D01*
X88131501Y-57781406D01*
X88179593Y-57797200D01*
X88189776Y-57806909D01*
X88201346Y-57820262D01*
X88201347Y-57820263D01*
X88201351Y-57820267D01*
X88310331Y-57890304D01*
X88434628Y-57926800D01*
X88564174Y-57926800D01*
X88581311Y-57921768D01*
X88631828Y-57924978D01*
X88668463Y-57959909D01*
X88674074Y-58010216D01*
X88654486Y-58045096D01*
X88293329Y-58406253D01*
X88282119Y-58415453D01*
X88265177Y-58426774D01*
X88265175Y-58426776D01*
X88204285Y-58517905D01*
X88188300Y-58598267D01*
X88183207Y-58623874D01*
X88182903Y-58625400D01*
X88184466Y-58633260D01*
X88186878Y-58645383D01*
X88188300Y-58659820D01*
X88188300Y-58805274D01*
X88170987Y-58852840D01*
X88127150Y-58878150D01*
X88093453Y-58876277D01*
X88059473Y-58866300D01*
X88059472Y-58866300D01*
X87929928Y-58866300D01*
X87805631Y-58902795D01*
X87696654Y-58972831D01*
X87696650Y-58972834D01*
X87611819Y-59070735D01*
X87558002Y-59188576D01*
X87539567Y-59316800D01*
X87558002Y-59445023D01*
X87558002Y-59445024D01*
X87558003Y-59445026D01*
X87611818Y-59562863D01*
X87696651Y-59660767D01*
X87805631Y-59730804D01*
X87929928Y-59767300D01*
X88059474Y-59767300D01*
X88093451Y-59757323D01*
X88143968Y-59760533D01*
X88180603Y-59795463D01*
X88188300Y-59828325D01*
X88188300Y-60169100D01*
X88170987Y-60216666D01*
X88127150Y-60241976D01*
X88114300Y-60243100D01*
X88091228Y-60243100D01*
X87966931Y-60279595D01*
X87857954Y-60349631D01*
X87857950Y-60349634D01*
X87773119Y-60447535D01*
X87719302Y-60565376D01*
X87700867Y-60693600D01*
X87719302Y-60821823D01*
X87719302Y-60821824D01*
X87719303Y-60821826D01*
X87773118Y-60939663D01*
X87857951Y-61037567D01*
X87966931Y-61107604D01*
X88091228Y-61144100D01*
X88220772Y-61144100D01*
X88345069Y-61107604D01*
X88454049Y-61037567D01*
X88454049Y-61037566D01*
X88458502Y-61034705D01*
X88459604Y-61036420D01*
X88499309Y-61021242D01*
X88547148Y-61037787D01*
X88573160Y-61081211D01*
X88574500Y-61095232D01*
X88574500Y-61289246D01*
X88590049Y-61387420D01*
X88650340Y-61505749D01*
X88744250Y-61599659D01*
X88792156Y-61624068D01*
X88862579Y-61659950D01*
X88862579Y-61659951D01*
X88960753Y-61675500D01*
X88960754Y-61675500D01*
X89361667Y-61675500D01*
X89409233Y-61692813D01*
X89413993Y-61697174D01*
X89652426Y-61935607D01*
X89673818Y-61981483D01*
X89674100Y-61987933D01*
X89674100Y-65391365D01*
X89656787Y-65438931D01*
X89656026Y-65439824D01*
X89641719Y-65456334D01*
X89638858Y-65460788D01*
X89637104Y-65459661D01*
X89607367Y-65489869D01*
X89556977Y-65494677D01*
X89515286Y-65465969D01*
X89513315Y-65463057D01*
X89473057Y-65400414D01*
X89473058Y-65400414D01*
X89369719Y-65310871D01*
X89369718Y-65310870D01*
X89245342Y-65254069D01*
X89245340Y-65254068D01*
X89245339Y-65254068D01*
X89144015Y-65239500D01*
X89144011Y-65239500D01*
X89075989Y-65239500D01*
X89075984Y-65239500D01*
X88974660Y-65254068D01*
X88850280Y-65310871D01*
X88746942Y-65400414D01*
X88673023Y-65515437D01*
X88673021Y-65515439D01*
X88634500Y-65646630D01*
X88634500Y-65783369D01*
X88673021Y-65914560D01*
X88673022Y-65914561D01*
X88685354Y-65933750D01*
X88742161Y-66022146D01*
X88746945Y-66029589D01*
X88850282Y-66119130D01*
X88974658Y-66175931D01*
X89075989Y-66190500D01*
X89075995Y-66190500D01*
X89144005Y-66190500D01*
X89144011Y-66190500D01*
X89245342Y-66175931D01*
X89369718Y-66119130D01*
X89473055Y-66029589D01*
X89477838Y-66022146D01*
X89521368Y-65954412D01*
X89561648Y-65923756D01*
X89612209Y-65926163D01*
X89639546Y-65945958D01*
X89726546Y-66046362D01*
X89726547Y-66046363D01*
X89726551Y-66046367D01*
X89835531Y-66116404D01*
X89959828Y-66152900D01*
X90089372Y-66152900D01*
X90213669Y-66116404D01*
X90322649Y-66046367D01*
X90407482Y-65948463D01*
X90461297Y-65830626D01*
X90479733Y-65702400D01*
X90461297Y-65574174D01*
X90407482Y-65456337D01*
X90407480Y-65456335D01*
X90407480Y-65456334D01*
X90393174Y-65439824D01*
X90375109Y-65392538D01*
X90375100Y-65391365D01*
X90375100Y-61856125D01*
X90376675Y-61840939D01*
X90379370Y-61828085D01*
X90379643Y-61826785D01*
X90375668Y-61794896D01*
X90375100Y-61785743D01*
X90375100Y-61783066D01*
X90375100Y-61783060D01*
X90371764Y-61763068D01*
X90371324Y-61760047D01*
X90369431Y-61744867D01*
X90380724Y-61695524D01*
X90421093Y-61664984D01*
X90454438Y-61662621D01*
X90535753Y-61675500D01*
X90535754Y-61675500D01*
X91039247Y-61675500D01*
X91137420Y-61659951D01*
X91255751Y-61599658D01*
X91349658Y-61505751D01*
X91409951Y-61387420D01*
X91425500Y-61289246D01*
X91425500Y-61164631D01*
X91442813Y-61117065D01*
X91486650Y-61091755D01*
X91520347Y-61093628D01*
X91542042Y-61099999D01*
X91578826Y-61110800D01*
X91578828Y-61110800D01*
X91708372Y-61110800D01*
X91832669Y-61074304D01*
X91941649Y-61004267D01*
X92026482Y-60906363D01*
X92080297Y-60788526D01*
X92098733Y-60660300D01*
X92080297Y-60532074D01*
X92026482Y-60414237D01*
X91941649Y-60316333D01*
X91839211Y-60250500D01*
X91832668Y-60246295D01*
X91708372Y-60209800D01*
X91578828Y-60209800D01*
X91454531Y-60246295D01*
X91345550Y-60316333D01*
X91305471Y-60362588D01*
X91261237Y-60387198D01*
X91215950Y-60380062D01*
X91137420Y-60340049D01*
X91137420Y-60340048D01*
X91039247Y-60324500D01*
X91039246Y-60324500D01*
X90859500Y-60324500D01*
X90811934Y-60307187D01*
X90786624Y-60263350D01*
X90785500Y-60250500D01*
X90785500Y-59736810D01*
X90802813Y-59689244D01*
X90828225Y-59669743D01*
X90840404Y-59664065D01*
X90924065Y-59580404D01*
X90974068Y-59473173D01*
X90980500Y-59424316D01*
X90980500Y-58975684D01*
X90974068Y-58926827D01*
X90924065Y-58819596D01*
X90840404Y-58735935D01*
X90733173Y-58685932D01*
X90733171Y-58685931D01*
X90697178Y-58681193D01*
X90684316Y-58679500D01*
X90684314Y-58679500D01*
X90578768Y-58679500D01*
X90531202Y-58662187D01*
X90505892Y-58618350D01*
X90514682Y-58568500D01*
X90526442Y-58553174D01*
X90865442Y-58214174D01*
X90911318Y-58192782D01*
X90917768Y-58192500D01*
X90976830Y-58192500D01*
X91024396Y-58209813D01*
X91032756Y-58218041D01*
X91069947Y-58260963D01*
X91069948Y-58260964D01*
X91069951Y-58260967D01*
X91178931Y-58331004D01*
X91303228Y-58367500D01*
X91432772Y-58367500D01*
X91557069Y-58331004D01*
X91666049Y-58260967D01*
X91750882Y-58163063D01*
X91804697Y-58045226D01*
X91823133Y-57917000D01*
X91804697Y-57788774D01*
X91750882Y-57670937D01*
X91666049Y-57573033D01*
X91574402Y-57514135D01*
X91557068Y-57502995D01*
X91432772Y-57466500D01*
X91303228Y-57466500D01*
X91178931Y-57502995D01*
X91069954Y-57573031D01*
X91069947Y-57573036D01*
X91032756Y-57615959D01*
X90988523Y-57640570D01*
X90976830Y-57641500D01*
X90807420Y-57641500D01*
X90792983Y-57640078D01*
X90773000Y-57636103D01*
X90772999Y-57636103D01*
X90745868Y-57641500D01*
X90745867Y-57641500D01*
X90719079Y-57646828D01*
X90665503Y-57657485D01*
X90657813Y-57662624D01*
X90608645Y-57674656D01*
X90563246Y-57652269D01*
X90542858Y-57605937D01*
X90542700Y-57601096D01*
X90542700Y-56985834D01*
X90560013Y-56938268D01*
X90564374Y-56933508D01*
X90625708Y-56872174D01*
X90671584Y-56850782D01*
X90678034Y-56850500D01*
X91183254Y-56850500D01*
X91183260Y-56850500D01*
X91251393Y-56840573D01*
X91356483Y-56789198D01*
X91439198Y-56706483D01*
X91490573Y-56601393D01*
X91500500Y-56533260D01*
X91500500Y-56166740D01*
X91490573Y-56098607D01*
X91439198Y-55993517D01*
X91356483Y-55910802D01*
X91356482Y-55910801D01*
X91251394Y-55859427D01*
X91235050Y-55857045D01*
X91209558Y-55853331D01*
X91164985Y-55829342D01*
X91146261Y-55782313D01*
X91162146Y-55734252D01*
X91167893Y-55727788D01*
X91373174Y-55522508D01*
X91419051Y-55501116D01*
X91467945Y-55514217D01*
X91496979Y-55555682D01*
X91499500Y-55574834D01*
X91499500Y-55583264D01*
X91509427Y-55651393D01*
X91509427Y-55651394D01*
X91560801Y-55756482D01*
X91560802Y-55756483D01*
X91643517Y-55839198D01*
X91748607Y-55890573D01*
X91816740Y-55900500D01*
X92629666Y-55900500D01*
X92677232Y-55917813D01*
X92681992Y-55922174D01*
X94582992Y-57823174D01*
X94604384Y-57869050D01*
X94591283Y-57917945D01*
X94549819Y-57946979D01*
X94530666Y-57949500D01*
X93816735Y-57949500D01*
X93748606Y-57959427D01*
X93748605Y-57959427D01*
X93643517Y-58010801D01*
X93560801Y-58093517D01*
X93509427Y-58198605D01*
X93509427Y-58198606D01*
X93499500Y-58266735D01*
X93499500Y-58633264D01*
X93509427Y-58701393D01*
X93509427Y-58701394D01*
X93560801Y-58806482D01*
X93560802Y-58806483D01*
X93643517Y-58889198D01*
X93748607Y-58940573D01*
X93816740Y-58950500D01*
X94013000Y-58950500D01*
X94060566Y-58967813D01*
X94085876Y-59011650D01*
X94087000Y-59024500D01*
X94087000Y-59119279D01*
X94085578Y-59133715D01*
X94081603Y-59153700D01*
X94087000Y-59180832D01*
X94087000Y-59180833D01*
X94102985Y-59261195D01*
X94140139Y-59316800D01*
X94163877Y-59352325D01*
X94180814Y-59363642D01*
X94192029Y-59372845D01*
X94542358Y-59723174D01*
X94563750Y-59769050D01*
X94550649Y-59817945D01*
X94509185Y-59846979D01*
X94490032Y-59849500D01*
X93816735Y-59849500D01*
X93748606Y-59859427D01*
X93748605Y-59859427D01*
X93643517Y-59910801D01*
X93560801Y-59993517D01*
X93509427Y-60098605D01*
X93509427Y-60098606D01*
X93499500Y-60166735D01*
X93499500Y-60533264D01*
X93504179Y-60565374D01*
X93509427Y-60601393D01*
X93521026Y-60625119D01*
X93526363Y-60675455D01*
X93506871Y-60709945D01*
X93051586Y-61165230D01*
X93039738Y-61174852D01*
X93027633Y-61182761D01*
X93027625Y-61182768D01*
X93007891Y-61208121D01*
X93001836Y-61214980D01*
X92999929Y-61216887D01*
X92999924Y-61216893D01*
X92988149Y-61233385D01*
X92986323Y-61235834D01*
X92955783Y-61275073D01*
X92952867Y-61280462D01*
X92952555Y-61280293D01*
X92951433Y-61282472D01*
X92951752Y-61282628D01*
X92949059Y-61288136D01*
X92934877Y-61335768D01*
X92933945Y-61338676D01*
X92917800Y-61385709D01*
X92916791Y-61391758D01*
X92916439Y-61391699D01*
X92916087Y-61394116D01*
X92916442Y-61394161D01*
X92915683Y-61400247D01*
X92917737Y-61449907D01*
X92917800Y-61452965D01*
X92917800Y-62619965D01*
X92900487Y-62667531D01*
X92899726Y-62668424D01*
X92885419Y-62684934D01*
X92885418Y-62684936D01*
X92831602Y-62802776D01*
X92813167Y-62931000D01*
X92831602Y-63059223D01*
X92831602Y-63059224D01*
X92831603Y-63059226D01*
X92885418Y-63177063D01*
X92970251Y-63274967D01*
X93079231Y-63345004D01*
X93203528Y-63381500D01*
X93333072Y-63381500D01*
X93457369Y-63345004D01*
X93566349Y-63274967D01*
X93651182Y-63177063D01*
X93704997Y-63059226D01*
X93723433Y-62931000D01*
X93704997Y-62802774D01*
X93651182Y-62684937D01*
X93651180Y-62684935D01*
X93651180Y-62684934D01*
X93636874Y-62668424D01*
X93618809Y-62621138D01*
X93618800Y-62619965D01*
X93618800Y-62525000D01*
X94520001Y-62525000D01*
X94520001Y-62624253D01*
X94526422Y-62673040D01*
X94526423Y-62673042D01*
X94576351Y-62780111D01*
X94576351Y-62780112D01*
X94659887Y-62863648D01*
X94766960Y-62913577D01*
X94766959Y-62913577D01*
X94815746Y-62919999D01*
X94864999Y-62919998D01*
X94865000Y-62919998D01*
X94865000Y-62525000D01*
X94520001Y-62525000D01*
X93618800Y-62525000D01*
X93618800Y-62275000D01*
X94520000Y-62275000D01*
X94865000Y-62275000D01*
X94865000Y-61880000D01*
X94864999Y-61879999D01*
X94815746Y-61880000D01*
X94766959Y-61886422D01*
X94766957Y-61886423D01*
X94659888Y-61936351D01*
X94659887Y-61936351D01*
X94576351Y-62019887D01*
X94526422Y-62126959D01*
X94520000Y-62175746D01*
X94520000Y-62275000D01*
X93618800Y-62275000D01*
X93618800Y-61620034D01*
X93636113Y-61572468D01*
X93640474Y-61567708D01*
X94336008Y-60872174D01*
X94381884Y-60850782D01*
X94388334Y-60850500D01*
X94908254Y-60850500D01*
X94908260Y-60850500D01*
X94976393Y-60840573D01*
X95081483Y-60789198D01*
X95084074Y-60786607D01*
X95129950Y-60765215D01*
X95178845Y-60778316D01*
X95207879Y-60819780D01*
X95210400Y-60838933D01*
X95210400Y-61806000D01*
X95193087Y-61853566D01*
X95149250Y-61878876D01*
X95136400Y-61880000D01*
X95115000Y-61880000D01*
X95115000Y-62919999D01*
X95164254Y-62919999D01*
X95213040Y-62913577D01*
X95213042Y-62913576D01*
X95320111Y-62863648D01*
X95320112Y-62863648D01*
X95403648Y-62780112D01*
X95403649Y-62780110D01*
X95432656Y-62717904D01*
X95468448Y-62682111D01*
X95518874Y-62677698D01*
X95560340Y-62706731D01*
X95566790Y-62717903D01*
X95566821Y-62717969D01*
X95595935Y-62780404D01*
X95679596Y-62864065D01*
X95786827Y-62914068D01*
X95786830Y-62914068D01*
X95792265Y-62915653D01*
X95791754Y-62917404D01*
X95829740Y-62937170D01*
X95849120Y-62983932D01*
X95833908Y-63032211D01*
X95827517Y-63039500D01*
X92439192Y-66427826D01*
X92393316Y-66449218D01*
X92386866Y-66449500D01*
X88158093Y-66449500D01*
X88110527Y-66432187D01*
X88085217Y-66388350D01*
X88094007Y-66338500D01*
X88109022Y-66320110D01*
X88207804Y-66232596D01*
X88304371Y-66092694D01*
X88364650Y-65933750D01*
X88364652Y-65933746D01*
X88379999Y-65807347D01*
X88380000Y-65807340D01*
X88380000Y-65340000D01*
X87980000Y-65340000D01*
X87980000Y-65090000D01*
X88380000Y-65090000D01*
X88380000Y-64622660D01*
X88379999Y-64622652D01*
X88364652Y-64496253D01*
X88364650Y-64496249D01*
X88304371Y-64337305D01*
X88207804Y-64197403D01*
X88080565Y-64084679D01*
X87930045Y-64005681D01*
X87805000Y-63974859D01*
X87805000Y-64388658D01*
X87708160Y-64361105D01*
X87596479Y-64371454D01*
X87555000Y-64392108D01*
X87555000Y-63974860D01*
X87554999Y-63974859D01*
X87429954Y-64005681D01*
X87279434Y-64084679D01*
X87152195Y-64197403D01*
X87055628Y-64337305D01*
X86995349Y-64496249D01*
X86995347Y-64496253D01*
X86980000Y-64622652D01*
X86980000Y-65090000D01*
X87380000Y-65090000D01*
X87380000Y-65340000D01*
X86980000Y-65340000D01*
X86980000Y-65807347D01*
X86995347Y-65933746D01*
X86995349Y-65933750D01*
X87055628Y-66092694D01*
X87152195Y-66232596D01*
X87250978Y-66320110D01*
X87275102Y-66364611D01*
X87264976Y-66414207D01*
X87225340Y-66445692D01*
X87201907Y-66449500D01*
X84574500Y-66449500D01*
X84526934Y-66432187D01*
X84501624Y-66388350D01*
X84500500Y-66375500D01*
X84500500Y-66141746D01*
X84500500Y-66141740D01*
X84490573Y-66073607D01*
X84439198Y-65968517D01*
X84356483Y-65885802D01*
X84356482Y-65885801D01*
X84251394Y-65834427D01*
X84183264Y-65824500D01*
X84183260Y-65824500D01*
X84009634Y-65824500D01*
X83962068Y-65807187D01*
X83957308Y-65802826D01*
X82803270Y-64648788D01*
X82793645Y-64636936D01*
X82785737Y-64624831D01*
X82760376Y-64605092D01*
X82753515Y-64599033D01*
X82751607Y-64597125D01*
X82751603Y-64597122D01*
X82751601Y-64597120D01*
X82735107Y-64585344D01*
X82732654Y-64583515D01*
X82693427Y-64552983D01*
X82688036Y-64550066D01*
X82688205Y-64549752D01*
X82686030Y-64548632D01*
X82685874Y-64548953D01*
X82680362Y-64546258D01*
X82632731Y-64532077D01*
X82629820Y-64531145D01*
X82582786Y-64514999D01*
X82576743Y-64513991D01*
X82576801Y-64513638D01*
X82574383Y-64513286D01*
X82574339Y-64513642D01*
X82568255Y-64512883D01*
X82568254Y-64512883D01*
X82568252Y-64512883D01*
X82518592Y-64514937D01*
X82515534Y-64515000D01*
X80110269Y-64515000D01*
X80062703Y-64497687D01*
X80037393Y-64453850D01*
X80037022Y-64430469D01*
X80044806Y-64376325D01*
X80055133Y-64304500D01*
X80036697Y-64176274D01*
X79982882Y-64058437D01*
X79898049Y-63960533D01*
X79803512Y-63899778D01*
X79789068Y-63890495D01*
X79664772Y-63854000D01*
X79535228Y-63854000D01*
X79410931Y-63890495D01*
X79301954Y-63960531D01*
X79301950Y-63960534D01*
X79217119Y-64058435D01*
X79217118Y-64058436D01*
X79217118Y-64058437D01*
X79209094Y-64076006D01*
X79163302Y-64176276D01*
X79144867Y-64304500D01*
X79162978Y-64430469D01*
X79152610Y-64480015D01*
X79112821Y-64511305D01*
X79089731Y-64515000D01*
X76891329Y-64515000D01*
X76843763Y-64497687D01*
X76818453Y-64453850D01*
X76824016Y-64410259D01*
X76828702Y-64399999D01*
X76872897Y-64303226D01*
X76891333Y-64175000D01*
X76872897Y-64046774D01*
X76819082Y-63928937D01*
X76734249Y-63831033D01*
X76635329Y-63767461D01*
X76625268Y-63760995D01*
X76500972Y-63724500D01*
X76371428Y-63724500D01*
X76247131Y-63760995D01*
X76138154Y-63831031D01*
X76138150Y-63831034D01*
X76053319Y-63928935D01*
X76053318Y-63928936D01*
X76053318Y-63928937D01*
X76043557Y-63950311D01*
X75999502Y-64046776D01*
X75981067Y-64175000D01*
X75999502Y-64303223D01*
X75999502Y-64303224D01*
X75999503Y-64303226D01*
X76043698Y-64399999D01*
X76048384Y-64410259D01*
X76052395Y-64460719D01*
X76023034Y-64501952D01*
X75981071Y-64515000D01*
X71951334Y-64515000D01*
X71903768Y-64497687D01*
X71899008Y-64493326D01*
X70851598Y-63445916D01*
X70830206Y-63400040D01*
X70843307Y-63351145D01*
X70884771Y-63322111D01*
X70913581Y-63320223D01*
X70915684Y-63320500D01*
X70915689Y-63320500D01*
X71264314Y-63320500D01*
X71264316Y-63320500D01*
X71313173Y-63314068D01*
X71420404Y-63264065D01*
X71504065Y-63180404D01*
X71504065Y-63180402D01*
X71504574Y-63179894D01*
X71550450Y-63158502D01*
X71599344Y-63171603D01*
X71628378Y-63213067D01*
X71624213Y-63262961D01*
X71571002Y-63379476D01*
X71552567Y-63507700D01*
X71571002Y-63635923D01*
X71571002Y-63635924D01*
X71571003Y-63635926D01*
X71624818Y-63753763D01*
X71709651Y-63851667D01*
X71818631Y-63921704D01*
X71942928Y-63958200D01*
X72072472Y-63958200D01*
X72196769Y-63921704D01*
X72305749Y-63851667D01*
X72390582Y-63753763D01*
X72444397Y-63635926D01*
X72462833Y-63507700D01*
X72444397Y-63379474D01*
X72428306Y-63344242D01*
X72424294Y-63293783D01*
X72443291Y-63261177D01*
X72524065Y-63180404D01*
X72574068Y-63073173D01*
X72580500Y-63024316D01*
X72580500Y-62905000D01*
X75986567Y-62905000D01*
X76005002Y-63033223D01*
X76005002Y-63033224D01*
X76005003Y-63033226D01*
X76058818Y-63151063D01*
X76143651Y-63248967D01*
X76252631Y-63319004D01*
X76376928Y-63355500D01*
X76506472Y-63355500D01*
X76630769Y-63319004D01*
X76739749Y-63248967D01*
X76824582Y-63151063D01*
X76878397Y-63033226D01*
X76896833Y-62905000D01*
X76881736Y-62800000D01*
X86385067Y-62800000D01*
X86403502Y-62928223D01*
X86403502Y-62928224D01*
X86403503Y-62928226D01*
X86457318Y-63046063D01*
X86542151Y-63143967D01*
X86651131Y-63214004D01*
X86775428Y-63250500D01*
X86904972Y-63250500D01*
X87029269Y-63214004D01*
X87138249Y-63143967D01*
X87223082Y-63046063D01*
X87276897Y-62928226D01*
X87295333Y-62800000D01*
X87276897Y-62671774D01*
X87223082Y-62553937D01*
X87138249Y-62456033D01*
X87051060Y-62400000D01*
X87029268Y-62385995D01*
X86904972Y-62349500D01*
X86775428Y-62349500D01*
X86651131Y-62385995D01*
X86542154Y-62456031D01*
X86542150Y-62456034D01*
X86457319Y-62553935D01*
X86403502Y-62671776D01*
X86385067Y-62800000D01*
X76881736Y-62800000D01*
X76878397Y-62776774D01*
X76824582Y-62658937D01*
X76739749Y-62561033D01*
X76644778Y-62499999D01*
X76630768Y-62490995D01*
X76506472Y-62454500D01*
X76376928Y-62454500D01*
X76252631Y-62490995D01*
X76143654Y-62561031D01*
X76143650Y-62561034D01*
X76058819Y-62658935D01*
X76058818Y-62658936D01*
X76058818Y-62658937D01*
X76050671Y-62676776D01*
X76005002Y-62776776D01*
X75986567Y-62905000D01*
X72580500Y-62905000D01*
X72580500Y-62575684D01*
X72574068Y-62526827D01*
X72524065Y-62419596D01*
X72440404Y-62335935D01*
X72333173Y-62285932D01*
X72333171Y-62285931D01*
X72297178Y-62281193D01*
X72284316Y-62279500D01*
X71935684Y-62279500D01*
X71924318Y-62280996D01*
X71886828Y-62285931D01*
X71779595Y-62335935D01*
X71695935Y-62419595D01*
X71667067Y-62481504D01*
X71631274Y-62517297D01*
X71580847Y-62521709D01*
X71539383Y-62492675D01*
X71532933Y-62481504D01*
X71504065Y-62419596D01*
X71420404Y-62335935D01*
X71313173Y-62285932D01*
X71313171Y-62285931D01*
X71277178Y-62281193D01*
X71264316Y-62279500D01*
X71264314Y-62279500D01*
X71162000Y-62279500D01*
X71114434Y-62262187D01*
X71089124Y-62218350D01*
X71088000Y-62205500D01*
X71088000Y-61734939D01*
X71105313Y-61687373D01*
X71149150Y-61662063D01*
X71150296Y-61661870D01*
X71162420Y-61659951D01*
X71280751Y-61599658D01*
X71374658Y-61505751D01*
X71434951Y-61387420D01*
X71450500Y-61289246D01*
X71450500Y-61125000D01*
X71750001Y-61125000D01*
X71750001Y-61289206D01*
X71765531Y-61387264D01*
X71825751Y-61505453D01*
X71919546Y-61599248D01*
X72037735Y-61659469D01*
X72135792Y-61674999D01*
X72262500Y-61674999D01*
X72262500Y-61125000D01*
X72512500Y-61125000D01*
X72512500Y-61674999D01*
X72639207Y-61674999D01*
X72737264Y-61659468D01*
X72855453Y-61599248D01*
X72949248Y-61505453D01*
X73009468Y-61387264D01*
X73025000Y-61289207D01*
X73025000Y-61125000D01*
X72512500Y-61125000D01*
X72262500Y-61125000D01*
X71750001Y-61125000D01*
X71450500Y-61125000D01*
X71450500Y-60875000D01*
X71750000Y-60875000D01*
X72262500Y-60875000D01*
X72262500Y-60325000D01*
X72512500Y-60325000D01*
X72512500Y-60875000D01*
X73024999Y-60875000D01*
X73024999Y-60710793D01*
X73009468Y-60612735D01*
X72949248Y-60494546D01*
X72855453Y-60400751D01*
X72785287Y-60365000D01*
X79555467Y-60365000D01*
X79573902Y-60493223D01*
X79573902Y-60493224D01*
X79573903Y-60493226D01*
X79627718Y-60611063D01*
X79712551Y-60708967D01*
X79821531Y-60779004D01*
X79945828Y-60815500D01*
X80075372Y-60815500D01*
X80199669Y-60779004D01*
X80308649Y-60708967D01*
X80393482Y-60611063D01*
X80447297Y-60493226D01*
X80465733Y-60365000D01*
X80447297Y-60236774D01*
X80393482Y-60118937D01*
X80308649Y-60021033D01*
X80234011Y-59973066D01*
X80199668Y-59950995D01*
X80075372Y-59914500D01*
X79945828Y-59914500D01*
X79821531Y-59950995D01*
X79712554Y-60021031D01*
X79712550Y-60021034D01*
X79627719Y-60118935D01*
X79573902Y-60236776D01*
X79555467Y-60365000D01*
X72785287Y-60365000D01*
X72737264Y-60340531D01*
X72639208Y-60325000D01*
X72512500Y-60325000D01*
X72262500Y-60325000D01*
X72135793Y-60325000D01*
X72037735Y-60340531D01*
X71919546Y-60400751D01*
X71825751Y-60494546D01*
X71765531Y-60612735D01*
X71750000Y-60710792D01*
X71750000Y-60875000D01*
X71450500Y-60875000D01*
X71450500Y-60710754D01*
X71434951Y-60612580D01*
X71394467Y-60533126D01*
X71374659Y-60494250D01*
X71280749Y-60400340D01*
X71162420Y-60340049D01*
X71162420Y-60340048D01*
X71064247Y-60324500D01*
X71064246Y-60324500D01*
X70560754Y-60324500D01*
X70560753Y-60324500D01*
X70462579Y-60340048D01*
X70462579Y-60340049D01*
X70344250Y-60400340D01*
X70250340Y-60494250D01*
X70190049Y-60612579D01*
X70190048Y-60612579D01*
X70174500Y-60710753D01*
X70174500Y-61289246D01*
X70190049Y-61387420D01*
X70250340Y-61505749D01*
X70250342Y-61505751D01*
X70344249Y-61599658D01*
X70462580Y-61659951D01*
X70474575Y-61661850D01*
X70518846Y-61686388D01*
X70536989Y-61733643D01*
X70537000Y-61734939D01*
X70537000Y-62488079D01*
X70535578Y-62502515D01*
X70531603Y-62522500D01*
X70537000Y-62549632D01*
X70537000Y-62549633D01*
X70552985Y-62629995D01*
X70589696Y-62684937D01*
X70607028Y-62710875D01*
X70619500Y-62751988D01*
X70619500Y-63024320D01*
X70619777Y-63026427D01*
X70608814Y-63075845D01*
X70568650Y-63106653D01*
X70518080Y-63104438D01*
X70494083Y-63088401D01*
X68402174Y-60996492D01*
X68380782Y-60950616D01*
X68380500Y-60944166D01*
X68380500Y-60775685D01*
X68374068Y-60726828D01*
X68371681Y-60721709D01*
X68324065Y-60619596D01*
X68240404Y-60535935D01*
X68133173Y-60485932D01*
X68133171Y-60485931D01*
X68097178Y-60481193D01*
X68084316Y-60479500D01*
X67735684Y-60479500D01*
X67724318Y-60480996D01*
X67686828Y-60485931D01*
X67579595Y-60535935D01*
X67495935Y-60619595D01*
X67495935Y-60619596D01*
X67469888Y-60675455D01*
X67467067Y-60681504D01*
X67431274Y-60717297D01*
X67380847Y-60721709D01*
X67339383Y-60692675D01*
X67332933Y-60681504D01*
X67304065Y-60619596D01*
X67220404Y-60535935D01*
X67113173Y-60485932D01*
X67113171Y-60485931D01*
X67077178Y-60481193D01*
X67064316Y-60479500D01*
X66715684Y-60479500D01*
X66704318Y-60480996D01*
X66666828Y-60485931D01*
X66559595Y-60535935D01*
X66475935Y-60619595D01*
X66425931Y-60726828D01*
X66419500Y-60775685D01*
X66419500Y-60786623D01*
X66402187Y-60834189D01*
X66397826Y-60838949D01*
X66136776Y-61099999D01*
X66136776Y-61100000D01*
X66420136Y-61383360D01*
X66660000Y-61623223D01*
X66784450Y-61747673D01*
X66805842Y-61793549D01*
X66792741Y-61842444D01*
X66784450Y-61852325D01*
X66420135Y-62216639D01*
X66364430Y-62272346D01*
X66136776Y-62500000D01*
X66420136Y-62783360D01*
X66660000Y-63023223D01*
X66784450Y-63147673D01*
X66805842Y-63193549D01*
X66792741Y-63242444D01*
X66784450Y-63252325D01*
X66420135Y-63616639D01*
X66364430Y-63672346D01*
X66136776Y-63900000D01*
X66392765Y-64155989D01*
X66430859Y-64149117D01*
X66431322Y-64151683D01*
X66463341Y-64148621D01*
X66497094Y-64167926D01*
X66581975Y-64252807D01*
X66690646Y-64303481D01*
X66690645Y-64303481D01*
X66740162Y-64310000D01*
X66795000Y-64310000D01*
X66795000Y-63749000D01*
X66812313Y-63701434D01*
X66856150Y-63676124D01*
X66869000Y-63675000D01*
X66971000Y-63675000D01*
X67018566Y-63692313D01*
X67043876Y-63736150D01*
X67045000Y-63749000D01*
X67045000Y-64310000D01*
X67099838Y-64310000D01*
X67149354Y-64303481D01*
X67258024Y-64252807D01*
X67347359Y-64163472D01*
X67393235Y-64142080D01*
X67442129Y-64155181D01*
X67451451Y-64164484D01*
X67452198Y-64163738D01*
X67456776Y-64168316D01*
X67541684Y-64253224D01*
X67561773Y-64262591D01*
X67597566Y-64298382D01*
X67604500Y-64329658D01*
X67604500Y-64533932D01*
X67587187Y-64581498D01*
X67582826Y-64586258D01*
X66419858Y-65749226D01*
X66373982Y-65770618D01*
X66367532Y-65770900D01*
X66148270Y-65770900D01*
X66100704Y-65753587D01*
X66092344Y-65745359D01*
X66055152Y-65702436D01*
X66055150Y-65702435D01*
X66055149Y-65702433D01*
X65976944Y-65652174D01*
X65946168Y-65632395D01*
X65821872Y-65595900D01*
X65692328Y-65595900D01*
X65568031Y-65632395D01*
X65459054Y-65702431D01*
X65459050Y-65702434D01*
X65374219Y-65800335D01*
X65374218Y-65800336D01*
X65374218Y-65800337D01*
X65360387Y-65830623D01*
X65320402Y-65918176D01*
X65301967Y-66046400D01*
X65320402Y-66174623D01*
X65320402Y-66174624D01*
X65320403Y-66174626D01*
X65374218Y-66292463D01*
X65459051Y-66390367D01*
X65568031Y-66460404D01*
X65692328Y-66496900D01*
X65821872Y-66496900D01*
X65946169Y-66460404D01*
X66055149Y-66390367D01*
X66092344Y-66347441D01*
X66136577Y-66322830D01*
X66148270Y-66321900D01*
X66477880Y-66321900D01*
X66492316Y-66323321D01*
X66512300Y-66327297D01*
X66512301Y-66327297D01*
X66516922Y-66326377D01*
X66539432Y-66321900D01*
X66539433Y-66321900D01*
X66619795Y-66305915D01*
X66661765Y-66277871D01*
X66687922Y-66260394D01*
X66687923Y-66260392D01*
X66710924Y-66245024D01*
X66722248Y-66228074D01*
X66731441Y-66216873D01*
X68050472Y-64897842D01*
X68061676Y-64888647D01*
X68078624Y-64877324D01*
X68103898Y-64839500D01*
X68109395Y-64831274D01*
X68130624Y-64799501D01*
X68130625Y-64799501D01*
X68130625Y-64799498D01*
X68139515Y-64786195D01*
X68155500Y-64705833D01*
X68155500Y-64705832D01*
X68160897Y-64678700D01*
X68156922Y-64658715D01*
X68155500Y-64644279D01*
X68155500Y-64329658D01*
X68172813Y-64282092D01*
X68198224Y-64262592D01*
X68218316Y-64253224D01*
X68303224Y-64168316D01*
X68353972Y-64059487D01*
X68360500Y-64009901D01*
X68360499Y-63590100D01*
X68353972Y-63540513D01*
X68303224Y-63431684D01*
X68218316Y-63346776D01*
X68217056Y-63345894D01*
X68216173Y-63344633D01*
X68213738Y-63342198D01*
X68214167Y-63341768D01*
X68188022Y-63304430D01*
X68185500Y-63285276D01*
X68185500Y-62936810D01*
X68202813Y-62889244D01*
X68228225Y-62869743D01*
X68240404Y-62864065D01*
X68324065Y-62780404D01*
X68374068Y-62673173D01*
X68380500Y-62624316D01*
X68380500Y-62175684D01*
X68377191Y-62150550D01*
X68388147Y-62101132D01*
X68428306Y-62070317D01*
X68478877Y-62072525D01*
X68502884Y-62088566D01*
X71496530Y-65082212D01*
X71506152Y-65094061D01*
X71514063Y-65106169D01*
X71539415Y-65125901D01*
X71546289Y-65131971D01*
X71548194Y-65133876D01*
X71564709Y-65145667D01*
X71567130Y-65147473D01*
X71582090Y-65159116D01*
X71606374Y-65178017D01*
X71606378Y-65178018D01*
X71611766Y-65180934D01*
X71611595Y-65181250D01*
X71613765Y-65182367D01*
X71613923Y-65182046D01*
X71619432Y-65184739D01*
X71619433Y-65184739D01*
X71619434Y-65184740D01*
X71667105Y-65198932D01*
X71669999Y-65199860D01*
X71717012Y-65216000D01*
X71717014Y-65216000D01*
X71723062Y-65217010D01*
X71723003Y-65217362D01*
X71725418Y-65217714D01*
X71725463Y-65217359D01*
X71731540Y-65218116D01*
X71731547Y-65218118D01*
X71778761Y-65216165D01*
X71781234Y-65216063D01*
X71784291Y-65216000D01*
X77490622Y-65216000D01*
X77538188Y-65233313D01*
X77563498Y-65277150D01*
X77563869Y-65300531D01*
X77544967Y-65431999D01*
X77563402Y-65560223D01*
X77563402Y-65560224D01*
X77563403Y-65560226D01*
X77617218Y-65678063D01*
X77702051Y-65775967D01*
X77811031Y-65846004D01*
X77935328Y-65882500D01*
X78064872Y-65882500D01*
X78189169Y-65846004D01*
X78298149Y-65775967D01*
X78382982Y-65678063D01*
X78436797Y-65560226D01*
X78455233Y-65432000D01*
X78440863Y-65332056D01*
X78436331Y-65300531D01*
X78446698Y-65250985D01*
X78486488Y-65219695D01*
X78509578Y-65216000D01*
X82348466Y-65216000D01*
X82396032Y-65233313D01*
X82400792Y-65237674D01*
X82862106Y-65698988D01*
X82883498Y-65744864D01*
X82870397Y-65793759D01*
X82828933Y-65822793D01*
X82819400Y-65824401D01*
X82819432Y-65824615D01*
X82748749Y-65834912D01*
X82643811Y-65886213D01*
X82561214Y-65968810D01*
X82509912Y-66073750D01*
X82500000Y-66141776D01*
X82500000Y-66675000D01*
X83051000Y-66675000D01*
X83098566Y-66692313D01*
X83123876Y-66736150D01*
X83125000Y-66749000D01*
X83125000Y-67774999D01*
X83183211Y-67774999D01*
X83183224Y-67774998D01*
X83251250Y-67765087D01*
X83356188Y-67713786D01*
X83438783Y-67631191D01*
X83439460Y-67630244D01*
X83440325Y-67629649D01*
X83443122Y-67626853D01*
X83443641Y-67627372D01*
X83481187Y-67601588D01*
X83531572Y-67606459D01*
X83556357Y-67627255D01*
X83556466Y-67627147D01*
X83557710Y-67628391D01*
X83559917Y-67630243D01*
X83560802Y-67631483D01*
X83643517Y-67714198D01*
X83748607Y-67765573D01*
X83816740Y-67775500D01*
X83816746Y-67775500D01*
X84183254Y-67775500D01*
X84183260Y-67775500D01*
X84251393Y-67765573D01*
X84356483Y-67714198D01*
X84439198Y-67631483D01*
X84490573Y-67526393D01*
X84500500Y-67458260D01*
X84500500Y-67224500D01*
X84517813Y-67176934D01*
X84561650Y-67151624D01*
X84574500Y-67150500D01*
X92518675Y-67150500D01*
X92533859Y-67152074D01*
X92548015Y-67155043D01*
X92578219Y-67151277D01*
X92579903Y-67151068D01*
X92589056Y-67150500D01*
X92591734Y-67150500D01*
X92591740Y-67150500D01*
X92611769Y-67147157D01*
X92614727Y-67146726D01*
X92664093Y-67140573D01*
X92664099Y-67140569D01*
X92669968Y-67138823D01*
X92670071Y-67139170D01*
X92672396Y-67138425D01*
X92672279Y-67138084D01*
X92678077Y-67136093D01*
X92678077Y-67136092D01*
X92678081Y-67136092D01*
X92721843Y-67112407D01*
X92724504Y-67111039D01*
X92769184Y-67089198D01*
X92774176Y-67085634D01*
X92774384Y-67085926D01*
X92776340Y-67084468D01*
X92776119Y-67084184D01*
X92780958Y-67080418D01*
X92789023Y-67071657D01*
X92814638Y-67043830D01*
X92816708Y-67041672D01*
X94293769Y-65564611D01*
X94339644Y-65543220D01*
X94388539Y-65556321D01*
X94417573Y-65597785D01*
X94417098Y-65637783D01*
X94414500Y-65646632D01*
X94414500Y-65783369D01*
X94453021Y-65914560D01*
X94453022Y-65914561D01*
X94465354Y-65933750D01*
X94522161Y-66022146D01*
X94526945Y-66029589D01*
X94630282Y-66119130D01*
X94754658Y-66175931D01*
X94855989Y-66190500D01*
X94855995Y-66190500D01*
X94924005Y-66190500D01*
X94924011Y-66190500D01*
X95025342Y-66175931D01*
X95149718Y-66119130D01*
X95253055Y-66029589D01*
X95326978Y-65914561D01*
X95350365Y-65834912D01*
X95365500Y-65783369D01*
X95365500Y-65646630D01*
X95326978Y-65515439D01*
X95253055Y-65400411D01*
X95149718Y-65310870D01*
X95025342Y-65254069D01*
X95025340Y-65254068D01*
X95025339Y-65254068D01*
X94924015Y-65239500D01*
X94924011Y-65239500D01*
X94855989Y-65239500D01*
X94855982Y-65239500D01*
X94799136Y-65247673D01*
X94749590Y-65237305D01*
X94718300Y-65197515D01*
X94719907Y-65146922D01*
X94736278Y-65122102D01*
X95558514Y-64299866D01*
X95604389Y-64278475D01*
X95653284Y-64291576D01*
X95682318Y-64333040D01*
X95680030Y-64378434D01*
X95635349Y-64496249D01*
X95635347Y-64496253D01*
X95620000Y-64622652D01*
X95620000Y-65090000D01*
X96020000Y-65090000D01*
X96020000Y-65340000D01*
X95620000Y-65340000D01*
X95620000Y-65807347D01*
X95635347Y-65933746D01*
X95635349Y-65933750D01*
X95695628Y-66092694D01*
X95792195Y-66232596D01*
X95919434Y-66345320D01*
X96069954Y-66424318D01*
X96194999Y-66455138D01*
X96195000Y-66455138D01*
X96195000Y-66041341D01*
X96291840Y-66068895D01*
X96403521Y-66058546D01*
X96445000Y-66037891D01*
X96445000Y-66455138D01*
X96570045Y-66424318D01*
X96720565Y-66345320D01*
X96847804Y-66232596D01*
X96944371Y-66092694D01*
X97004650Y-65933750D01*
X97004652Y-65933746D01*
X97019999Y-65807347D01*
X97020000Y-65807340D01*
X97020000Y-65340000D01*
X96620000Y-65340000D01*
X96620000Y-65090000D01*
X97020000Y-65090000D01*
X97020000Y-64622660D01*
X97019999Y-64622652D01*
X97004652Y-64496253D01*
X97004650Y-64496249D01*
X96944371Y-64337305D01*
X96847804Y-64197403D01*
X96720565Y-64084679D01*
X96570045Y-64005681D01*
X96445000Y-63974859D01*
X96445000Y-64388658D01*
X96348160Y-64361105D01*
X96236479Y-64371454D01*
X96195000Y-64392108D01*
X96195000Y-63974860D01*
X96194999Y-63974859D01*
X96069954Y-64005681D01*
X96069950Y-64005683D01*
X96043246Y-64019698D01*
X95993082Y-64026473D01*
X95950300Y-63999418D01*
X95934918Y-63951193D01*
X95954133Y-63904363D01*
X95956511Y-63901869D01*
X96854215Y-63004165D01*
X96866061Y-62994546D01*
X96878169Y-62986637D01*
X96897908Y-62961275D01*
X96903967Y-62954413D01*
X96905875Y-62952507D01*
X96917675Y-62935979D01*
X96919455Y-62933591D01*
X96950017Y-62894326D01*
X96950017Y-62894323D01*
X96950019Y-62894322D01*
X96952935Y-62888933D01*
X96953253Y-62889105D01*
X96954369Y-62886938D01*
X96954044Y-62886779D01*
X96956737Y-62881270D01*
X96956737Y-62881269D01*
X96956739Y-62881267D01*
X96970931Y-62833594D01*
X96971850Y-62830728D01*
X96988000Y-62783688D01*
X96988000Y-62783685D01*
X96989010Y-62777638D01*
X96989362Y-62777696D01*
X96989714Y-62775285D01*
X96989358Y-62775241D01*
X96990115Y-62769159D01*
X96990117Y-62769154D01*
X96988161Y-62721875D01*
X96988063Y-62719491D01*
X96988000Y-62716434D01*
X96988000Y-60924500D01*
X97005313Y-60876934D01*
X97049150Y-60851624D01*
X97062000Y-60850500D01*
X97183254Y-60850500D01*
X97183260Y-60850500D01*
X97251393Y-60840573D01*
X97356483Y-60789198D01*
X97423507Y-60722174D01*
X97469383Y-60700782D01*
X97475833Y-60700500D01*
X98618100Y-60700500D01*
X98665666Y-60717813D01*
X98670426Y-60722174D01*
X98696780Y-60748528D01*
X98816874Y-60809719D01*
X98916511Y-60825500D01*
X98916512Y-60825500D01*
X99483489Y-60825500D01*
X99546626Y-60815500D01*
X99583126Y-60809719D01*
X99703220Y-60748528D01*
X99798528Y-60653220D01*
X99859719Y-60533126D01*
X99875500Y-60433488D01*
X99875500Y-59916512D01*
X99874595Y-59910801D01*
X99859719Y-59816874D01*
X99859718Y-59816873D01*
X99850422Y-59798629D01*
X99798528Y-59696780D01*
X99703220Y-59601472D01*
X99703219Y-59601471D01*
X99583126Y-59540281D01*
X99583125Y-59540280D01*
X99483489Y-59524500D01*
X99483488Y-59524500D01*
X98916512Y-59524500D01*
X98916511Y-59524500D01*
X98816874Y-59540280D01*
X98816873Y-59540281D01*
X98696780Y-59601471D01*
X98601471Y-59696780D01*
X98540281Y-59816873D01*
X98540280Y-59816874D01*
X98524500Y-59916511D01*
X98524500Y-59925500D01*
X98507187Y-59973066D01*
X98463350Y-59998376D01*
X98450500Y-59999500D01*
X97475833Y-59999500D01*
X97428267Y-59982187D01*
X97423507Y-59977826D01*
X97372654Y-59926973D01*
X97351262Y-59881097D01*
X97364363Y-59832202D01*
X97372654Y-59822321D01*
X97438785Y-59756189D01*
X97490087Y-59651249D01*
X97499999Y-59583223D01*
X97500000Y-59583212D01*
X97500000Y-59525000D01*
X96586500Y-59525000D01*
X96538934Y-59507687D01*
X96513624Y-59463850D01*
X96512500Y-59451000D01*
X96512500Y-59349000D01*
X96529813Y-59301434D01*
X96573650Y-59276124D01*
X96586500Y-59275000D01*
X97499999Y-59275000D01*
X97499999Y-59216789D01*
X97499998Y-59216775D01*
X97490087Y-59148749D01*
X97438786Y-59043811D01*
X97372654Y-58977679D01*
X97351262Y-58931803D01*
X97364363Y-58882908D01*
X97372654Y-58873027D01*
X97400746Y-58844935D01*
X97439198Y-58806483D01*
X97466811Y-58750000D01*
X98525001Y-58750000D01*
X98525001Y-58883451D01*
X98540761Y-58982969D01*
X98540762Y-58982971D01*
X98601882Y-59102923D01*
X98697078Y-59198119D01*
X98817030Y-59259237D01*
X98817031Y-59259238D01*
X98916548Y-59274999D01*
X99075000Y-59274999D01*
X99075000Y-58750000D01*
X99325000Y-58750000D01*
X99325000Y-59274999D01*
X99483451Y-59274999D01*
X99582969Y-59259238D01*
X99582971Y-59259237D01*
X99702923Y-59198117D01*
X99798119Y-59102921D01*
X99859237Y-58982969D01*
X99859238Y-58982968D01*
X99875000Y-58883451D01*
X99875000Y-58750000D01*
X99325000Y-58750000D01*
X99075000Y-58750000D01*
X98525001Y-58750000D01*
X97466811Y-58750000D01*
X97490573Y-58701393D01*
X97500500Y-58633260D01*
X97500500Y-58500000D01*
X98525000Y-58500000D01*
X99075000Y-58500000D01*
X99075000Y-57975000D01*
X99325000Y-57975000D01*
X99325000Y-58500000D01*
X99874999Y-58500000D01*
X99874999Y-58366548D01*
X99859238Y-58267030D01*
X99859237Y-58267028D01*
X99798117Y-58147076D01*
X99702921Y-58051880D01*
X99582969Y-57990762D01*
X99582968Y-57990761D01*
X99483452Y-57975000D01*
X99325000Y-57975000D01*
X99075000Y-57975000D01*
X98916548Y-57975000D01*
X98817030Y-57990761D01*
X98817028Y-57990762D01*
X98697076Y-58051882D01*
X98601880Y-58147078D01*
X98540762Y-58267030D01*
X98540761Y-58267031D01*
X98525000Y-58366548D01*
X98525000Y-58500000D01*
X97500500Y-58500000D01*
X97500500Y-58266740D01*
X97490573Y-58198607D01*
X97439198Y-58093517D01*
X97356483Y-58010802D01*
X97356482Y-58010801D01*
X97251394Y-57959427D01*
X97183264Y-57949500D01*
X97183260Y-57949500D01*
X96710317Y-57949500D01*
X96662751Y-57932187D01*
X96637441Y-57888350D01*
X96637070Y-57864969D01*
X96641477Y-57834310D01*
X96652133Y-57760200D01*
X96633697Y-57631974D01*
X96579882Y-57514137D01*
X96495049Y-57416233D01*
X96401480Y-57356100D01*
X96386068Y-57346195D01*
X96261772Y-57309700D01*
X96132228Y-57309700D01*
X96007931Y-57346195D01*
X95898954Y-57416231D01*
X95898950Y-57416234D01*
X95814119Y-57514135D01*
X95814118Y-57514136D01*
X95814118Y-57514137D01*
X95802793Y-57538935D01*
X95760302Y-57631976D01*
X95741867Y-57760200D01*
X95748752Y-57808089D01*
X95738384Y-57857635D01*
X95698595Y-57888925D01*
X95648001Y-57887319D01*
X95625388Y-57873065D01*
X95612132Y-57860862D01*
X95609949Y-57858767D01*
X94526082Y-56774900D01*
X97325567Y-56774900D01*
X97344002Y-56903123D01*
X97344002Y-56903124D01*
X97344003Y-56903126D01*
X97397818Y-57020963D01*
X97482651Y-57118867D01*
X97591631Y-57188904D01*
X97715928Y-57225400D01*
X97845472Y-57225400D01*
X97969769Y-57188904D01*
X98078749Y-57118867D01*
X98163582Y-57020963D01*
X98217397Y-56903126D01*
X98235833Y-56774900D01*
X98217397Y-56646674D01*
X98163582Y-56528837D01*
X98078749Y-56430933D01*
X97978939Y-56366789D01*
X97969768Y-56360895D01*
X97845472Y-56324400D01*
X97715928Y-56324400D01*
X97591631Y-56360895D01*
X97482654Y-56430931D01*
X97482650Y-56430934D01*
X97397819Y-56528835D01*
X97397818Y-56528836D01*
X97397818Y-56528837D01*
X97388122Y-56550068D01*
X97344002Y-56646676D01*
X97325567Y-56774900D01*
X94526082Y-56774900D01*
X93957282Y-56206100D01*
X100682367Y-56206100D01*
X100700802Y-56334323D01*
X100700802Y-56334324D01*
X100700803Y-56334326D01*
X100754618Y-56452163D01*
X100839451Y-56550067D01*
X100948431Y-56620104D01*
X101072728Y-56656600D01*
X101202272Y-56656600D01*
X101326569Y-56620104D01*
X101435549Y-56550067D01*
X101520382Y-56452163D01*
X101574197Y-56334326D01*
X101592633Y-56206100D01*
X101574197Y-56077874D01*
X101520382Y-55960037D01*
X101435549Y-55862133D01*
X101368532Y-55819064D01*
X101326568Y-55792095D01*
X101202272Y-55755600D01*
X101072728Y-55755600D01*
X100948431Y-55792095D01*
X100839454Y-55862131D01*
X100839450Y-55862134D01*
X100754619Y-55960035D01*
X100700802Y-56077876D01*
X100682367Y-56206100D01*
X93957282Y-56206100D01*
X93396532Y-55645350D01*
X93375140Y-55599474D01*
X93375531Y-55585949D01*
X93375306Y-55585933D01*
X93375500Y-55583255D01*
X93375500Y-55539900D01*
X144760867Y-55539900D01*
X144779302Y-55668123D01*
X144779302Y-55668124D01*
X144779303Y-55668126D01*
X144833118Y-55785963D01*
X144917951Y-55883867D01*
X145026931Y-55953904D01*
X145151228Y-55990400D01*
X145280772Y-55990400D01*
X145405069Y-55953904D01*
X145514049Y-55883867D01*
X145598882Y-55785963D01*
X145652697Y-55668126D01*
X145671133Y-55539900D01*
X145652697Y-55411674D01*
X145631381Y-55365000D01*
X149180373Y-55365000D01*
X149198788Y-55493079D01*
X149198788Y-55493082D01*
X149239967Y-55583253D01*
X149425729Y-55397492D01*
X149535000Y-55397492D01*
X149573197Y-55450065D01*
X149619162Y-55465000D01*
X149650838Y-55465000D01*
X149696803Y-55450065D01*
X149735000Y-55397492D01*
X149735000Y-55332508D01*
X149696803Y-55279935D01*
X149650838Y-55265000D01*
X149619162Y-55265000D01*
X149573197Y-55279935D01*
X149535000Y-55332508D01*
X149535000Y-55397492D01*
X149425729Y-55397492D01*
X149458222Y-55364999D01*
X149239968Y-55146745D01*
X149239967Y-55146745D01*
X149198790Y-55236913D01*
X149198788Y-55236918D01*
X149180373Y-55365000D01*
X145631381Y-55365000D01*
X145598882Y-55293837D01*
X145514049Y-55195933D01*
X145437511Y-55146745D01*
X145405068Y-55125895D01*
X145280772Y-55089400D01*
X145151228Y-55089400D01*
X145026931Y-55125895D01*
X144917954Y-55195931D01*
X144917950Y-55195934D01*
X144833119Y-55293835D01*
X144833118Y-55293836D01*
X144833118Y-55293837D01*
X144818856Y-55325067D01*
X144779302Y-55411676D01*
X144760867Y-55539900D01*
X93375500Y-55539900D01*
X93375500Y-55216746D01*
X93375500Y-55216740D01*
X93365573Y-55148607D01*
X93314198Y-55043517D01*
X93231483Y-54960802D01*
X93231482Y-54960801D01*
X93126394Y-54909427D01*
X93058264Y-54899500D01*
X93058260Y-54899500D01*
X92748937Y-54899500D01*
X92701371Y-54882187D01*
X92676061Y-54838350D01*
X92681623Y-54794761D01*
X92724797Y-54700226D01*
X92743233Y-54572000D01*
X92724797Y-54443774D01*
X92670982Y-54325937D01*
X92586149Y-54228033D01*
X92488027Y-54164974D01*
X92477168Y-54157995D01*
X92352872Y-54121500D01*
X92223328Y-54121500D01*
X92223327Y-54121500D01*
X92181547Y-54133767D01*
X92131030Y-54130556D01*
X92094396Y-54095624D01*
X92086700Y-54062764D01*
X92086700Y-52789633D01*
X92104013Y-52742067D01*
X92108363Y-52737318D01*
X92561380Y-52284300D01*
X100682367Y-52284300D01*
X100700802Y-52412523D01*
X100700802Y-52412524D01*
X100700803Y-52412526D01*
X100754618Y-52530363D01*
X100839451Y-52628267D01*
X100948431Y-52698304D01*
X101072728Y-52734800D01*
X101202272Y-52734800D01*
X101326569Y-52698304D01*
X101435549Y-52628267D01*
X101520382Y-52530363D01*
X101574197Y-52412526D01*
X101592633Y-52284300D01*
X101574197Y-52156074D01*
X101520382Y-52038237D01*
X101435549Y-51940333D01*
X101368532Y-51897264D01*
X101326568Y-51870295D01*
X101202272Y-51833800D01*
X101072728Y-51833800D01*
X100948431Y-51870295D01*
X100839454Y-51940331D01*
X100839450Y-51940334D01*
X100754619Y-52038235D01*
X100754618Y-52038236D01*
X100754618Y-52038237D01*
X100739305Y-52071767D01*
X100700802Y-52156076D01*
X100682367Y-52284300D01*
X92561380Y-52284300D01*
X92598508Y-52247172D01*
X92644384Y-52225781D01*
X92650834Y-52225499D01*
X92774178Y-52225499D01*
X92819760Y-52219499D01*
X92919799Y-52172850D01*
X92997850Y-52094799D01*
X93044499Y-51994760D01*
X93050500Y-51949179D01*
X93050499Y-51653299D01*
X93067812Y-51605734D01*
X93111649Y-51580424D01*
X93124499Y-51579300D01*
X101666366Y-51579300D01*
X101713932Y-51596613D01*
X101718692Y-51600974D01*
X104965930Y-54848212D01*
X104975552Y-54860061D01*
X104983463Y-54872169D01*
X105005342Y-54889198D01*
X105008815Y-54891901D01*
X105015689Y-54897971D01*
X105017593Y-54899875D01*
X105034109Y-54911667D01*
X105036516Y-54913461D01*
X105075774Y-54944017D01*
X105075776Y-54944017D01*
X105081166Y-54946934D01*
X105080994Y-54947250D01*
X105083169Y-54948369D01*
X105083327Y-54948047D01*
X105088831Y-54950738D01*
X105088832Y-54950738D01*
X105088833Y-54950739D01*
X105136500Y-54964930D01*
X105139374Y-54965851D01*
X105186412Y-54982000D01*
X105186414Y-54982000D01*
X105192462Y-54983010D01*
X105192403Y-54983361D01*
X105194816Y-54983713D01*
X105194861Y-54983358D01*
X105200939Y-54984115D01*
X105200946Y-54984117D01*
X105250608Y-54982063D01*
X105253666Y-54982000D01*
X109494189Y-54982000D01*
X109534194Y-54993746D01*
X109614731Y-55045504D01*
X109739028Y-55082000D01*
X109868572Y-55082000D01*
X109992869Y-55045504D01*
X110063675Y-55000000D01*
X149446777Y-55000000D01*
X150000000Y-55553223D01*
X150155731Y-55397492D01*
X150265000Y-55397492D01*
X150303197Y-55450065D01*
X150349162Y-55465000D01*
X150380838Y-55465000D01*
X150426803Y-55450065D01*
X150465000Y-55397492D01*
X150465000Y-55365000D01*
X150541777Y-55365000D01*
X150760030Y-55583253D01*
X150801211Y-55493080D01*
X150819626Y-55365000D01*
X150801211Y-55236920D01*
X150801211Y-55236918D01*
X150760031Y-55146745D01*
X150541777Y-55364999D01*
X150541777Y-55365000D01*
X150465000Y-55365000D01*
X150465000Y-55332508D01*
X150426803Y-55279935D01*
X150380838Y-55265000D01*
X150349162Y-55265000D01*
X150303197Y-55279935D01*
X150265000Y-55332508D01*
X150265000Y-55397492D01*
X150155731Y-55397492D01*
X150553223Y-55000000D01*
X150220715Y-54667492D01*
X150265000Y-54667492D01*
X150303197Y-54720065D01*
X150349162Y-54735000D01*
X150380838Y-54735000D01*
X150426803Y-54720065D01*
X150465000Y-54667492D01*
X150465000Y-54635000D01*
X150541777Y-54635000D01*
X150760030Y-54853253D01*
X150801211Y-54763080D01*
X150819626Y-54635000D01*
X150801211Y-54506920D01*
X150801211Y-54506918D01*
X150760031Y-54416745D01*
X150541777Y-54634999D01*
X150541777Y-54635000D01*
X150465000Y-54635000D01*
X150465000Y-54602508D01*
X150426803Y-54549935D01*
X150380838Y-54535000D01*
X150349162Y-54535000D01*
X150303197Y-54549935D01*
X150265000Y-54602508D01*
X150265000Y-54667492D01*
X150220715Y-54667492D01*
X150000000Y-54446777D01*
X149446777Y-55000000D01*
X110063675Y-55000000D01*
X110101849Y-54975467D01*
X110186682Y-54877563D01*
X110240497Y-54759726D01*
X110258430Y-54635000D01*
X149180373Y-54635000D01*
X149198788Y-54763079D01*
X149198788Y-54763082D01*
X149239967Y-54853253D01*
X149425729Y-54667492D01*
X149535000Y-54667492D01*
X149573197Y-54720065D01*
X149619162Y-54735000D01*
X149650838Y-54735000D01*
X149696803Y-54720065D01*
X149735000Y-54667492D01*
X149735000Y-54602508D01*
X149696803Y-54549935D01*
X149650838Y-54535000D01*
X149619162Y-54535000D01*
X149573197Y-54549935D01*
X149535000Y-54602508D01*
X149535000Y-54667492D01*
X149425729Y-54667492D01*
X149458222Y-54634999D01*
X149239968Y-54416745D01*
X149239967Y-54416745D01*
X149198790Y-54506913D01*
X149198788Y-54506918D01*
X149180373Y-54635000D01*
X110258430Y-54635000D01*
X110258933Y-54631500D01*
X110240497Y-54503274D01*
X110186682Y-54385437D01*
X110101849Y-54287533D01*
X110028196Y-54240199D01*
X149416976Y-54240199D01*
X149634999Y-54458222D01*
X149853023Y-54240199D01*
X150146976Y-54240199D01*
X150364999Y-54458222D01*
X150583022Y-54240199D01*
X150553858Y-54221457D01*
X150553854Y-54221455D01*
X150429702Y-54185000D01*
X150300298Y-54185000D01*
X150176140Y-54221457D01*
X150146976Y-54240199D01*
X149853023Y-54240199D01*
X149823858Y-54221457D01*
X149823854Y-54221455D01*
X149699702Y-54185000D01*
X149570298Y-54185000D01*
X149446140Y-54221457D01*
X149416976Y-54240199D01*
X110028196Y-54240199D01*
X110024930Y-54238100D01*
X109992868Y-54217495D01*
X109868572Y-54181000D01*
X109739028Y-54181000D01*
X109614733Y-54217495D01*
X109614731Y-54217495D01*
X109614731Y-54217496D01*
X109534194Y-54269253D01*
X109494189Y-54281000D01*
X105420734Y-54281000D01*
X105373168Y-54263687D01*
X105368408Y-54259326D01*
X104671582Y-53562500D01*
X148265267Y-53562500D01*
X148283702Y-53690723D01*
X148283702Y-53690724D01*
X148283703Y-53690726D01*
X148337518Y-53808563D01*
X148422351Y-53906467D01*
X148531331Y-53976504D01*
X148655628Y-54013000D01*
X148785172Y-54013000D01*
X148909469Y-53976504D01*
X149018449Y-53906467D01*
X149103282Y-53808563D01*
X149157097Y-53690726D01*
X149175533Y-53562500D01*
X149157097Y-53434274D01*
X149103282Y-53316437D01*
X149018449Y-53218533D01*
X148950243Y-53174700D01*
X148909468Y-53148495D01*
X148785172Y-53112000D01*
X148655628Y-53112000D01*
X148531331Y-53148495D01*
X148422354Y-53218531D01*
X148422350Y-53218534D01*
X148337519Y-53316435D01*
X148283702Y-53434276D01*
X148265267Y-53562500D01*
X104671582Y-53562500D01*
X103866282Y-52757200D01*
X150034967Y-52757200D01*
X150053402Y-52885423D01*
X150053402Y-52885424D01*
X150053403Y-52885426D01*
X150107218Y-53003263D01*
X150192051Y-53101167D01*
X150301031Y-53171204D01*
X150425328Y-53207700D01*
X150554872Y-53207700D01*
X150679169Y-53171204D01*
X150788149Y-53101167D01*
X150872982Y-53003263D01*
X150926797Y-52885426D01*
X150945233Y-52757200D01*
X150926797Y-52628974D01*
X150872982Y-52511137D01*
X150788149Y-52413233D01*
X150693441Y-52352368D01*
X150679168Y-52343195D01*
X150554872Y-52306700D01*
X150425328Y-52306700D01*
X150301031Y-52343195D01*
X150192054Y-52413231D01*
X150192050Y-52413234D01*
X150107219Y-52511135D01*
X150107218Y-52511136D01*
X150107218Y-52511137D01*
X150091471Y-52545617D01*
X150053402Y-52628976D01*
X150034967Y-52757200D01*
X103866282Y-52757200D01*
X102121170Y-51012088D01*
X102111545Y-51000236D01*
X102103637Y-50988131D01*
X102078276Y-50968392D01*
X102071415Y-50962333D01*
X102069507Y-50960425D01*
X102069503Y-50960422D01*
X102069501Y-50960420D01*
X102053007Y-50948644D01*
X102050554Y-50946815D01*
X102011327Y-50916283D01*
X102005936Y-50913366D01*
X102006105Y-50913052D01*
X102003930Y-50911932D01*
X102003774Y-50912253D01*
X101998262Y-50909558D01*
X101950631Y-50895377D01*
X101947720Y-50894445D01*
X101900686Y-50878299D01*
X101894643Y-50877291D01*
X101894701Y-50876938D01*
X101892283Y-50876586D01*
X101892239Y-50876942D01*
X101886155Y-50876183D01*
X101886154Y-50876183D01*
X101886152Y-50876183D01*
X101836492Y-50878237D01*
X101833434Y-50878300D01*
X91065225Y-50878300D01*
X91050040Y-50876725D01*
X91035885Y-50873757D01*
X91003997Y-50877732D01*
X90994844Y-50878300D01*
X90992160Y-50878300D01*
X90992158Y-50878300D01*
X90992148Y-50878301D01*
X90972157Y-50881636D01*
X90969137Y-50882076D01*
X90919807Y-50888226D01*
X90913930Y-50889976D01*
X90913829Y-50889637D01*
X90911500Y-50890383D01*
X90911615Y-50890718D01*
X90905821Y-50892706D01*
X90862098Y-50916368D01*
X90859379Y-50917767D01*
X90814716Y-50939601D01*
X90809729Y-50943162D01*
X90809524Y-50942875D01*
X90807565Y-50944335D01*
X90807782Y-50944614D01*
X90802941Y-50948382D01*
X90769272Y-50984954D01*
X90767157Y-50987159D01*
X90401490Y-51352826D01*
X90355614Y-51374218D01*
X90349165Y-51374500D01*
X90225822Y-51374500D01*
X90180241Y-51380500D01*
X90180239Y-51380501D01*
X90080200Y-51427150D01*
X90002150Y-51505200D01*
X89955500Y-51605241D01*
X89949500Y-51650822D01*
X89949500Y-51774165D01*
X89932187Y-51821731D01*
X89927826Y-51826491D01*
X89670786Y-52083530D01*
X89658938Y-52093152D01*
X89646833Y-52101061D01*
X89646825Y-52101068D01*
X89627091Y-52126421D01*
X89621036Y-52133280D01*
X89619129Y-52135187D01*
X89619124Y-52135193D01*
X89607349Y-52151685D01*
X89605523Y-52154134D01*
X89574983Y-52193373D01*
X89572067Y-52198762D01*
X89571755Y-52198593D01*
X89570633Y-52200772D01*
X89570952Y-52200928D01*
X89568259Y-52206436D01*
X89554077Y-52254068D01*
X89553145Y-52256976D01*
X89537000Y-52304009D01*
X89535991Y-52310058D01*
X89535639Y-52309999D01*
X89535287Y-52312416D01*
X89535642Y-52312461D01*
X89534883Y-52318547D01*
X89536937Y-52368207D01*
X89537000Y-52371265D01*
X89537000Y-53350500D01*
X89519687Y-53398066D01*
X89475850Y-53423376D01*
X89463000Y-53424500D01*
X88708951Y-53424500D01*
X88661385Y-53407187D01*
X88643019Y-53384099D01*
X88598528Y-53296780D01*
X88503220Y-53201472D01*
X88503219Y-53201471D01*
X88383126Y-53140281D01*
X88383125Y-53140280D01*
X88283489Y-53124500D01*
X88283488Y-53124500D01*
X87716512Y-53124500D01*
X87716511Y-53124500D01*
X87616874Y-53140280D01*
X87616873Y-53140281D01*
X87496780Y-53201471D01*
X87401474Y-53296777D01*
X87401472Y-53296779D01*
X87401472Y-53296780D01*
X87356981Y-53384097D01*
X87319963Y-53418617D01*
X87291049Y-53424500D01*
X87147000Y-53424500D01*
X87099434Y-53407187D01*
X87074124Y-53363350D01*
X87073000Y-53350500D01*
X87073000Y-52701420D01*
X87074575Y-52686234D01*
X87077542Y-52672085D01*
X87073568Y-52640202D01*
X87073000Y-52631050D01*
X87073000Y-52628364D01*
X87072999Y-52628355D01*
X87069663Y-52608369D01*
X87069223Y-52605349D01*
X87063073Y-52556007D01*
X87063071Y-52556004D01*
X87061322Y-52550125D01*
X87061666Y-52550022D01*
X87060922Y-52547700D01*
X87060582Y-52547817D01*
X87058591Y-52542017D01*
X87034931Y-52498297D01*
X87033531Y-52495577D01*
X87020687Y-52469304D01*
X87011698Y-52450916D01*
X87011693Y-52450911D01*
X87008132Y-52445922D01*
X87008423Y-52445713D01*
X87006965Y-52443758D01*
X87006683Y-52443979D01*
X87002921Y-52439145D01*
X86995339Y-52432165D01*
X86966332Y-52405462D01*
X86964149Y-52403367D01*
X86910782Y-52350000D01*
X87325001Y-52350000D01*
X87325001Y-52483451D01*
X87340761Y-52582969D01*
X87340762Y-52582971D01*
X87401882Y-52702923D01*
X87497078Y-52798119D01*
X87617030Y-52859237D01*
X87617031Y-52859238D01*
X87716548Y-52874999D01*
X87875000Y-52874999D01*
X87875000Y-52350000D01*
X88125000Y-52350000D01*
X88125000Y-52874999D01*
X88283451Y-52874999D01*
X88382969Y-52859238D01*
X88382971Y-52859237D01*
X88502923Y-52798117D01*
X88598119Y-52702921D01*
X88659237Y-52582969D01*
X88659238Y-52582968D01*
X88675000Y-52483451D01*
X88675000Y-52350000D01*
X88125000Y-52350000D01*
X87875000Y-52350000D01*
X87325001Y-52350000D01*
X86910782Y-52350000D01*
X86660782Y-52100000D01*
X87325000Y-52100000D01*
X87875000Y-52100000D01*
X87875000Y-51575000D01*
X88125000Y-51575000D01*
X88125000Y-52100000D01*
X88674999Y-52100000D01*
X88674999Y-51966548D01*
X88659238Y-51867030D01*
X88659237Y-51867028D01*
X88598117Y-51747076D01*
X88502921Y-51651880D01*
X88382969Y-51590762D01*
X88382968Y-51590761D01*
X88283452Y-51575000D01*
X88125000Y-51575000D01*
X87875000Y-51575000D01*
X87716548Y-51575000D01*
X87617030Y-51590761D01*
X87617028Y-51590762D01*
X87497076Y-51651882D01*
X87401880Y-51747078D01*
X87340762Y-51867030D01*
X87340761Y-51867031D01*
X87325000Y-51966548D01*
X87325000Y-52100000D01*
X86660782Y-52100000D01*
X86394070Y-51833288D01*
X86384445Y-51821436D01*
X86376537Y-51809331D01*
X86351176Y-51789592D01*
X86344315Y-51783533D01*
X86342407Y-51781625D01*
X86342403Y-51781622D01*
X86342401Y-51781620D01*
X86325907Y-51769844D01*
X86323454Y-51768015D01*
X86284227Y-51737483D01*
X86278836Y-51734566D01*
X86279005Y-51734252D01*
X86276830Y-51733132D01*
X86276674Y-51733453D01*
X86271162Y-51730758D01*
X86223531Y-51716577D01*
X86220620Y-51715645D01*
X86173586Y-51699499D01*
X86167543Y-51698491D01*
X86167601Y-51698138D01*
X86165183Y-51697786D01*
X86165139Y-51698142D01*
X86159055Y-51697383D01*
X86159054Y-51697383D01*
X86159052Y-51697383D01*
X86109392Y-51699437D01*
X86106334Y-51699500D01*
X85975833Y-51699500D01*
X85928267Y-51682187D01*
X85923507Y-51677826D01*
X85856482Y-51610801D01*
X85751394Y-51559427D01*
X85683264Y-51549500D01*
X85683260Y-51549500D01*
X84591740Y-51549500D01*
X84591735Y-51549500D01*
X84523606Y-51559427D01*
X84523605Y-51559427D01*
X84418517Y-51610801D01*
X84335801Y-51693517D01*
X84284427Y-51798605D01*
X84284427Y-51798606D01*
X84274500Y-51866735D01*
X84274500Y-52233264D01*
X84284427Y-52301393D01*
X84284427Y-52301394D01*
X84335801Y-52406482D01*
X84402346Y-52473027D01*
X84423738Y-52518903D01*
X84410637Y-52567798D01*
X84402346Y-52577679D01*
X84336214Y-52643810D01*
X84284912Y-52748750D01*
X84275000Y-52816776D01*
X84275000Y-52875000D01*
X85999999Y-52875000D01*
X85999999Y-52816789D01*
X85999998Y-52816775D01*
X85990087Y-52748749D01*
X85938786Y-52643811D01*
X85872654Y-52577679D01*
X85851262Y-52531803D01*
X85864363Y-52482908D01*
X85872653Y-52473028D01*
X85887947Y-52457734D01*
X85905223Y-52440457D01*
X85951098Y-52419065D01*
X85999993Y-52432165D01*
X86009875Y-52440457D01*
X86350326Y-52780908D01*
X86371718Y-52826784D01*
X86372000Y-52833234D01*
X86372000Y-53350500D01*
X86354687Y-53398066D01*
X86310850Y-53423376D01*
X86298000Y-53424500D01*
X86023937Y-53424500D01*
X85976371Y-53407187D01*
X85951061Y-53363350D01*
X85957456Y-53318000D01*
X85990087Y-53251251D01*
X85999999Y-53183223D01*
X86000000Y-53183212D01*
X86000000Y-53125000D01*
X84275001Y-53125000D01*
X84275001Y-53183224D01*
X84284912Y-53251250D01*
X84336213Y-53356188D01*
X84402346Y-53422321D01*
X84423738Y-53468197D01*
X84410637Y-53517092D01*
X84402345Y-53526974D01*
X84381428Y-53547890D01*
X84335551Y-53569282D01*
X84286657Y-53556179D01*
X84276775Y-53547887D01*
X83527053Y-52798117D01*
X83400111Y-52671167D01*
X83378721Y-52625291D01*
X83391824Y-52576397D01*
X83433290Y-52547365D01*
X83441763Y-52545618D01*
X83476393Y-52540573D01*
X83581483Y-52489198D01*
X83664198Y-52406483D01*
X83715573Y-52301393D01*
X83725500Y-52233260D01*
X83725500Y-51866740D01*
X83715573Y-51798607D01*
X83664198Y-51693517D01*
X83581483Y-51610802D01*
X83581482Y-51610801D01*
X83476394Y-51559427D01*
X83408264Y-51549500D01*
X83408260Y-51549500D01*
X82316740Y-51549500D01*
X82316735Y-51549500D01*
X82248606Y-51559427D01*
X82248605Y-51559427D01*
X82143517Y-51610801D01*
X82060801Y-51693517D01*
X82009427Y-51798605D01*
X82009427Y-51798606D01*
X81999500Y-51866735D01*
X81999500Y-52233264D01*
X82002747Y-52255545D01*
X82009427Y-52301393D01*
X82021026Y-52325119D01*
X82026363Y-52375455D01*
X82006871Y-52409945D01*
X81013992Y-53402826D01*
X80968116Y-53424218D01*
X80961666Y-53424500D01*
X80908951Y-53424500D01*
X80861385Y-53407187D01*
X80843019Y-53384099D01*
X80798528Y-53296780D01*
X80703220Y-53201472D01*
X80703219Y-53201471D01*
X80583126Y-53140281D01*
X80583125Y-53140280D01*
X80483489Y-53124500D01*
X80483488Y-53124500D01*
X79916512Y-53124500D01*
X79916511Y-53124500D01*
X79816874Y-53140280D01*
X79816873Y-53140281D01*
X79696780Y-53201471D01*
X79601474Y-53296777D01*
X79601472Y-53296779D01*
X79601472Y-53296780D01*
X79556981Y-53384097D01*
X79519963Y-53418617D01*
X79491049Y-53424500D01*
X76179025Y-53424500D01*
X76163840Y-53422925D01*
X76149685Y-53419957D01*
X76117797Y-53423932D01*
X76108644Y-53424500D01*
X76105960Y-53424500D01*
X76105958Y-53424500D01*
X76105948Y-53424501D01*
X76085957Y-53427836D01*
X76082937Y-53428276D01*
X76033607Y-53434426D01*
X76027730Y-53436176D01*
X76027629Y-53435836D01*
X76025307Y-53436580D01*
X76025422Y-53436915D01*
X76019623Y-53438906D01*
X75975881Y-53462576D01*
X75973166Y-53463973D01*
X75928516Y-53485802D01*
X75923526Y-53489365D01*
X75923320Y-53489077D01*
X75921365Y-53490535D01*
X75921582Y-53490814D01*
X75916741Y-53494582D01*
X75883061Y-53531166D01*
X75880946Y-53533371D01*
X74446826Y-54967492D01*
X74400950Y-54988884D01*
X74352055Y-54975783D01*
X74323021Y-54934319D01*
X74320884Y-54918088D01*
X74320659Y-54918103D01*
X74320501Y-54915693D01*
X74320086Y-54912544D01*
X74314068Y-54866827D01*
X74264065Y-54759596D01*
X74180404Y-54675935D01*
X74180403Y-54675934D01*
X74118226Y-54646940D01*
X74082433Y-54611146D01*
X74075500Y-54579873D01*
X74075500Y-53285568D01*
X74092813Y-53238002D01*
X74108391Y-53224037D01*
X74116463Y-53218644D01*
X74131435Y-53208640D01*
X74131439Y-53208636D01*
X74142163Y-53201471D01*
X74146424Y-53198624D01*
X74157748Y-53181674D01*
X74166941Y-53170473D01*
X74809942Y-52527474D01*
X74855819Y-52506082D01*
X74862268Y-52505800D01*
X74957272Y-52505800D01*
X75081569Y-52469304D01*
X75190549Y-52399267D01*
X75233238Y-52350000D01*
X79525001Y-52350000D01*
X79525001Y-52483451D01*
X79540761Y-52582969D01*
X79540762Y-52582971D01*
X79601882Y-52702923D01*
X79697078Y-52798119D01*
X79817030Y-52859237D01*
X79817031Y-52859238D01*
X79916548Y-52874999D01*
X80075000Y-52874999D01*
X80075000Y-52350000D01*
X80325000Y-52350000D01*
X80325000Y-52874999D01*
X80483451Y-52874999D01*
X80582969Y-52859238D01*
X80582971Y-52859237D01*
X80702923Y-52798117D01*
X80798119Y-52702921D01*
X80859237Y-52582969D01*
X80859238Y-52582968D01*
X80875000Y-52483451D01*
X80875000Y-52350000D01*
X80325000Y-52350000D01*
X80075000Y-52350000D01*
X79525001Y-52350000D01*
X75233238Y-52350000D01*
X75275382Y-52301363D01*
X75329197Y-52183526D01*
X75341206Y-52100000D01*
X79525000Y-52100000D01*
X80075000Y-52100000D01*
X80075000Y-51575000D01*
X80325000Y-51575000D01*
X80325000Y-52100000D01*
X80874999Y-52100000D01*
X80874999Y-51966548D01*
X80859238Y-51867030D01*
X80859237Y-51867028D01*
X80798117Y-51747076D01*
X80702921Y-51651880D01*
X80582969Y-51590762D01*
X80582968Y-51590761D01*
X80483452Y-51575000D01*
X80325000Y-51575000D01*
X80075000Y-51575000D01*
X79916548Y-51575000D01*
X79817030Y-51590761D01*
X79817028Y-51590762D01*
X79697076Y-51651882D01*
X79601880Y-51747078D01*
X79540762Y-51867030D01*
X79540761Y-51867031D01*
X79525000Y-51966548D01*
X79525000Y-52100000D01*
X75341206Y-52100000D01*
X75347633Y-52055300D01*
X75329197Y-51927074D01*
X75275382Y-51809237D01*
X75190549Y-51711333D01*
X75100248Y-51653300D01*
X75081568Y-51641295D01*
X74957272Y-51604800D01*
X74827728Y-51604800D01*
X74703431Y-51641295D01*
X74594454Y-51711331D01*
X74594450Y-51711334D01*
X74509619Y-51809235D01*
X74455802Y-51927076D01*
X74437367Y-52055300D01*
X74440331Y-52075917D01*
X74429963Y-52125463D01*
X74419410Y-52138773D01*
X73860565Y-52697618D01*
X73814689Y-52719010D01*
X73807288Y-52718606D01*
X73807288Y-52719103D01*
X73800000Y-52719103D01*
X73780015Y-52723078D01*
X73765580Y-52724500D01*
X72424500Y-52724500D01*
X72376934Y-52707187D01*
X72351624Y-52663350D01*
X72350500Y-52650500D01*
X72350500Y-52130253D01*
X72344694Y-52101063D01*
X72338867Y-52071769D01*
X72294552Y-52005448D01*
X72249472Y-51975326D01*
X72228232Y-51961133D01*
X72228233Y-51961133D01*
X72198989Y-51955316D01*
X72169748Y-51949500D01*
X71230252Y-51949500D01*
X71201010Y-51955316D01*
X71171767Y-51961133D01*
X71105449Y-52005447D01*
X71105447Y-52005449D01*
X71061133Y-52071767D01*
X71055306Y-52101061D01*
X71049500Y-52130252D01*
X71049500Y-53869748D01*
X71051858Y-53881600D01*
X71061133Y-53928232D01*
X71081978Y-53959427D01*
X71105448Y-53994552D01*
X71149560Y-54024027D01*
X71171767Y-54038866D01*
X71171768Y-54038866D01*
X71171769Y-54038867D01*
X71230252Y-54050500D01*
X71230254Y-54050500D01*
X72169746Y-54050500D01*
X72169748Y-54050500D01*
X72228231Y-54038867D01*
X72294552Y-53994552D01*
X72338867Y-53928231D01*
X72350500Y-53869748D01*
X72350500Y-53349500D01*
X72367813Y-53301934D01*
X72411650Y-53276624D01*
X72424500Y-53275500D01*
X73450500Y-53275500D01*
X73498066Y-53292813D01*
X73523376Y-53336650D01*
X73524500Y-53349500D01*
X73524500Y-54579873D01*
X73507187Y-54627439D01*
X73481774Y-54646940D01*
X73419597Y-54675934D01*
X73419596Y-54675934D01*
X73335935Y-54759595D01*
X73285931Y-54866828D01*
X73279500Y-54915685D01*
X73279500Y-55264314D01*
X73285931Y-55313171D01*
X73315393Y-55376351D01*
X73335935Y-55420404D01*
X73419596Y-55504065D01*
X73481504Y-55532933D01*
X73517297Y-55568726D01*
X73521709Y-55619153D01*
X73492675Y-55660617D01*
X73481507Y-55667065D01*
X73462501Y-55675928D01*
X73419595Y-55695935D01*
X73377705Y-55737826D01*
X73331829Y-55759218D01*
X73325379Y-55759500D01*
X63734021Y-55759500D01*
X63718836Y-55757925D01*
X63704685Y-55754958D01*
X63680883Y-55757925D01*
X63672804Y-55758932D01*
X63663651Y-55759500D01*
X63660960Y-55759500D01*
X63660959Y-55759500D01*
X63660948Y-55759501D01*
X63640963Y-55762835D01*
X63637943Y-55763275D01*
X63588606Y-55769426D01*
X63582729Y-55771176D01*
X63582628Y-55770837D01*
X63580300Y-55771583D01*
X63580415Y-55771918D01*
X63574621Y-55773906D01*
X63530898Y-55797568D01*
X63528179Y-55798967D01*
X63483516Y-55820801D01*
X63478529Y-55824362D01*
X63478324Y-55824075D01*
X63476365Y-55825535D01*
X63476582Y-55825814D01*
X63471741Y-55829582D01*
X63438072Y-55866154D01*
X63435957Y-55868359D01*
X58410647Y-60893669D01*
X58364771Y-60915061D01*
X58340612Y-60913193D01*
X58285058Y-60899500D01*
X58285056Y-60899500D01*
X58114944Y-60899500D01*
X58114941Y-60899500D01*
X57949777Y-60940209D01*
X57799146Y-61019267D01*
X57799143Y-61019269D01*
X57671816Y-61132071D01*
X57575181Y-61272070D01*
X57514859Y-61431128D01*
X57494355Y-61599996D01*
X57494355Y-61600000D01*
X56800000Y-61600000D01*
X56800000Y-59978921D01*
X57797854Y-59978921D01*
X57799429Y-59980317D01*
X57949950Y-60059316D01*
X58115005Y-60099999D01*
X58115009Y-60100000D01*
X58284991Y-60100000D01*
X58284994Y-60099999D01*
X58450049Y-60059316D01*
X58600563Y-59980322D01*
X58600567Y-59980319D01*
X58602143Y-59978921D01*
X58602143Y-59978920D01*
X58200000Y-59576777D01*
X57797854Y-59978921D01*
X56800000Y-59978921D01*
X56800000Y-59400003D01*
X57494859Y-59400003D01*
X57515347Y-59568746D01*
X57515349Y-59568750D01*
X57575628Y-59727694D01*
X57624591Y-59798629D01*
X58023221Y-59400000D01*
X58376777Y-59400000D01*
X58775406Y-59798629D01*
X58824368Y-59727698D01*
X58824372Y-59727690D01*
X58884650Y-59568750D01*
X58884652Y-59568746D01*
X58905141Y-59400003D01*
X58905141Y-59399996D01*
X58884652Y-59231253D01*
X58884650Y-59231249D01*
X58824372Y-59072308D01*
X58775406Y-59001369D01*
X58376777Y-59399999D01*
X58376777Y-59400000D01*
X58023221Y-59400000D01*
X58023222Y-59399999D01*
X57624592Y-59001369D01*
X57575628Y-59072305D01*
X57515349Y-59231249D01*
X57515347Y-59231253D01*
X57494859Y-59399996D01*
X57494859Y-59400003D01*
X56800000Y-59400003D01*
X56800000Y-58821078D01*
X57797855Y-58821078D01*
X58199999Y-59223222D01*
X58602144Y-58821077D01*
X58600565Y-58819679D01*
X58450049Y-58740683D01*
X58284994Y-58700000D01*
X58115005Y-58700000D01*
X57949950Y-58740683D01*
X57799435Y-58819679D01*
X57799433Y-58819680D01*
X57797855Y-58821078D01*
X56800000Y-58821078D01*
X56800000Y-57200003D01*
X57494355Y-57200003D01*
X57514859Y-57368871D01*
X57575181Y-57527929D01*
X57664119Y-57656776D01*
X57671817Y-57667929D01*
X57698533Y-57691597D01*
X57782587Y-57766063D01*
X57799148Y-57780734D01*
X57949775Y-57859790D01*
X58114944Y-57900500D01*
X58114948Y-57900500D01*
X58285052Y-57900500D01*
X58285056Y-57900500D01*
X58450225Y-57859790D01*
X58600852Y-57780734D01*
X58728183Y-57667929D01*
X58824818Y-57527930D01*
X58825632Y-57525781D01*
X58826591Y-57523257D01*
X58859647Y-57484922D01*
X58895781Y-57475500D01*
X59186380Y-57475500D01*
X59200816Y-57476921D01*
X59220800Y-57480897D01*
X59220801Y-57480897D01*
X59225422Y-57479977D01*
X59247932Y-57475500D01*
X59247933Y-57475500D01*
X59328295Y-57459515D01*
X59370265Y-57431471D01*
X59396422Y-57413994D01*
X59396423Y-57413992D01*
X59419424Y-57398624D01*
X59430748Y-57381674D01*
X59439941Y-57370473D01*
X62907142Y-53903274D01*
X62953018Y-53881882D01*
X62959468Y-53881600D01*
X62979872Y-53881600D01*
X63020237Y-53869748D01*
X64549500Y-53869748D01*
X64551858Y-53881600D01*
X64561133Y-53928232D01*
X64581978Y-53959427D01*
X64605448Y-53994552D01*
X64649560Y-54024027D01*
X64671767Y-54038866D01*
X64671768Y-54038866D01*
X64671769Y-54038867D01*
X64730252Y-54050500D01*
X64738939Y-54050500D01*
X64786505Y-54067813D01*
X64811815Y-54111650D01*
X64812186Y-54135031D01*
X64797367Y-54238100D01*
X64815802Y-54366323D01*
X64815802Y-54366324D01*
X64815803Y-54366326D01*
X64869618Y-54484163D01*
X64954451Y-54582067D01*
X65063431Y-54652104D01*
X65187728Y-54688600D01*
X65317272Y-54688600D01*
X65441569Y-54652104D01*
X65550549Y-54582067D01*
X65563027Y-54567665D01*
X65607258Y-54543054D01*
X65656962Y-54552632D01*
X65674879Y-54567665D01*
X65722447Y-54622563D01*
X65722448Y-54622564D01*
X65722451Y-54622567D01*
X65831431Y-54692604D01*
X65955728Y-54729100D01*
X66085272Y-54729100D01*
X66209569Y-54692604D01*
X66318549Y-54622567D01*
X66403382Y-54524663D01*
X66457197Y-54406826D01*
X66475633Y-54278600D01*
X66457197Y-54150374D01*
X66403382Y-54032537D01*
X66387100Y-54013746D01*
X66369035Y-53966460D01*
X66385592Y-53918625D01*
X66387101Y-53916827D01*
X66414592Y-53885100D01*
X66426582Y-53871263D01*
X66429088Y-53865774D01*
X66464592Y-53829697D01*
X66514981Y-53824881D01*
X66536409Y-53834258D01*
X66558731Y-53848604D01*
X66683028Y-53885100D01*
X66812572Y-53885100D01*
X66936869Y-53848604D01*
X67045849Y-53778567D01*
X67130682Y-53680663D01*
X67184497Y-53562826D01*
X67202933Y-53434600D01*
X67184497Y-53306374D01*
X67130682Y-53188537D01*
X67075628Y-53125000D01*
X67650000Y-53125000D01*
X67650000Y-53869697D01*
X67661603Y-53928035D01*
X67705807Y-53994191D01*
X67705808Y-53994192D01*
X67771964Y-54038396D01*
X67830303Y-54050000D01*
X68175000Y-54050000D01*
X68175000Y-53125000D01*
X68425000Y-53125000D01*
X68425000Y-54050000D01*
X68769697Y-54050000D01*
X68828035Y-54038396D01*
X68894191Y-53994192D01*
X68894192Y-53994191D01*
X68938396Y-53928035D01*
X68950000Y-53869697D01*
X68950000Y-53125000D01*
X68425000Y-53125000D01*
X68175000Y-53125000D01*
X67650000Y-53125000D01*
X67075628Y-53125000D01*
X67045849Y-53090633D01*
X66978832Y-53047564D01*
X66936868Y-53020595D01*
X66812572Y-52984100D01*
X66683028Y-52984100D01*
X66558731Y-53020595D01*
X66449754Y-53090631D01*
X66449750Y-53090634D01*
X66364918Y-53188536D01*
X66364917Y-53188537D01*
X66362408Y-53194032D01*
X66326897Y-53230106D01*
X66276507Y-53234914D01*
X66255091Y-53225541D01*
X66232768Y-53211195D01*
X66108472Y-53174700D01*
X65978928Y-53174700D01*
X65978926Y-53174700D01*
X65945346Y-53184559D01*
X65894830Y-53181347D01*
X65858196Y-53146415D01*
X65850500Y-53113556D01*
X65850500Y-52875000D01*
X67650000Y-52875000D01*
X68175000Y-52875000D01*
X68175000Y-51950000D01*
X68425000Y-51950000D01*
X68425000Y-52875000D01*
X68950000Y-52875000D01*
X68950000Y-52130302D01*
X68938396Y-52071964D01*
X68894192Y-52005808D01*
X68894191Y-52005807D01*
X68828035Y-51961603D01*
X68769697Y-51950000D01*
X68425000Y-51950000D01*
X68175000Y-51950000D01*
X67830303Y-51950000D01*
X67771964Y-51961603D01*
X67705808Y-52005807D01*
X67705807Y-52005808D01*
X67661603Y-52071964D01*
X67650000Y-52130302D01*
X67650000Y-52875000D01*
X65850500Y-52875000D01*
X65850500Y-52130253D01*
X65844694Y-52101063D01*
X65838867Y-52071769D01*
X65794552Y-52005448D01*
X65749472Y-51975326D01*
X65728232Y-51961133D01*
X65728233Y-51961133D01*
X65698989Y-51955316D01*
X65669748Y-51949500D01*
X64730252Y-51949500D01*
X64701010Y-51955316D01*
X64671767Y-51961133D01*
X64605449Y-52005447D01*
X64605447Y-52005449D01*
X64561133Y-52071767D01*
X64555306Y-52101061D01*
X64549500Y-52130252D01*
X64549500Y-53869748D01*
X63020237Y-53869748D01*
X63104169Y-53845104D01*
X63213149Y-53775067D01*
X63297982Y-53677163D01*
X63351797Y-53559326D01*
X63370233Y-53431100D01*
X63351797Y-53302874D01*
X63297982Y-53185037D01*
X63213149Y-53087133D01*
X63146132Y-53044064D01*
X63104168Y-53017095D01*
X62979872Y-52980600D01*
X62850328Y-52980600D01*
X62726031Y-53017095D01*
X62617054Y-53087131D01*
X62617046Y-53087137D01*
X62573969Y-53136852D01*
X62529736Y-53161462D01*
X62480032Y-53151883D01*
X62465718Y-53140718D01*
X62450000Y-53125000D01*
X61925000Y-53125000D01*
X61925000Y-54075531D01*
X61907687Y-54123097D01*
X61903326Y-54127857D01*
X59128358Y-56902826D01*
X59082482Y-56924218D01*
X59076032Y-56924500D01*
X58895781Y-56924500D01*
X58848215Y-56907187D01*
X58826591Y-56876743D01*
X58824820Y-56872076D01*
X58824819Y-56872073D01*
X58824818Y-56872070D01*
X58728183Y-56732071D01*
X58631792Y-56646676D01*
X58600856Y-56619269D01*
X58600853Y-56619267D01*
X58600852Y-56619266D01*
X58450225Y-56540210D01*
X58450222Y-56540209D01*
X58285058Y-56499500D01*
X58285056Y-56499500D01*
X58114944Y-56499500D01*
X58114941Y-56499500D01*
X57949777Y-56540209D01*
X57799146Y-56619267D01*
X57799143Y-56619269D01*
X57671816Y-56732071D01*
X57575181Y-56872070D01*
X57514859Y-57031128D01*
X57494355Y-57199996D01*
X57494355Y-57200003D01*
X56800000Y-57200003D01*
X56800000Y-55000003D01*
X57494355Y-55000003D01*
X57514859Y-55168871D01*
X57575181Y-55327929D01*
X57671816Y-55467928D01*
X57793875Y-55576063D01*
X57799148Y-55580734D01*
X57949775Y-55659790D01*
X58114944Y-55700500D01*
X58114948Y-55700500D01*
X58285052Y-55700500D01*
X58285056Y-55700500D01*
X58450225Y-55659790D01*
X58600852Y-55580734D01*
X58728183Y-55467929D01*
X58824818Y-55327930D01*
X58885140Y-55168872D01*
X58886541Y-55157332D01*
X58895191Y-55086096D01*
X58916324Y-55042690D01*
X59794042Y-54164974D01*
X59839919Y-54143582D01*
X59846368Y-54143300D01*
X59941372Y-54143300D01*
X60065669Y-54106804D01*
X60174649Y-54036767D01*
X60259482Y-53938863D01*
X60313297Y-53821026D01*
X60331733Y-53692800D01*
X60313297Y-53564574D01*
X60259482Y-53446737D01*
X60174649Y-53348833D01*
X60087480Y-53292813D01*
X60065668Y-53278795D01*
X59941372Y-53242300D01*
X59811828Y-53242300D01*
X59687531Y-53278795D01*
X59578554Y-53348831D01*
X59578550Y-53348834D01*
X59493719Y-53446735D01*
X59493718Y-53446736D01*
X59493718Y-53446737D01*
X59483917Y-53468197D01*
X59439902Y-53564576D01*
X59421467Y-53692799D01*
X59424431Y-53713415D01*
X59414063Y-53762961D01*
X59403510Y-53776272D01*
X58734769Y-54445013D01*
X58688893Y-54466405D01*
X58639998Y-54453304D01*
X58633384Y-54448086D01*
X58600852Y-54419266D01*
X58450225Y-54340210D01*
X58450222Y-54340209D01*
X58285058Y-54299500D01*
X58285056Y-54299500D01*
X58114944Y-54299500D01*
X58114941Y-54299500D01*
X57949777Y-54340209D01*
X57949775Y-54340209D01*
X57949775Y-54340210D01*
X57942986Y-54343773D01*
X57799146Y-54419267D01*
X57799143Y-54419269D01*
X57671816Y-54532071D01*
X57575181Y-54672070D01*
X57514859Y-54831128D01*
X57494355Y-54999996D01*
X57494355Y-55000003D01*
X56800000Y-55000003D01*
X56800000Y-53125000D01*
X61150000Y-53125000D01*
X61150000Y-53869697D01*
X61161603Y-53928035D01*
X61205807Y-53994191D01*
X61205808Y-53994192D01*
X61271964Y-54038396D01*
X61330303Y-54050000D01*
X61675000Y-54050000D01*
X61675000Y-53125000D01*
X61150000Y-53125000D01*
X56800000Y-53125000D01*
X56800000Y-52875000D01*
X61150000Y-52875000D01*
X61675000Y-52875000D01*
X61675000Y-51950000D01*
X61925000Y-51950000D01*
X61925000Y-52875000D01*
X62450000Y-52875000D01*
X62450000Y-52130302D01*
X62438396Y-52071964D01*
X62394192Y-52005808D01*
X62394191Y-52005807D01*
X62328035Y-51961603D01*
X62269697Y-51950000D01*
X61925000Y-51950000D01*
X61675000Y-51950000D01*
X61330303Y-51950000D01*
X61271964Y-51961603D01*
X61205808Y-52005807D01*
X61205807Y-52005808D01*
X61161603Y-52071964D01*
X61150000Y-52130302D01*
X61150000Y-52875000D01*
X56800000Y-52875000D01*
X56800000Y-51113900D01*
X60040867Y-51113900D01*
X60059302Y-51242123D01*
X60059302Y-51242124D01*
X60059303Y-51242126D01*
X60113118Y-51359963D01*
X60197951Y-51457867D01*
X60306931Y-51527904D01*
X60431228Y-51564400D01*
X60560772Y-51564400D01*
X60685069Y-51527904D01*
X60794049Y-51457867D01*
X60878882Y-51359963D01*
X60932697Y-51242126D01*
X60951133Y-51113900D01*
X60932697Y-50985674D01*
X60878882Y-50867837D01*
X60794049Y-50769933D01*
X60727032Y-50726864D01*
X60685068Y-50699895D01*
X60560772Y-50663400D01*
X60431228Y-50663400D01*
X60306931Y-50699895D01*
X60197954Y-50769931D01*
X60197950Y-50769934D01*
X60113119Y-50867835D01*
X60113118Y-50867836D01*
X60113118Y-50867837D01*
X60102318Y-50891486D01*
X60059302Y-50985676D01*
X60040867Y-51113900D01*
X56800000Y-51113900D01*
X56800000Y-50324500D01*
X56817313Y-50276934D01*
X56861150Y-50251624D01*
X56874000Y-50250500D01*
X163955830Y-50250500D01*
X163997364Y-50250500D01*
X164002642Y-50250688D01*
G37*
%TD.AperFunction*%
%TD*%
M02*
