%TF.GenerationSoftware,KiCad,Pcbnew,7.0.11+dfsg-1build4*%
%TF.CreationDate,2026-09-30T10:49:51+00:00*%
%TF.ProjectId,ai_glasses,61695f67-6c61-4737-9365-732e6b696361,1.0*%
%TF.SameCoordinates,Original*%
%TF.FileFunction,Soldermask,Top*%
%TF.FilePolarity,Negative*%
%FSLAX46Y46*%
G04 Gerber Fmt 4.6, Leading zero omitted, Abs format (unit mm)*
G04 Created by KiCad (PCBNEW 7.0.11+dfsg-1build4) date 2026-09-30 10:49:51*
%MOMM*%
%LPD*%
G01*
G04 APERTURE LIST*
G04 Aperture macros list*
%AMRoundRect*
0 Rectangle with rounded corners*
0 $1 Rounding radius*
0 $2 $3 $4 $5 $6 $7 $8 $9 X,Y pos of 4 corners*
0 Add a 4 corners polygon primitive as box body*
4,1,4,$2,$3,$4,$5,$6,$7,$8,$9,$2,$3,0*
0 Add four circle primitives for the rounded corners*
1,1,$1+$1,$2,$3*
1,1,$1+$1,$4,$5*
1,1,$1+$1,$6,$7*
1,1,$1+$1,$8,$9*
0 Add four rect primitives between the rounded corners*
20,1,$1+$1,$2,$3,$4,$5,0*
20,1,$1+$1,$4,$5,$6,$7,0*
20,1,$1+$1,$6,$7,$8,$9,0*
20,1,$1+$1,$8,$9,$2,$3,0*%
%AMFreePoly0*
4,1,53,0.180798,1.454629,0.352531,1.394537,0.506585,1.297738,0.635238,1.169085,0.732037,1.015031,0.792129,0.843298,0.812500,0.662500,0.792129,0.481702,0.732037,0.309969,0.635238,0.155915,0.506585,0.027262,0.352531,-0.069537,0.180798,-0.129629,0.000000,-0.150000,-0.180798,-0.129629,-0.352531,-0.069537,-0.506585,0.027262,-0.635238,0.155915,-0.732037,0.309969,-0.792129,0.481702,
-0.812500,0.662500,-0.517770,0.662500,-0.496797,0.516627,-0.435576,0.382572,-0.339067,0.271196,-0.215089,0.191520,-0.073686,0.150000,0.073686,0.150000,0.215089,0.191520,0.339067,0.271196,0.435576,0.382572,0.496797,0.516627,0.517770,0.662500,0.496797,0.808373,0.435576,0.942428,0.339067,1.053804,0.215089,1.133480,0.073686,1.175000,-0.073686,1.175000,-0.215089,1.133480,
-0.339067,1.053804,-0.435576,0.942428,-0.496797,0.808373,-0.517770,0.662500,-0.812500,0.662500,-0.792129,0.843298,-0.732037,1.015031,-0.635238,1.169085,-0.506585,1.297738,-0.352531,1.394537,-0.180798,1.454629,0.000000,1.475000,0.180798,1.454629,0.180798,1.454629,$1*%
G04 Aperture macros list end*
%ADD10RoundRect,0.140000X-0.140000X-0.170000X0.140000X-0.170000X0.140000X0.170000X-0.140000X0.170000X0*%
%ADD11RoundRect,0.150000X-0.512500X-0.150000X0.512500X-0.150000X0.512500X0.150000X-0.512500X0.150000X0*%
%ADD12R,0.900000X1.500000*%
%ADD13R,1.500000X0.900000*%
%ADD14C,0.600000*%
%ADD15R,3.900000X3.900000*%
%ADD16RoundRect,0.135000X-0.135000X-0.185000X0.135000X-0.185000X0.135000X0.185000X-0.135000X0.185000X0*%
%ADD17RoundRect,0.135000X0.185000X-0.135000X0.185000X0.135000X-0.185000X0.135000X-0.185000X-0.135000X0*%
%ADD18RoundRect,0.300000X-0.900000X-0.700000X0.900000X-0.700000X0.900000X0.700000X-0.900000X0.700000X0*%
%ADD19C,0.500000*%
%ADD20R,0.600000X0.522000*%
%ADD21FreePoly0,90.000000*%
%ADD22RoundRect,0.250000X-0.250000X-0.475000X0.250000X-0.475000X0.250000X0.475000X-0.250000X0.475000X0*%
%ADD23R,0.300000X1.300000*%
%ADD24R,1.800000X2.200000*%
%ADD25C,0.650000*%
%ADD26RoundRect,0.150000X-0.150000X-0.425000X0.150000X-0.425000X0.150000X0.425000X-0.150000X0.425000X0*%
%ADD27RoundRect,0.075000X-0.075000X-0.500000X0.075000X-0.500000X0.075000X0.500000X-0.075000X0.500000X0*%
%ADD28O,1.000000X2.100000*%
%ADD29O,1.000000X1.800000*%
%ADD30RoundRect,0.225000X-0.225000X-0.250000X0.225000X-0.250000X0.225000X0.250000X-0.225000X0.250000X0*%
%ADD31RoundRect,0.062500X-0.350000X-0.062500X0.350000X-0.062500X0.350000X0.062500X-0.350000X0.062500X0*%
%ADD32RoundRect,0.062500X-0.062500X-0.350000X0.062500X-0.350000X0.062500X0.350000X-0.062500X0.350000X0*%
%ADD33R,1.230000X1.230000*%
G04 APERTURE END LIST*
D10*
%TO.C,C8*%
X103420000Y-56700000D03*
X104380000Y-56700000D03*
%TD*%
%TO.C,C18*%
X151920000Y-59900000D03*
X152880000Y-59900000D03*
%TD*%
%TO.C,C11*%
X89920000Y-61400000D03*
X90880000Y-61400000D03*
%TD*%
D11*
%TO.C,U8*%
X83262500Y-65450000D03*
X83262500Y-66400000D03*
X83262500Y-67350000D03*
X85537500Y-67350000D03*
X85537500Y-66400000D03*
X85537500Y-65450000D03*
%TD*%
D12*
%TO.C,U1*%
X57540000Y-69750000D03*
X58810000Y-69750000D03*
X60080000Y-69750000D03*
X61350000Y-69750000D03*
X62620000Y-69750000D03*
X63890000Y-69750000D03*
X65160000Y-69750000D03*
X66430000Y-69750000D03*
X67700000Y-69750000D03*
X68970000Y-69750000D03*
X70240000Y-69750000D03*
X71510000Y-69750000D03*
X72780000Y-69750000D03*
X74050000Y-69750000D03*
D13*
X75300000Y-67985000D03*
X75300000Y-66715000D03*
X75300000Y-65445000D03*
X75300000Y-64175000D03*
X75300000Y-62905000D03*
X75300000Y-61635000D03*
X75300000Y-60365000D03*
X75300000Y-59095000D03*
X75300000Y-57825000D03*
X75300000Y-56555000D03*
X75300000Y-55285000D03*
X75300000Y-54015000D03*
D12*
X74050000Y-52250000D03*
X72780000Y-52250000D03*
X71510000Y-52250000D03*
X70240000Y-52250000D03*
X68970000Y-52250000D03*
X67700000Y-52250000D03*
X66430000Y-52250000D03*
X65160000Y-52250000D03*
X63890000Y-52250000D03*
X62620000Y-52250000D03*
X61350000Y-52250000D03*
X60080000Y-52250000D03*
X58810000Y-52250000D03*
X57540000Y-52250000D03*
D14*
X64560000Y-63900000D03*
X65960000Y-63900000D03*
X63860000Y-63200000D03*
X65260000Y-63200000D03*
X66660000Y-63200000D03*
X64560000Y-62500000D03*
D15*
X65260000Y-62500000D03*
D14*
X65960000Y-62500000D03*
X63860000Y-61800000D03*
X65260000Y-61800000D03*
X66660000Y-61800000D03*
X64560000Y-61100000D03*
X65960000Y-61100000D03*
%TD*%
D11*
%TO.C,U4*%
X98862500Y-51450000D03*
X98862500Y-52400000D03*
X98862500Y-53350000D03*
X101137500Y-53350000D03*
X101137500Y-51450000D03*
%TD*%
D16*
%TO.C,R12*%
X87490000Y-60000000D03*
X88510000Y-60000000D03*
%TD*%
D10*
%TO.C,C16*%
X79120000Y-70300000D03*
X80080000Y-70300000D03*
%TD*%
D17*
%TO.C,R2*%
X94200000Y-59510000D03*
X94200000Y-58490000D03*
%TD*%
%TO.C,R1*%
X92600000Y-59510000D03*
X92600000Y-58490000D03*
%TD*%
D18*
%TO.C,LS1*%
X158500000Y-59500000D03*
X158500000Y-64500000D03*
%TD*%
D11*
%TO.C,U5*%
X98862500Y-55050000D03*
X98862500Y-56000000D03*
X98862500Y-56950000D03*
X101137500Y-56950000D03*
X101137500Y-55050000D03*
%TD*%
D19*
%TO.C,U6*%
X79600000Y-67309999D03*
D20*
X78700000Y-65235999D03*
X78700000Y-66057999D03*
D21*
X80262500Y-67309999D03*
D20*
X80500000Y-66057999D03*
X80500000Y-65235999D03*
X79600000Y-65235999D03*
%TD*%
D16*
%TO.C,R11*%
X87490000Y-58600000D03*
X88510000Y-58600000D03*
%TD*%
D22*
%TO.C,C17*%
X148250000Y-59900000D03*
X150150000Y-59900000D03*
%TD*%
D10*
%TO.C,C9*%
X89920000Y-58600000D03*
X90880000Y-58600000D03*
%TD*%
D23*
%TO.C,J2*%
X92750000Y-56300000D03*
X92250000Y-56300000D03*
X91750000Y-56300000D03*
X91250000Y-56300000D03*
X90750000Y-56300000D03*
X90250000Y-56300000D03*
X89750000Y-56300000D03*
X89250000Y-56300000D03*
X88750000Y-56300000D03*
X88250000Y-56300000D03*
X87750000Y-56300000D03*
X87250000Y-56300000D03*
X86750000Y-56300000D03*
X86250000Y-56300000D03*
X85750000Y-56300000D03*
X85250000Y-56300000D03*
X84750000Y-56300000D03*
X84250000Y-56300000D03*
X83750000Y-56300000D03*
X83250000Y-56300000D03*
X82750000Y-56300000D03*
X82250000Y-56300000D03*
X81750000Y-56300000D03*
X81250000Y-56300000D03*
D24*
X94650000Y-53050000D03*
X79350000Y-53050000D03*
%TD*%
D25*
%TO.C,J1*%
X89110000Y-65715000D03*
X94890000Y-65715000D03*
D26*
X88800000Y-64640000D03*
X89600000Y-64640000D03*
D27*
X90750000Y-64640000D03*
X91750000Y-64640000D03*
X92250000Y-64640000D03*
X93250000Y-64640000D03*
D26*
X94400000Y-64640000D03*
X95200000Y-64640000D03*
X95200000Y-64640000D03*
X94400000Y-64640000D03*
D27*
X93750000Y-64640000D03*
X92750000Y-64640000D03*
X91250000Y-64640000D03*
X90250000Y-64640000D03*
D26*
X89600000Y-64640000D03*
X88800000Y-64640000D03*
D28*
X87680000Y-65215000D03*
D29*
X87680000Y-69395000D03*
D28*
X96320000Y-65215000D03*
D29*
X96320000Y-69395000D03*
%TD*%
D16*
%TO.C,R15*%
X81690000Y-70300000D03*
X82710000Y-70300000D03*
%TD*%
D30*
%TO.C,C1*%
X93225000Y-62000000D03*
X94775000Y-62000000D03*
%TD*%
D10*
%TO.C,C10*%
X89920000Y-60000000D03*
X90880000Y-60000000D03*
%TD*%
%TO.C,C5*%
X103420000Y-51600000D03*
X104380000Y-51600000D03*
%TD*%
D31*
%TO.C,U7*%
X148562500Y-54250000D03*
X148562500Y-54750000D03*
X148562500Y-55250000D03*
X148562500Y-55750000D03*
D32*
X149250000Y-56437500D03*
X149750000Y-56437500D03*
X150250000Y-56437500D03*
X150750000Y-56437500D03*
D31*
X151437500Y-55750000D03*
X151437500Y-55250000D03*
X151437500Y-54750000D03*
X151437500Y-54250000D03*
D32*
X150750000Y-53562500D03*
X150250000Y-53562500D03*
X149750000Y-53562500D03*
X149250000Y-53562500D03*
D33*
X150000000Y-55000000D03*
%TD*%
D16*
%TO.C,R14*%
X87490000Y-62800000D03*
X88510000Y-62800000D03*
%TD*%
D10*
%TO.C,C6*%
X103420000Y-53100000D03*
X104380000Y-53100000D03*
%TD*%
D16*
%TO.C,R13*%
X87490000Y-61400000D03*
X88510000Y-61400000D03*
%TD*%
D10*
%TO.C,C7*%
X103420000Y-55200000D03*
X104380000Y-55200000D03*
%TD*%
M02*
