M48
; DRILL file {KiCad 7.0.11+dfsg-1build4} date Wed Sep 30 11:49:50 2026
; FORMAT={-:-/ absolute / metric / decimal}
; #@! TF.CreationDate,2026-09-30T11:49:50+00:00
; #@! TF.GenerationSoftware,Kicad,Pcbnew,7.0.11+dfsg-1build4
; #@! TF.FileFunction,Plated,1,4,PTH
FMAT,2
METRIC
; #@! TA.AperFunction,Plated,PTH,ComponentDrill
T1C0.200
; #@! TA.AperFunction,Plated,PTH,ViaDrill
T2C0.250
; #@! TA.AperFunction,Plated,PTH,ComponentDrill
T3C0.600
%
G90
G05
T1
X63.86Y-61.8
X63.86Y-63.2
X64.56Y-61.1
X64.56Y-62.5
X64.56Y-63.9
X65.26Y-61.8
X65.26Y-63.2
X65.96Y-61.1
X65.96Y-62.5
X65.96Y-63.9
X66.66Y-61.8
X66.66Y-63.2
X149.635Y-54.635
X149.635Y-55.365
X150.365Y-54.635
X150.365Y-55.365
T2
X57.54Y-53.425
X57.54Y-70.925
X57.6Y-50.8
X57.6Y-65.8
X57.6Y-56.2
X57.6Y-67.0
X57.6Y-68.2
X58.8Y-50.8
X58.81Y-68.586
X59.0Y-62.688
X59.05Y-59.4
X59.4Y-61.6
X59.519Y-71.05
X59.6Y-55.8
X59.6Y-57.8
X59.877Y-53.693
X60.496Y-51.114
X60.6Y-60.8
X60.6Y-66.8
X60.6Y-56.8
X60.999Y-53.462
X61.0Y-63.665
X61.2Y-59.8
X61.2Y-62.2
X61.6Y-55.8
X61.886Y-64.231
X62.4Y-50.8
X62.4Y-55.0
X62.6Y-62.8
X62.915Y-53.431
X63.6Y-50.8
X63.6Y-57.8
X63.6Y-59.8
X63.6Y-55.0
X64.8Y-58.6
X65.252Y-54.238
X65.6Y-57.8
X65.6Y-59.8
X65.757Y-66.046
X65.95Y-68.55
X66.02Y-54.279
X66.044Y-53.625
X66.6Y-59.2
X66.619Y-68.607
X66.748Y-53.435
X66.92Y-64.955
X67.2Y-55.0
X67.499Y-53.462
X67.6Y-57.8
X67.6Y-59.8
X68.4Y-55.0
X68.4Y-58.6
X68.4Y-65.8
X69.6Y-55.0
X69.6Y-57.8
X69.6Y-59.8
X69.6Y-61.0
X69.6Y-63.8
X69.6Y-65.8
X70.165Y-68.61
X70.8Y-55.0
X70.8Y-58.6
X70.8Y-65.8
X70.861Y-68.55
X71.6Y-57.8
X71.6Y-59.8
X71.956Y-68.35
X72.0Y-55.0
X72.008Y-63.508
X72.299Y-67.669
X72.6Y-59.2
X73.2Y-62.2
X73.2Y-65.8
X73.225Y-61.0
X73.6Y-57.8
X73.6Y-63.8
X73.8Y-59.2
X73.8Y-67.6
X74.892Y-52.055
X76.436Y-64.175
X76.442Y-62.905
X76.458Y-56.555
X76.75Y-65.95
X76.8Y-61.0
X77.6Y-51.8
X77.6Y-67.8
X78.0Y-65.432
X78.577Y-70.843
X78.6Y-56.8
X79.2Y-63.4
X79.35Y-66.058
X79.35Y-71.05
X80.011Y-60.365
X80.08Y-71.055
X80.2Y-51.387
X80.4Y-56.2
X80.4Y-57.4
X80.4Y-62.2
X80.4Y-63.4
X80.655Y-67.73
X81.266Y-59.091
X81.6Y-61.8
X81.641Y-57.633
X81.746Y-54.757
X82.2Y-64.0
X82.231Y-66.4
X82.286Y-57.629
X82.315Y-58.752
X82.8Y-61.0
X82.961Y-58.75
X83.25Y-57.356
X83.37Y-70.3
X83.4Y-62.8
X83.4Y-64.0
X83.576Y-54.981
X83.742Y-57.785
X83.9Y-68.85
X84.0Y-59.8
X84.233Y-58.616
X84.5Y-64.45
X84.6Y-62.8
X84.6Y-68.8
X84.802Y-57.52
X85.1Y-63.55
X85.6Y-59.8
X85.7Y-62.8
X85.75Y-57.325
X86.169Y-53.0
X86.585Y-71.05
X86.6Y-68.8
X86.75Y-65.65
X86.84Y-62.8
X87.62Y-57.742
X87.995Y-59.317
X88.0Y-51.387
X88.0Y-55.13
X88.089Y-71.05
X88.156Y-60.694
X88.499Y-57.476
X89.17Y-62.8
X89.214Y-55.25
X89.4Y-68.8
X89.593Y-71.05
X89.636Y-57.453
X89.65Y-64.3
X90.6Y-68.8
X90.6Y-70.0
X90.7Y-55.2
X90.7Y-65.5
X90.75Y-53.5
X90.88Y-62.155
X91.097Y-71.05
X91.351Y-50.95
X91.368Y-57.917
X91.535Y-58.6
X91.535Y-60.0
X91.644Y-60.66
X91.8Y-70.0
X92.15Y-63.2
X92.25Y-57.325
X92.288Y-54.572
X92.6Y-52.8
X92.6Y-68.8
X92.6Y-71.05
X92.865Y-50.95
X92.98Y-57.832
X93.05Y-61.7
X93.6Y-69.4
X94.104Y-71.05
X94.2Y-55.6
X94.2Y-57.73
X94.378Y-50.95
X94.6Y-68.8
X94.775Y-61.162
X94.99Y-63.16
X95.6Y-55.8
X95.608Y-71.05
X95.892Y-50.95
X96.197Y-57.76
X96.6Y-52.0
X97.2Y-63.4
X97.405Y-50.95
X97.669Y-59.4
X97.781Y-56.775
X97.8Y-61.6
X97.8Y-68.8
X97.831Y-52.4
X97.831Y-56.0
X97.913Y-70.68
X98.6Y-62.8
X98.958Y-69.522
X99.0Y-61.6
X99.2Y-57.787
X100.025Y-68.34
X100.6Y-58.8
X100.6Y-60.8
X101.093Y-67.159
X101.137Y-52.284
X101.137Y-56.206
X101.4Y-58.0
X102.6Y-59.2
X103.6Y-57.8
X105.035Y-51.6
X105.035Y-53.1
X105.035Y-55.2
X105.035Y-56.7
X106.8Y-55.0
X107.6Y-50.8
X109.6Y-50.8
X147.05Y-54.75
X147.756Y-54.75
X147.808Y-56.042
X148.72Y-53.562
X149.6Y-50.8
X149.6Y-61.8
X149.6Y-63.8
X149.6Y-65.8
X149.6Y-67.8
X149.6Y-69.8
X149.75Y-52.756
X150.49Y-52.757
X151.25Y-57.0
X151.6Y-50.8
X151.6Y-61.8
X151.6Y-63.8
X151.6Y-65.8
X151.6Y-67.8
X151.6Y-69.8
X152.244Y-54.75
X152.6Y-52.8
X153.535Y-59.9
X153.6Y-50.8
X153.6Y-61.8
X153.6Y-63.8
X153.6Y-65.8
X153.6Y-67.8
X153.6Y-69.8
X154.6Y-52.8
X154.6Y-56.8
X155.6Y-50.8
X156.6Y-52.8
X156.6Y-56.8
X156.6Y-58.8
X156.6Y-60.8
X156.6Y-62.8
X156.6Y-64.8
X156.6Y-66.8
X156.6Y-68.8
X156.6Y-70.8
X157.6Y-50.8
X158.6Y-52.8
X158.6Y-54.8
X158.6Y-62.8
X158.6Y-66.8
X158.6Y-68.8
X158.6Y-70.8
X159.6Y-50.8
X160.6Y-52.8
X160.6Y-54.8
X160.6Y-56.8
X160.6Y-64.8
X160.6Y-66.8
X160.6Y-68.8
X160.6Y-70.8
X161.6Y-50.8
X162.6Y-52.8
X162.6Y-54.8
X162.6Y-56.8
X162.6Y-58.8
X162.6Y-60.8
X162.6Y-62.8
X162.6Y-64.8
X162.6Y-66.8
X162.6Y-68.8
X162.6Y-70.8
X163.6Y-50.8
X164.6Y-52.8
X164.6Y-54.8
X164.6Y-56.8
X164.6Y-58.8
X164.6Y-60.8
X164.6Y-62.8
X164.6Y-64.8
X164.6Y-66.8
X164.6Y-68.8
X164.6Y-70.8
T3
X87.68Y-64.665G85X87.68Y-65.765
G05
X87.68Y-68.995G85X87.68Y-69.795
G05
X96.32Y-64.665G85X96.32Y-65.765
G05
X96.32Y-68.995G85X96.32Y-69.795
G05
M30
