M48
; DRILL file {KiCad 7.0.11+dfsg-1build4} date Wed Sep 30 10:49:52 2026
; FORMAT={-:-/ absolute / metric / decimal}
; #@! TF.CreationDate,2026-09-30T10:49:52+00:00
; #@! TF.GenerationSoftware,Kicad,Pcbnew,7.0.11+dfsg-1build4
; #@! TF.FileFunction,Plated,1,4,PTH
FMAT,2
METRIC
; #@! TA.AperFunction,Plated,PTH,ComponentDrill
T1C0.200
; #@! TA.AperFunction,Plated,PTH,ViaDrill
T2C0.250
; #@! TA.AperFunction,Plated,PTH,ComponentDrill
T3C0.600
%
G90
G05
T1
X63.86Y-61.8
X63.86Y-63.2
X64.56Y-61.1
X64.56Y-62.5
X64.56Y-63.9
X65.26Y-61.8
X65.26Y-63.2
X65.96Y-61.1
X65.96Y-62.5
X65.96Y-63.9
X66.66Y-61.8
X66.66Y-63.2
X149.635Y-54.635
X149.635Y-55.365
X150.365Y-54.635
X150.365Y-55.365
T2
X57.54Y-53.425
X57.54Y-70.925
X57.6Y-50.8
X57.6Y-65.8
X58.81Y-68.586
X59.0Y-62.688
X59.05Y-59.4
X59.6Y-55.8
X59.6Y-57.8
X59.877Y-53.693
X60.496Y-51.114
X60.6Y-60.8
X60.6Y-66.8
X60.999Y-53.462
X61.0Y-63.665
X61.6Y-55.8
X61.886Y-64.231
X62.6Y-62.8
X62.915Y-53.431
X63.6Y-50.8
X63.6Y-57.8
X63.6Y-59.8
X65.252Y-54.238
X65.6Y-57.8
X65.6Y-59.8
X65.757Y-66.046
X66.02Y-54.279
X66.044Y-53.625
X66.619Y-68.607
X66.748Y-53.435
X66.92Y-64.955
X67.499Y-53.462
X67.6Y-57.8
X67.6Y-59.8
X69.6Y-57.8
X69.6Y-59.8
X69.6Y-63.8
X69.6Y-65.8
X70.165Y-68.61
X70.861Y-68.55
X71.6Y-57.8
X71.6Y-59.8
X71.956Y-68.35
X72.008Y-63.508
X72.299Y-67.669
X73.225Y-61.0
X73.6Y-57.8
X73.6Y-63.8
X74.892Y-52.055
X76.436Y-64.175
X76.442Y-62.905
X76.458Y-56.555
X77.52Y-70.279
X77.6Y-51.8
X77.6Y-67.8
X78.0Y-65.432
X78.577Y-70.843
X78.6Y-56.8
X79.35Y-66.058
X79.6Y-64.304
X80.011Y-60.365
X80.08Y-71.055
X80.2Y-51.387
X80.655Y-67.73
X81.266Y-59.091
X81.6Y-61.8
X81.641Y-57.633
X81.746Y-54.757
X82.087Y-68.447
X82.137Y-67.279
X82.231Y-66.4
X82.286Y-57.629
X82.315Y-58.752
X82.961Y-58.75
X83.25Y-57.356
X83.37Y-70.3
X83.576Y-54.981
X83.742Y-57.785
X84.233Y-58.616
X84.6Y-62.8
X84.6Y-68.8
X84.802Y-57.52
X85.6Y-59.8
X85.75Y-57.325
X86.169Y-53.0
X86.6Y-68.8
X86.84Y-62.8
X87.62Y-57.742
X87.995Y-59.317
X88.0Y-51.387
X88.0Y-55.13
X88.156Y-60.694
X88.499Y-57.476
X89.17Y-62.8
X89.214Y-55.25
X89.636Y-57.453
X90.025Y-65.702
X90.6Y-68.8
X90.88Y-62.155
X91.368Y-57.917
X91.535Y-58.6
X91.535Y-60.0
X91.644Y-60.66
X92.25Y-57.325
X92.288Y-54.572
X92.6Y-52.8
X92.6Y-68.8
X92.98Y-57.832
X93.268Y-62.931
X94.2Y-57.73
X94.6Y-68.8
X94.775Y-61.162
X94.99Y-63.16
X95.6Y-55.8
X96.197Y-57.76
X97.669Y-59.4
X97.781Y-56.775
X97.831Y-52.4
X97.831Y-56.0
X98.6Y-62.8
X99.2Y-57.787
X100.6Y-58.8
X100.6Y-60.8
X101.137Y-52.284
X101.137Y-56.206
X103.6Y-57.8
X105.035Y-51.6
X105.035Y-53.1
X105.035Y-55.2
X105.035Y-56.7
X106.6Y-52.8
X107.6Y-50.8
X108.6Y-52.8
X109.6Y-50.8
X109.804Y-54.631
X110.6Y-52.8
X111.04Y-56.312
X145.216Y-55.54
X147.756Y-54.75
X147.808Y-56.042
X148.72Y-53.562
X149.6Y-50.8
X149.6Y-61.8
X149.6Y-63.8
X149.6Y-65.8
X149.6Y-67.8
X149.6Y-69.8
X149.75Y-52.756
X150.49Y-52.757
X151.012Y-59.9
X151.6Y-50.8
X151.6Y-57.8
X151.6Y-61.8
X151.6Y-63.8
X151.6Y-65.8
X151.6Y-67.8
X151.6Y-69.8
X152.244Y-54.75
X152.6Y-52.8
X153.535Y-59.9
X153.6Y-50.8
X153.6Y-61.8
X153.6Y-63.8
X153.6Y-65.8
X153.6Y-67.8
X153.6Y-69.8
X154.6Y-52.8
X154.6Y-56.8
X155.6Y-50.8
X156.6Y-52.8
X156.6Y-56.8
X156.6Y-58.8
X156.6Y-60.8
X156.6Y-62.8
X156.6Y-64.8
X156.6Y-66.8
X156.6Y-68.8
X156.6Y-70.8
X157.6Y-50.8
X158.6Y-52.8
X158.6Y-54.8
X158.6Y-62.8
X158.6Y-66.8
X158.6Y-68.8
X158.6Y-70.8
X159.6Y-50.8
X160.6Y-52.8
X160.6Y-54.8
X160.6Y-56.8
X160.6Y-64.8
X160.6Y-66.8
X160.6Y-68.8
X160.6Y-70.8
X161.6Y-50.8
X162.6Y-52.8
X162.6Y-54.8
X162.6Y-56.8
X162.6Y-58.8
X162.6Y-60.8
X162.6Y-62.8
X162.6Y-64.8
X162.6Y-66.8
X162.6Y-68.8
X162.6Y-70.8
X163.6Y-50.8
X164.6Y-52.8
X164.6Y-54.8
X164.6Y-56.8
X164.6Y-58.8
X164.6Y-60.8
X164.6Y-62.8
X164.6Y-64.8
X164.6Y-66.8
X164.6Y-68.8
X164.6Y-70.8
T3
X87.68Y-64.665G85X87.68Y-65.765
G05
X87.68Y-68.995G85X87.68Y-69.795
G05
X96.32Y-64.665G85X96.32Y-65.765
G05
X96.32Y-68.995G85X96.32Y-69.795
G05
M30
