%TF.GenerationSoftware,KiCad,Pcbnew,7.0.11+dfsg-1build4*%
%TF.CreationDate,2026-09-30T11:49:50+00:00*%
%TF.ProjectId,ai_glasses,61695f67-6c61-4737-9365-732e6b696361,1.0*%
%TF.SameCoordinates,Original*%
%TF.FileFunction,Paste,Top*%
%TF.FilePolarity,Positive*%
%FSLAX46Y46*%
G04 Gerber Fmt 4.6, Leading zero omitted, Abs format (unit mm)*
G04 Created by KiCad (PCBNEW 7.0.11+dfsg-1build4) date 2026-09-30 11:49:50*
%MOMM*%
%LPD*%
G01*
G04 APERTURE LIST*
G04 Aperture macros list*
%AMRoundRect*
0 Rectangle with rounded corners*
0 $1 Rounding radius*
0 $2 $3 $4 $5 $6 $7 $8 $9 X,Y pos of 4 corners*
0 Add a 4 corners polygon primitive as box body*
4,1,4,$2,$3,$4,$5,$6,$7,$8,$9,$2,$3,0*
0 Add four circle primitives for the rounded corners*
1,1,$1+$1,$2,$3*
1,1,$1+$1,$4,$5*
1,1,$1+$1,$6,$7*
1,1,$1+$1,$8,$9*
0 Add four rect primitives between the rounded corners*
20,1,$1+$1,$2,$3,$4,$5,0*
20,1,$1+$1,$4,$5,$6,$7,0*
20,1,$1+$1,$6,$7,$8,$9,0*
20,1,$1+$1,$8,$9,$2,$3,0*%
G04 Aperture macros list end*
%ADD10RoundRect,0.140000X-0.140000X-0.170000X0.140000X-0.170000X0.140000X0.170000X-0.140000X0.170000X0*%
%ADD11RoundRect,0.140000X0.140000X0.170000X-0.140000X0.170000X-0.140000X-0.170000X0.140000X-0.170000X0*%
%ADD12RoundRect,0.150000X-0.512500X-0.150000X0.512500X-0.150000X0.512500X0.150000X-0.512500X0.150000X0*%
%ADD13R,0.900000X0.900000*%
%ADD14R,0.900000X1.500000*%
%ADD15R,1.500000X0.900000*%
%ADD16RoundRect,0.135000X-0.135000X-0.185000X0.135000X-0.185000X0.135000X0.185000X-0.135000X0.185000X0*%
%ADD17RoundRect,0.135000X0.185000X-0.135000X0.185000X0.135000X-0.185000X0.135000X-0.185000X-0.135000X0*%
%ADD18RoundRect,0.300000X-0.900000X-0.700000X0.900000X-0.700000X0.900000X0.700000X-0.900000X0.700000X0*%
%ADD19RoundRect,0.250000X0.250000X0.475000X-0.250000X0.475000X-0.250000X-0.475000X0.250000X-0.475000X0*%
%ADD20R,0.300000X1.300000*%
%ADD21R,1.800000X2.200000*%
%ADD22RoundRect,0.150000X-0.150000X-0.425000X0.150000X-0.425000X0.150000X0.425000X-0.150000X0.425000X0*%
%ADD23RoundRect,0.075000X-0.075000X-0.500000X0.075000X-0.500000X0.075000X0.500000X-0.075000X0.500000X0*%
%ADD24O,1.000000X2.100000*%
%ADD25O,1.000000X1.800000*%
%ADD26RoundRect,0.225000X-0.225000X-0.250000X0.225000X-0.250000X0.225000X0.250000X-0.225000X0.250000X0*%
%ADD27RoundRect,0.132500X-0.132500X-0.132500X0.132500X-0.132500X0.132500X0.132500X-0.132500X0.132500X0*%
%ADD28RoundRect,0.062500X-0.350000X-0.062500X0.350000X-0.062500X0.350000X0.062500X-0.350000X0.062500X0*%
%ADD29RoundRect,0.062500X-0.062500X-0.350000X0.062500X-0.350000X0.062500X0.350000X-0.062500X0.350000X0*%
G04 APERTURE END LIST*
%TO.C,U6*%
G36*
X78450000Y-65024999D02*
G01*
X78950000Y-65024999D01*
X78950000Y-65446999D01*
X78450000Y-65446999D01*
X78450000Y-65024999D01*
G37*
G36*
X78950000Y-65846999D02*
G01*
X78450000Y-65846999D01*
X78450000Y-66268999D01*
X78950000Y-66268999D01*
X78950000Y-65846999D01*
G37*
G36*
X79350000Y-65024999D02*
G01*
X79850000Y-65024999D01*
X79850000Y-65446999D01*
X79350000Y-65446999D01*
X79350000Y-65024999D01*
G37*
G36*
X80250000Y-65846999D02*
G01*
X80750000Y-65846999D01*
X80750000Y-66268999D01*
X80250000Y-66268999D01*
X80250000Y-65846999D01*
G37*
G36*
X80750000Y-65024999D02*
G01*
X80250000Y-65024999D01*
X80250000Y-65446999D01*
X80750000Y-65446999D01*
X80750000Y-65024999D01*
G37*
G36*
X79550000Y-66749699D02*
G01*
X79440200Y-66770699D01*
X79336800Y-66812899D01*
X79243700Y-66874699D01*
X79164700Y-66953699D01*
X79102900Y-67046799D01*
X79060700Y-67150199D01*
X79039700Y-67259999D01*
X78789000Y-67259999D01*
X78816600Y-67094499D01*
X78877500Y-66938299D01*
X78969200Y-66797799D01*
X79087800Y-66679199D01*
X79228300Y-66587499D01*
X79384500Y-66526599D01*
X79550000Y-66498999D01*
X79550000Y-66749699D01*
G37*
G36*
X79060700Y-67469799D02*
G01*
X79102900Y-67573199D01*
X79164700Y-67666299D01*
X79243700Y-67745299D01*
X79336800Y-67807099D01*
X79440200Y-67849299D01*
X79550000Y-67870299D01*
X79550000Y-68120999D01*
X79384500Y-68093399D01*
X79228300Y-68032499D01*
X79087800Y-67940799D01*
X78969200Y-67822199D01*
X78877500Y-67681699D01*
X78816600Y-67525499D01*
X78789000Y-67359999D01*
X79039700Y-67359999D01*
X79060700Y-67469799D01*
G37*
G36*
X79815500Y-66526599D02*
G01*
X79971700Y-66587499D01*
X80112200Y-66679199D01*
X80230800Y-66797799D01*
X80322500Y-66938299D01*
X80383400Y-67094499D01*
X80411000Y-67259999D01*
X80160300Y-67259999D01*
X80139300Y-67150199D01*
X80097100Y-67046799D01*
X80035300Y-66953699D01*
X79956300Y-66874699D01*
X79863200Y-66812899D01*
X79759800Y-66770699D01*
X79650000Y-66749699D01*
X79650000Y-66498999D01*
X79815500Y-66526599D01*
G37*
G36*
X80383400Y-67525499D02*
G01*
X80322500Y-67681699D01*
X80230800Y-67822199D01*
X80112200Y-67940799D01*
X79971700Y-68032499D01*
X79815500Y-68093399D01*
X79650000Y-68120999D01*
X79650000Y-67870299D01*
X79759800Y-67849299D01*
X79863200Y-67807099D01*
X79956300Y-67745299D01*
X80035300Y-67666299D01*
X80097100Y-67573199D01*
X80139300Y-67469799D01*
X80160300Y-67359999D01*
X80411000Y-67359999D01*
X80383400Y-67525499D01*
G37*
%TD*%
D10*
%TO.C,C8*%
X103420000Y-56700000D03*
X104380000Y-56700000D03*
%TD*%
D11*
%TO.C,C18*%
X150980000Y-57750000D03*
X150020000Y-57750000D03*
%TD*%
D10*
%TO.C,C11*%
X89920000Y-61400000D03*
X90880000Y-61400000D03*
%TD*%
D12*
%TO.C,U8*%
X83262500Y-65450000D03*
X83262500Y-66400000D03*
X83262500Y-67350000D03*
X85537500Y-67350000D03*
X85537500Y-66400000D03*
X85537500Y-65450000D03*
%TD*%
D13*
%TO.C,U1*%
X63860000Y-63900000D03*
X65260000Y-63900000D03*
X66660000Y-63900000D03*
X63860000Y-62500000D03*
X65260000Y-62500000D03*
X66660000Y-62500000D03*
X63860000Y-61100000D03*
X65260000Y-61100000D03*
X66660000Y-61100000D03*
D14*
X57540000Y-69750000D03*
X58810000Y-69750000D03*
X60080000Y-69750000D03*
X61350000Y-69750000D03*
X62620000Y-69750000D03*
X63890000Y-69750000D03*
X65160000Y-69750000D03*
X66430000Y-69750000D03*
X67700000Y-69750000D03*
X68970000Y-69750000D03*
X70240000Y-69750000D03*
X71510000Y-69750000D03*
X72780000Y-69750000D03*
X74050000Y-69750000D03*
D15*
X75300000Y-67985000D03*
X75300000Y-66715000D03*
X75300000Y-65445000D03*
X75300000Y-64175000D03*
X75300000Y-62905000D03*
X75300000Y-61635000D03*
X75300000Y-60365000D03*
X75300000Y-59095000D03*
X75300000Y-57825000D03*
X75300000Y-56555000D03*
X75300000Y-55285000D03*
X75300000Y-54015000D03*
D14*
X74050000Y-52250000D03*
X72780000Y-52250000D03*
X71510000Y-52250000D03*
X70240000Y-52250000D03*
X68970000Y-52250000D03*
X67700000Y-52250000D03*
X66430000Y-52250000D03*
X65160000Y-52250000D03*
X63890000Y-52250000D03*
X62620000Y-52250000D03*
X61350000Y-52250000D03*
X60080000Y-52250000D03*
X58810000Y-52250000D03*
X57540000Y-52250000D03*
%TD*%
D12*
%TO.C,U4*%
X98862500Y-51450000D03*
X98862500Y-52400000D03*
X98862500Y-53350000D03*
X101137500Y-53350000D03*
X101137500Y-51450000D03*
%TD*%
D16*
%TO.C,R12*%
X87490000Y-60000000D03*
X88510000Y-60000000D03*
%TD*%
D10*
%TO.C,C16*%
X79120000Y-70300000D03*
X80080000Y-70300000D03*
%TD*%
D17*
%TO.C,R2*%
X94200000Y-59510000D03*
X94200000Y-58490000D03*
%TD*%
%TO.C,R1*%
X92600000Y-59510000D03*
X92600000Y-58490000D03*
%TD*%
D18*
%TO.C,LS1*%
X158500000Y-59500000D03*
X158500000Y-64500000D03*
%TD*%
D12*
%TO.C,U5*%
X98862500Y-55050000D03*
X98862500Y-56000000D03*
X98862500Y-56950000D03*
X101137500Y-56950000D03*
X101137500Y-55050000D03*
%TD*%
D16*
%TO.C,R11*%
X87490000Y-58600000D03*
X88510000Y-58600000D03*
%TD*%
D19*
%TO.C,C17*%
X151450000Y-59450000D03*
X149550000Y-59450000D03*
%TD*%
D10*
%TO.C,C9*%
X89920000Y-58600000D03*
X90880000Y-58600000D03*
%TD*%
D20*
%TO.C,J2*%
X92750000Y-56300000D03*
X92250000Y-56300000D03*
X91750000Y-56300000D03*
X91250000Y-56300000D03*
X90750000Y-56300000D03*
X90250000Y-56300000D03*
X89750000Y-56300000D03*
X89250000Y-56300000D03*
X88750000Y-56300000D03*
X88250000Y-56300000D03*
X87750000Y-56300000D03*
X87250000Y-56300000D03*
X86750000Y-56300000D03*
X86250000Y-56300000D03*
X85750000Y-56300000D03*
X85250000Y-56300000D03*
X84750000Y-56300000D03*
X84250000Y-56300000D03*
X83750000Y-56300000D03*
X83250000Y-56300000D03*
X82750000Y-56300000D03*
X82250000Y-56300000D03*
X81750000Y-56300000D03*
X81250000Y-56300000D03*
D21*
X94650000Y-53050000D03*
X79350000Y-53050000D03*
%TD*%
D22*
%TO.C,J1*%
X88800000Y-64640000D03*
X89600000Y-64640000D03*
D23*
X90750000Y-64640000D03*
X91750000Y-64640000D03*
X92250000Y-64640000D03*
X93250000Y-64640000D03*
D22*
X94400000Y-64640000D03*
X95200000Y-64640000D03*
X95200000Y-64640000D03*
X94400000Y-64640000D03*
D23*
X93750000Y-64640000D03*
X92750000Y-64640000D03*
X91250000Y-64640000D03*
X90250000Y-64640000D03*
D22*
X89600000Y-64640000D03*
X88800000Y-64640000D03*
D24*
X87680000Y-65215000D03*
D25*
X87680000Y-69395000D03*
D24*
X96320000Y-65215000D03*
D25*
X96320000Y-69395000D03*
%TD*%
D16*
%TO.C,R15*%
X81690000Y-70300000D03*
X82710000Y-70300000D03*
%TD*%
D26*
%TO.C,C1*%
X93225000Y-62000000D03*
X94775000Y-62000000D03*
%TD*%
D10*
%TO.C,C10*%
X89920000Y-60000000D03*
X90880000Y-60000000D03*
%TD*%
%TO.C,C5*%
X103420000Y-51600000D03*
X104380000Y-51600000D03*
%TD*%
D27*
%TO.C,U7*%
X149690000Y-54690000D03*
X149690000Y-55310000D03*
X150310000Y-54690000D03*
X150310000Y-55310000D03*
D28*
X148562500Y-54250000D03*
X148562500Y-54750000D03*
X148562500Y-55250000D03*
X148562500Y-55750000D03*
D29*
X149250000Y-56437500D03*
X149750000Y-56437500D03*
X150250000Y-56437500D03*
X150750000Y-56437500D03*
D28*
X151437500Y-55750000D03*
X151437500Y-55250000D03*
X151437500Y-54750000D03*
X151437500Y-54250000D03*
D29*
X150750000Y-53562500D03*
X150250000Y-53562500D03*
X149750000Y-53562500D03*
X149250000Y-53562500D03*
%TD*%
D16*
%TO.C,R14*%
X87490000Y-62800000D03*
X88510000Y-62800000D03*
%TD*%
D10*
%TO.C,C6*%
X103420000Y-53100000D03*
X104380000Y-53100000D03*
%TD*%
D16*
%TO.C,R13*%
X87490000Y-61400000D03*
X88510000Y-61400000D03*
%TD*%
D10*
%TO.C,C7*%
X103420000Y-55200000D03*
X104380000Y-55200000D03*
%TD*%
M02*
