%TF.GenerationSoftware,KiCad,Pcbnew,7.0.11+dfsg-1build4*%
%TF.CreationDate,2026-09-30T11:49:50+00:00*%
%TF.ProjectId,ai_glasses,61695f67-6c61-4737-9365-732e6b696361,1.0*%
%TF.SameCoordinates,Original*%
%TF.FileFunction,Soldermask,Bot*%
%TF.FilePolarity,Negative*%
%FSLAX46Y46*%
G04 Gerber Fmt 4.6, Leading zero omitted, Abs format (unit mm)*
G04 Created by KiCad (PCBNEW 7.0.11+dfsg-1build4) date 2026-09-30 11:49:50*
%MOMM*%
%LPD*%
G01*
G04 APERTURE LIST*
G04 Aperture macros list*
%AMRoundRect*
0 Rectangle with rounded corners*
0 $1 Rounding radius*
0 $2 $3 $4 $5 $6 $7 $8 $9 X,Y pos of 4 corners*
0 Add a 4 corners polygon primitive as box body*
4,1,4,$2,$3,$4,$5,$6,$7,$8,$9,$2,$3,0*
0 Add four circle primitives for the rounded corners*
1,1,$1+$1,$2,$3*
1,1,$1+$1,$4,$5*
1,1,$1+$1,$6,$7*
1,1,$1+$1,$8,$9*
0 Add four rect primitives between the rounded corners*
20,1,$1+$1,$2,$3,$4,$5,0*
20,1,$1+$1,$4,$5,$6,$7,0*
20,1,$1+$1,$6,$7,$8,$9,0*
20,1,$1+$1,$8,$9,$2,$3,0*%
G04 Aperture macros list end*
%ADD10C,0.600000*%
%ADD11C,0.650000*%
%ADD12O,1.000000X2.100000*%
%ADD13O,1.000000X1.800000*%
%ADD14RoundRect,0.135000X0.135000X0.185000X-0.135000X0.185000X-0.135000X-0.185000X0.135000X-0.185000X0*%
%ADD15RoundRect,0.225000X0.250000X-0.225000X0.250000X0.225000X-0.250000X0.225000X-0.250000X-0.225000X0*%
%ADD16RoundRect,0.140000X0.170000X-0.140000X0.170000X0.140000X-0.170000X0.140000X-0.170000X-0.140000X0*%
%ADD17RoundRect,0.135000X0.185000X-0.135000X0.185000X0.135000X-0.185000X0.135000X-0.185000X-0.135000X0*%
%ADD18C,1.000000*%
%ADD19RoundRect,0.150000X0.150000X0.625000X-0.150000X0.625000X-0.150000X-0.625000X0.150000X-0.625000X0*%
%ADD20RoundRect,0.250000X0.350000X0.650000X-0.350000X0.650000X-0.350000X-0.650000X0.350000X-0.650000X0*%
%ADD21RoundRect,0.150000X-0.587500X-0.150000X0.587500X-0.150000X0.587500X0.150000X-0.587500X0.150000X0*%
%ADD22RoundRect,0.250000X0.475000X-0.250000X0.475000X0.250000X-0.475000X0.250000X-0.475000X-0.250000X0*%
%ADD23RoundRect,0.218750X0.218750X0.256250X-0.218750X0.256250X-0.218750X-0.256250X0.218750X-0.256250X0*%
%ADD24R,0.900000X1.700000*%
%ADD25RoundRect,0.150000X0.512500X0.150000X-0.512500X0.150000X-0.512500X-0.150000X0.512500X-0.150000X0*%
%ADD26RoundRect,0.140000X0.140000X0.170000X-0.140000X0.170000X-0.140000X-0.170000X0.140000X-0.170000X0*%
%ADD27RoundRect,0.112500X-0.187500X-0.112500X0.187500X-0.112500X0.187500X0.112500X-0.187500X0.112500X0*%
G04 APERTURE END LIST*
D10*
%TO.C,U6*%
X79600000Y-67309999D03*
%TD*%
D11*
%TO.C,J1*%
X89110000Y-65715000D03*
X94890000Y-65715000D03*
D12*
X87680000Y-65215000D03*
D13*
X87680000Y-69395000D03*
D12*
X96320000Y-65215000D03*
D13*
X96320000Y-69395000D03*
%TD*%
D14*
%TO.C,R4*%
X96010000Y-62400000D03*
X94990000Y-62400000D03*
%TD*%
D15*
%TO.C,C4*%
X80200000Y-53775000D03*
X80200000Y-52225000D03*
%TD*%
D16*
%TO.C,C14*%
X64200000Y-65280000D03*
X64200000Y-64320000D03*
%TD*%
D17*
%TO.C,R7*%
X73800000Y-56110000D03*
X73800000Y-55090000D03*
%TD*%
D18*
%TO.C,TP3*%
X58200000Y-59400000D03*
%TD*%
D19*
%TO.C,J3*%
X84000000Y-66800000D03*
X83000000Y-66800000D03*
D20*
X85300000Y-70675000D03*
X81700000Y-70675000D03*
%TD*%
D17*
%TO.C,R6*%
X62600000Y-65310000D03*
X62600000Y-64290000D03*
%TD*%
D18*
%TO.C,TP1*%
X58200000Y-55000000D03*
%TD*%
D21*
%TO.C,Q1*%
X90562500Y-56350000D03*
X90562500Y-54450000D03*
X92437500Y-55400000D03*
%TD*%
D22*
%TO.C,C12*%
X59000000Y-65450000D03*
X59000000Y-63550000D03*
%TD*%
D23*
%TO.C,D3*%
X72387500Y-61000000D03*
X70812500Y-61000000D03*
%TD*%
D24*
%TO.C,SW2*%
X65200000Y-53000000D03*
X61800000Y-53000000D03*
%TD*%
D25*
%TO.C,U2*%
X96637500Y-58450000D03*
X96637500Y-59400000D03*
X96637500Y-60350000D03*
X94362500Y-60350000D03*
X94362500Y-58450000D03*
%TD*%
D14*
%TO.C,R5*%
X90510000Y-59200000D03*
X89490000Y-59200000D03*
%TD*%
D16*
%TO.C,C13*%
X61000000Y-65280000D03*
X61000000Y-64320000D03*
%TD*%
D15*
%TO.C,C2*%
X99200000Y-60175000D03*
X99200000Y-58625000D03*
%TD*%
D24*
%TO.C,SW1*%
X71700000Y-53000000D03*
X68300000Y-53000000D03*
%TD*%
D26*
%TO.C,C15*%
X67880000Y-63800000D03*
X66920000Y-63800000D03*
%TD*%
D14*
%TO.C,R10*%
X67910000Y-62400000D03*
X66890000Y-62400000D03*
%TD*%
%TO.C,R8*%
X72110000Y-62800000D03*
X71090000Y-62800000D03*
%TD*%
D18*
%TO.C,TP4*%
X58200000Y-61600000D03*
%TD*%
D14*
%TO.C,R9*%
X67910000Y-61000000D03*
X66890000Y-61000000D03*
%TD*%
D23*
%TO.C,D2*%
X90787500Y-61000000D03*
X89212500Y-61000000D03*
%TD*%
D27*
%TO.C,D1*%
X90450000Y-51800000D03*
X92550000Y-51800000D03*
%TD*%
D18*
%TO.C,TP2*%
X58200000Y-57200000D03*
%TD*%
D17*
%TO.C,R3*%
X88000000Y-56810000D03*
X88000000Y-55790000D03*
%TD*%
D15*
%TO.C,C3*%
X88000000Y-53775000D03*
X88000000Y-52225000D03*
%TD*%
D25*
%TO.C,U3*%
X85137500Y-52050000D03*
X85137500Y-53000000D03*
X85137500Y-53950000D03*
X82862500Y-53950000D03*
X82862500Y-52050000D03*
%TD*%
M02*
