%TF.GenerationSoftware,KiCad,Pcbnew,7.0.11+dfsg-1build4*%
%TF.CreationDate,2026-09-30T11:49:50+00:00*%
%TF.ProjectId,ai_glasses,61695f67-6c61-4737-9365-732e6b696361,1.0*%
%TF.SameCoordinates,Original*%
%TF.FileFunction,Copper,L1,Top*%
%TF.FilePolarity,Positive*%
%FSLAX46Y46*%
G04 Gerber Fmt 4.6, Leading zero omitted, Abs format (unit mm)*
G04 Created by KiCad (PCBNEW 7.0.11+dfsg-1build4) date 2026-09-30 11:49:50*
%MOMM*%
%LPD*%
G01*
G04 APERTURE LIST*
G04 Aperture macros list*
%AMRoundRect*
0 Rectangle with rounded corners*
0 $1 Rounding radius*
0 $2 $3 $4 $5 $6 $7 $8 $9 X,Y pos of 4 corners*
0 Add a 4 corners polygon primitive as box body*
4,1,4,$2,$3,$4,$5,$6,$7,$8,$9,$2,$3,0*
0 Add four circle primitives for the rounded corners*
1,1,$1+$1,$2,$3*
1,1,$1+$1,$4,$5*
1,1,$1+$1,$6,$7*
1,1,$1+$1,$8,$9*
0 Add four rect primitives between the rounded corners*
20,1,$1+$1,$2,$3,$4,$5,0*
20,1,$1+$1,$4,$5,$6,$7,0*
20,1,$1+$1,$6,$7,$8,$9,0*
20,1,$1+$1,$8,$9,$2,$3,0*%
%AMFreePoly0*
4,1,53,0.180798,1.454629,0.352531,1.394537,0.506585,1.297738,0.635238,1.169085,0.732037,1.015031,0.792129,0.843298,0.812500,0.662500,0.792129,0.481702,0.732037,0.309969,0.635238,0.155915,0.506585,0.027262,0.352531,-0.069537,0.180798,-0.129629,0.000000,-0.150000,-0.180798,-0.129629,-0.352531,-0.069537,-0.506585,0.027262,-0.635238,0.155915,-0.732037,0.309969,-0.792129,0.481702,
-0.812500,0.662500,-0.517770,0.662500,-0.496797,0.516627,-0.435576,0.382572,-0.339067,0.271196,-0.215089,0.191520,-0.073686,0.150000,0.073686,0.150000,0.215089,0.191520,0.339067,0.271196,0.435576,0.382572,0.496797,0.516627,0.517770,0.662500,0.496797,0.808373,0.435576,0.942428,0.339067,1.053804,0.215089,1.133480,0.073686,1.175000,-0.073686,1.175000,-0.215089,1.133480,
-0.339067,1.053804,-0.435576,0.942428,-0.496797,0.808373,-0.517770,0.662500,-0.812500,0.662500,-0.792129,0.843298,-0.732037,1.015031,-0.635238,1.169085,-0.506585,1.297738,-0.352531,1.394537,-0.180798,1.454629,0.000000,1.475000,0.180798,1.454629,0.180798,1.454629,$1*%
G04 Aperture macros list end*
%TA.AperFunction,SMDPad,CuDef*%
%ADD10RoundRect,0.140000X-0.140000X-0.170000X0.140000X-0.170000X0.140000X0.170000X-0.140000X0.170000X0*%
%TD*%
%TA.AperFunction,SMDPad,CuDef*%
%ADD11RoundRect,0.140000X0.140000X0.170000X-0.140000X0.170000X-0.140000X-0.170000X0.140000X-0.170000X0*%
%TD*%
%TA.AperFunction,SMDPad,CuDef*%
%ADD12RoundRect,0.150000X-0.512500X-0.150000X0.512500X-0.150000X0.512500X0.150000X-0.512500X0.150000X0*%
%TD*%
%TA.AperFunction,SMDPad,CuDef*%
%ADD13R,0.900000X1.500000*%
%TD*%
%TA.AperFunction,SMDPad,CuDef*%
%ADD14R,1.500000X0.900000*%
%TD*%
%TA.AperFunction,HeatsinkPad*%
%ADD15C,0.600000*%
%TD*%
%TA.AperFunction,SMDPad,CuDef*%
%ADD16R,3.900000X3.900000*%
%TD*%
%TA.AperFunction,SMDPad,CuDef*%
%ADD17RoundRect,0.135000X-0.135000X-0.185000X0.135000X-0.185000X0.135000X0.185000X-0.135000X0.185000X0*%
%TD*%
%TA.AperFunction,SMDPad,CuDef*%
%ADD18RoundRect,0.135000X0.185000X-0.135000X0.185000X0.135000X-0.185000X0.135000X-0.185000X-0.135000X0*%
%TD*%
%TA.AperFunction,SMDPad,CuDef*%
%ADD19RoundRect,0.300000X-0.900000X-0.700000X0.900000X-0.700000X0.900000X0.700000X-0.900000X0.700000X0*%
%TD*%
%TA.AperFunction,SMDPad,CuDef*%
%ADD20R,0.600000X0.522000*%
%TD*%
%TA.AperFunction,SMDPad,CuDef*%
%ADD21FreePoly0,90.000000*%
%TD*%
%TA.AperFunction,SMDPad,CuDef*%
%ADD22RoundRect,0.250000X0.250000X0.475000X-0.250000X0.475000X-0.250000X-0.475000X0.250000X-0.475000X0*%
%TD*%
%TA.AperFunction,SMDPad,CuDef*%
%ADD23R,0.300000X1.300000*%
%TD*%
%TA.AperFunction,SMDPad,CuDef*%
%ADD24R,1.800000X2.200000*%
%TD*%
%TA.AperFunction,SMDPad,CuDef*%
%ADD25RoundRect,0.150000X-0.150000X-0.425000X0.150000X-0.425000X0.150000X0.425000X-0.150000X0.425000X0*%
%TD*%
%TA.AperFunction,SMDPad,CuDef*%
%ADD26RoundRect,0.075000X-0.075000X-0.500000X0.075000X-0.500000X0.075000X0.500000X-0.075000X0.500000X0*%
%TD*%
%TA.AperFunction,ComponentPad*%
%ADD27O,1.000000X2.100000*%
%TD*%
%TA.AperFunction,ComponentPad*%
%ADD28O,1.000000X1.800000*%
%TD*%
%TA.AperFunction,SMDPad,CuDef*%
%ADD29RoundRect,0.225000X-0.225000X-0.250000X0.225000X-0.250000X0.225000X0.250000X-0.225000X0.250000X0*%
%TD*%
%TA.AperFunction,SMDPad,CuDef*%
%ADD30RoundRect,0.062500X-0.350000X-0.062500X0.350000X-0.062500X0.350000X0.062500X-0.350000X0.062500X0*%
%TD*%
%TA.AperFunction,SMDPad,CuDef*%
%ADD31RoundRect,0.062500X-0.062500X-0.350000X0.062500X-0.350000X0.062500X0.350000X-0.062500X0.350000X0*%
%TD*%
%TA.AperFunction,HeatsinkPad*%
%ADD32C,0.500000*%
%TD*%
%TA.AperFunction,HeatsinkPad*%
%ADD33R,1.230000X1.230000*%
%TD*%
%TA.AperFunction,ViaPad*%
%ADD34C,0.500000*%
%TD*%
%TA.AperFunction,Conductor*%
%ADD35C,0.250000*%
%TD*%
%TA.AperFunction,Conductor*%
%ADD36C,0.300000*%
%TD*%
%TA.AperFunction,Conductor*%
%ADD37C,0.150000*%
%TD*%
%TA.AperFunction,Conductor*%
%ADD38C,0.250200*%
%TD*%
%TA.AperFunction,Conductor*%
%ADD39C,0.200000*%
%TD*%
%TA.AperFunction,Conductor*%
%ADD40C,0.600000*%
%TD*%
G04 APERTURE END LIST*
D10*
%TO.P,C8,1*%
%TO.N,+1V2_CAM*%
X103420000Y-56700000D03*
%TO.P,C8,2*%
%TO.N,GND*%
X104380000Y-56700000D03*
%TD*%
D11*
%TO.P,C18,1*%
%TO.N,VSYS*%
X150980000Y-57750000D03*
%TO.P,C18,2*%
%TO.N,GND*%
X150020000Y-57750000D03*
%TD*%
D10*
%TO.P,C11,1*%
%TO.N,+3V3*%
X89920000Y-61400000D03*
%TO.P,C11,2*%
%TO.N,GND*%
X90880000Y-61400000D03*
%TD*%
D12*
%TO.P,U8,1*%
%TO.N,USB_DP*%
X83262500Y-65450000D03*
%TO.P,U8,2*%
%TO.N,GND*%
X83262500Y-66400000D03*
%TO.P,U8,3*%
%TO.N,USB_DM*%
X83262500Y-67350000D03*
%TO.P,U8,4*%
X85537500Y-67350000D03*
%TO.P,U8,5*%
%TO.N,VBUS*%
X85537500Y-66400000D03*
%TO.P,U8,6*%
%TO.N,USB_DP*%
X85537500Y-65450000D03*
%TD*%
D13*
%TO.P,U1,1*%
%TO.N,GND*%
X57540000Y-69750000D03*
%TO.P,U1,2*%
%TO.N,+3V3*%
X58810000Y-69750000D03*
%TO.P,U1,3*%
%TO.N,EN*%
X60080000Y-69750000D03*
%TO.P,U1,4*%
%TO.N,VBAT_SENSE*%
X61350000Y-69750000D03*
%TO.P,U1,5*%
%TO.N,MIC_SCK*%
X62620000Y-69750000D03*
%TO.P,U1,6*%
%TO.N,MIC_WS*%
X63890000Y-69750000D03*
%TO.P,U1,7*%
%TO.N,MIC_SD*%
X65160000Y-69750000D03*
%TO.P,U1,8*%
%TO.N,AMP_BCLK*%
X66430000Y-69750000D03*
%TO.P,U1,9*%
%TO.N,AMP_LRCLK*%
X67700000Y-69750000D03*
%TO.P,U1,10*%
%TO.N,AMP_DIN*%
X68970000Y-69750000D03*
%TO.P,U1,11*%
%TO.N,AMP_SD*%
X70240000Y-69750000D03*
%TO.P,U1,12*%
%TO.N,LED_STATUS*%
X71510000Y-69750000D03*
%TO.P,U1,13*%
%TO.N,USB_DM*%
X72780000Y-69750000D03*
%TO.P,U1,14*%
%TO.N,USB_DP*%
X74050000Y-69750000D03*
D14*
%TO.P,U1,15*%
%TO.N,N/C*%
X75300000Y-67985000D03*
%TO.P,U1,16*%
X75300000Y-66715000D03*
%TO.P,U1,17*%
%TO.N,CAM_D0*%
X75300000Y-65445000D03*
%TO.P,U1,18*%
%TO.N,CAM_D1*%
X75300000Y-64175000D03*
%TO.P,U1,19*%
%TO.N,CAM_D2*%
X75300000Y-62905000D03*
%TO.P,U1,20*%
%TO.N,CAM_D3*%
X75300000Y-61635000D03*
%TO.P,U1,21*%
%TO.N,CAM_D4*%
X75300000Y-60365000D03*
%TO.P,U1,22*%
%TO.N,CAM_D5*%
X75300000Y-59095000D03*
%TO.P,U1,23*%
%TO.N,CAM_D6*%
X75300000Y-57825000D03*
%TO.P,U1,24*%
%TO.N,CAM_D7*%
X75300000Y-56555000D03*
%TO.P,U1,25*%
%TO.N,CAM_PCLK*%
X75300000Y-55285000D03*
%TO.P,U1,26*%
%TO.N,N/C*%
X75300000Y-54015000D03*
D13*
%TO.P,U1,27*%
%TO.N,BOOT*%
X74050000Y-52250000D03*
%TO.P,U1,28*%
%TO.N,N/C*%
X72780000Y-52250000D03*
%TO.P,U1,29*%
X71510000Y-52250000D03*
%TO.P,U1,30*%
X70240000Y-52250000D03*
%TO.P,U1,31*%
%TO.N,CAM_VSYNC*%
X68970000Y-52250000D03*
%TO.P,U1,32*%
%TO.N,CAM_HREF*%
X67700000Y-52250000D03*
%TO.P,U1,33*%
%TO.N,CAM_XCLK*%
X66430000Y-52250000D03*
%TO.P,U1,34*%
%TO.N,CAM_SIOD*%
X65160000Y-52250000D03*
%TO.P,U1,35*%
%TO.N,CAM_SIOC*%
X63890000Y-52250000D03*
%TO.P,U1,36*%
%TO.N,UART_RX*%
X62620000Y-52250000D03*
%TO.P,U1,37*%
%TO.N,UART_TX*%
X61350000Y-52250000D03*
%TO.P,U1,38*%
%TO.N,CAM_PWDN*%
X60080000Y-52250000D03*
%TO.P,U1,39*%
%TO.N,CAM_RESET*%
X58810000Y-52250000D03*
%TO.P,U1,40*%
%TO.N,GND*%
X57540000Y-52250000D03*
D15*
%TO.P,U1,41*%
X64560000Y-63900000D03*
X65960000Y-63900000D03*
X63860000Y-63200000D03*
X65260000Y-63200000D03*
X66660000Y-63200000D03*
X64560000Y-62500000D03*
D16*
X65260000Y-62500000D03*
D15*
X65960000Y-62500000D03*
X63860000Y-61800000D03*
X65260000Y-61800000D03*
X66660000Y-61800000D03*
X64560000Y-61100000D03*
X65960000Y-61100000D03*
%TD*%
D12*
%TO.P,U4,1*%
%TO.N,+3V3*%
X98862500Y-51450000D03*
%TO.P,U4,2*%
%TO.N,GND*%
X98862500Y-52400000D03*
%TO.P,U4,3*%
%TO.N,+3V3*%
X98862500Y-53350000D03*
%TO.P,U4,4*%
%TO.N,N/C*%
X101137500Y-53350000D03*
%TO.P,U4,5*%
%TO.N,+2V8_CAM*%
X101137500Y-51450000D03*
%TD*%
D17*
%TO.P,R12,1*%
%TO.N,+3V3*%
X87490000Y-60000000D03*
%TO.P,R12,2*%
%TO.N,CAM_SIOC*%
X88510000Y-60000000D03*
%TD*%
D10*
%TO.P,C16,1*%
%TO.N,+3V3*%
X79120000Y-70300000D03*
%TO.P,C16,2*%
%TO.N,GND*%
X80080000Y-70300000D03*
%TD*%
D18*
%TO.P,R2,1*%
%TO.N,CC2*%
X94200000Y-59510000D03*
%TO.P,R2,2*%
%TO.N,GND*%
X94200000Y-58490000D03*
%TD*%
%TO.P,R1,1*%
%TO.N,CC1*%
X92600000Y-59510000D03*
%TO.P,R1,2*%
%TO.N,GND*%
X92600000Y-58490000D03*
%TD*%
D19*
%TO.P,LS1,1*%
%TO.N,SPK_P*%
X158500000Y-59500000D03*
%TO.P,LS1,2*%
%TO.N,SPK_N*%
X158500000Y-64500000D03*
%TD*%
D12*
%TO.P,U5,1*%
%TO.N,+3V3*%
X98862500Y-55050000D03*
%TO.P,U5,2*%
%TO.N,GND*%
X98862500Y-56000000D03*
%TO.P,U5,3*%
%TO.N,+3V3*%
X98862500Y-56950000D03*
%TO.P,U5,4*%
%TO.N,N/C*%
X101137500Y-56950000D03*
%TO.P,U5,5*%
%TO.N,+1V2_CAM*%
X101137500Y-55050000D03*
%TD*%
D20*
%TO.P,U6,1*%
%TO.N,MIC_WS*%
X78700000Y-65235999D03*
%TO.P,U6,2*%
%TO.N,GND*%
X78700000Y-66057999D03*
D21*
%TO.P,U6,3*%
X80262500Y-67309999D03*
D20*
%TO.P,U6,4*%
%TO.N,MIC_SCK*%
X80500000Y-66057999D03*
%TO.P,U6,5*%
%TO.N,+3V3*%
X80500000Y-65235999D03*
%TO.P,U6,6*%
%TO.N,MIC_SD*%
X79600000Y-65235999D03*
%TD*%
D17*
%TO.P,R11,1*%
%TO.N,+3V3*%
X87490000Y-58600000D03*
%TO.P,R11,2*%
%TO.N,CAM_SIOD*%
X88510000Y-58600000D03*
%TD*%
D22*
%TO.P,C17,1*%
%TO.N,VSYS*%
X151450000Y-59450000D03*
%TO.P,C17,2*%
%TO.N,GND*%
X149550000Y-59450000D03*
%TD*%
D10*
%TO.P,C9,1*%
%TO.N,+2V8_CAM*%
X89920000Y-58600000D03*
%TO.P,C9,2*%
%TO.N,GND*%
X90880000Y-58600000D03*
%TD*%
D23*
%TO.P,J2,1*%
%TO.N,N/C*%
X92750000Y-56300000D03*
%TO.P,J2,2*%
%TO.N,GND*%
X92250000Y-56300000D03*
%TO.P,J2,3*%
%TO.N,CAM_SIOD*%
X91750000Y-56300000D03*
%TO.P,J2,4*%
%TO.N,+2V8_CAM*%
X91250000Y-56300000D03*
%TO.P,J2,5*%
%TO.N,CAM_SIOC*%
X90750000Y-56300000D03*
%TO.P,J2,6*%
%TO.N,CAM_RESET*%
X90250000Y-56300000D03*
%TO.P,J2,7*%
%TO.N,CAM_VSYNC*%
X89750000Y-56300000D03*
%TO.P,J2,8*%
%TO.N,CAM_PWDN*%
X89250000Y-56300000D03*
%TO.P,J2,9*%
%TO.N,CAM_HREF*%
X88750000Y-56300000D03*
%TO.P,J2,10*%
%TO.N,+1V2_CAM*%
X88250000Y-56300000D03*
%TO.P,J2,11*%
%TO.N,+3V3*%
X87750000Y-56300000D03*
%TO.P,J2,12*%
%TO.N,CAM_D7*%
X87250000Y-56300000D03*
%TO.P,J2,13*%
%TO.N,CAM_XCLK*%
X86750000Y-56300000D03*
%TO.P,J2,14*%
%TO.N,CAM_D6*%
X86250000Y-56300000D03*
%TO.P,J2,15*%
%TO.N,GND*%
X85750000Y-56300000D03*
%TO.P,J2,16*%
%TO.N,CAM_D5*%
X85250000Y-56300000D03*
%TO.P,J2,17*%
%TO.N,CAM_PCLK*%
X84750000Y-56300000D03*
%TO.P,J2,18*%
%TO.N,CAM_D4*%
X84250000Y-56300000D03*
%TO.P,J2,19*%
%TO.N,CAM_D0*%
X83750000Y-56300000D03*
%TO.P,J2,20*%
%TO.N,CAM_D3*%
X83250000Y-56300000D03*
%TO.P,J2,21*%
%TO.N,CAM_D1*%
X82750000Y-56300000D03*
%TO.P,J2,22*%
%TO.N,CAM_D2*%
X82250000Y-56300000D03*
%TO.P,J2,23*%
%TO.N,N/C*%
X81750000Y-56300000D03*
%TO.P,J2,24*%
X81250000Y-56300000D03*
D24*
%TO.P,J2,MP*%
X94650000Y-53050000D03*
X79350000Y-53050000D03*
%TD*%
D25*
%TO.P,J1,A1*%
%TO.N,GND*%
X88800000Y-64640000D03*
%TO.P,J1,A4*%
%TO.N,VBUS*%
X89600000Y-64640000D03*
D26*
%TO.P,J1,A5*%
%TO.N,CC1*%
X90750000Y-64640000D03*
%TO.P,J1,A6*%
%TO.N,USB_DP*%
X91750000Y-64640000D03*
%TO.P,J1,A7*%
%TO.N,USB_DM*%
X92250000Y-64640000D03*
%TO.P,J1,A8*%
%TO.N,N/C*%
X93250000Y-64640000D03*
D25*
%TO.P,J1,A9*%
%TO.N,VBUS*%
X94400000Y-64640000D03*
%TO.P,J1,A12*%
%TO.N,GND*%
X95200000Y-64640000D03*
%TO.P,J1,B1*%
X95200000Y-64640000D03*
%TO.P,J1,B4*%
%TO.N,VBUS*%
X94400000Y-64640000D03*
D26*
%TO.P,J1,B5*%
%TO.N,CC2*%
X93750000Y-64640000D03*
%TO.P,J1,B6*%
%TO.N,USB_DP*%
X92750000Y-64640000D03*
%TO.P,J1,B7*%
%TO.N,USB_DM*%
X91250000Y-64640000D03*
%TO.P,J1,B8*%
%TO.N,N/C*%
X90250000Y-64640000D03*
D25*
%TO.P,J1,B9*%
%TO.N,VBUS*%
X89600000Y-64640000D03*
%TO.P,J1,B12*%
%TO.N,GND*%
X88800000Y-64640000D03*
D27*
%TO.P,J1,S1*%
X87680000Y-65215000D03*
D28*
X87680000Y-69395000D03*
D27*
X96320000Y-65215000D03*
D28*
X96320000Y-69395000D03*
%TD*%
D17*
%TO.P,R15,1*%
%TO.N,MIC_SD*%
X81690000Y-70300000D03*
%TO.P,R15,2*%
%TO.N,GND*%
X82710000Y-70300000D03*
%TD*%
D29*
%TO.P,C1,1*%
%TO.N,VBUS*%
X93225000Y-62000000D03*
%TO.P,C1,2*%
%TO.N,GND*%
X94775000Y-62000000D03*
%TD*%
D10*
%TO.P,C10,1*%
%TO.N,+1V2_CAM*%
X89920000Y-60000000D03*
%TO.P,C10,2*%
%TO.N,GND*%
X90880000Y-60000000D03*
%TD*%
%TO.P,C5,1*%
%TO.N,+3V3*%
X103420000Y-51600000D03*
%TO.P,C5,2*%
%TO.N,GND*%
X104380000Y-51600000D03*
%TD*%
D30*
%TO.P,U7,1*%
%TO.N,AMP_DIN*%
X148562500Y-54250000D03*
%TO.P,U7,2*%
%TO.N,GND*%
X148562500Y-54750000D03*
%TO.P,U7,3*%
X148562500Y-55250000D03*
%TO.P,U7,4*%
%TO.N,AMP_SD*%
X148562500Y-55750000D03*
D31*
%TO.P,U7,5*%
%TO.N,N/C*%
X149250000Y-56437500D03*
%TO.P,U7,6*%
X149750000Y-56437500D03*
%TO.P,U7,7*%
%TO.N,VSYS*%
X150250000Y-56437500D03*
%TO.P,U7,8*%
X150750000Y-56437500D03*
D30*
%TO.P,U7,9*%
%TO.N,SPK_P*%
X151437500Y-55750000D03*
%TO.P,U7,10*%
%TO.N,SPK_N*%
X151437500Y-55250000D03*
%TO.P,U7,11*%
%TO.N,GND*%
X151437500Y-54750000D03*
%TO.P,U7,12*%
%TO.N,N/C*%
X151437500Y-54250000D03*
D31*
%TO.P,U7,13*%
X150750000Y-53562500D03*
%TO.P,U7,14*%
%TO.N,AMP_LRCLK*%
X150250000Y-53562500D03*
%TO.P,U7,15*%
%TO.N,GND*%
X149750000Y-53562500D03*
%TO.P,U7,16*%
%TO.N,AMP_BCLK*%
X149250000Y-53562500D03*
D32*
%TO.P,U7,17*%
%TO.N,GND*%
X149635000Y-54635000D03*
X149635000Y-55365000D03*
D33*
X150000000Y-55000000D03*
D32*
X150365000Y-54635000D03*
X150365000Y-55365000D03*
%TD*%
D17*
%TO.P,R14,1*%
%TO.N,CAM_PWDN*%
X87490000Y-62800000D03*
%TO.P,R14,2*%
%TO.N,GND*%
X88510000Y-62800000D03*
%TD*%
D10*
%TO.P,C6,1*%
%TO.N,+2V8_CAM*%
X103420000Y-53100000D03*
%TO.P,C6,2*%
%TO.N,GND*%
X104380000Y-53100000D03*
%TD*%
D17*
%TO.P,R13,1*%
%TO.N,+3V3*%
X87490000Y-61400000D03*
%TO.P,R13,2*%
%TO.N,CAM_RESET*%
X88510000Y-61400000D03*
%TD*%
D10*
%TO.P,C7,1*%
%TO.N,+3V3*%
X103420000Y-55200000D03*
%TO.P,C7,2*%
%TO.N,GND*%
X104380000Y-55200000D03*
%TD*%
D34*
%TO.N,+1V2_CAM*%
X88499400Y-57476300D03*
X101137500Y-56206100D03*
X91643600Y-60660300D03*
%TO.N,+2V8_CAM*%
X92288100Y-54572000D03*
X101137500Y-52284300D03*
%TO.N,+3V3*%
X78576600Y-70843400D03*
X58810000Y-68586000D03*
X87620200Y-57742400D03*
X97780700Y-56774900D03*
%TO.N,AMP_BCLK*%
X148720400Y-53562500D03*
X66618900Y-68607200D03*
%TO.N,AMP_DIN*%
X79350000Y-71050000D03*
X147050000Y-54750000D03*
%TO.N,AMP_LRCLK*%
X150490100Y-52757200D03*
X70861100Y-68550300D03*
%TO.N,AMP_SD*%
X147807800Y-56041800D03*
X70165400Y-68610300D03*
%TO.N,BOOT*%
X74892500Y-52055300D03*
%TO.N,CAM_D0*%
X83742200Y-57785000D03*
X82960600Y-58750300D03*
%TO.N,CAM_D1*%
X82286300Y-57629200D03*
X76436200Y-64175000D03*
%TO.N,CAM_D2*%
X76441700Y-62905000D03*
X81640900Y-57632500D03*
%TO.N,CAM_D3*%
X82315400Y-58752100D03*
X83250000Y-57356100D03*
%TO.N,CAM_D4*%
X84233300Y-58616300D03*
X80010600Y-60365000D03*
%TO.N,CAM_D5*%
X81266000Y-59091000D03*
X84801700Y-57520000D03*
%TO.N,CAM_D7*%
X76458400Y-56555000D03*
X81746200Y-54757100D03*
%TO.N,CAM_PWDN*%
X60496000Y-51113900D03*
X86840200Y-62800000D03*
X89214100Y-55249900D03*
%TO.N,CAM_RESET*%
X88156000Y-60693600D03*
X66020500Y-54278600D03*
X89636300Y-57452900D03*
%TO.N,CAM_SIOC*%
X66043700Y-53625200D03*
X87994700Y-59316800D03*
%TO.N,CAM_XCLK*%
X66747800Y-53434600D03*
X83576300Y-54981100D03*
%TO.N,CC1*%
X92150000Y-63200000D03*
X90700000Y-65500000D03*
%TO.N,CHG_STAT*%
X96197000Y-57760200D03*
X91368000Y-57917000D03*
%TO.N,EN*%
X65252500Y-54238100D03*
X61886400Y-64230700D03*
%TO.N,GND*%
X156600000Y-56800000D03*
X88000000Y-55130000D03*
X57540000Y-70925000D03*
X86168800Y-53000000D03*
X76800000Y-61000000D03*
X73600000Y-57800000D03*
X62400000Y-50800000D03*
X164600000Y-70800000D03*
X77600000Y-67800000D03*
X160600000Y-70800000D03*
X160600000Y-54800000D03*
X92864864Y-50950000D03*
X69600000Y-55000000D03*
X164600000Y-56800000D03*
X151600000Y-63800000D03*
X59518567Y-71050000D03*
X160600000Y-68800000D03*
X102600000Y-59200000D03*
X94378378Y-50950000D03*
X67600000Y-57800000D03*
X92600265Y-71050000D03*
X69600000Y-61000000D03*
X160600000Y-56800000D03*
X86600000Y-68800000D03*
X164600000Y-58800000D03*
X156600000Y-68800000D03*
X94600000Y-68800000D03*
X66920000Y-64955000D03*
X162600000Y-70800000D03*
X69600000Y-59800000D03*
X164600000Y-52800000D03*
X152600000Y-52800000D03*
X158600000Y-66800000D03*
X90600000Y-68800000D03*
X149600000Y-69800000D03*
X156600000Y-64800000D03*
X70800000Y-65800000D03*
X60599999Y-60800000D03*
X57600000Y-68199999D03*
X162600000Y-54800000D03*
X162600000Y-68800000D03*
X63600000Y-55000000D03*
X62400000Y-55000000D03*
X162600000Y-52800000D03*
X66600000Y-59200000D03*
X147756000Y-54750000D03*
X59050000Y-59400000D03*
X91535000Y-60000000D03*
X83400000Y-64000000D03*
X151600000Y-50800000D03*
X151600000Y-69800000D03*
X156600000Y-52800000D03*
X65599999Y-57800000D03*
X97405405Y-50950000D03*
X67498900Y-53462500D03*
X153600000Y-69800000D03*
X92600000Y-68800000D03*
X159600000Y-50800000D03*
X158600000Y-68800000D03*
X65599999Y-59800000D03*
X154600000Y-52800000D03*
X78600000Y-56800000D03*
X149600000Y-65800000D03*
X156600000Y-58800000D03*
X85600000Y-59800000D03*
X82231200Y-66400000D03*
X80654800Y-67730400D03*
X91096551Y-71050000D03*
X64800000Y-58600000D03*
X80200000Y-51387500D03*
X92600000Y-52800000D03*
X91351351Y-50950000D03*
X162600000Y-56800000D03*
X162600000Y-64800000D03*
X61000000Y-63665000D03*
X85699999Y-62800000D03*
X162600000Y-58800000D03*
X61200000Y-59800000D03*
X57540000Y-53425000D03*
X153600000Y-65800000D03*
X93600000Y-69399999D03*
X71600000Y-57800000D03*
X90600000Y-69999999D03*
X96600000Y-52000000D03*
X80400000Y-62200000D03*
X61599999Y-55800000D03*
X84600000Y-62800000D03*
X101400000Y-58000000D03*
X57600000Y-56200000D03*
X91800000Y-69999999D03*
X97831200Y-56000000D03*
X97800000Y-68799999D03*
X80400000Y-56200000D03*
X86585411Y-71050000D03*
X163600000Y-50800000D03*
X77600000Y-51800000D03*
X83370000Y-70300000D03*
X160600000Y-52800000D03*
X73600000Y-63800000D03*
X154600000Y-56800000D03*
X100025409Y-68340275D03*
X84600000Y-68800000D03*
X105035000Y-53100000D03*
X94775000Y-61162500D03*
X162600000Y-62800000D03*
X72000000Y-55000000D03*
X60599999Y-66800000D03*
X92250000Y-57325000D03*
X97668800Y-59400000D03*
X152244000Y-54750000D03*
X80080000Y-71055000D03*
X89592838Y-71050000D03*
X89170000Y-62800000D03*
X63599999Y-50800000D03*
X94200000Y-57730000D03*
X151600000Y-67800000D03*
X156600000Y-66800000D03*
X162600000Y-66800000D03*
X63599999Y-59800000D03*
X151600000Y-61800000D03*
X97913221Y-70679629D03*
X164600000Y-54800000D03*
X80400000Y-63400000D03*
X70800000Y-58600000D03*
X158600000Y-62800000D03*
X59599999Y-55800000D03*
X98600000Y-62800000D03*
X94990000Y-63160000D03*
X59000000Y-62687500D03*
X158600000Y-54800000D03*
X57600000Y-67000000D03*
X94103978Y-71050000D03*
X149600000Y-63800000D03*
X149600000Y-61800000D03*
X69600000Y-65800000D03*
X68400000Y-58600000D03*
X151600000Y-65800000D03*
X149750000Y-52756200D03*
X79350000Y-66058000D03*
X68400000Y-65800000D03*
X60600000Y-56800000D03*
X149600000Y-67800000D03*
X67200000Y-55000000D03*
X99200000Y-57787500D03*
X164600000Y-62800000D03*
X100600000Y-60800000D03*
X98958011Y-69522037D03*
X73200000Y-65800000D03*
X85100000Y-63549999D03*
X162600000Y-60800000D03*
X153600000Y-61800000D03*
X63599999Y-57800000D03*
X160600000Y-66800000D03*
X94200000Y-55600000D03*
X164600000Y-68800000D03*
X160600000Y-64800000D03*
X82800000Y-61000000D03*
X153600000Y-63800000D03*
X67600000Y-59800000D03*
X57599999Y-50800000D03*
X83400000Y-62800000D03*
X101092807Y-67158513D03*
X156600000Y-62800000D03*
X73800000Y-67600000D03*
X107600000Y-50800000D03*
X153535000Y-59900000D03*
X157600000Y-50800000D03*
X109600000Y-50800000D03*
X164600000Y-64800000D03*
X88000000Y-51387500D03*
X85750000Y-57325000D03*
X97800000Y-61600000D03*
X62599999Y-62800000D03*
X156600000Y-60800000D03*
X58800000Y-50800000D03*
X60998900Y-53462500D03*
X155600000Y-50800000D03*
X80400000Y-57400000D03*
X59599999Y-57800000D03*
X95891891Y-50950000D03*
X82200000Y-64000000D03*
X149600000Y-50800000D03*
X72600000Y-59200000D03*
X106800000Y-55000000D03*
X79200000Y-63400000D03*
X153600000Y-67800000D03*
X61200000Y-62200000D03*
X100600000Y-58800000D03*
X88089124Y-71050000D03*
X105035000Y-51600000D03*
X99000000Y-61600000D03*
X81600000Y-61800000D03*
X73200000Y-62200000D03*
X92980000Y-57831800D03*
X69600000Y-57800000D03*
X90880000Y-62155000D03*
X153600000Y-50800000D03*
X70800000Y-55000000D03*
X68400000Y-55000000D03*
X89400000Y-68799999D03*
X73225000Y-61000000D03*
X69600000Y-63800000D03*
X95607692Y-71050000D03*
X84500000Y-64450000D03*
X97831200Y-52400000D03*
X164600000Y-60800000D03*
X164600000Y-66800000D03*
X57599999Y-65800000D03*
X91535000Y-58600000D03*
X59400000Y-61600000D03*
X158600000Y-70800000D03*
X158600000Y-52800000D03*
X156600000Y-70800000D03*
X161600000Y-50800000D03*
X103600000Y-57800000D03*
X71600000Y-59800000D03*
X84000000Y-59800000D03*
X95600000Y-55800000D03*
X105035000Y-55200000D03*
X73800000Y-59200000D03*
X105035000Y-56700000D03*
X97200000Y-63400000D03*
%TO.N,LED_STATUS*%
X71955700Y-68350400D03*
X72007700Y-63507700D03*
%TO.N,MIC_SD*%
X65950000Y-68550000D03*
X76750000Y-65950000D03*
X83900000Y-68850000D03*
%TO.N,MIC_WS*%
X78000100Y-65432000D03*
X72299000Y-67669100D03*
%TO.N,UART_RX*%
X62915100Y-53431100D03*
%TO.N,UART_TX*%
X59876600Y-53692800D03*
%TO.N,VBAT_SENSE*%
X65757100Y-66046400D03*
%TO.N,VBUS*%
X90750000Y-53500000D03*
X86750000Y-65650000D03*
X89650000Y-64300000D03*
X93050000Y-61700000D03*
X90700000Y-55200000D03*
%TO.N,VSYS*%
X151250000Y-57000000D03*
%TD*%
D35*
%TO.N,+1V2_CAM*%
X88250000Y-56300000D02*
X88250000Y-57226900D01*
X101137500Y-56206100D02*
X102926100Y-56206100D01*
X90580300Y-60660300D02*
X91643600Y-60660300D01*
X89920000Y-60000000D02*
X90580300Y-60660300D01*
X88499400Y-57476300D02*
X88250000Y-57226900D01*
X101137500Y-55050000D02*
X101137500Y-56206100D01*
X102926100Y-56206100D02*
X103420000Y-56700000D01*
%TO.N,+2V8_CAM*%
X102604300Y-52284300D02*
X103420000Y-53100000D01*
X91250000Y-55373100D02*
X92051100Y-54572000D01*
X101137500Y-52284300D02*
X102604300Y-52284300D01*
X92051100Y-54572000D02*
X92288100Y-54572000D01*
X91250000Y-57270000D02*
X91250000Y-56300000D01*
X101137500Y-52284300D02*
X101137500Y-51450000D01*
X91250000Y-56300000D02*
X91250000Y-55373100D01*
X89920000Y-58600000D02*
X91250000Y-57270000D01*
D36*
%TO.N,+3V3*%
X100395000Y-54412500D02*
X99288500Y-53305900D01*
X99900500Y-51524700D02*
X99900500Y-52693900D01*
X100395000Y-54412500D02*
X99837300Y-54970200D01*
X99244400Y-56950000D02*
X98862500Y-56950000D01*
X87438300Y-58651700D02*
X87438300Y-59948300D01*
X103420000Y-55200000D02*
X102632500Y-54412500D01*
X87490000Y-61400000D02*
X87490000Y-60000000D01*
X89286200Y-62033800D02*
X88123800Y-62033800D01*
X99244400Y-53350000D02*
X98862500Y-53350000D01*
X99837300Y-56357100D02*
X99244400Y-56950000D01*
X89920000Y-61400000D02*
X89286200Y-62033800D01*
X83773100Y-61400000D02*
X80500000Y-64673100D01*
X88123800Y-62033800D02*
X87490000Y-61400000D01*
X87620200Y-57742400D02*
X87620200Y-57381700D01*
X80500000Y-65236000D02*
X80500000Y-64673100D01*
X97780700Y-56774900D02*
X98687400Y-56774900D01*
X79120000Y-70300000D02*
X78576600Y-70843400D01*
X58810000Y-68586000D02*
X58810000Y-69750000D01*
X87620200Y-57381700D02*
X87750000Y-57251900D01*
X98862500Y-51450000D02*
X99825800Y-51450000D01*
X99825800Y-51450000D02*
X99900500Y-51524700D01*
X99288500Y-53305900D02*
X99244400Y-53350000D01*
X99837300Y-55050000D02*
X99837300Y-56357100D01*
X99837300Y-55050000D02*
X98862500Y-55050000D01*
X87490000Y-57872600D02*
X87620200Y-57742400D01*
X87490000Y-58600000D02*
X87490000Y-57872600D01*
X99825800Y-51450000D02*
X100449500Y-50826300D01*
X87438300Y-59948300D02*
X87490000Y-60000000D01*
X98687400Y-56774900D02*
X98862500Y-56950000D01*
X102632500Y-54412500D02*
X100395000Y-54412500D01*
X87750000Y-56300000D02*
X87750000Y-57251900D01*
X102646300Y-50826300D02*
X103420000Y-51600000D01*
X87490000Y-61400000D02*
X83773100Y-61400000D01*
X100449500Y-50826300D02*
X102646300Y-50826300D01*
X87490000Y-58600000D02*
X87438300Y-58651700D01*
X99900500Y-52693900D02*
X99288500Y-53305900D01*
X99837300Y-54970200D02*
X99837300Y-55050000D01*
D37*
%TO.N,AMP_BCLK*%
X66430000Y-68796100D02*
X66618900Y-68607200D01*
X66430000Y-69750000D02*
X66430000Y-68796100D01*
X149250000Y-53562500D02*
X148720400Y-53562500D01*
%TO.N,AMP_DIN*%
X69700000Y-70750000D02*
X72750000Y-71200000D01*
X147700000Y-54250000D02*
X148150000Y-54250000D01*
X69400000Y-70500000D02*
X69700000Y-70750000D01*
X147050000Y-54750000D02*
X147500000Y-54300000D01*
X72750000Y-71200000D02*
X79050000Y-71350000D01*
X147500000Y-54300000D02*
X147700000Y-54250000D01*
X79050000Y-71350000D02*
X79350000Y-71050000D01*
%TO.N,AMP_LRCLK*%
X70454300Y-68143500D02*
X70861100Y-68550300D01*
X150250000Y-53562500D02*
X150250000Y-52997300D01*
X67700000Y-68796100D02*
X68352600Y-68143500D01*
X68352600Y-68143500D02*
X70454300Y-68143500D01*
X150250000Y-52997300D02*
X150490100Y-52757200D01*
X67700000Y-69750000D02*
X67700000Y-68796100D01*
%TO.N,AMP_SD*%
X70240000Y-69750000D02*
X70240000Y-68796100D01*
X70165400Y-68721500D02*
X70165400Y-68610300D01*
X148270700Y-56041800D02*
X148562500Y-55750000D01*
X70240000Y-68796100D02*
X70165400Y-68721500D01*
X147807800Y-56041800D02*
X148270700Y-56041800D01*
%TO.N,BOOT*%
X74050000Y-52250000D02*
X74050000Y-51296100D01*
X74607900Y-51296100D02*
X74892500Y-51580700D01*
X74050000Y-51296100D02*
X74607900Y-51296100D01*
X74892500Y-51580700D02*
X74892500Y-52055300D01*
%TO.N,CAM_D0*%
X75300000Y-65445000D02*
X76253900Y-65445000D01*
X83750000Y-56300000D02*
X83750000Y-57153900D01*
X76253900Y-65445000D02*
X76265900Y-65445000D01*
X83742200Y-57161700D02*
X83750000Y-57153900D01*
X83742200Y-57785000D02*
X83742200Y-57161700D01*
X76265900Y-65445000D02*
X82960600Y-58750300D01*
%TO.N,CAM_D1*%
X75300000Y-64175000D02*
X76253900Y-64175000D01*
X76253900Y-64175000D02*
X76436200Y-64175000D01*
X82750000Y-56300000D02*
X82750000Y-57153900D01*
X82286300Y-57617600D02*
X82286300Y-57629200D01*
X82750000Y-57153900D02*
X82286300Y-57617600D01*
%TO.N,CAM_D2*%
X81640900Y-57632500D02*
X82119500Y-57153900D01*
X82119500Y-57153900D02*
X82250000Y-57153900D01*
X82250000Y-56300000D02*
X82250000Y-57153900D01*
X75300000Y-62905000D02*
X76441700Y-62905000D01*
%TO.N,CAM_D3*%
X79432500Y-61635000D02*
X82315400Y-58752100D01*
X75300000Y-61635000D02*
X79432500Y-61635000D01*
X83250000Y-57356100D02*
X83250000Y-56300000D01*
%TO.N,CAM_D4*%
X75300000Y-60365000D02*
X80010600Y-60365000D01*
X84250000Y-56300000D02*
X84250000Y-57153900D01*
X84233300Y-58616300D02*
X84233300Y-57170600D01*
X84233300Y-57170600D02*
X84250000Y-57153900D01*
%TO.N,CAM_D5*%
X75300000Y-59095000D02*
X76253900Y-59095000D01*
X76253900Y-59095000D02*
X81266000Y-59091000D01*
X85250000Y-56300000D02*
X85250000Y-57153900D01*
X85167800Y-57153900D02*
X85250000Y-57153900D01*
X84801700Y-57520000D02*
X85167800Y-57153900D01*
%TO.N,CAM_D6*%
X76666300Y-58237400D02*
X83212500Y-58237400D01*
X84725300Y-59070200D02*
X86250000Y-57545500D01*
X75300000Y-57825000D02*
X76253900Y-57825000D01*
X84045300Y-59070200D02*
X84725300Y-59070200D01*
X83212500Y-58237400D02*
X84045300Y-59070200D01*
X86250000Y-57545500D02*
X86250000Y-56300000D01*
X76253900Y-57825000D02*
X76666300Y-58237400D01*
%TO.N,CAM_D7*%
X81746200Y-54757100D02*
X82026600Y-54476700D01*
X86280600Y-54476700D02*
X87250000Y-55446100D01*
X87250000Y-56300000D02*
X87250000Y-55446100D01*
X82026600Y-54476700D02*
X86280600Y-54476700D01*
X75300000Y-56555000D02*
X76458400Y-56555000D01*
%TO.N,CAM_HREF*%
X87719800Y-54160300D02*
X88750000Y-55190500D01*
X76005100Y-53203900D02*
X77197000Y-54395800D01*
X77197000Y-54395800D02*
X81267400Y-54395800D01*
X68384400Y-53203900D02*
X76005100Y-53203900D01*
X67700000Y-52250000D02*
X67700000Y-52519500D01*
X88750000Y-55190500D02*
X88750000Y-56300000D01*
X81267400Y-54395800D02*
X81502900Y-54160300D01*
X67700000Y-52519500D02*
X68384400Y-53203900D01*
X81502900Y-54160300D02*
X87719800Y-54160300D01*
%TO.N,CAM_PCLK*%
X75300000Y-55285000D02*
X76253900Y-55285000D01*
X84750000Y-56300000D02*
X84750000Y-55446100D01*
X76253900Y-55285000D02*
X76415000Y-55446100D01*
X76415000Y-55446100D02*
X84750000Y-55446100D01*
%TO.N,CAM_PWDN*%
X86840200Y-62800000D02*
X87490000Y-62800000D01*
X89250000Y-56300000D02*
X89250000Y-55446100D01*
X60080000Y-51296100D02*
X60313800Y-51296100D01*
X89214100Y-55410200D02*
X89250000Y-55446100D01*
X60313800Y-51296100D02*
X60496000Y-51113900D01*
X89214100Y-55249900D02*
X89214100Y-55410200D01*
X60080000Y-52250000D02*
X60080000Y-51296100D01*
%TO.N,CAM_RESET*%
X63162700Y-54269700D02*
X63651300Y-53781100D01*
X59811600Y-54269700D02*
X63162700Y-54269700D01*
X63651300Y-53781100D02*
X65523000Y-53781100D01*
X58810000Y-53203900D02*
X58810000Y-53268100D01*
X58810000Y-53268100D02*
X59811600Y-54269700D01*
X88510000Y-61400000D02*
X88510000Y-61047600D01*
X58810000Y-52250000D02*
X58810000Y-53203900D01*
X88510000Y-61047600D02*
X88156000Y-60693600D01*
X90250000Y-56300000D02*
X90250000Y-57153900D01*
X89935300Y-57153900D02*
X89636300Y-57452900D01*
X90250000Y-57153900D02*
X89935300Y-57153900D01*
X65523000Y-53781100D02*
X66020500Y-54278600D01*
%TO.N,CAM_SIOC*%
X87994700Y-59316800D02*
X87994700Y-58288900D01*
X65622400Y-53203900D02*
X66043700Y-53625200D01*
X88230900Y-58052700D02*
X89851200Y-58052700D01*
X87994700Y-58288900D02*
X88230900Y-58052700D01*
X63890000Y-52250000D02*
X63890000Y-53203900D01*
X89851200Y-58052700D02*
X90750000Y-57153900D01*
X90750000Y-56300000D02*
X90750000Y-57153900D01*
X88510000Y-59832100D02*
X87994700Y-59316800D01*
X63890000Y-53203900D02*
X65622400Y-53203900D01*
X88510000Y-60000000D02*
X88510000Y-59832100D01*
%TO.N,CAM_SIOD*%
X92464500Y-55070100D02*
X92838000Y-54696600D01*
X65832500Y-50623600D02*
X65160000Y-51296100D01*
X89083300Y-59173300D02*
X91652000Y-59173300D01*
X91750000Y-55446100D02*
X92126000Y-55070100D01*
X91750000Y-56300000D02*
X91750000Y-55446100D01*
X92126000Y-55070100D02*
X92464500Y-55070100D01*
X92032200Y-57854200D02*
X91750000Y-57572000D01*
X92032200Y-58793100D02*
X92032200Y-57854200D01*
X91652000Y-59173300D02*
X92032200Y-58793100D01*
X65160000Y-52250000D02*
X65160000Y-51296100D01*
X89014600Y-50623600D02*
X65832500Y-50623600D01*
X88510000Y-58600000D02*
X89083300Y-59173300D01*
X92838000Y-54696600D02*
X92838000Y-54447000D01*
X92838000Y-54447000D02*
X89014600Y-50623600D01*
X91750000Y-57572000D02*
X91750000Y-56300000D01*
%TO.N,CAM_VSYNC*%
X85524900Y-50907300D02*
X89750000Y-55132400D01*
X89750000Y-55132400D02*
X89750000Y-56300000D01*
X68970000Y-52250000D02*
X68970000Y-51296100D01*
X69358800Y-50907300D02*
X85524900Y-50907300D01*
X68970000Y-51296100D02*
X69358800Y-50907300D01*
%TO.N,CAM_XCLK*%
X86750000Y-56300000D02*
X86750000Y-55446100D01*
X66430000Y-53203900D02*
X66517100Y-53203900D01*
X86285000Y-54981100D02*
X86750000Y-55446100D01*
X66430000Y-52250000D02*
X66430000Y-53203900D01*
X66517100Y-53203900D02*
X66747800Y-53434600D01*
X83576300Y-54981100D02*
X86285000Y-54981100D01*
%TO.N,CC1*%
X92300000Y-60450000D02*
X92200000Y-60550000D01*
X92150000Y-61350000D02*
X92150000Y-63200000D01*
X92200000Y-60550000D02*
X92200000Y-61300000D01*
X90700000Y-65500000D02*
X90700000Y-65200000D01*
X92200000Y-61300000D02*
X92150000Y-61350000D01*
X92300000Y-59750000D02*
X92300000Y-60450000D01*
%TO.N,CC2*%
X93750000Y-64640000D02*
X93750000Y-64088200D01*
X93750000Y-64088200D02*
X92515200Y-62853400D01*
X94200000Y-59862300D02*
X94200000Y-59510000D01*
X92515200Y-62853400D02*
X92515200Y-61547100D01*
X92515200Y-61547100D02*
X94200000Y-59862300D01*
%TO.N,EN*%
X60080000Y-69750000D02*
X60080000Y-68796100D01*
X61886400Y-66989700D02*
X60080000Y-68796100D01*
X61886400Y-64230700D02*
X61886400Y-66989700D01*
D36*
%TO.N,GND*%
X94200000Y-58490000D02*
X94200000Y-57730000D01*
X82710000Y-70300000D02*
X83370000Y-70300000D01*
X150365000Y-55365000D02*
X150000000Y-55000000D01*
X85750000Y-56300000D02*
X85750000Y-57325000D01*
X104380000Y-51600000D02*
X105035000Y-51600000D01*
X149750000Y-53562500D02*
X149750000Y-52756200D01*
X94775000Y-62000000D02*
X94775000Y-61162500D01*
X65960000Y-62500000D02*
X65260000Y-62500000D01*
X90880000Y-58600000D02*
X91535000Y-58600000D01*
X151438000Y-54750000D02*
X152244000Y-54750000D01*
X148562000Y-54750000D02*
X148562500Y-54750000D01*
X80262500Y-67310000D02*
X80654800Y-67730400D01*
X87680000Y-64640000D02*
X88800000Y-64640000D01*
X80080000Y-70300000D02*
X80080000Y-71055000D01*
X104380000Y-53100000D02*
X105035000Y-53100000D01*
X148562500Y-54750000D02*
X148562500Y-55250000D01*
X90880000Y-60000000D02*
X91535000Y-60000000D01*
X78700000Y-66058000D02*
X79350000Y-66058000D01*
X151438000Y-54750000D02*
X151437500Y-54750000D01*
X57540000Y-69750000D02*
X57540000Y-70925000D01*
X148562000Y-54750000D02*
X147756000Y-54750000D01*
X104380000Y-56700000D02*
X105035000Y-56700000D01*
X83262500Y-66400000D02*
X82231200Y-66400000D01*
X95976900Y-63863100D02*
X95200000Y-64640000D01*
X96320000Y-63863100D02*
X95976900Y-63863100D01*
X98862500Y-56000000D02*
X97831200Y-56000000D01*
X92250000Y-56300000D02*
X92250000Y-57325000D01*
X98862500Y-52400000D02*
X97831200Y-52400000D01*
X92600000Y-58490000D02*
X92980000Y-57831800D01*
X96320000Y-65215000D02*
X96320000Y-63863100D01*
X57540000Y-52250000D02*
X57540000Y-53425000D01*
X104380000Y-55200000D02*
X105035000Y-55200000D01*
X90880000Y-61400000D02*
X90880000Y-62155000D01*
X88510000Y-62800000D02*
X89170000Y-62800000D01*
D37*
%TO.N,LED_STATUS*%
X71510000Y-68796100D02*
X71955700Y-68350400D01*
X71510000Y-69750000D02*
X71510000Y-68796100D01*
%TO.N,MIC_SCK*%
X64200900Y-67215200D02*
X62620000Y-68796100D01*
X73910800Y-68638900D02*
X72487100Y-67215200D01*
X81146800Y-67912800D02*
X80420700Y-68638900D01*
X80420700Y-68638900D02*
X73910800Y-68638900D01*
X80500000Y-66058000D02*
X80500000Y-66522900D01*
X80500000Y-66522900D02*
X81146800Y-67169700D01*
X62620000Y-69750000D02*
X62620000Y-68796100D01*
X81146800Y-67169700D02*
X81146800Y-67912800D01*
X72487100Y-67215200D02*
X64200900Y-67215200D01*
%TO.N,MIC_SD*%
X79050000Y-64700000D02*
X79150000Y-64750000D01*
X76750000Y-65950000D02*
X77650000Y-65050000D01*
X78350000Y-64700000D02*
X79050000Y-64700000D01*
X65600000Y-69000000D02*
X65950000Y-68550000D01*
X77650000Y-65050000D02*
X78350000Y-64700000D01*
X82050000Y-69900000D02*
X81950000Y-70000000D01*
X79150000Y-64750000D02*
X79300000Y-65000000D01*
X83900000Y-68850000D02*
X82050000Y-69900000D01*
%TO.N,MIC_WS*%
X78700000Y-65236000D02*
X78196100Y-65236000D01*
X63890000Y-69750000D02*
X63890000Y-68796100D01*
X65017000Y-67669100D02*
X72299000Y-67669100D01*
X63890000Y-68796100D02*
X65017000Y-67669100D01*
X78000100Y-65432000D02*
X78196100Y-65236000D01*
D36*
%TO.N,SPK_N*%
X151765900Y-55219900D02*
X151846400Y-55300400D01*
D38*
X151504600Y-55219900D02*
X151474500Y-55250000D01*
D36*
X160003900Y-62996100D02*
X160003900Y-58530900D01*
D38*
X151765900Y-55219900D02*
X151504600Y-55219900D01*
D36*
X160003900Y-58530900D02*
X156866700Y-55393700D01*
X151846400Y-55300400D02*
X151914000Y-55300400D01*
D38*
X152016100Y-55300400D02*
X151914000Y-55300400D01*
D36*
X156866700Y-55393700D02*
X152109400Y-55393700D01*
X151437500Y-55250000D02*
X151474500Y-55250000D01*
D38*
X152109400Y-55393700D02*
X152016100Y-55300400D01*
D36*
X158500000Y-64500000D02*
X160003900Y-62996100D01*
%TO.N,SPK_P*%
X155187500Y-59500000D02*
X151437500Y-55750000D01*
X158500000Y-59500000D02*
X155187500Y-59500000D01*
D37*
%TO.N,UART_RX*%
X62915100Y-53431100D02*
X62687900Y-53203900D01*
X62687900Y-53203900D02*
X62620000Y-53203900D01*
X62620000Y-52250000D02*
X62620000Y-53203900D01*
%TO.N,UART_TX*%
X61490100Y-53664900D02*
X61490100Y-52390100D01*
X59876600Y-53692800D02*
X60148100Y-53964300D01*
X61190700Y-53964300D02*
X61490100Y-53664900D01*
X60148100Y-53964300D02*
X61190700Y-53964300D01*
X61490100Y-52390100D02*
X61350000Y-52250000D01*
D39*
%TO.N,USB_DM*%
X76300000Y-69450000D02*
X74900000Y-70850000D01*
X92250000Y-64640000D02*
X92250000Y-65750000D01*
X91250000Y-65750000D02*
X91250000Y-64640000D01*
X72780000Y-70850000D02*
X72780000Y-70200000D01*
X90250000Y-66750000D02*
X87000000Y-66750000D01*
X83263000Y-67350000D02*
X81950000Y-67350000D01*
X92250000Y-65750000D02*
X91250000Y-65750000D01*
X85537000Y-67350000D02*
X83263000Y-67350000D01*
X74900000Y-70850000D02*
X72780000Y-70850000D01*
X81950000Y-69100000D02*
X81600000Y-69450000D01*
X86400000Y-67350000D02*
X85537000Y-67350000D01*
X81950000Y-67350000D02*
X81950000Y-69100000D01*
X81600000Y-69450000D02*
X76300000Y-69450000D01*
X91250000Y-65750000D02*
X90250000Y-66750000D01*
X87000000Y-66750000D02*
X86400000Y-67350000D01*
%TO.N,USB_DP*%
X91750000Y-63750000D02*
X92750000Y-63750000D01*
X87000000Y-63750000D02*
X85600000Y-65150000D01*
X91750000Y-63750000D02*
X87000000Y-63750000D01*
X92750000Y-63750000D02*
X92750000Y-64640000D01*
X85600000Y-65150000D02*
X85600000Y-65450000D01*
X85600000Y-65450000D02*
X83263000Y-65450000D01*
X81600000Y-68750000D02*
X81250000Y-69100000D01*
X91750000Y-64640000D02*
X91750000Y-63750000D01*
X81600000Y-65450000D02*
X81600000Y-68750000D01*
X74050000Y-69100000D02*
X74050000Y-69300000D01*
X83263000Y-65450000D02*
X81600000Y-65450000D01*
X81250000Y-69100000D02*
X74050000Y-69100000D01*
D37*
%TO.N,VBAT_SENSE*%
X64099700Y-66046400D02*
X61350000Y-68796100D01*
X65757100Y-66046400D02*
X64099700Y-66046400D01*
X61350000Y-69750000D02*
X61350000Y-68796100D01*
D36*
%TO.N,VBUS*%
X94200000Y-63950000D02*
X94250000Y-64000000D01*
X94200000Y-63850000D02*
X94200000Y-63950000D01*
X94150000Y-63100000D02*
X94150000Y-63800000D01*
X93650000Y-62600000D02*
X94150000Y-63100000D01*
X94150000Y-63800000D02*
X94200000Y-63850000D01*
X90700000Y-55200000D02*
X90700000Y-53550000D01*
X86750000Y-65650000D02*
X86350000Y-66050000D01*
X90700000Y-53550000D02*
X90750000Y-53500000D01*
X86250000Y-66100000D02*
X86150000Y-66100000D01*
X94250000Y-64000000D02*
X94250000Y-64100000D01*
X86300000Y-66050000D02*
X86250000Y-66100000D01*
X86350000Y-66050000D02*
X86300000Y-66050000D01*
X93650000Y-62450000D02*
X93650000Y-62600000D01*
%TO.N,VSYS*%
X150750000Y-56980000D02*
X150980000Y-57300000D01*
D40*
X151050000Y-57200000D02*
X151250000Y-57000000D01*
D36*
X150980000Y-57300000D02*
X150980000Y-57750000D01*
D40*
X151450000Y-58300000D02*
X151450000Y-59450000D01*
X150980000Y-57750000D02*
X151450000Y-58300000D01*
D35*
X150750000Y-56980000D02*
X150750000Y-56440000D01*
X150250000Y-56980000D02*
X150750000Y-56980000D01*
X150250000Y-56440000D02*
X150250000Y-56980000D01*
%TD*%
%TA.AperFunction,Conductor*%
%TO.N,GND*%
G36*
X65698617Y-50267813D02*
G01*
X65723927Y-50311650D01*
X65715137Y-50361500D01*
X65692162Y-50386029D01*
X65658810Y-50408312D01*
X65658805Y-50408318D01*
X65633876Y-50424975D01*
X65633874Y-50424977D01*
X65622553Y-50441919D01*
X65613353Y-50453129D01*
X64989529Y-51076953D01*
X64978319Y-51086153D01*
X64961377Y-51097474D01*
X64961375Y-51097476D01*
X64946005Y-51120477D01*
X64946006Y-51120478D01*
X64929796Y-51144738D01*
X64900484Y-51188605D01*
X64892859Y-51226944D01*
X64890275Y-51239935D01*
X64864016Y-51283211D01*
X64817697Y-51299500D01*
X64690252Y-51299500D01*
X64666858Y-51304153D01*
X64631766Y-51311133D01*
X64566113Y-51355003D01*
X64516944Y-51367035D01*
X64483887Y-51355003D01*
X64418233Y-51311133D01*
X64388989Y-51305316D01*
X64359748Y-51299500D01*
X63420252Y-51299500D01*
X63396858Y-51304153D01*
X63361766Y-51311133D01*
X63296113Y-51355003D01*
X63246944Y-51367035D01*
X63213887Y-51355003D01*
X63148233Y-51311133D01*
X63118989Y-51305316D01*
X63089748Y-51299500D01*
X62150252Y-51299500D01*
X62126858Y-51304153D01*
X62091766Y-51311133D01*
X62026113Y-51355003D01*
X61976944Y-51367035D01*
X61943887Y-51355003D01*
X61878233Y-51311133D01*
X61848989Y-51305316D01*
X61819748Y-51299500D01*
X61819746Y-51299500D01*
X61009849Y-51299500D01*
X60962283Y-51282187D01*
X60936973Y-51238350D01*
X60936602Y-51214969D01*
X60946699Y-51144738D01*
X60951133Y-51113900D01*
X60932697Y-50985674D01*
X60878882Y-50867837D01*
X60794049Y-50769933D01*
X60727032Y-50726864D01*
X60685068Y-50699895D01*
X60560772Y-50663400D01*
X60431228Y-50663400D01*
X60306931Y-50699895D01*
X60197954Y-50769931D01*
X60197950Y-50769934D01*
X60113118Y-50867836D01*
X60113117Y-50867838D01*
X60058133Y-50988233D01*
X60022625Y-51024308D01*
X60005263Y-51030068D01*
X59991619Y-51032783D01*
X59991614Y-51032784D01*
X59972504Y-51036585D01*
X59881377Y-51097475D01*
X59881375Y-51097477D01*
X59820485Y-51188603D01*
X59820485Y-51188604D01*
X59813705Y-51222692D01*
X59813705Y-51222693D01*
X59810275Y-51239937D01*
X59784015Y-51283211D01*
X59737697Y-51299500D01*
X59610252Y-51299500D01*
X59586858Y-51304153D01*
X59551766Y-51311133D01*
X59486113Y-51355003D01*
X59436944Y-51367035D01*
X59403887Y-51355003D01*
X59338233Y-51311133D01*
X59308989Y-51305316D01*
X59279748Y-51299500D01*
X58340252Y-51299500D01*
X58316858Y-51304153D01*
X58281766Y-51311133D01*
X58215664Y-51355303D01*
X58166495Y-51367335D01*
X58133439Y-51355304D01*
X58068035Y-51311603D01*
X58009697Y-51300000D01*
X57665000Y-51300000D01*
X57665000Y-53200000D01*
X58009697Y-53200000D01*
X58068036Y-53188395D01*
X58133437Y-53144695D01*
X58182605Y-53132663D01*
X58215659Y-53144693D01*
X58281769Y-53188867D01*
X58340252Y-53200500D01*
X58455103Y-53200500D01*
X58502669Y-53217813D01*
X58527586Y-53260970D01*
X58527681Y-53260952D01*
X58527736Y-53261229D01*
X58527979Y-53261650D01*
X58528103Y-53263078D01*
X58534103Y-53293237D01*
X58534500Y-53295232D01*
X58534500Y-53295233D01*
X58550485Y-53375595D01*
X58575308Y-53412745D01*
X58582170Y-53423015D01*
X58589031Y-53433284D01*
X58611375Y-53466723D01*
X58611378Y-53466726D01*
X58628314Y-53478042D01*
X58639529Y-53487245D01*
X59592454Y-54440170D01*
X59601656Y-54451383D01*
X59612975Y-54468323D01*
X59612976Y-54468324D01*
X59632951Y-54481671D01*
X59632955Y-54481674D01*
X59635977Y-54483693D01*
X59635978Y-54483694D01*
X59704105Y-54529215D01*
X59811600Y-54550597D01*
X59831583Y-54546621D01*
X59846020Y-54545200D01*
X63128280Y-54545200D01*
X63142716Y-54546621D01*
X63162700Y-54550597D01*
X63162701Y-54550597D01*
X63168215Y-54549500D01*
X63189832Y-54545200D01*
X63189833Y-54545200D01*
X63270195Y-54529215D01*
X63327305Y-54491055D01*
X63338322Y-54483694D01*
X63338321Y-54483694D01*
X63346335Y-54478340D01*
X63346339Y-54478336D01*
X63352631Y-54474132D01*
X63361324Y-54468324D01*
X63372648Y-54451374D01*
X63381841Y-54440173D01*
X63743742Y-54078274D01*
X63789619Y-54056882D01*
X63796068Y-54056600D01*
X64738062Y-54056600D01*
X64785628Y-54073913D01*
X64810938Y-54117750D01*
X64811308Y-54141130D01*
X64806895Y-54171830D01*
X64797367Y-54238100D01*
X64815802Y-54366323D01*
X64815802Y-54366324D01*
X64815803Y-54366326D01*
X64869618Y-54484163D01*
X64954451Y-54582067D01*
X65063431Y-54652104D01*
X65187728Y-54688600D01*
X65317272Y-54688600D01*
X65441569Y-54652104D01*
X65550549Y-54582067D01*
X65563027Y-54567665D01*
X65607258Y-54543054D01*
X65656962Y-54552632D01*
X65674879Y-54567665D01*
X65722447Y-54622563D01*
X65722448Y-54622564D01*
X65722451Y-54622567D01*
X65831431Y-54692604D01*
X65955728Y-54729100D01*
X66085272Y-54729100D01*
X66209569Y-54692604D01*
X66318549Y-54622567D01*
X66403382Y-54524663D01*
X66457197Y-54406826D01*
X66475633Y-54278600D01*
X66457197Y-54150374D01*
X66403382Y-54032537D01*
X66396519Y-54024616D01*
X66387100Y-54013746D01*
X66369035Y-53966460D01*
X66385592Y-53918625D01*
X66387101Y-53916827D01*
X66416084Y-53883378D01*
X66426582Y-53871263D01*
X66429088Y-53865774D01*
X66464592Y-53829697D01*
X66514981Y-53824881D01*
X66536409Y-53834258D01*
X66558731Y-53848604D01*
X66683028Y-53885100D01*
X66812572Y-53885100D01*
X66936869Y-53848604D01*
X67045849Y-53778567D01*
X67130682Y-53680663D01*
X67184497Y-53562826D01*
X67202933Y-53434600D01*
X67184497Y-53306374D01*
X67183979Y-53305241D01*
X67183911Y-53304378D01*
X67183007Y-53301299D01*
X67183651Y-53301109D01*
X67179967Y-53254782D01*
X67209329Y-53213548D01*
X67251292Y-53200500D01*
X67960732Y-53200500D01*
X68008298Y-53217813D01*
X68013058Y-53222174D01*
X68165253Y-53374369D01*
X68174455Y-53385582D01*
X68177155Y-53389623D01*
X68185776Y-53402524D01*
X68201074Y-53412746D01*
X68205750Y-53415870D01*
X68205762Y-53415879D01*
X68208777Y-53417893D01*
X68208778Y-53417894D01*
X68231810Y-53433283D01*
X68231812Y-53433285D01*
X68231813Y-53433285D01*
X68276903Y-53463414D01*
X68276905Y-53463415D01*
X68357267Y-53479400D01*
X68357268Y-53479400D01*
X68384399Y-53484797D01*
X68384400Y-53484797D01*
X68404384Y-53480821D01*
X68418820Y-53479400D01*
X74275500Y-53479400D01*
X74323066Y-53496713D01*
X74348376Y-53540550D01*
X74349500Y-53553400D01*
X74349500Y-54484746D01*
X74361133Y-54543233D01*
X74405003Y-54608887D01*
X74417035Y-54658056D01*
X74405003Y-54691113D01*
X74361133Y-54756766D01*
X74358598Y-54769513D01*
X74349500Y-54815252D01*
X74349500Y-55754748D01*
X74355070Y-55782750D01*
X74361133Y-55813233D01*
X74405003Y-55878887D01*
X74417035Y-55928056D01*
X74405003Y-55961113D01*
X74361133Y-56026766D01*
X74358143Y-56041800D01*
X74349500Y-56085252D01*
X74349500Y-57024748D01*
X74353396Y-57044332D01*
X74361133Y-57083233D01*
X74405003Y-57148887D01*
X74417035Y-57198056D01*
X74405003Y-57231113D01*
X74361133Y-57296766D01*
X74352982Y-57337746D01*
X74349500Y-57355252D01*
X74349500Y-58294748D01*
X74354357Y-58319167D01*
X74361133Y-58353233D01*
X74405003Y-58418887D01*
X74417035Y-58468056D01*
X74405003Y-58501113D01*
X74361133Y-58566766D01*
X74358506Y-58579976D01*
X74349500Y-58625252D01*
X74349500Y-59564748D01*
X74352398Y-59579318D01*
X74361133Y-59623233D01*
X74405003Y-59688887D01*
X74417035Y-59738056D01*
X74405003Y-59771113D01*
X74361133Y-59836766D01*
X74354958Y-59867813D01*
X74349500Y-59895252D01*
X74349500Y-60834748D01*
X74352330Y-60848975D01*
X74361133Y-60893233D01*
X74405003Y-60958887D01*
X74417035Y-61008056D01*
X74405003Y-61041113D01*
X74361133Y-61106766D01*
X74349500Y-61165253D01*
X74349500Y-62104746D01*
X74361133Y-62163233D01*
X74405003Y-62228887D01*
X74417035Y-62278056D01*
X74405003Y-62311113D01*
X74361133Y-62376766D01*
X74353541Y-62414935D01*
X74349500Y-62435252D01*
X74349500Y-63374748D01*
X74352206Y-63388350D01*
X74361133Y-63433233D01*
X74405003Y-63498887D01*
X74417035Y-63548056D01*
X74405003Y-63581113D01*
X74361133Y-63646766D01*
X74349500Y-63705253D01*
X74349500Y-64644746D01*
X74361133Y-64703233D01*
X74405003Y-64768887D01*
X74417035Y-64818056D01*
X74405003Y-64851113D01*
X74361133Y-64916766D01*
X74359721Y-64923866D01*
X74349500Y-64975252D01*
X74349500Y-65914748D01*
X74353279Y-65933746D01*
X74361133Y-65973233D01*
X74405003Y-66038887D01*
X74417035Y-66088056D01*
X74405003Y-66121113D01*
X74361133Y-66186766D01*
X74352408Y-66230631D01*
X74349500Y-66245252D01*
X74349500Y-67184748D01*
X74352463Y-67199642D01*
X74361133Y-67243233D01*
X74405003Y-67308887D01*
X74417035Y-67358056D01*
X74405003Y-67391113D01*
X74361133Y-67456766D01*
X74352408Y-67500631D01*
X74350073Y-67512374D01*
X74349500Y-67515253D01*
X74349500Y-68289400D01*
X74332187Y-68336966D01*
X74288350Y-68362276D01*
X74275500Y-68363400D01*
X74055568Y-68363400D01*
X74008002Y-68346087D01*
X74003242Y-68341726D01*
X72706245Y-67044729D01*
X72697042Y-67033514D01*
X72685726Y-67016578D01*
X72685724Y-67016576D01*
X72682461Y-67014396D01*
X72665744Y-67003226D01*
X72665739Y-67003221D01*
X72636565Y-66983728D01*
X72594595Y-66955685D01*
X72592579Y-66955284D01*
X72514233Y-66939700D01*
X72514232Y-66939700D01*
X72514230Y-66939699D01*
X72487101Y-66934303D01*
X72487100Y-66934303D01*
X72467117Y-66938278D01*
X72452680Y-66939700D01*
X64235320Y-66939700D01*
X64220883Y-66938278D01*
X64200900Y-66934303D01*
X64200899Y-66934303D01*
X64173766Y-66939699D01*
X64173767Y-66939700D01*
X64145619Y-66945299D01*
X64093404Y-66955685D01*
X64027205Y-66999918D01*
X64002276Y-67016575D01*
X64002274Y-67016577D01*
X63990953Y-67033519D01*
X63981753Y-67044729D01*
X62449529Y-68576953D01*
X62438319Y-68586153D01*
X62421377Y-68597474D01*
X62421375Y-68597476D01*
X62406005Y-68620477D01*
X62406006Y-68620478D01*
X62393697Y-68638900D01*
X62360485Y-68688604D01*
X62353942Y-68721500D01*
X62350275Y-68739935D01*
X62324016Y-68783211D01*
X62277697Y-68799500D01*
X62150252Y-68799500D01*
X62126858Y-68804153D01*
X62091766Y-68811133D01*
X62026113Y-68855003D01*
X61976944Y-68867035D01*
X61943887Y-68855003D01*
X61878234Y-68811134D01*
X61871905Y-68808513D01*
X61834584Y-68774316D01*
X61827976Y-68724131D01*
X61847894Y-68687821D01*
X64192142Y-66343574D01*
X64238018Y-66322182D01*
X64244468Y-66321900D01*
X65365930Y-66321900D01*
X65413496Y-66339213D01*
X65421856Y-66347441D01*
X65459047Y-66390363D01*
X65459048Y-66390364D01*
X65459051Y-66390367D01*
X65568031Y-66460404D01*
X65692328Y-66496900D01*
X65821872Y-66496900D01*
X65946169Y-66460404D01*
X66055149Y-66390367D01*
X66139982Y-66292463D01*
X66193797Y-66174626D01*
X66212233Y-66046400D01*
X66193797Y-65918174D01*
X66139982Y-65800337D01*
X66055149Y-65702433D01*
X65977369Y-65652447D01*
X65946168Y-65632395D01*
X65821872Y-65595900D01*
X65692328Y-65595900D01*
X65568031Y-65632395D01*
X65459054Y-65702431D01*
X65459047Y-65702436D01*
X65421856Y-65745359D01*
X65377623Y-65769970D01*
X65365930Y-65770900D01*
X64134120Y-65770900D01*
X64119683Y-65769478D01*
X64099700Y-65765503D01*
X64099699Y-65765503D01*
X64072568Y-65770900D01*
X64072567Y-65770900D01*
X64056583Y-65774079D01*
X63992206Y-65786884D01*
X63992204Y-65786885D01*
X63950235Y-65814925D01*
X63950236Y-65814926D01*
X63924217Y-65832313D01*
X63924215Y-65832314D01*
X63901077Y-65847774D01*
X63901074Y-65847777D01*
X63889753Y-65864719D01*
X63880553Y-65875929D01*
X61179529Y-68576953D01*
X61168319Y-68586153D01*
X61151377Y-68597474D01*
X61151375Y-68597476D01*
X61136005Y-68620477D01*
X61136006Y-68620478D01*
X61123697Y-68638900D01*
X61090485Y-68688604D01*
X61083942Y-68721500D01*
X61080275Y-68739935D01*
X61054016Y-68783211D01*
X61007697Y-68799500D01*
X60880252Y-68799500D01*
X60856858Y-68804153D01*
X60821766Y-68811133D01*
X60756113Y-68855003D01*
X60706944Y-68867035D01*
X60673887Y-68855003D01*
X60608234Y-68811134D01*
X60601905Y-68808513D01*
X60564584Y-68774316D01*
X60557976Y-68724131D01*
X60577894Y-68687821D01*
X62056873Y-67208841D01*
X62068076Y-67199647D01*
X62085024Y-67188324D01*
X62145915Y-67097195D01*
X62161900Y-67016833D01*
X62161900Y-67016828D01*
X62167296Y-66989700D01*
X62163322Y-66969720D01*
X62161900Y-66955284D01*
X62161900Y-64628000D01*
X62179213Y-64580434D01*
X62181201Y-64578414D01*
X62184446Y-64574668D01*
X62184449Y-64574667D01*
X62269282Y-64476763D01*
X62323097Y-64358926D01*
X62341533Y-64230700D01*
X62323097Y-64102474D01*
X62269282Y-63984637D01*
X62184449Y-63886733D01*
X62111031Y-63839550D01*
X62075468Y-63816695D01*
X61951172Y-63780200D01*
X61821628Y-63780200D01*
X61697331Y-63816695D01*
X61588354Y-63886731D01*
X61588350Y-63886734D01*
X61503519Y-63984635D01*
X61449702Y-64102476D01*
X61431267Y-64230700D01*
X61449702Y-64358923D01*
X61449702Y-64358924D01*
X61449703Y-64358926D01*
X61503518Y-64476763D01*
X61588351Y-64574667D01*
X61588352Y-64574668D01*
X61591817Y-64578666D01*
X61589932Y-64580298D01*
X61609968Y-64616295D01*
X61610900Y-64628000D01*
X61610900Y-66844931D01*
X61593587Y-66892497D01*
X61589226Y-66897257D01*
X59909529Y-68576953D01*
X59898319Y-68586153D01*
X59881377Y-68597474D01*
X59881375Y-68597476D01*
X59866005Y-68620477D01*
X59866006Y-68620478D01*
X59853697Y-68638900D01*
X59820485Y-68688604D01*
X59813942Y-68721500D01*
X59810275Y-68739935D01*
X59784016Y-68783211D01*
X59737697Y-68799500D01*
X59610252Y-68799500D01*
X59586858Y-68804153D01*
X59551766Y-68811133D01*
X59486113Y-68855003D01*
X59436944Y-68867035D01*
X59403887Y-68855003D01*
X59338232Y-68811133D01*
X59304226Y-68804369D01*
X59260951Y-68778109D01*
X59244681Y-68730176D01*
X59246334Y-68719521D01*
X59245944Y-68719465D01*
X59250494Y-68687819D01*
X59265133Y-68586000D01*
X59246697Y-68457774D01*
X59192882Y-68339937D01*
X59108049Y-68242033D01*
X59032055Y-68193195D01*
X58999068Y-68171995D01*
X58874772Y-68135500D01*
X58745228Y-68135500D01*
X58620931Y-68171995D01*
X58511954Y-68242031D01*
X58511950Y-68242034D01*
X58427119Y-68339935D01*
X58427118Y-68339936D01*
X58427118Y-68339937D01*
X58416403Y-68363400D01*
X58373302Y-68457776D01*
X58354867Y-68586000D01*
X58374056Y-68719465D01*
X58371776Y-68719792D01*
X58369127Y-68761462D01*
X58334195Y-68798096D01*
X58315773Y-68804369D01*
X58281767Y-68811133D01*
X58281766Y-68811133D01*
X58215664Y-68855303D01*
X58166495Y-68867335D01*
X58133439Y-68855304D01*
X58068035Y-68811603D01*
X58009697Y-68800000D01*
X57665000Y-68800000D01*
X57665000Y-70700000D01*
X58009697Y-70700000D01*
X58068036Y-70688395D01*
X58133437Y-70644695D01*
X58182605Y-70632663D01*
X58215659Y-70644693D01*
X58281769Y-70688867D01*
X58340252Y-70700500D01*
X58340254Y-70700500D01*
X59279746Y-70700500D01*
X59279748Y-70700500D01*
X59338231Y-70688867D01*
X59403887Y-70644995D01*
X59453055Y-70632964D01*
X59486111Y-70644995D01*
X59486870Y-70645502D01*
X59551767Y-70688866D01*
X59551768Y-70688866D01*
X59551769Y-70688867D01*
X59610252Y-70700500D01*
X59610254Y-70700500D01*
X60549746Y-70700500D01*
X60549748Y-70700500D01*
X60608231Y-70688867D01*
X60673887Y-70644995D01*
X60723055Y-70632964D01*
X60756111Y-70644995D01*
X60756870Y-70645502D01*
X60821767Y-70688866D01*
X60821768Y-70688866D01*
X60821769Y-70688867D01*
X60880252Y-70700500D01*
X60880254Y-70700500D01*
X61819746Y-70700500D01*
X61819748Y-70700500D01*
X61878231Y-70688867D01*
X61943887Y-70644995D01*
X61993055Y-70632964D01*
X62026111Y-70644995D01*
X62026870Y-70645502D01*
X62091767Y-70688866D01*
X62091768Y-70688866D01*
X62091769Y-70688867D01*
X62150252Y-70700500D01*
X62150254Y-70700500D01*
X63089746Y-70700500D01*
X63089748Y-70700500D01*
X63148231Y-70688867D01*
X63213887Y-70644995D01*
X63263055Y-70632964D01*
X63296111Y-70644995D01*
X63296870Y-70645502D01*
X63361767Y-70688866D01*
X63361768Y-70688866D01*
X63361769Y-70688867D01*
X63420252Y-70700500D01*
X63420254Y-70700500D01*
X64359746Y-70700500D01*
X64359748Y-70700500D01*
X64418231Y-70688867D01*
X64483887Y-70644995D01*
X64533055Y-70632964D01*
X64566111Y-70644995D01*
X64566870Y-70645502D01*
X64631767Y-70688866D01*
X64631768Y-70688866D01*
X64631769Y-70688867D01*
X64690252Y-70700500D01*
X64690254Y-70700500D01*
X65629746Y-70700500D01*
X65629748Y-70700500D01*
X65688231Y-70688867D01*
X65753887Y-70644995D01*
X65803055Y-70632964D01*
X65836111Y-70644995D01*
X65836870Y-70645502D01*
X65901767Y-70688866D01*
X65901768Y-70688866D01*
X65901769Y-70688867D01*
X65960252Y-70700500D01*
X65960254Y-70700500D01*
X66899746Y-70700500D01*
X66899748Y-70700500D01*
X66958231Y-70688867D01*
X67023887Y-70644995D01*
X67073055Y-70632964D01*
X67106111Y-70644995D01*
X67106870Y-70645502D01*
X67171767Y-70688866D01*
X67171768Y-70688866D01*
X67171769Y-70688867D01*
X67230252Y-70700500D01*
X67230254Y-70700500D01*
X68169746Y-70700500D01*
X68169748Y-70700500D01*
X68228231Y-70688867D01*
X68293887Y-70644995D01*
X68343055Y-70632964D01*
X68376111Y-70644995D01*
X68376870Y-70645502D01*
X68441767Y-70688866D01*
X68441768Y-70688866D01*
X68441769Y-70688867D01*
X68500252Y-70700500D01*
X69183463Y-70700500D01*
X69230837Y-70717652D01*
X69518169Y-70957095D01*
X69520429Y-70959058D01*
X69555777Y-70991046D01*
X69581747Y-71000315D01*
X69592224Y-71005001D01*
X69616442Y-71018181D01*
X69663863Y-71023211D01*
X69666804Y-71023584D01*
X72697046Y-71470669D01*
X72702400Y-71471661D01*
X72716317Y-71474776D01*
X72721984Y-71474910D01*
X72731016Y-71475682D01*
X72733849Y-71476099D01*
X72736630Y-71476510D01*
X72750896Y-71475797D01*
X72756294Y-71475727D01*
X78039602Y-71601521D01*
X78086743Y-71619961D01*
X78111002Y-71664388D01*
X78101028Y-71714015D01*
X78061488Y-71745620D01*
X78037841Y-71749500D01*
X56874000Y-71749500D01*
X56826434Y-71732187D01*
X56801124Y-71688350D01*
X56800000Y-71675500D01*
X56800000Y-70669920D01*
X56817313Y-70622354D01*
X56861150Y-70597044D01*
X56911000Y-70605834D01*
X56935529Y-70628809D01*
X56945805Y-70644189D01*
X56945808Y-70644192D01*
X57011964Y-70688396D01*
X57070303Y-70700000D01*
X57415000Y-70700000D01*
X57415000Y-68800000D01*
X57070303Y-68800000D01*
X57011964Y-68811603D01*
X56945808Y-68855807D01*
X56945806Y-68855809D01*
X56935528Y-68871192D01*
X56894707Y-68901123D01*
X56844196Y-68897812D01*
X56807631Y-68862808D01*
X56800000Y-68830079D01*
X56800000Y-62625000D01*
X63110000Y-62625000D01*
X63110000Y-64469697D01*
X63121603Y-64528035D01*
X63165807Y-64594191D01*
X63165808Y-64594192D01*
X63231964Y-64638396D01*
X63290303Y-64650000D01*
X65135000Y-64650000D01*
X65385000Y-64650000D01*
X67229697Y-64650000D01*
X67288035Y-64638396D01*
X67354191Y-64594192D01*
X67354192Y-64594191D01*
X67398396Y-64528035D01*
X67410000Y-64469697D01*
X67410000Y-63507700D01*
X71552567Y-63507700D01*
X71571002Y-63635923D01*
X71571002Y-63635924D01*
X71571003Y-63635926D01*
X71624818Y-63753763D01*
X71709651Y-63851667D01*
X71818631Y-63921704D01*
X71942928Y-63958200D01*
X72072472Y-63958200D01*
X72196769Y-63921704D01*
X72305749Y-63851667D01*
X72390582Y-63753763D01*
X72444397Y-63635926D01*
X72462833Y-63507700D01*
X72444397Y-63379474D01*
X72390582Y-63261637D01*
X72305749Y-63163733D01*
X72229429Y-63114685D01*
X72196768Y-63093695D01*
X72072472Y-63057200D01*
X71942928Y-63057200D01*
X71818631Y-63093695D01*
X71709654Y-63163731D01*
X71709650Y-63163734D01*
X71624819Y-63261635D01*
X71624818Y-63261636D01*
X71624818Y-63261637D01*
X71621161Y-63269645D01*
X71571002Y-63379476D01*
X71552567Y-63507700D01*
X67410000Y-63507700D01*
X67410000Y-62625000D01*
X66261776Y-62625000D01*
X66364429Y-62727653D01*
X66660000Y-63023223D01*
X66784450Y-63147673D01*
X66805842Y-63193549D01*
X66792741Y-63242444D01*
X66784450Y-63252325D01*
X66364429Y-63672347D01*
X66115123Y-63921651D01*
X66115102Y-63921675D01*
X66012326Y-64024451D01*
X65966450Y-64045843D01*
X65917555Y-64032742D01*
X65907674Y-64024451D01*
X65815715Y-63932492D01*
X65860000Y-63932492D01*
X65898197Y-63985065D01*
X65944162Y-64000000D01*
X65975838Y-64000000D01*
X66021803Y-63985065D01*
X66060000Y-63932492D01*
X66060000Y-63867508D01*
X66021803Y-63814935D01*
X65975838Y-63800000D01*
X65944162Y-63800000D01*
X65898197Y-63814935D01*
X65860000Y-63867508D01*
X65860000Y-63932492D01*
X65815715Y-63932492D01*
X65793631Y-63910408D01*
X65793631Y-63910407D01*
X65385000Y-63501776D01*
X65385000Y-64650000D01*
X65135000Y-64650000D01*
X65135000Y-63501776D01*
X65134999Y-63501776D01*
X64964429Y-63672347D01*
X64715123Y-63921651D01*
X64715102Y-63921675D01*
X64612326Y-64024451D01*
X64566450Y-64045843D01*
X64517555Y-64032742D01*
X64507674Y-64024451D01*
X64415715Y-63932492D01*
X64460000Y-63932492D01*
X64498197Y-63985065D01*
X64544162Y-64000000D01*
X64575838Y-64000000D01*
X64621803Y-63985065D01*
X64660000Y-63932492D01*
X64660000Y-63867508D01*
X64621803Y-63814935D01*
X64575838Y-63800000D01*
X64544162Y-63800000D01*
X64498197Y-63814935D01*
X64460000Y-63867508D01*
X64460000Y-63932492D01*
X64415715Y-63932492D01*
X64393631Y-63910408D01*
X64393631Y-63910407D01*
X63735549Y-63252325D01*
X63726301Y-63232492D01*
X63760000Y-63232492D01*
X63798197Y-63285065D01*
X63844162Y-63300000D01*
X63875838Y-63300000D01*
X63921803Y-63285065D01*
X63960000Y-63232492D01*
X63960000Y-63200000D01*
X64036776Y-63200000D01*
X64264429Y-63427653D01*
X64560000Y-63723223D01*
X64855571Y-63427653D01*
X65050731Y-63232492D01*
X65160000Y-63232492D01*
X65198197Y-63285065D01*
X65244162Y-63300000D01*
X65275838Y-63300000D01*
X65321803Y-63285065D01*
X65360000Y-63232492D01*
X65360000Y-63200000D01*
X65436776Y-63200000D01*
X65664429Y-63427653D01*
X65960000Y-63723223D01*
X66255571Y-63427653D01*
X66450731Y-63232492D01*
X66560000Y-63232492D01*
X66598197Y-63285065D01*
X66644162Y-63300000D01*
X66675838Y-63300000D01*
X66721803Y-63285065D01*
X66760000Y-63232492D01*
X66760000Y-63167508D01*
X66721803Y-63114935D01*
X66675838Y-63100000D01*
X66644162Y-63100000D01*
X66598197Y-63114935D01*
X66560000Y-63167508D01*
X66560000Y-63232492D01*
X66450731Y-63232492D01*
X66483223Y-63200000D01*
X66483223Y-63199999D01*
X65960000Y-62676776D01*
X65436776Y-63200000D01*
X65360000Y-63200000D01*
X65360000Y-63167508D01*
X65321803Y-63114935D01*
X65275838Y-63100000D01*
X65244162Y-63100000D01*
X65198197Y-63114935D01*
X65160000Y-63167508D01*
X65160000Y-63232492D01*
X65050731Y-63232492D01*
X65083223Y-63200000D01*
X65083223Y-63199999D01*
X64560000Y-62676776D01*
X64036776Y-63200000D01*
X63960000Y-63200000D01*
X63960000Y-63167508D01*
X63921803Y-63114935D01*
X63875838Y-63100000D01*
X63844162Y-63100000D01*
X63798197Y-63114935D01*
X63760000Y-63167508D01*
X63760000Y-63232492D01*
X63726301Y-63232492D01*
X63714157Y-63206449D01*
X63727258Y-63157554D01*
X63735549Y-63147673D01*
X63860000Y-63023223D01*
X64155571Y-62727653D01*
X64258224Y-62625000D01*
X64861776Y-62625000D01*
X64964429Y-62727653D01*
X65134999Y-62898222D01*
X65135000Y-62898222D01*
X65135000Y-62625000D01*
X65385000Y-62625000D01*
X65385000Y-62898222D01*
X65555571Y-62727653D01*
X65658224Y-62625000D01*
X65385000Y-62625000D01*
X65135000Y-62625000D01*
X64861776Y-62625000D01*
X64258224Y-62625000D01*
X63110000Y-62625000D01*
X56800000Y-62625000D01*
X56800000Y-62532492D01*
X64460000Y-62532492D01*
X64498197Y-62585065D01*
X64544162Y-62600000D01*
X64575838Y-62600000D01*
X64621803Y-62585065D01*
X64660000Y-62532492D01*
X65860000Y-62532492D01*
X65898197Y-62585065D01*
X65944162Y-62600000D01*
X65975838Y-62600000D01*
X66021803Y-62585065D01*
X66060000Y-62532492D01*
X66060000Y-62467508D01*
X66021803Y-62414935D01*
X65975838Y-62400000D01*
X65944162Y-62400000D01*
X65898197Y-62414935D01*
X65860000Y-62467508D01*
X65860000Y-62532492D01*
X64660000Y-62532492D01*
X64660000Y-62467508D01*
X64621803Y-62414935D01*
X64575838Y-62400000D01*
X64544162Y-62400000D01*
X64498197Y-62414935D01*
X64460000Y-62467508D01*
X64460000Y-62532492D01*
X56800000Y-62532492D01*
X56800000Y-62375000D01*
X63110000Y-62375000D01*
X64258224Y-62375000D01*
X64861776Y-62375000D01*
X65135000Y-62375000D01*
X65135000Y-62101776D01*
X65385000Y-62101776D01*
X65385000Y-62375000D01*
X65658224Y-62375000D01*
X65385000Y-62101776D01*
X65135000Y-62101776D01*
X65134999Y-62101776D01*
X64861776Y-62374999D01*
X64861776Y-62375000D01*
X64258224Y-62375000D01*
X63735549Y-61852325D01*
X63726301Y-61832492D01*
X63760000Y-61832492D01*
X63798197Y-61885065D01*
X63844162Y-61900000D01*
X63875838Y-61900000D01*
X63921803Y-61885065D01*
X63960000Y-61832492D01*
X63960000Y-61800000D01*
X64036776Y-61800000D01*
X64264429Y-62027653D01*
X64560000Y-62323223D01*
X64855571Y-62027653D01*
X65050731Y-61832492D01*
X65160000Y-61832492D01*
X65198197Y-61885065D01*
X65244162Y-61900000D01*
X65275838Y-61900000D01*
X65321803Y-61885065D01*
X65360000Y-61832492D01*
X65360000Y-61800000D01*
X65436776Y-61800000D01*
X65664429Y-62027653D01*
X65960000Y-62323223D01*
X66255571Y-62027653D01*
X66450731Y-61832492D01*
X66560000Y-61832492D01*
X66598197Y-61885065D01*
X66644162Y-61900000D01*
X66675838Y-61900000D01*
X66721803Y-61885065D01*
X66760000Y-61832492D01*
X66760000Y-61767508D01*
X66721803Y-61714935D01*
X66675838Y-61700000D01*
X66644162Y-61700000D01*
X66598197Y-61714935D01*
X66560000Y-61767508D01*
X66560000Y-61832492D01*
X66450731Y-61832492D01*
X66483223Y-61800000D01*
X66483223Y-61799999D01*
X65960000Y-61276776D01*
X65436776Y-61800000D01*
X65360000Y-61800000D01*
X65360000Y-61767508D01*
X65321803Y-61714935D01*
X65275838Y-61700000D01*
X65244162Y-61700000D01*
X65198197Y-61714935D01*
X65160000Y-61767508D01*
X65160000Y-61832492D01*
X65050731Y-61832492D01*
X65083223Y-61800000D01*
X65083223Y-61799999D01*
X64560000Y-61276776D01*
X64036776Y-61800000D01*
X63960000Y-61800000D01*
X63960000Y-61767508D01*
X63921803Y-61714935D01*
X63875838Y-61700000D01*
X63844162Y-61700000D01*
X63798197Y-61714935D01*
X63760000Y-61767508D01*
X63760000Y-61832492D01*
X63726301Y-61832492D01*
X63714157Y-61806449D01*
X63727258Y-61757554D01*
X63735549Y-61747673D01*
X63860000Y-61623223D01*
X64155571Y-61327653D01*
X64350731Y-61132492D01*
X64460000Y-61132492D01*
X64498197Y-61185065D01*
X64544162Y-61200000D01*
X64575838Y-61200000D01*
X64621803Y-61185065D01*
X64660000Y-61132492D01*
X64660000Y-61067508D01*
X64621803Y-61014935D01*
X64575838Y-61000000D01*
X64544162Y-61000000D01*
X64498197Y-61014935D01*
X64460000Y-61067508D01*
X64460000Y-61132492D01*
X64350731Y-61132492D01*
X64507674Y-60975549D01*
X64553550Y-60954157D01*
X64602445Y-60967258D01*
X64612326Y-60975549D01*
X64964429Y-61327653D01*
X65134999Y-61498222D01*
X65135000Y-61498222D01*
X65135000Y-60350000D01*
X65385000Y-60350000D01*
X65385000Y-61498222D01*
X65555571Y-61327653D01*
X65750731Y-61132492D01*
X65860000Y-61132492D01*
X65898197Y-61185065D01*
X65944162Y-61200000D01*
X65975838Y-61200000D01*
X66021803Y-61185065D01*
X66060000Y-61132492D01*
X66060000Y-61067508D01*
X66021803Y-61014935D01*
X65975838Y-61000000D01*
X65944162Y-61000000D01*
X65898197Y-61014935D01*
X65860000Y-61067508D01*
X65860000Y-61132492D01*
X65750731Y-61132492D01*
X65907674Y-60975549D01*
X65953550Y-60954157D01*
X66002445Y-60967258D01*
X66012326Y-60975549D01*
X66364429Y-61327653D01*
X66660000Y-61623223D01*
X66784450Y-61747673D01*
X66805842Y-61793549D01*
X66792741Y-61842444D01*
X66784450Y-61852325D01*
X66364429Y-62272347D01*
X66261776Y-62374999D01*
X66261776Y-62375000D01*
X67410000Y-62375000D01*
X67410000Y-60530302D01*
X67398396Y-60471964D01*
X67354192Y-60405808D01*
X67354191Y-60405807D01*
X67288035Y-60361603D01*
X67229697Y-60350000D01*
X65385000Y-60350000D01*
X65135000Y-60350000D01*
X63290303Y-60350000D01*
X63231964Y-60361603D01*
X63165808Y-60405807D01*
X63165807Y-60405808D01*
X63121603Y-60471964D01*
X63110000Y-60530302D01*
X63110000Y-62375000D01*
X56800000Y-62375000D01*
X56800000Y-53169920D01*
X56817313Y-53122354D01*
X56861150Y-53097044D01*
X56911000Y-53105834D01*
X56935529Y-53128809D01*
X56945805Y-53144189D01*
X56945808Y-53144192D01*
X57011964Y-53188396D01*
X57070303Y-53200000D01*
X57415000Y-53200000D01*
X57415000Y-51300000D01*
X57070303Y-51300000D01*
X57011964Y-51311603D01*
X56945808Y-51355807D01*
X56945806Y-51355809D01*
X56935528Y-51371192D01*
X56894707Y-51401123D01*
X56844196Y-51397812D01*
X56807631Y-51362808D01*
X56800000Y-51330079D01*
X56800000Y-50324500D01*
X56817313Y-50276934D01*
X56861150Y-50251624D01*
X56874000Y-50250500D01*
X65651051Y-50250500D01*
X65698617Y-50267813D01*
G37*
%TD.AperFunction*%
%TA.AperFunction,Conductor*%
G36*
X156738432Y-55761513D02*
G01*
X156743192Y-55765874D01*
X159150492Y-58173174D01*
X159171884Y-58219050D01*
X159158783Y-58267945D01*
X159117319Y-58296979D01*
X159098166Y-58299500D01*
X157552126Y-58299500D01*
X157492514Y-58305909D01*
X157357670Y-58356202D01*
X157357669Y-58356203D01*
X157242454Y-58442454D01*
X157156203Y-58557669D01*
X157156202Y-58557670D01*
X157105910Y-58692512D01*
X157105909Y-58692517D01*
X157099500Y-58752126D01*
X157099500Y-59075500D01*
X157082187Y-59123066D01*
X157038350Y-59148376D01*
X157025500Y-59149500D01*
X155363334Y-59149500D01*
X155315768Y-59132187D01*
X155311008Y-59127826D01*
X152072173Y-55888991D01*
X152050781Y-55843115D01*
X152050499Y-55836683D01*
X152050500Y-55818196D01*
X152067815Y-55770631D01*
X152111654Y-55745324D01*
X152124500Y-55744200D01*
X156690866Y-55744200D01*
X156738432Y-55761513D01*
G37*
%TD.AperFunction*%
%TA.AperFunction,Conductor*%
G36*
X150040660Y-54130691D02*
G01*
X150084883Y-54160240D01*
X150087719Y-54160804D01*
X150090890Y-54162728D01*
X150091616Y-54163029D01*
X150091569Y-54163140D01*
X150130994Y-54187064D01*
X150147264Y-54234997D01*
X150146931Y-54240154D01*
X150364999Y-54458222D01*
X150591117Y-54232104D01*
X150597000Y-54208267D01*
X150637880Y-54178415D01*
X150658449Y-54175499D01*
X150661594Y-54175499D01*
X150661599Y-54175500D01*
X150750501Y-54175499D01*
X150798066Y-54192812D01*
X150823376Y-54236649D01*
X150824500Y-54249499D01*
X150824500Y-54339831D01*
X150807187Y-54387397D01*
X150765051Y-54411724D01*
X150541777Y-54634999D01*
X150541777Y-54635000D01*
X150762568Y-54855791D01*
X150803957Y-54862919D01*
X150836649Y-54901565D01*
X150839791Y-54912715D01*
X150840230Y-54914925D01*
X150869305Y-54958437D01*
X150881337Y-55007605D01*
X150869307Y-55040661D01*
X150839759Y-55084884D01*
X150839299Y-55087197D01*
X150837731Y-55089779D01*
X150836971Y-55091616D01*
X150836688Y-55091498D01*
X150813037Y-55130471D01*
X150765104Y-55146739D01*
X150760499Y-55146276D01*
X150541777Y-55364999D01*
X150541777Y-55365000D01*
X150769688Y-55592911D01*
X150787245Y-55595935D01*
X150819936Y-55634582D01*
X150824500Y-55660168D01*
X150824500Y-55750500D01*
X150807187Y-55798066D01*
X150763350Y-55823376D01*
X150750500Y-55824500D01*
X150658448Y-55824500D01*
X150610882Y-55807187D01*
X150585572Y-55763350D01*
X150585537Y-55762315D01*
X150365000Y-55541777D01*
X150146461Y-55760314D01*
X150134729Y-55807852D01*
X150093848Y-55837703D01*
X150087726Y-55839194D01*
X150086549Y-55839428D01*
X150084881Y-55839760D01*
X150084879Y-55839761D01*
X150041111Y-55869006D01*
X149991943Y-55881037D01*
X149958889Y-55869006D01*
X149915118Y-55839760D01*
X149915115Y-55839759D01*
X149912275Y-55839194D01*
X149909102Y-55837268D01*
X149908384Y-55836971D01*
X149908429Y-55836860D01*
X149869002Y-55812932D01*
X149852734Y-55764998D01*
X149853066Y-55759844D01*
X149635000Y-55541777D01*
X149408879Y-55767896D01*
X149402996Y-55791735D01*
X149362114Y-55821585D01*
X149341549Y-55824500D01*
X149249499Y-55824500D01*
X149201933Y-55807187D01*
X149176623Y-55763350D01*
X149175499Y-55750500D01*
X149175499Y-55660168D01*
X149192812Y-55612602D01*
X149234945Y-55588275D01*
X149425729Y-55397492D01*
X149535000Y-55397492D01*
X149573197Y-55450065D01*
X149619162Y-55465000D01*
X149650838Y-55465000D01*
X149696803Y-55450065D01*
X149735000Y-55397492D01*
X149735000Y-55332508D01*
X149696803Y-55279935D01*
X149650838Y-55265000D01*
X149619162Y-55265000D01*
X149573197Y-55279935D01*
X149535000Y-55332508D01*
X149535000Y-55397492D01*
X149425729Y-55397492D01*
X149458222Y-55364999D01*
X149237429Y-55144206D01*
X149196040Y-55137078D01*
X149163350Y-55098431D01*
X149160207Y-55087278D01*
X149159769Y-55085075D01*
X149130393Y-55041114D01*
X149120332Y-55000000D01*
X149446777Y-55000000D01*
X150000000Y-55553223D01*
X150155731Y-55397492D01*
X150265000Y-55397492D01*
X150303197Y-55450065D01*
X150349162Y-55465000D01*
X150380838Y-55465000D01*
X150426803Y-55450065D01*
X150465000Y-55397492D01*
X150465000Y-55332508D01*
X150426803Y-55279935D01*
X150380838Y-55265000D01*
X150349162Y-55265000D01*
X150303197Y-55279935D01*
X150265000Y-55332508D01*
X150265000Y-55397492D01*
X150155731Y-55397492D01*
X150553223Y-55000000D01*
X150220715Y-54667492D01*
X150265000Y-54667492D01*
X150303197Y-54720065D01*
X150349162Y-54735000D01*
X150380838Y-54735000D01*
X150426803Y-54720065D01*
X150465000Y-54667492D01*
X150465000Y-54602508D01*
X150426803Y-54549935D01*
X150380838Y-54535000D01*
X150349162Y-54535000D01*
X150303197Y-54549935D01*
X150265000Y-54602508D01*
X150265000Y-54667492D01*
X150220715Y-54667492D01*
X150000000Y-54446777D01*
X149446777Y-55000000D01*
X149120332Y-55000000D01*
X149118361Y-54991946D01*
X149130393Y-54958886D01*
X149159769Y-54914924D01*
X149160207Y-54912722D01*
X149161703Y-54910255D01*
X149162558Y-54908192D01*
X149162875Y-54908323D01*
X149186463Y-54869445D01*
X149234394Y-54853170D01*
X149239534Y-54853686D01*
X149425729Y-54667492D01*
X149535000Y-54667492D01*
X149573197Y-54720065D01*
X149619162Y-54735000D01*
X149650838Y-54735000D01*
X149696803Y-54720065D01*
X149735000Y-54667492D01*
X149735000Y-54602508D01*
X149696803Y-54549935D01*
X149650838Y-54535000D01*
X149619162Y-54535000D01*
X149573197Y-54549935D01*
X149535000Y-54602508D01*
X149535000Y-54667492D01*
X149425729Y-54667492D01*
X149458222Y-54634999D01*
X149230308Y-54407085D01*
X149212750Y-54404060D01*
X149180061Y-54365412D01*
X149175499Y-54339830D01*
X149175499Y-54338406D01*
X149175500Y-54338401D01*
X149175499Y-54249497D01*
X149192812Y-54201933D01*
X149236649Y-54176623D01*
X149249499Y-54175499D01*
X149341549Y-54175499D01*
X149389115Y-54192812D01*
X149414425Y-54236649D01*
X149414459Y-54237682D01*
X149634999Y-54458222D01*
X149853303Y-54239918D01*
X149865215Y-54191651D01*
X149906096Y-54161800D01*
X149912228Y-54160305D01*
X149914925Y-54159768D01*
X149958435Y-54130694D01*
X150007603Y-54118661D01*
X150040660Y-54130691D01*
G37*
%TD.AperFunction*%
%TA.AperFunction,Conductor*%
G36*
X164002642Y-50250688D02*
G01*
X164243697Y-50267929D01*
X164254146Y-50269430D01*
X164487733Y-50320244D01*
X164497843Y-50323214D01*
X164721814Y-50406751D01*
X164731404Y-50411130D01*
X164941212Y-50525694D01*
X164950086Y-50531397D01*
X165126421Y-50663400D01*
X165141438Y-50674641D01*
X165149418Y-50681555D01*
X165318444Y-50850581D01*
X165325358Y-50858561D01*
X165468601Y-51049912D01*
X165474307Y-51058791D01*
X165587852Y-51266732D01*
X165588864Y-51268584D01*
X165593250Y-51278189D01*
X165631998Y-51382075D01*
X165665987Y-51473205D01*
X165676782Y-51502146D01*
X165679757Y-51512276D01*
X165730568Y-51745852D01*
X165732070Y-51756303D01*
X165749311Y-51997357D01*
X165749500Y-52002636D01*
X165749500Y-69997363D01*
X165749311Y-70002642D01*
X165732070Y-70243696D01*
X165730568Y-70254147D01*
X165679757Y-70487723D01*
X165676782Y-70497853D01*
X165593250Y-70721810D01*
X165588864Y-70731415D01*
X165474309Y-70941206D01*
X165468601Y-70950087D01*
X165325358Y-71141438D01*
X165318444Y-71149418D01*
X165149418Y-71318444D01*
X165141438Y-71325358D01*
X164950087Y-71468601D01*
X164941206Y-71474309D01*
X164731415Y-71588864D01*
X164721810Y-71593250D01*
X164497853Y-71676782D01*
X164487723Y-71679757D01*
X164254147Y-71730568D01*
X164243696Y-71732070D01*
X164002643Y-71749311D01*
X163997364Y-71749500D01*
X145003638Y-71749500D01*
X144996385Y-71749144D01*
X144861033Y-71735813D01*
X144846805Y-71732983D01*
X144720152Y-71694563D01*
X144706750Y-71689011D01*
X144590027Y-71626621D01*
X144577968Y-71618564D01*
X144498438Y-71553296D01*
X144475657Y-71534600D01*
X144465399Y-71524342D01*
X144426144Y-71476510D01*
X144381434Y-71422029D01*
X144373378Y-71409972D01*
X144310988Y-71293249D01*
X144305436Y-71279847D01*
X144267014Y-71153188D01*
X144264187Y-71138971D01*
X144250856Y-71003614D01*
X144250500Y-70996361D01*
X144250500Y-59575000D01*
X148850001Y-59575000D01*
X148850001Y-59979205D01*
X148852850Y-60009602D01*
X148852852Y-60009611D01*
X148897652Y-60137643D01*
X148978207Y-60246791D01*
X148978208Y-60246792D01*
X149087356Y-60327347D01*
X149087355Y-60327347D01*
X149215385Y-60372146D01*
X149215393Y-60372148D01*
X149245803Y-60374999D01*
X149425000Y-60374999D01*
X149425000Y-59575000D01*
X149675000Y-59575000D01*
X149675000Y-60374999D01*
X149854194Y-60374999D01*
X149854205Y-60374998D01*
X149884602Y-60372149D01*
X149884611Y-60372147D01*
X150012643Y-60327347D01*
X150121791Y-60246792D01*
X150121792Y-60246791D01*
X150202347Y-60137643D01*
X150247146Y-60009614D01*
X150247148Y-60009606D01*
X150249999Y-59979198D01*
X150250000Y-59979197D01*
X150250000Y-59575000D01*
X149675000Y-59575000D01*
X149425000Y-59575000D01*
X148850001Y-59575000D01*
X144250500Y-59575000D01*
X144250500Y-59325000D01*
X148850000Y-59325000D01*
X149425000Y-59325000D01*
X149425000Y-58525000D01*
X149675000Y-58525000D01*
X149675000Y-59325000D01*
X150249999Y-59325000D01*
X150249999Y-58920806D01*
X150249998Y-58920794D01*
X150247149Y-58890397D01*
X150247147Y-58890388D01*
X150202347Y-58762356D01*
X150121792Y-58653208D01*
X150121791Y-58653207D01*
X150012643Y-58572652D01*
X150012644Y-58572652D01*
X149884614Y-58527853D01*
X149884606Y-58527851D01*
X149854198Y-58525000D01*
X149675000Y-58525000D01*
X149425000Y-58525000D01*
X149245806Y-58525000D01*
X149245793Y-58525001D01*
X149215397Y-58527850D01*
X149215388Y-58527852D01*
X149087356Y-58572652D01*
X148978208Y-58653207D01*
X148978207Y-58653208D01*
X148897652Y-58762356D01*
X148852853Y-58890385D01*
X148852851Y-58890393D01*
X148850000Y-58920801D01*
X148850000Y-59325000D01*
X144250500Y-59325000D01*
X144250500Y-57875000D01*
X149540000Y-57875000D01*
X149540000Y-57959838D01*
X149546518Y-58009354D01*
X149597192Y-58118024D01*
X149681975Y-58202807D01*
X149790646Y-58253481D01*
X149790645Y-58253481D01*
X149840162Y-58260000D01*
X149895000Y-58260000D01*
X149895000Y-57875000D01*
X149540000Y-57875000D01*
X144250500Y-57875000D01*
X144250500Y-57874807D01*
X144250499Y-57874797D01*
X144247963Y-57857159D01*
X144214864Y-57626954D01*
X144144320Y-57386700D01*
X144040301Y-57158932D01*
X144037067Y-57153900D01*
X143904931Y-56948291D01*
X143904930Y-56948290D01*
X143904927Y-56948285D01*
X143740952Y-56759048D01*
X143551715Y-56595073D01*
X143551710Y-56595069D01*
X143551708Y-56595068D01*
X143341074Y-56459702D01*
X143341066Y-56459698D01*
X143113303Y-56355681D01*
X143113300Y-56355680D01*
X142873046Y-56285136D01*
X142873040Y-56285135D01*
X142625202Y-56249500D01*
X142625198Y-56249500D01*
X142524674Y-56249500D01*
X112919239Y-56249500D01*
X112919186Y-56249481D01*
X112888592Y-56249495D01*
X112877739Y-56249500D01*
X112860707Y-56249500D01*
X112860540Y-56249507D01*
X112754019Y-56249556D01*
X112486780Y-56281633D01*
X112225282Y-56345327D01*
X112225277Y-56345328D01*
X112225276Y-56345329D01*
X111973224Y-56439734D01*
X111923394Y-56465539D01*
X111734218Y-56563505D01*
X111511667Y-56714876D01*
X111511665Y-56714877D01*
X111308748Y-56891686D01*
X111308733Y-56891700D01*
X111237406Y-56970596D01*
X111237232Y-56970771D01*
X98411208Y-71171011D01*
X98408149Y-71174201D01*
X98263862Y-71315935D01*
X98257201Y-71321738D01*
X98098832Y-71443894D01*
X98091527Y-71448863D01*
X97919721Y-71551280D01*
X97911876Y-71555343D01*
X97729082Y-71636559D01*
X97720809Y-71639657D01*
X97529653Y-71698505D01*
X97521069Y-71700596D01*
X97324254Y-71736245D01*
X97315483Y-71737298D01*
X97113662Y-71749368D01*
X97109244Y-71749500D01*
X79191564Y-71749500D01*
X79143998Y-71732187D01*
X79118688Y-71688350D01*
X79127478Y-71638500D01*
X79153085Y-71616041D01*
X79151431Y-71613566D01*
X79159303Y-71608306D01*
X79199663Y-71581337D01*
X79200992Y-71580471D01*
X79243839Y-71553296D01*
X79257971Y-71533197D01*
X79266191Y-71523423D01*
X79267462Y-71522152D01*
X79313347Y-71500779D01*
X79319767Y-71500500D01*
X79414772Y-71500500D01*
X79539069Y-71464004D01*
X79648049Y-71393967D01*
X79732882Y-71296063D01*
X79786697Y-71178226D01*
X79805133Y-71050000D01*
X79786697Y-70921774D01*
X79780637Y-70908504D01*
X79776626Y-70858044D01*
X79805988Y-70816811D01*
X79854985Y-70804099D01*
X79857610Y-70804397D01*
X79900163Y-70810000D01*
X79955000Y-70810000D01*
X79955000Y-70425000D01*
X80205000Y-70425000D01*
X80205000Y-70810000D01*
X80259838Y-70810000D01*
X80309354Y-70803481D01*
X80418024Y-70752807D01*
X80502807Y-70668024D01*
X80553481Y-70559354D01*
X80560000Y-70509838D01*
X80560000Y-70425000D01*
X80205000Y-70425000D01*
X79955000Y-70425000D01*
X79955000Y-70249000D01*
X79972313Y-70201434D01*
X80016150Y-70176124D01*
X80029000Y-70175000D01*
X80560000Y-70175000D01*
X80560000Y-70090161D01*
X80553481Y-70040645D01*
X80502807Y-69931975D01*
X80447658Y-69876826D01*
X80426266Y-69830950D01*
X80439367Y-69782055D01*
X80480831Y-69753021D01*
X80499984Y-69750500D01*
X81266379Y-69750500D01*
X81313945Y-69767813D01*
X81339255Y-69811650D01*
X81330465Y-69861500D01*
X81318705Y-69876826D01*
X81275935Y-69919595D01*
X81225931Y-70026828D01*
X81219500Y-70075685D01*
X81219500Y-70524314D01*
X81225931Y-70573171D01*
X81228291Y-70578231D01*
X81275935Y-70680404D01*
X81359596Y-70764065D01*
X81466827Y-70814068D01*
X81515684Y-70820500D01*
X81515686Y-70820500D01*
X81864314Y-70820500D01*
X81864316Y-70820500D01*
X81913173Y-70814068D01*
X82020404Y-70764065D01*
X82104065Y-70680404D01*
X82133209Y-70617903D01*
X82169000Y-70582112D01*
X82219427Y-70577699D01*
X82260892Y-70606733D01*
X82267341Y-70617903D01*
X82296349Y-70680109D01*
X82296351Y-70680112D01*
X82379887Y-70763648D01*
X82486960Y-70813577D01*
X82486959Y-70813577D01*
X82535746Y-70819999D01*
X82584999Y-70819998D01*
X82585000Y-70819998D01*
X82585000Y-70425000D01*
X82835000Y-70425000D01*
X82835000Y-70819999D01*
X82884254Y-70819999D01*
X82933040Y-70813577D01*
X82933042Y-70813576D01*
X83040111Y-70763648D01*
X83040112Y-70763648D01*
X83123648Y-70680112D01*
X83173577Y-70573040D01*
X83180000Y-70524253D01*
X83180000Y-70425000D01*
X82835000Y-70425000D01*
X82585000Y-70425000D01*
X82585000Y-70249000D01*
X82602313Y-70201434D01*
X82646150Y-70176124D01*
X82659000Y-70175000D01*
X83179999Y-70175000D01*
X83179999Y-70075746D01*
X83173577Y-70026959D01*
X83173576Y-70026957D01*
X83123648Y-69919888D01*
X83123648Y-69919887D01*
X83041108Y-69837347D01*
X86980000Y-69837347D01*
X86995347Y-69963746D01*
X86995349Y-69963750D01*
X87055628Y-70122694D01*
X87152195Y-70262596D01*
X87279434Y-70375320D01*
X87429954Y-70454318D01*
X87554999Y-70485138D01*
X87555000Y-70485138D01*
X87555000Y-70071341D01*
X87651840Y-70098895D01*
X87763521Y-70088546D01*
X87805000Y-70067891D01*
X87805000Y-70485138D01*
X87930045Y-70454318D01*
X88080565Y-70375320D01*
X88207804Y-70262596D01*
X88304371Y-70122694D01*
X88364650Y-69963750D01*
X88364652Y-69963746D01*
X88379999Y-69837347D01*
X95620000Y-69837347D01*
X95635347Y-69963746D01*
X95635349Y-69963750D01*
X95695628Y-70122694D01*
X95792195Y-70262596D01*
X95919434Y-70375320D01*
X96069954Y-70454318D01*
X96194999Y-70485138D01*
X96195000Y-70485138D01*
X96195000Y-70071341D01*
X96291840Y-70098895D01*
X96403521Y-70088546D01*
X96445000Y-70067891D01*
X96445000Y-70485138D01*
X96570045Y-70454318D01*
X96720565Y-70375320D01*
X96847804Y-70262596D01*
X96944371Y-70122694D01*
X97004650Y-69963750D01*
X97004652Y-69963746D01*
X97019999Y-69837347D01*
X97020000Y-69837340D01*
X97020000Y-69520000D01*
X96620000Y-69520000D01*
X96620000Y-69270000D01*
X97020000Y-69270000D01*
X97020000Y-68952660D01*
X97019999Y-68952652D01*
X97004652Y-68826253D01*
X97004650Y-68826249D01*
X96944371Y-68667305D01*
X96847804Y-68527403D01*
X96720565Y-68414679D01*
X96570045Y-68335681D01*
X96445000Y-68304859D01*
X96445000Y-68718658D01*
X96348160Y-68691105D01*
X96236479Y-68701454D01*
X96195000Y-68722108D01*
X96195000Y-68304860D01*
X96194999Y-68304859D01*
X96069954Y-68335681D01*
X95919434Y-68414679D01*
X95792195Y-68527403D01*
X95695628Y-68667305D01*
X95635349Y-68826249D01*
X95635347Y-68826253D01*
X95620000Y-68952652D01*
X95620000Y-69270000D01*
X96020000Y-69270000D01*
X96020000Y-69520000D01*
X95620000Y-69520000D01*
X95620000Y-69837347D01*
X88379999Y-69837347D01*
X88380000Y-69837340D01*
X88380000Y-69520000D01*
X87980000Y-69520000D01*
X87980000Y-69270000D01*
X88380000Y-69270000D01*
X88380000Y-68952660D01*
X88379999Y-68952652D01*
X88364652Y-68826253D01*
X88364650Y-68826249D01*
X88304371Y-68667305D01*
X88207804Y-68527403D01*
X88080565Y-68414679D01*
X87930045Y-68335681D01*
X87805000Y-68304859D01*
X87805000Y-68718658D01*
X87708160Y-68691105D01*
X87596479Y-68701454D01*
X87555000Y-68722108D01*
X87555000Y-68304860D01*
X87554999Y-68304859D01*
X87429954Y-68335681D01*
X87279434Y-68414679D01*
X87152195Y-68527403D01*
X87055628Y-68667305D01*
X86995349Y-68826249D01*
X86995347Y-68826253D01*
X86980000Y-68952652D01*
X86980000Y-69270000D01*
X87380000Y-69270000D01*
X87380000Y-69520000D01*
X86980000Y-69520000D01*
X86980000Y-69837347D01*
X83041108Y-69837347D01*
X83040112Y-69836351D01*
X82994533Y-69815097D01*
X82958740Y-69779303D01*
X82954329Y-69728877D01*
X82983363Y-69687413D01*
X82989255Y-69683688D01*
X83695365Y-69282923D01*
X83745276Y-69274502D01*
X83752738Y-69276279D01*
X83835226Y-69300500D01*
X83835228Y-69300500D01*
X83964772Y-69300500D01*
X84089069Y-69264004D01*
X84198049Y-69193967D01*
X84282882Y-69096063D01*
X84336697Y-68978226D01*
X84355133Y-68850000D01*
X84336697Y-68721774D01*
X84282882Y-68603937D01*
X84198049Y-68506033D01*
X84131032Y-68462964D01*
X84089068Y-68435995D01*
X83964772Y-68399500D01*
X83835228Y-68399500D01*
X83710931Y-68435995D01*
X83601954Y-68506031D01*
X83601950Y-68506034D01*
X83517119Y-68603935D01*
X83517118Y-68603936D01*
X83517118Y-68603937D01*
X83464358Y-68719465D01*
X83463304Y-68721772D01*
X83463302Y-68721779D01*
X83459182Y-68750428D01*
X83435275Y-68795045D01*
X83422463Y-68804251D01*
X82159352Y-69521153D01*
X82109438Y-69529575D01*
X82065789Y-69503943D01*
X82048827Y-69456251D01*
X82066490Y-69408813D01*
X82070486Y-69404483D01*
X82119288Y-69355681D01*
X82129136Y-69348599D01*
X82128753Y-69348092D01*
X82134221Y-69343961D01*
X82134228Y-69343958D01*
X82166260Y-69308819D01*
X82168577Y-69306392D01*
X82182174Y-69292797D01*
X82183221Y-69291268D01*
X82189578Y-69283241D01*
X82209916Y-69260933D01*
X82214514Y-69249063D01*
X82222465Y-69233977D01*
X82229657Y-69223480D01*
X82236565Y-69194108D01*
X82239596Y-69184319D01*
X82250500Y-69156172D01*
X82250500Y-69143446D01*
X82252466Y-69126502D01*
X82255379Y-69114119D01*
X82251209Y-69084232D01*
X82250500Y-69074008D01*
X82250500Y-67724500D01*
X82267813Y-67676934D01*
X82311650Y-67651624D01*
X82324500Y-67650500D01*
X82387241Y-67650500D01*
X82434807Y-67667813D01*
X82453721Y-67691998D01*
X82460802Y-67706483D01*
X82543517Y-67789198D01*
X82648607Y-67840573D01*
X82716740Y-67850500D01*
X82716746Y-67850500D01*
X83808254Y-67850500D01*
X83808260Y-67850500D01*
X83876393Y-67840573D01*
X83981483Y-67789198D01*
X84064198Y-67706483D01*
X84071278Y-67691999D01*
X84107721Y-67656871D01*
X84137759Y-67650500D01*
X84662241Y-67650500D01*
X84709807Y-67667813D01*
X84728721Y-67691998D01*
X84735802Y-67706483D01*
X84818517Y-67789198D01*
X84923607Y-67840573D01*
X84991740Y-67850500D01*
X84991746Y-67850500D01*
X86083254Y-67850500D01*
X86083260Y-67850500D01*
X86151393Y-67840573D01*
X86256483Y-67789198D01*
X86339198Y-67706483D01*
X86346278Y-67691998D01*
X86382723Y-67656870D01*
X86412759Y-67650500D01*
X86427841Y-67650500D01*
X86427844Y-67650500D01*
X86429658Y-67650160D01*
X86439845Y-67648977D01*
X86469992Y-67647585D01*
X86481639Y-67642441D01*
X86497927Y-67637398D01*
X86510433Y-67635061D01*
X86536099Y-67619168D01*
X86545139Y-67614403D01*
X86572765Y-67602206D01*
X86581761Y-67593208D01*
X86595138Y-67582614D01*
X86605952Y-67575919D01*
X86624144Y-67551827D01*
X86630858Y-67544111D01*
X87102797Y-67072174D01*
X87148674Y-67050782D01*
X87155123Y-67050500D01*
X90188913Y-67050500D01*
X90200889Y-67052453D01*
X90200977Y-67051826D01*
X90207764Y-67052772D01*
X90207765Y-67052773D01*
X90207765Y-67052772D01*
X90207766Y-67052773D01*
X90230850Y-67051705D01*
X90255227Y-67050578D01*
X90258643Y-67050500D01*
X90277841Y-67050500D01*
X90277844Y-67050500D01*
X90279658Y-67050160D01*
X90289845Y-67048977D01*
X90319992Y-67047585D01*
X90331639Y-67042441D01*
X90347927Y-67037398D01*
X90360433Y-67035061D01*
X90386099Y-67019168D01*
X90395139Y-67014403D01*
X90422765Y-67002206D01*
X90431761Y-66993208D01*
X90445138Y-66982614D01*
X90455952Y-66975919D01*
X90474144Y-66951827D01*
X90480858Y-66944111D01*
X91352798Y-66072174D01*
X91398675Y-66050782D01*
X91405124Y-66050500D01*
X92197760Y-66050500D01*
X92218010Y-66053324D01*
X92221793Y-66054401D01*
X92221793Y-66054400D01*
X92221794Y-66054401D01*
X92260482Y-66050816D01*
X92267310Y-66050500D01*
X92277839Y-66050500D01*
X92277844Y-66050500D01*
X92288214Y-66048561D01*
X92294945Y-66047622D01*
X92333660Y-66044035D01*
X92335805Y-66042966D01*
X92337183Y-66042281D01*
X92356571Y-66035783D01*
X92357893Y-66035535D01*
X92360433Y-66035061D01*
X92393471Y-66014603D01*
X92399439Y-66011280D01*
X92434227Y-65993959D01*
X92434228Y-65993958D01*
X92436872Y-65991057D01*
X92452613Y-65977986D01*
X92455952Y-65975919D01*
X92479375Y-65944900D01*
X92483715Y-65939671D01*
X92509916Y-65910933D01*
X92511336Y-65907266D01*
X92521294Y-65889391D01*
X92523655Y-65886265D01*
X92523656Y-65886264D01*
X92534292Y-65848876D01*
X92536456Y-65842421D01*
X92550500Y-65806173D01*
X92550500Y-65802240D01*
X92553326Y-65781986D01*
X92554401Y-65778207D01*
X92550816Y-65739517D01*
X92550500Y-65732689D01*
X92550500Y-65486301D01*
X92567813Y-65438735D01*
X92611650Y-65413425D01*
X92638933Y-65413722D01*
X92647867Y-65415500D01*
X92852132Y-65415499D01*
X92932495Y-65399515D01*
X92958887Y-65381879D01*
X93008055Y-65369848D01*
X93041112Y-65381879D01*
X93067505Y-65399515D01*
X93147867Y-65415500D01*
X93352132Y-65415499D01*
X93432495Y-65399515D01*
X93458887Y-65381879D01*
X93508055Y-65369848D01*
X93541112Y-65381879D01*
X93567505Y-65399515D01*
X93647867Y-65415500D01*
X93852132Y-65415499D01*
X93932495Y-65399515D01*
X93983186Y-65365643D01*
X94032353Y-65353612D01*
X94056798Y-65360691D01*
X94113683Y-65388500D01*
X94148607Y-65405573D01*
X94216740Y-65415500D01*
X94383517Y-65415500D01*
X94431083Y-65432813D01*
X94456393Y-65476650D01*
X94452113Y-65509657D01*
X94454513Y-65510362D01*
X94414500Y-65646630D01*
X94414500Y-65783369D01*
X94453021Y-65914560D01*
X94453022Y-65914561D01*
X94465354Y-65933750D01*
X94515178Y-66011280D01*
X94526945Y-66029589D01*
X94630282Y-66119130D01*
X94754658Y-66175931D01*
X94855989Y-66190500D01*
X94855995Y-66190500D01*
X94924005Y-66190500D01*
X94924011Y-66190500D01*
X95025342Y-66175931D01*
X95149718Y-66119130D01*
X95253055Y-66029589D01*
X95326978Y-65914561D01*
X95346588Y-65847776D01*
X95365500Y-65783369D01*
X95365500Y-65646630D01*
X95325487Y-65510362D01*
X95327749Y-65509697D01*
X95324449Y-65468239D01*
X95353806Y-65427002D01*
X95385107Y-65414723D01*
X95451248Y-65405087D01*
X95513499Y-65374655D01*
X95563836Y-65369318D01*
X95605827Y-65397585D01*
X95620000Y-65441136D01*
X95620000Y-65807347D01*
X95635347Y-65933746D01*
X95635349Y-65933750D01*
X95695628Y-66092694D01*
X95792195Y-66232596D01*
X95919434Y-66345320D01*
X96069954Y-66424318D01*
X96194999Y-66455138D01*
X96195000Y-66455138D01*
X96195000Y-66041341D01*
X96291840Y-66068895D01*
X96403521Y-66058546D01*
X96445000Y-66037891D01*
X96445000Y-66455138D01*
X96570045Y-66424318D01*
X96720565Y-66345320D01*
X96847804Y-66232596D01*
X96944371Y-66092694D01*
X97004650Y-65933750D01*
X97004652Y-65933746D01*
X97019999Y-65807347D01*
X97020000Y-65807340D01*
X97020000Y-65340000D01*
X96620000Y-65340000D01*
X96620000Y-65090000D01*
X97020000Y-65090000D01*
X97020000Y-64622660D01*
X97019999Y-64622652D01*
X97004652Y-64496253D01*
X97004650Y-64496249D01*
X96944371Y-64337305D01*
X96847804Y-64197403D01*
X96720565Y-64084679D01*
X96570045Y-64005681D01*
X96445000Y-63974859D01*
X96445000Y-64388658D01*
X96348160Y-64361105D01*
X96236479Y-64371454D01*
X96195000Y-64392108D01*
X96195000Y-63974860D01*
X96194999Y-63974859D01*
X96069954Y-64005681D01*
X95919434Y-64084679D01*
X95815100Y-64177111D01*
X95768015Y-64195694D01*
X95720002Y-64179665D01*
X95693524Y-64136523D01*
X95692802Y-64132387D01*
X95690087Y-64113749D01*
X95638786Y-64008811D01*
X95556189Y-63926214D01*
X95451249Y-63874912D01*
X95383223Y-63865000D01*
X95325000Y-63865000D01*
X95325000Y-64691000D01*
X95307687Y-64738566D01*
X95263850Y-64763876D01*
X95251000Y-64765000D01*
X94974500Y-64765000D01*
X94926934Y-64747687D01*
X94901624Y-64703850D01*
X94900500Y-64691000D01*
X94900500Y-64589000D01*
X94917813Y-64541434D01*
X94961650Y-64516124D01*
X94974500Y-64515000D01*
X95075000Y-64515000D01*
X95075000Y-63865000D01*
X95074999Y-63864999D01*
X95016789Y-63865000D01*
X95016776Y-63865001D01*
X94948749Y-63874912D01*
X94843810Y-63926214D01*
X94843428Y-63926487D01*
X94843021Y-63926600D01*
X94838302Y-63928907D01*
X94837873Y-63928029D01*
X94794654Y-63940031D01*
X94762138Y-63928194D01*
X94761992Y-63928495D01*
X94759157Y-63927109D01*
X94757437Y-63926483D01*
X94756482Y-63925801D01*
X94651394Y-63874427D01*
X94611835Y-63868663D01*
X94567262Y-63844672D01*
X94556028Y-63827942D01*
X94554142Y-63824085D01*
X94547631Y-63803770D01*
X94547158Y-63800935D01*
X94546726Y-63797971D01*
X94540573Y-63748607D01*
X94540570Y-63748602D01*
X94538823Y-63742733D01*
X94539168Y-63742630D01*
X94538422Y-63740301D01*
X94538082Y-63740418D01*
X94536092Y-63734624D01*
X94536092Y-63734619D01*
X94512424Y-63690884D01*
X94511022Y-63688160D01*
X94508017Y-63682012D01*
X94500500Y-63649516D01*
X94500500Y-63144025D01*
X94502075Y-63128839D01*
X94505043Y-63114685D01*
X94501068Y-63082796D01*
X94500500Y-63073643D01*
X94500500Y-63070966D01*
X94500500Y-63070960D01*
X94497164Y-63050968D01*
X94496723Y-63047944D01*
X94496489Y-63046064D01*
X94490573Y-62998607D01*
X94490568Y-62998598D01*
X94488823Y-62992733D01*
X94489168Y-62992630D01*
X94488422Y-62990300D01*
X94488082Y-62990417D01*
X94486091Y-62984617D01*
X94462431Y-62940897D01*
X94461031Y-62938177D01*
X94446125Y-62907687D01*
X94439198Y-62893516D01*
X94439193Y-62893511D01*
X94435632Y-62888522D01*
X94435923Y-62888313D01*
X94434465Y-62886358D01*
X94434183Y-62886579D01*
X94430421Y-62881745D01*
X94420477Y-62872591D01*
X94393832Y-62848062D01*
X94391649Y-62845967D01*
X94314942Y-62769260D01*
X94293550Y-62723384D01*
X94306651Y-62674489D01*
X94348115Y-62645455D01*
X94398542Y-62649867D01*
X94400863Y-62651000D01*
X94417030Y-62659237D01*
X94417031Y-62659238D01*
X94516548Y-62674999D01*
X94650000Y-62674999D01*
X94650000Y-62125000D01*
X94900000Y-62125000D01*
X94900000Y-62674999D01*
X95033451Y-62674999D01*
X95132969Y-62659238D01*
X95132971Y-62659237D01*
X95252923Y-62598117D01*
X95348119Y-62502921D01*
X95409237Y-62382969D01*
X95409238Y-62382968D01*
X95425000Y-62283451D01*
X95425000Y-62125000D01*
X94900000Y-62125000D01*
X94650000Y-62125000D01*
X94125001Y-62125000D01*
X94125001Y-62283450D01*
X94126286Y-62291568D01*
X94116623Y-62341257D01*
X94077283Y-62373109D01*
X94026672Y-62372222D01*
X93988471Y-62339010D01*
X93988115Y-62338358D01*
X93977089Y-62317984D01*
X93959744Y-62285932D01*
X93930421Y-62231746D01*
X93930418Y-62231742D01*
X93899381Y-62203170D01*
X93876111Y-62158217D01*
X93875500Y-62148727D01*
X93875500Y-61875000D01*
X94125000Y-61875000D01*
X94650000Y-61875000D01*
X94650000Y-61325000D01*
X94900000Y-61325000D01*
X94900000Y-61875000D01*
X95424999Y-61875000D01*
X95424999Y-61716548D01*
X95409238Y-61617030D01*
X95409237Y-61617028D01*
X95348117Y-61497076D01*
X95252921Y-61401880D01*
X95132969Y-61340762D01*
X95132968Y-61340761D01*
X95033452Y-61325000D01*
X94900000Y-61325000D01*
X94650000Y-61325000D01*
X94516548Y-61325000D01*
X94417030Y-61340761D01*
X94417028Y-61340762D01*
X94297076Y-61401882D01*
X94201880Y-61497078D01*
X94140762Y-61617030D01*
X94140761Y-61617031D01*
X94125000Y-61716548D01*
X94125000Y-61875000D01*
X93875500Y-61875000D01*
X93875500Y-61716511D01*
X93859719Y-61616874D01*
X93859718Y-61616873D01*
X93855859Y-61609300D01*
X93798528Y-61496780D01*
X93703220Y-61401472D01*
X93703219Y-61401471D01*
X93583126Y-61340281D01*
X93583125Y-61340280D01*
X93483489Y-61324500D01*
X93483488Y-61324500D01*
X93320711Y-61324500D01*
X93280701Y-61312751D01*
X93271785Y-61307021D01*
X93241132Y-61266738D01*
X93243543Y-61216177D01*
X93259467Y-61192447D01*
X94370473Y-60081441D01*
X94381676Y-60072247D01*
X94398624Y-60060924D01*
X94437702Y-60002438D01*
X94469337Y-59979242D01*
X94468041Y-59976461D01*
X94473173Y-59974068D01*
X94580404Y-59924065D01*
X94664065Y-59840404D01*
X94714068Y-59733173D01*
X94720500Y-59684316D01*
X94720500Y-59335684D01*
X94714068Y-59286827D01*
X94664065Y-59179596D01*
X94580404Y-59095935D01*
X94517903Y-59066790D01*
X94482111Y-59030998D01*
X94477699Y-58980571D01*
X94506733Y-58939107D01*
X94517904Y-58932657D01*
X94580112Y-58903648D01*
X94663648Y-58820112D01*
X94713577Y-58713040D01*
X94720000Y-58664253D01*
X94720000Y-58615000D01*
X93680001Y-58615000D01*
X93680001Y-58664253D01*
X93686422Y-58713040D01*
X93686423Y-58713042D01*
X93736351Y-58820111D01*
X93736351Y-58820112D01*
X93819887Y-58903648D01*
X93819889Y-58903649D01*
X93882095Y-58932656D01*
X93917888Y-58968449D01*
X93922301Y-59018875D01*
X93893267Y-59060340D01*
X93882097Y-59066789D01*
X93819598Y-59095933D01*
X93819595Y-59095935D01*
X93735935Y-59179595D01*
X93685931Y-59286828D01*
X93679500Y-59335685D01*
X93679500Y-59684314D01*
X93685931Y-59733171D01*
X93735935Y-59840404D01*
X93739649Y-59845708D01*
X93737042Y-59847533D01*
X93753173Y-59882126D01*
X93740072Y-59931021D01*
X93731781Y-59940902D01*
X92601826Y-61070857D01*
X92555950Y-61092249D01*
X92507055Y-61079148D01*
X92478021Y-61037684D01*
X92475500Y-61018531D01*
X92475500Y-60702400D01*
X92492813Y-60654834D01*
X92497174Y-60650074D01*
X92498620Y-60648626D01*
X92498624Y-60648624D01*
X92514734Y-60624515D01*
X92559515Y-60557495D01*
X92580897Y-60450000D01*
X92579697Y-60443969D01*
X92576922Y-60430015D01*
X92575500Y-60415579D01*
X92575500Y-60054500D01*
X92592813Y-60006934D01*
X92636650Y-59981624D01*
X92649500Y-59980500D01*
X92824314Y-59980500D01*
X92824316Y-59980500D01*
X92873173Y-59974068D01*
X92980404Y-59924065D01*
X93064065Y-59840404D01*
X93114068Y-59733173D01*
X93120500Y-59684316D01*
X93120500Y-59335684D01*
X93114068Y-59286827D01*
X93064065Y-59179596D01*
X92980404Y-59095935D01*
X92917903Y-59066790D01*
X92882111Y-59030998D01*
X92877699Y-58980571D01*
X92906733Y-58939107D01*
X92917904Y-58932657D01*
X92980112Y-58903648D01*
X93063648Y-58820112D01*
X93113577Y-58713040D01*
X93120000Y-58664253D01*
X93120000Y-58615000D01*
X92549000Y-58615000D01*
X92501434Y-58597687D01*
X92476124Y-58553850D01*
X92475000Y-58541000D01*
X92475000Y-58020000D01*
X92725000Y-58020000D01*
X92725000Y-58365000D01*
X93119999Y-58365000D01*
X93680000Y-58365000D01*
X94075000Y-58365000D01*
X94075000Y-58020000D01*
X94325000Y-58020000D01*
X94325000Y-58365000D01*
X94719999Y-58365000D01*
X94719999Y-58315746D01*
X94713577Y-58266959D01*
X94713576Y-58266957D01*
X94663648Y-58159888D01*
X94663648Y-58159887D01*
X94580112Y-58076351D01*
X94473039Y-58026422D01*
X94473040Y-58026422D01*
X94424253Y-58020000D01*
X94325000Y-58020000D01*
X94075000Y-58020000D01*
X93975746Y-58020000D01*
X93926959Y-58026422D01*
X93926957Y-58026423D01*
X93819888Y-58076351D01*
X93819887Y-58076351D01*
X93736351Y-58159887D01*
X93686422Y-58266959D01*
X93680000Y-58315746D01*
X93680000Y-58365000D01*
X93119999Y-58365000D01*
X93119999Y-58315746D01*
X93113577Y-58266959D01*
X93113576Y-58266957D01*
X93063648Y-58159888D01*
X93063648Y-58159887D01*
X92980112Y-58076351D01*
X92873039Y-58026422D01*
X92873040Y-58026422D01*
X92824253Y-58020000D01*
X92725000Y-58020000D01*
X92475000Y-58020000D01*
X92381700Y-58020000D01*
X92334134Y-58002687D01*
X92308824Y-57958850D01*
X92307700Y-57946000D01*
X92307700Y-57888620D01*
X92309122Y-57874183D01*
X92313097Y-57854200D01*
X92313097Y-57854198D01*
X92303423Y-57805564D01*
X92303218Y-57804535D01*
X92294399Y-57760200D01*
X95741867Y-57760200D01*
X95760302Y-57888423D01*
X95760302Y-57888424D01*
X95760303Y-57888426D01*
X95814118Y-58006263D01*
X95898951Y-58104167D01*
X96007931Y-58174204D01*
X96132228Y-58210700D01*
X96261772Y-58210700D01*
X96386069Y-58174204D01*
X96495049Y-58104167D01*
X96579882Y-58006263D01*
X96633697Y-57888426D01*
X96652133Y-57760200D01*
X96633697Y-57631974D01*
X96579882Y-57514137D01*
X96495049Y-57416233D01*
X96400162Y-57355253D01*
X96386068Y-57346195D01*
X96261772Y-57309700D01*
X96132228Y-57309700D01*
X96007931Y-57346195D01*
X95898954Y-57416231D01*
X95898950Y-57416234D01*
X95814119Y-57514135D01*
X95814118Y-57514136D01*
X95814118Y-57514137D01*
X95807324Y-57529014D01*
X95760302Y-57631976D01*
X95741867Y-57760200D01*
X92294399Y-57760200D01*
X92291715Y-57746705D01*
X92248213Y-57681600D01*
X92246194Y-57678578D01*
X92246192Y-57678576D01*
X92244178Y-57675561D01*
X92244173Y-57675555D01*
X92230824Y-57655576D01*
X92229257Y-57654529D01*
X92213883Y-57644256D01*
X92202670Y-57635054D01*
X92047174Y-57479558D01*
X92025782Y-57433682D01*
X92025500Y-57427232D01*
X92025500Y-57224000D01*
X92042813Y-57176434D01*
X92086650Y-57151124D01*
X92099500Y-57150000D01*
X92125000Y-57150000D01*
X92125000Y-56249000D01*
X92142313Y-56201434D01*
X92186150Y-56176124D01*
X92199000Y-56175000D01*
X92301000Y-56175000D01*
X92348566Y-56192313D01*
X92373876Y-56236150D01*
X92375000Y-56249000D01*
X92375000Y-57150000D01*
X92419696Y-57150000D01*
X92484796Y-57137051D01*
X92514124Y-57139940D01*
X92514621Y-57137445D01*
X92521768Y-57138866D01*
X92521769Y-57138867D01*
X92580252Y-57150500D01*
X92580254Y-57150500D01*
X92919746Y-57150500D01*
X92919748Y-57150500D01*
X92978231Y-57138867D01*
X93044552Y-57094552D01*
X93088867Y-57028231D01*
X93100500Y-56969748D01*
X93100500Y-56774900D01*
X97325567Y-56774900D01*
X97344002Y-56903123D01*
X97344002Y-56903124D01*
X97344003Y-56903126D01*
X97397818Y-57020963D01*
X97482651Y-57118867D01*
X97591631Y-57188904D01*
X97715928Y-57225400D01*
X97845475Y-57225400D01*
X97845475Y-57225399D01*
X97865253Y-57219592D01*
X97939202Y-57197879D01*
X97989719Y-57201089D01*
X98026353Y-57236020D01*
X98026529Y-57236376D01*
X98060802Y-57306483D01*
X98143517Y-57389198D01*
X98248607Y-57440573D01*
X98316740Y-57450500D01*
X98316746Y-57450500D01*
X99408254Y-57450500D01*
X99408260Y-57450500D01*
X99476393Y-57440573D01*
X99581483Y-57389198D01*
X99664198Y-57306483D01*
X99715573Y-57201393D01*
X99725500Y-57133260D01*
X99725500Y-56995233D01*
X99742813Y-56947667D01*
X99747163Y-56942918D01*
X100054015Y-56636065D01*
X100065861Y-56626446D01*
X100077969Y-56618537D01*
X100097708Y-56593175D01*
X100103767Y-56586313D01*
X100105675Y-56584407D01*
X100117481Y-56567869D01*
X100119244Y-56565504D01*
X100149817Y-56526226D01*
X100149820Y-56526215D01*
X100152735Y-56520832D01*
X100153053Y-56521004D01*
X100154171Y-56518832D01*
X100153846Y-56518674D01*
X100156540Y-56513164D01*
X100170717Y-56465539D01*
X100171652Y-56462620D01*
X100172655Y-56459699D01*
X100187800Y-56415588D01*
X100187800Y-56415580D01*
X100188809Y-56409539D01*
X100189162Y-56409598D01*
X100189514Y-56407185D01*
X100189158Y-56407141D01*
X100189915Y-56401059D01*
X100189917Y-56401054D01*
X100187863Y-56351391D01*
X100187800Y-56348334D01*
X100187800Y-55423598D01*
X100205113Y-55376032D01*
X100248950Y-55350722D01*
X100298800Y-55359512D01*
X100328280Y-55391097D01*
X100335802Y-55406483D01*
X100418517Y-55489198D01*
X100523607Y-55540573D01*
X100591740Y-55550500D01*
X100738000Y-55550500D01*
X100785566Y-55567813D01*
X100810876Y-55611650D01*
X100812000Y-55624500D01*
X100812000Y-55866213D01*
X100794687Y-55913779D01*
X100793926Y-55914672D01*
X100754619Y-55960035D01*
X100754618Y-55960036D01*
X100700802Y-56077876D01*
X100682367Y-56206100D01*
X100700802Y-56334325D01*
X100705568Y-56344760D01*
X100709579Y-56395219D01*
X100680217Y-56436452D01*
X100638255Y-56449500D01*
X100591735Y-56449500D01*
X100523606Y-56459427D01*
X100523605Y-56459427D01*
X100418517Y-56510801D01*
X100335801Y-56593517D01*
X100284427Y-56698605D01*
X100284427Y-56698606D01*
X100274500Y-56766735D01*
X100274500Y-57133264D01*
X100284427Y-57201393D01*
X100284427Y-57201394D01*
X100335801Y-57306482D01*
X100335802Y-57306483D01*
X100418517Y-57389198D01*
X100523607Y-57440573D01*
X100591740Y-57450500D01*
X100591746Y-57450500D01*
X101683254Y-57450500D01*
X101683260Y-57450500D01*
X101751393Y-57440573D01*
X101856483Y-57389198D01*
X101939198Y-57306483D01*
X101990573Y-57201393D01*
X102000500Y-57133260D01*
X102000500Y-56766740D01*
X101990573Y-56698607D01*
X101960992Y-56638099D01*
X101955656Y-56587764D01*
X101983923Y-56545773D01*
X102027474Y-56531600D01*
X102760622Y-56531600D01*
X102808188Y-56548913D01*
X102812948Y-56553274D01*
X102917826Y-56658152D01*
X102939218Y-56704028D01*
X102939500Y-56710478D01*
X102939500Y-56909899D01*
X102946027Y-56959485D01*
X102946028Y-56959487D01*
X102996776Y-57068316D01*
X103081684Y-57153224D01*
X103190513Y-57203972D01*
X103240099Y-57210500D01*
X103599900Y-57210499D01*
X103649487Y-57203972D01*
X103758316Y-57153224D01*
X103843224Y-57068316D01*
X103843224Y-57068315D01*
X103847802Y-57063738D01*
X103850124Y-57066060D01*
X103881115Y-57044332D01*
X103931545Y-57048711D01*
X103952640Y-57063472D01*
X104041975Y-57152807D01*
X104150646Y-57203481D01*
X104150645Y-57203481D01*
X104200162Y-57210000D01*
X104255000Y-57210000D01*
X104255000Y-56825000D01*
X104505000Y-56825000D01*
X104505000Y-57210000D01*
X104559838Y-57210000D01*
X104609354Y-57203481D01*
X104718024Y-57152807D01*
X104802807Y-57068024D01*
X104853481Y-56959354D01*
X104860000Y-56909838D01*
X104860000Y-56825000D01*
X104505000Y-56825000D01*
X104255000Y-56825000D01*
X104255000Y-56190000D01*
X104505000Y-56190000D01*
X104505000Y-56575000D01*
X104860000Y-56575000D01*
X104860000Y-56490161D01*
X104853481Y-56440645D01*
X104802807Y-56331975D01*
X104718024Y-56247192D01*
X104609353Y-56196518D01*
X104609354Y-56196518D01*
X104559838Y-56190000D01*
X104505000Y-56190000D01*
X104255000Y-56190000D01*
X104200162Y-56190000D01*
X104150645Y-56196518D01*
X104041975Y-56247192D01*
X103952640Y-56336527D01*
X103906763Y-56357919D01*
X103857869Y-56344818D01*
X103848552Y-56335511D01*
X103847802Y-56336262D01*
X103758316Y-56246776D01*
X103744694Y-56240424D01*
X103649487Y-56196028D01*
X103649485Y-56196027D01*
X103612955Y-56191218D01*
X103599901Y-56189500D01*
X103599899Y-56189500D01*
X103400478Y-56189500D01*
X103352912Y-56172187D01*
X103348152Y-56167826D01*
X103168599Y-55988273D01*
X103164238Y-55983514D01*
X103144883Y-55960448D01*
X103138555Y-55952906D01*
X103112765Y-55938015D01*
X103103955Y-55932929D01*
X103098514Y-55929462D01*
X103065785Y-55906546D01*
X103065782Y-55906545D01*
X103061147Y-55905303D01*
X103043300Y-55897911D01*
X103039144Y-55895511D01*
X102999803Y-55888573D01*
X102993506Y-55887177D01*
X102954906Y-55876835D01*
X102954905Y-55876835D01*
X102917488Y-55880109D01*
X102915108Y-55880318D01*
X102908659Y-55880600D01*
X101537000Y-55880600D01*
X101489434Y-55863287D01*
X101464124Y-55819450D01*
X101463000Y-55806600D01*
X101463000Y-55624500D01*
X101480313Y-55576934D01*
X101524150Y-55551624D01*
X101537000Y-55550500D01*
X101683254Y-55550500D01*
X101683260Y-55550500D01*
X101751393Y-55540573D01*
X101856483Y-55489198D01*
X101939198Y-55406483D01*
X101990573Y-55301393D01*
X102000500Y-55233260D01*
X102000500Y-54866740D01*
X101997721Y-54847668D01*
X102007995Y-54798104D01*
X102047724Y-54766739D01*
X102070948Y-54763000D01*
X102456666Y-54763000D01*
X102504232Y-54780313D01*
X102508992Y-54784674D01*
X102917826Y-55193508D01*
X102939218Y-55239384D01*
X102939500Y-55245834D01*
X102939500Y-55409899D01*
X102946027Y-55459485D01*
X102946028Y-55459487D01*
X102996776Y-55568316D01*
X103081684Y-55653224D01*
X103190513Y-55703972D01*
X103240099Y-55710500D01*
X103599900Y-55710499D01*
X103649487Y-55703972D01*
X103758316Y-55653224D01*
X103843224Y-55568316D01*
X103843224Y-55568315D01*
X103847802Y-55563738D01*
X103850124Y-55566060D01*
X103881115Y-55544332D01*
X103931545Y-55548711D01*
X103952640Y-55563472D01*
X104041975Y-55652807D01*
X104150646Y-55703481D01*
X104150645Y-55703481D01*
X104200162Y-55710000D01*
X104255000Y-55710000D01*
X104255000Y-55325000D01*
X104505000Y-55325000D01*
X104505000Y-55710000D01*
X104559838Y-55710000D01*
X104609354Y-55703481D01*
X104718024Y-55652807D01*
X104802807Y-55568024D01*
X104853481Y-55459354D01*
X104860000Y-55409838D01*
X104860000Y-55325000D01*
X104505000Y-55325000D01*
X104255000Y-55325000D01*
X104255000Y-54690000D01*
X104505000Y-54690000D01*
X104505000Y-55075000D01*
X104860000Y-55075000D01*
X104860000Y-54990161D01*
X104853481Y-54940645D01*
X104802807Y-54831975D01*
X104720832Y-54750000D01*
X146594867Y-54750000D01*
X146613302Y-54878223D01*
X146613302Y-54878224D01*
X146613303Y-54878226D01*
X146667118Y-54996063D01*
X146751951Y-55093967D01*
X146860931Y-55164004D01*
X146985228Y-55200500D01*
X147114772Y-55200500D01*
X147239069Y-55164004D01*
X147348049Y-55093967D01*
X147432882Y-54996063D01*
X147486697Y-54878226D01*
X147487161Y-54875000D01*
X147957289Y-54875000D01*
X147965230Y-54914923D01*
X147994606Y-54958888D01*
X148006637Y-55008057D01*
X147994606Y-55041112D01*
X147965230Y-55085076D01*
X147957289Y-55124999D01*
X147957289Y-55125000D01*
X148437500Y-55125000D01*
X148437500Y-54875000D01*
X147957289Y-54875000D01*
X147487161Y-54875000D01*
X147505133Y-54750000D01*
X147502168Y-54729381D01*
X147512535Y-54679837D01*
X147523085Y-54666529D01*
X147626357Y-54563257D01*
X147660732Y-54543795D01*
X147704115Y-54532950D01*
X147725082Y-54527709D01*
X147743028Y-54525500D01*
X147886912Y-54525500D01*
X147934478Y-54542813D01*
X147959788Y-54586650D01*
X147959490Y-54613937D01*
X147957289Y-54624999D01*
X147957289Y-54625000D01*
X148613500Y-54625000D01*
X148661066Y-54642313D01*
X148686376Y-54686150D01*
X148687500Y-54699000D01*
X148687500Y-55301000D01*
X148670187Y-55348566D01*
X148626350Y-55373876D01*
X148613500Y-55375000D01*
X147957289Y-55375000D01*
X147965230Y-55414924D01*
X147994305Y-55458437D01*
X148006337Y-55507605D01*
X147994307Y-55540660D01*
X147976264Y-55567665D01*
X147935443Y-55597598D01*
X147893887Y-55597558D01*
X147872573Y-55591300D01*
X147872572Y-55591300D01*
X147743028Y-55591300D01*
X147618731Y-55627795D01*
X147509754Y-55697831D01*
X147509750Y-55697834D01*
X147424919Y-55795735D01*
X147424918Y-55795736D01*
X147424918Y-55795737D01*
X147412296Y-55823376D01*
X147371102Y-55913576D01*
X147352667Y-56041800D01*
X147371102Y-56170023D01*
X147371102Y-56170024D01*
X147371103Y-56170026D01*
X147424918Y-56287863D01*
X147509751Y-56385767D01*
X147618731Y-56455804D01*
X147743028Y-56492300D01*
X147872572Y-56492300D01*
X147996869Y-56455804D01*
X148105849Y-56385767D01*
X148143044Y-56342841D01*
X148187277Y-56318230D01*
X148198970Y-56317300D01*
X148236280Y-56317300D01*
X148250716Y-56318721D01*
X148270700Y-56322697D01*
X148270701Y-56322697D01*
X148275322Y-56321777D01*
X148297832Y-56317300D01*
X148297833Y-56317300D01*
X148378195Y-56301315D01*
X148420770Y-56272867D01*
X148446322Y-56255794D01*
X148446322Y-56255793D01*
X148454336Y-56250439D01*
X148454339Y-56250436D01*
X148455656Y-56249556D01*
X148469324Y-56240424D01*
X148480648Y-56223474D01*
X148489841Y-56212273D01*
X148604942Y-56097173D01*
X148650819Y-56075781D01*
X148657268Y-56075499D01*
X148850500Y-56075499D01*
X148898066Y-56092812D01*
X148923376Y-56136649D01*
X148924500Y-56149499D01*
X148924500Y-56813399D01*
X148939760Y-56890117D01*
X148995280Y-56973210D01*
X148997888Y-56977112D01*
X149084883Y-57035240D01*
X149161599Y-57050500D01*
X149338400Y-57050499D01*
X149415117Y-57035240D01*
X149458888Y-57005992D01*
X149508056Y-56993962D01*
X149541111Y-57005992D01*
X149584883Y-57035240D01*
X149661599Y-57050500D01*
X149838400Y-57050499D01*
X149855892Y-57047019D01*
X149905918Y-57054718D01*
X149935140Y-57088036D01*
X149936176Y-57087439D01*
X149939180Y-57092643D01*
X149939295Y-57092774D01*
X149939367Y-57092967D01*
X149939411Y-57093044D01*
X149939412Y-57093045D01*
X149947631Y-57107282D01*
X149950631Y-57112477D01*
X149956080Y-57124164D01*
X149962095Y-57140688D01*
X149962097Y-57191307D01*
X149929562Y-57230084D01*
X149892559Y-57240000D01*
X149840162Y-57240000D01*
X149790645Y-57246518D01*
X149681975Y-57297192D01*
X149597192Y-57381975D01*
X149546518Y-57490645D01*
X149540000Y-57540161D01*
X149540000Y-57625000D01*
X150071000Y-57625000D01*
X150118566Y-57642313D01*
X150143876Y-57686150D01*
X150145000Y-57699000D01*
X150145000Y-58260000D01*
X150199838Y-58260000D01*
X150249354Y-58253481D01*
X150358024Y-58202807D01*
X150447359Y-58113472D01*
X150493235Y-58092080D01*
X150542129Y-58105181D01*
X150551451Y-58114484D01*
X150552198Y-58113738D01*
X150641685Y-58203225D01*
X150697617Y-58229306D01*
X150738956Y-58248583D01*
X150763937Y-58267572D01*
X150931758Y-58463958D01*
X150949497Y-58511364D01*
X150949500Y-58512030D01*
X150949500Y-58562612D01*
X150932187Y-58610178D01*
X150919443Y-58622152D01*
X150877850Y-58652849D01*
X150877846Y-58652853D01*
X150797207Y-58762116D01*
X150797206Y-58762118D01*
X150752355Y-58890295D01*
X150752354Y-58890299D01*
X150752354Y-58890301D01*
X150749500Y-58920734D01*
X150749500Y-59979266D01*
X150752354Y-60009699D01*
X150752354Y-60009701D01*
X150752355Y-60009704D01*
X150797206Y-60137881D01*
X150797207Y-60137883D01*
X150877846Y-60247146D01*
X150877853Y-60247153D01*
X150987116Y-60327792D01*
X150987118Y-60327793D01*
X151115295Y-60372644D01*
X151115301Y-60372646D01*
X151145734Y-60375500D01*
X151145741Y-60375500D01*
X151754258Y-60375500D01*
X151754266Y-60375500D01*
X151784699Y-60372646D01*
X151912882Y-60327793D01*
X152022150Y-60247150D01*
X152025220Y-60242991D01*
X152102792Y-60137883D01*
X152102793Y-60137882D01*
X152147646Y-60009699D01*
X152150500Y-59979266D01*
X152150500Y-58920734D01*
X152147646Y-58890301D01*
X152121571Y-58815784D01*
X152102793Y-58762118D01*
X152102792Y-58762116D01*
X152022153Y-58652853D01*
X152022149Y-58652849D01*
X151980557Y-58622152D01*
X151952566Y-58579976D01*
X151950500Y-58562612D01*
X151950500Y-58301908D01*
X151950502Y-58301399D01*
X151950982Y-58231483D01*
X151950982Y-58231481D01*
X151941944Y-58199899D01*
X151939841Y-58190069D01*
X151938674Y-58181953D01*
X151935165Y-58157543D01*
X151923157Y-58131250D01*
X151919334Y-58120892D01*
X151911385Y-58093112D01*
X151893812Y-58065350D01*
X151889026Y-58056513D01*
X151875377Y-58026627D01*
X151829453Y-57973627D01*
X151829122Y-57973242D01*
X151816823Y-57958850D01*
X151693136Y-57814109D01*
X151484418Y-57569863D01*
X151466678Y-57522454D01*
X151483562Y-57474734D01*
X151488337Y-57469475D01*
X151629221Y-57328593D01*
X151693796Y-57242331D01*
X151694666Y-57240000D01*
X151744090Y-57107486D01*
X151744090Y-57107485D01*
X151744091Y-57107483D01*
X151754359Y-56963927D01*
X151723766Y-56823294D01*
X151654791Y-56696977D01*
X151553023Y-56595209D01*
X151552765Y-56595068D01*
X151426705Y-56526233D01*
X151286075Y-56495641D01*
X151286066Y-56495640D01*
X151154779Y-56505031D01*
X151106099Y-56491156D01*
X151077727Y-56449236D01*
X151075500Y-56431220D01*
X151075500Y-56406996D01*
X151075499Y-56406978D01*
X151075499Y-56149499D01*
X151092812Y-56101933D01*
X151136649Y-56076623D01*
X151149499Y-56075499D01*
X151236665Y-56075499D01*
X151284231Y-56092812D01*
X151288991Y-56097173D01*
X154908528Y-59716709D01*
X154918150Y-59728558D01*
X154926047Y-59740645D01*
X154926064Y-59740670D01*
X154951419Y-59760404D01*
X154958294Y-59766475D01*
X154960195Y-59768376D01*
X154976683Y-59780148D01*
X154979115Y-59781960D01*
X155018374Y-59812517D01*
X155018376Y-59812517D01*
X155018378Y-59812519D01*
X155023768Y-59815436D01*
X155023596Y-59815752D01*
X155025765Y-59816869D01*
X155025923Y-59816546D01*
X155031432Y-59819239D01*
X155031433Y-59819239D01*
X155031434Y-59819240D01*
X155079122Y-59833437D01*
X155081968Y-59834349D01*
X155129012Y-59850500D01*
X155129015Y-59850500D01*
X155135063Y-59851510D01*
X155135004Y-59851861D01*
X155137416Y-59852213D01*
X155137461Y-59851858D01*
X155143539Y-59852615D01*
X155143546Y-59852617D01*
X155193208Y-59850563D01*
X155196266Y-59850500D01*
X157025501Y-59850500D01*
X157073067Y-59867813D01*
X157098377Y-59911650D01*
X157099501Y-59924500D01*
X157099501Y-60247873D01*
X157105909Y-60307485D01*
X157156202Y-60442329D01*
X157156203Y-60442330D01*
X157172473Y-60464064D01*
X157242454Y-60557546D01*
X157305886Y-60605031D01*
X157357669Y-60643796D01*
X157357670Y-60643797D01*
X157446460Y-60676913D01*
X157492517Y-60694091D01*
X157552127Y-60700500D01*
X159447872Y-60700499D01*
X159507483Y-60694091D01*
X159553540Y-60676913D01*
X159604157Y-60676511D01*
X159643190Y-60708740D01*
X159653400Y-60746247D01*
X159653400Y-62820265D01*
X159636087Y-62867831D01*
X159631726Y-62872591D01*
X159226491Y-63277826D01*
X159180615Y-63299218D01*
X159174165Y-63299500D01*
X157552126Y-63299500D01*
X157492514Y-63305909D01*
X157357670Y-63356202D01*
X157357669Y-63356203D01*
X157242454Y-63442454D01*
X157156203Y-63557669D01*
X157156202Y-63557670D01*
X157105910Y-63692512D01*
X157105909Y-63692517D01*
X157099500Y-63752126D01*
X157099500Y-65247873D01*
X157105909Y-65307485D01*
X157156202Y-65442329D01*
X157156203Y-65442330D01*
X157156204Y-65442331D01*
X157242454Y-65557546D01*
X157336866Y-65628223D01*
X157357669Y-65643796D01*
X157357670Y-65643797D01*
X157468605Y-65685172D01*
X157492517Y-65694091D01*
X157552127Y-65700500D01*
X159447872Y-65700499D01*
X159507483Y-65694091D01*
X159574907Y-65668943D01*
X159642329Y-65643797D01*
X159642329Y-65643796D01*
X159642331Y-65643796D01*
X159757546Y-65557546D01*
X159843796Y-65442331D01*
X159849514Y-65427002D01*
X159876886Y-65353612D01*
X159894091Y-65307483D01*
X159900500Y-65247873D01*
X159900499Y-63752128D01*
X159894091Y-63692517D01*
X159886008Y-63670847D01*
X159885607Y-63620232D01*
X159903015Y-63592664D01*
X160220612Y-63275067D01*
X160232454Y-63265451D01*
X160244569Y-63257537D01*
X160264306Y-63232177D01*
X160270382Y-63225299D01*
X160272274Y-63223407D01*
X160279486Y-63213305D01*
X160284049Y-63206913D01*
X160285864Y-63204480D01*
X160304603Y-63180404D01*
X160316417Y-63165226D01*
X160316418Y-63165222D01*
X160319337Y-63159831D01*
X160319654Y-63160002D01*
X160320768Y-63157837D01*
X160320445Y-63157679D01*
X160323140Y-63152166D01*
X160325581Y-63143965D01*
X160337330Y-63104500D01*
X160338253Y-63101620D01*
X160354400Y-63054588D01*
X160354400Y-63054585D01*
X160355410Y-63048538D01*
X160355762Y-63048596D01*
X160356114Y-63046185D01*
X160355758Y-63046141D01*
X160356515Y-63040059D01*
X160356517Y-63040054D01*
X160354463Y-62990381D01*
X160354400Y-62987324D01*
X160354400Y-58574925D01*
X160355975Y-58559739D01*
X160357210Y-58553850D01*
X160358943Y-58545585D01*
X160354968Y-58513696D01*
X160354400Y-58504543D01*
X160354400Y-58501866D01*
X160354400Y-58501860D01*
X160351064Y-58481868D01*
X160350623Y-58478844D01*
X160348274Y-58460000D01*
X160344473Y-58429507D01*
X160344468Y-58429498D01*
X160342723Y-58423633D01*
X160343068Y-58423530D01*
X160342322Y-58421200D01*
X160341982Y-58421317D01*
X160339991Y-58415517D01*
X160316331Y-58371797D01*
X160314931Y-58369077D01*
X160298129Y-58334708D01*
X160293098Y-58324416D01*
X160293093Y-58324411D01*
X160289532Y-58319422D01*
X160289823Y-58319213D01*
X160288365Y-58317258D01*
X160288083Y-58317479D01*
X160284321Y-58312645D01*
X160277004Y-58305909D01*
X160247732Y-58278962D01*
X160245549Y-58276867D01*
X157145670Y-55176988D01*
X157136045Y-55165136D01*
X157128137Y-55153031D01*
X157102776Y-55133292D01*
X157095915Y-55127233D01*
X157094007Y-55125325D01*
X157094003Y-55125322D01*
X157094001Y-55125320D01*
X157077507Y-55113544D01*
X157075054Y-55111715D01*
X157035827Y-55081183D01*
X157030436Y-55078266D01*
X157030605Y-55077952D01*
X157028430Y-55076832D01*
X157028274Y-55077153D01*
X157022762Y-55074458D01*
X156975131Y-55060277D01*
X156972220Y-55059345D01*
X156925186Y-55043199D01*
X156919143Y-55042191D01*
X156919201Y-55041838D01*
X156916783Y-55041486D01*
X156916739Y-55041842D01*
X156910655Y-55041083D01*
X156910654Y-55041083D01*
X156910652Y-55041083D01*
X156860992Y-55043137D01*
X156857934Y-55043200D01*
X152241644Y-55043200D01*
X152204644Y-55033285D01*
X152194007Y-55027144D01*
X152188566Y-55023678D01*
X152168317Y-55009500D01*
X152155827Y-55000754D01*
X152155826Y-55000753D01*
X152155825Y-55000753D01*
X152151183Y-54999509D01*
X152133342Y-54992118D01*
X152129181Y-54989716D01*
X152129182Y-54989716D01*
X152098078Y-54984232D01*
X152054241Y-54958923D01*
X152036928Y-54911356D01*
X152038350Y-54896918D01*
X152042710Y-54875000D01*
X151846557Y-54875000D01*
X151825443Y-54871924D01*
X151809854Y-54867283D01*
X151692976Y-54872117D01*
X151686974Y-54873376D01*
X151686719Y-54872163D01*
X151671663Y-54875000D01*
X151386500Y-54875000D01*
X151338934Y-54857687D01*
X151313624Y-54813850D01*
X151312500Y-54801000D01*
X151312500Y-54699000D01*
X151329813Y-54651434D01*
X151373650Y-54626124D01*
X151386500Y-54625000D01*
X152042711Y-54625000D01*
X152042710Y-54624999D01*
X152034769Y-54585075D01*
X152005693Y-54541561D01*
X151993661Y-54492393D01*
X152005692Y-54459338D01*
X152035240Y-54415117D01*
X152050500Y-54338401D01*
X152050499Y-54161600D01*
X152035240Y-54084883D01*
X151977112Y-53997888D01*
X151976459Y-53997452D01*
X151890117Y-53939760D01*
X151883280Y-53938400D01*
X151813401Y-53924500D01*
X151813399Y-53924500D01*
X151149499Y-53924500D01*
X151101933Y-53907187D01*
X151076623Y-53863350D01*
X151075499Y-53850500D01*
X151075499Y-53186601D01*
X151071550Y-53166746D01*
X151060240Y-53109883D01*
X151002112Y-53022888D01*
X151001103Y-53022214D01*
X150948667Y-52987177D01*
X150918735Y-52946355D01*
X150922046Y-52895845D01*
X150922418Y-52895014D01*
X150926797Y-52885426D01*
X150945233Y-52757200D01*
X150926797Y-52628974D01*
X150872982Y-52511137D01*
X150788149Y-52413233D01*
X150721132Y-52370164D01*
X150679168Y-52343195D01*
X150554872Y-52306700D01*
X150425328Y-52306700D01*
X150301031Y-52343195D01*
X150192054Y-52413231D01*
X150192050Y-52413234D01*
X150107219Y-52511135D01*
X150053402Y-52628976D01*
X150034967Y-52757200D01*
X150038744Y-52783474D01*
X150028376Y-52833020D01*
X150027026Y-52835115D01*
X149990485Y-52889803D01*
X149987614Y-52904239D01*
X149961354Y-52947514D01*
X149913421Y-52963784D01*
X149900598Y-52962380D01*
X149875000Y-52957287D01*
X149875000Y-53613500D01*
X149857687Y-53661066D01*
X149813850Y-53686376D01*
X149801000Y-53687500D01*
X149699000Y-53687500D01*
X149651434Y-53670187D01*
X149626124Y-53626350D01*
X149625000Y-53613500D01*
X149625000Y-52957287D01*
X149624999Y-52957287D01*
X149585075Y-52965230D01*
X149541560Y-52994306D01*
X149492391Y-53006337D01*
X149459336Y-52994306D01*
X149415117Y-52964760D01*
X149410210Y-52963784D01*
X149338401Y-52949500D01*
X149338399Y-52949500D01*
X149161600Y-52949500D01*
X149084882Y-52964760D01*
X148997888Y-53022887D01*
X148997887Y-53022888D01*
X148943430Y-53104389D01*
X148902608Y-53134321D01*
X148861053Y-53134280D01*
X148785172Y-53112000D01*
X148655628Y-53112000D01*
X148531331Y-53148495D01*
X148422354Y-53218531D01*
X148422350Y-53218534D01*
X148337519Y-53316435D01*
X148337518Y-53316436D01*
X148337518Y-53316437D01*
X148312246Y-53371774D01*
X148283702Y-53434276D01*
X148265267Y-53562500D01*
X148283702Y-53690723D01*
X148283702Y-53690724D01*
X148283703Y-53690726D01*
X148337518Y-53808563D01*
X148337519Y-53808564D01*
X148337520Y-53808566D01*
X148338760Y-53810496D01*
X148339110Y-53812049D01*
X148339717Y-53813377D01*
X148339439Y-53813503D01*
X148349909Y-53859872D01*
X148326712Y-53904862D01*
X148280022Y-53924416D01*
X148276506Y-53924500D01*
X148186600Y-53924500D01*
X148109882Y-53939760D01*
X148076555Y-53962029D01*
X148035443Y-53974500D01*
X147760725Y-53974500D01*
X147748673Y-53972406D01*
X147748550Y-53973235D01*
X147741345Y-53972162D01*
X147741344Y-53972162D01*
X147741342Y-53972162D01*
X147695092Y-53974413D01*
X147691495Y-53974500D01*
X147672867Y-53974500D01*
X147672864Y-53974500D01*
X147672859Y-53974501D01*
X147671602Y-53974751D01*
X147660793Y-53976082D01*
X147659506Y-53976144D01*
X147646283Y-53979449D01*
X147641414Y-53980666D01*
X147637917Y-53981451D01*
X147592503Y-53990485D01*
X147585771Y-53993274D01*
X147585451Y-53992501D01*
X147574273Y-53997452D01*
X147441400Y-54030670D01*
X147437890Y-54031457D01*
X147392506Y-54040485D01*
X147392502Y-54040486D01*
X147368438Y-54056564D01*
X147358942Y-54061941D01*
X147332773Y-54074304D01*
X147332771Y-54074306D01*
X147301674Y-54108584D01*
X147299194Y-54111188D01*
X147132558Y-54277826D01*
X147086682Y-54299218D01*
X147080232Y-54299500D01*
X146985228Y-54299500D01*
X146860931Y-54335995D01*
X146751954Y-54406031D01*
X146751950Y-54406034D01*
X146667119Y-54503935D01*
X146667118Y-54503936D01*
X146667118Y-54503937D01*
X146649364Y-54542813D01*
X146613302Y-54621776D01*
X146594867Y-54750000D01*
X104720832Y-54750000D01*
X104718024Y-54747192D01*
X104609353Y-54696518D01*
X104609354Y-54696518D01*
X104559838Y-54690000D01*
X104505000Y-54690000D01*
X104255000Y-54690000D01*
X104200162Y-54690000D01*
X104150645Y-54696518D01*
X104041975Y-54747192D01*
X103952640Y-54836527D01*
X103906763Y-54857919D01*
X103857869Y-54844818D01*
X103848552Y-54835511D01*
X103847802Y-54836262D01*
X103758316Y-54746776D01*
X103655860Y-54699000D01*
X103649487Y-54696028D01*
X103649485Y-54696027D01*
X103612153Y-54691113D01*
X103599901Y-54689500D01*
X103599899Y-54689500D01*
X103435834Y-54689500D01*
X103388268Y-54672187D01*
X103383508Y-54667826D01*
X102911470Y-54195788D01*
X102901845Y-54183936D01*
X102898238Y-54178415D01*
X102893937Y-54171831D01*
X102868576Y-54152092D01*
X102861715Y-54146033D01*
X102859807Y-54144125D01*
X102859803Y-54144122D01*
X102859801Y-54144120D01*
X102843307Y-54132344D01*
X102840854Y-54130515D01*
X102801627Y-54099983D01*
X102796236Y-54097066D01*
X102796405Y-54096752D01*
X102794230Y-54095632D01*
X102794074Y-54095953D01*
X102788562Y-54093258D01*
X102740931Y-54079077D01*
X102738020Y-54078145D01*
X102690986Y-54061999D01*
X102684943Y-54060991D01*
X102685001Y-54060638D01*
X102682583Y-54060286D01*
X102682539Y-54060642D01*
X102676455Y-54059883D01*
X102676454Y-54059883D01*
X102676452Y-54059883D01*
X102626792Y-54061937D01*
X102623734Y-54062000D01*
X100570846Y-54062000D01*
X100523280Y-54044687D01*
X100518518Y-54040324D01*
X100456813Y-53978614D01*
X100436430Y-53958229D01*
X100415040Y-53912352D01*
X100428144Y-53863459D01*
X100469609Y-53834427D01*
X100520036Y-53838841D01*
X100521206Y-53839399D01*
X100523607Y-53840573D01*
X100591740Y-53850500D01*
X100591746Y-53850500D01*
X101683254Y-53850500D01*
X101683260Y-53850500D01*
X101751393Y-53840573D01*
X101856483Y-53789198D01*
X101939198Y-53706483D01*
X101990573Y-53601393D01*
X102000500Y-53533260D01*
X102000500Y-53166740D01*
X101990573Y-53098607D01*
X101939198Y-52993517D01*
X101856483Y-52910802D01*
X101856482Y-52910801D01*
X101751394Y-52859427D01*
X101683264Y-52849500D01*
X101683260Y-52849500D01*
X101326325Y-52849500D01*
X101278759Y-52832187D01*
X101253449Y-52788350D01*
X101262239Y-52738500D01*
X101301016Y-52705963D01*
X101305477Y-52704497D01*
X101326569Y-52698304D01*
X101435549Y-52628267D01*
X101435552Y-52628263D01*
X101435999Y-52627877D01*
X101436384Y-52627729D01*
X101440002Y-52625405D01*
X101440488Y-52626161D01*
X101483284Y-52609809D01*
X101484461Y-52609800D01*
X102438822Y-52609800D01*
X102486388Y-52627113D01*
X102491148Y-52631474D01*
X102917826Y-53058152D01*
X102939218Y-53104028D01*
X102939500Y-53110478D01*
X102939500Y-53309899D01*
X102946027Y-53359485D01*
X102946028Y-53359487D01*
X102996776Y-53468316D01*
X103081684Y-53553224D01*
X103190513Y-53603972D01*
X103240099Y-53610500D01*
X103599900Y-53610499D01*
X103649487Y-53603972D01*
X103758316Y-53553224D01*
X103843224Y-53468316D01*
X103843224Y-53468315D01*
X103847802Y-53463738D01*
X103850124Y-53466060D01*
X103881115Y-53444332D01*
X103931545Y-53448711D01*
X103952640Y-53463472D01*
X104041975Y-53552807D01*
X104150646Y-53603481D01*
X104150645Y-53603481D01*
X104200162Y-53610000D01*
X104255000Y-53610000D01*
X104255000Y-53225000D01*
X104505000Y-53225000D01*
X104505000Y-53610000D01*
X104559838Y-53610000D01*
X104609354Y-53603481D01*
X104718024Y-53552807D01*
X104802807Y-53468024D01*
X104853481Y-53359354D01*
X104860000Y-53309838D01*
X104860000Y-53225000D01*
X104505000Y-53225000D01*
X104255000Y-53225000D01*
X104255000Y-52590000D01*
X104505000Y-52590000D01*
X104505000Y-52975000D01*
X104860000Y-52975000D01*
X104860000Y-52890161D01*
X104853481Y-52840645D01*
X104802807Y-52731975D01*
X104718024Y-52647192D01*
X104609353Y-52596518D01*
X104609354Y-52596518D01*
X104559838Y-52590000D01*
X104505000Y-52590000D01*
X104255000Y-52590000D01*
X104200162Y-52590000D01*
X104150645Y-52596518D01*
X104041975Y-52647192D01*
X103952640Y-52736527D01*
X103906763Y-52757919D01*
X103857869Y-52744818D01*
X103848552Y-52735511D01*
X103847802Y-52736262D01*
X103758316Y-52646776D01*
X103720144Y-52628976D01*
X103649487Y-52596028D01*
X103649485Y-52596027D01*
X103612955Y-52591218D01*
X103599901Y-52589500D01*
X103599899Y-52589500D01*
X103400478Y-52589500D01*
X103352912Y-52572187D01*
X103348152Y-52567826D01*
X102846799Y-52066473D01*
X102842438Y-52061714D01*
X102834964Y-52052807D01*
X102816755Y-52031106D01*
X102782155Y-52011129D01*
X102776714Y-52007662D01*
X102743985Y-51984746D01*
X102743982Y-51984745D01*
X102739347Y-51983503D01*
X102721500Y-51976111D01*
X102717344Y-51973711D01*
X102678003Y-51966773D01*
X102671706Y-51965377D01*
X102633106Y-51955035D01*
X102633105Y-51955035D01*
X102595688Y-51958309D01*
X102593308Y-51958518D01*
X102586859Y-51958800D01*
X101965533Y-51958800D01*
X101917967Y-51941487D01*
X101892657Y-51897650D01*
X101901447Y-51847800D01*
X101913207Y-51832474D01*
X101918224Y-51827457D01*
X101939198Y-51806483D01*
X101990573Y-51701393D01*
X102000500Y-51633260D01*
X102000500Y-51266740D01*
X101999732Y-51261468D01*
X102010006Y-51211903D01*
X102049737Y-51180538D01*
X102072959Y-51176800D01*
X102470466Y-51176800D01*
X102518032Y-51194113D01*
X102522792Y-51198474D01*
X102917826Y-51593508D01*
X102939218Y-51639384D01*
X102939500Y-51645834D01*
X102939500Y-51809899D01*
X102946027Y-51859485D01*
X102946028Y-51859487D01*
X102996776Y-51968316D01*
X103081684Y-52053224D01*
X103190513Y-52103972D01*
X103240099Y-52110500D01*
X103599900Y-52110499D01*
X103649487Y-52103972D01*
X103758316Y-52053224D01*
X103843224Y-51968316D01*
X103843224Y-51968315D01*
X103847802Y-51963738D01*
X103850124Y-51966060D01*
X103881115Y-51944332D01*
X103931545Y-51948711D01*
X103952640Y-51963472D01*
X104041975Y-52052807D01*
X104150646Y-52103481D01*
X104150645Y-52103481D01*
X104200162Y-52110000D01*
X104255000Y-52110000D01*
X104255000Y-51725000D01*
X104505000Y-51725000D01*
X104505000Y-52110000D01*
X104559838Y-52110000D01*
X104609354Y-52103481D01*
X104718024Y-52052807D01*
X104802807Y-51968024D01*
X104853481Y-51859354D01*
X104860000Y-51809838D01*
X104860000Y-51725000D01*
X104505000Y-51725000D01*
X104255000Y-51725000D01*
X104255000Y-51090000D01*
X104505000Y-51090000D01*
X104505000Y-51475000D01*
X104860000Y-51475000D01*
X104860000Y-51390161D01*
X104853481Y-51340645D01*
X104802807Y-51231975D01*
X104718024Y-51147192D01*
X104609353Y-51096518D01*
X104609354Y-51096518D01*
X104559838Y-51090000D01*
X104505000Y-51090000D01*
X104255000Y-51090000D01*
X104200162Y-51090000D01*
X104150645Y-51096518D01*
X104041975Y-51147192D01*
X103952640Y-51236527D01*
X103906763Y-51257919D01*
X103857869Y-51244818D01*
X103848552Y-51235511D01*
X103847802Y-51236262D01*
X103758316Y-51146776D01*
X103649487Y-51096028D01*
X103649485Y-51096027D01*
X103612955Y-51091218D01*
X103599901Y-51089500D01*
X103599899Y-51089500D01*
X103435834Y-51089500D01*
X103388268Y-51072187D01*
X103383508Y-51067826D01*
X102925270Y-50609588D01*
X102915645Y-50597736D01*
X102907737Y-50585631D01*
X102882376Y-50565892D01*
X102875515Y-50559833D01*
X102873607Y-50557925D01*
X102873603Y-50557922D01*
X102873601Y-50557920D01*
X102857107Y-50546144D01*
X102854654Y-50544315D01*
X102815427Y-50513783D01*
X102810036Y-50510866D01*
X102810205Y-50510552D01*
X102808030Y-50509432D01*
X102807874Y-50509753D01*
X102802362Y-50507058D01*
X102754731Y-50492877D01*
X102751820Y-50491945D01*
X102704786Y-50475799D01*
X102698743Y-50474791D01*
X102698801Y-50474438D01*
X102696383Y-50474086D01*
X102696339Y-50474442D01*
X102690255Y-50473683D01*
X102690254Y-50473683D01*
X102690252Y-50473683D01*
X102640592Y-50475737D01*
X102637534Y-50475800D01*
X100493525Y-50475800D01*
X100478340Y-50474225D01*
X100464185Y-50471257D01*
X100432297Y-50475232D01*
X100423144Y-50475800D01*
X100420460Y-50475800D01*
X100420458Y-50475800D01*
X100420448Y-50475801D01*
X100400457Y-50479136D01*
X100397437Y-50479576D01*
X100348107Y-50485726D01*
X100342230Y-50487476D01*
X100342129Y-50487137D01*
X100339800Y-50487883D01*
X100339915Y-50488218D01*
X100334121Y-50490206D01*
X100290398Y-50513868D01*
X100287679Y-50515267D01*
X100243016Y-50537101D01*
X100238029Y-50540662D01*
X100237824Y-50540375D01*
X100235865Y-50541835D01*
X100236082Y-50542114D01*
X100231241Y-50545882D01*
X100197572Y-50582454D01*
X100195457Y-50584659D01*
X99727725Y-51052392D01*
X99681849Y-51073784D01*
X99632954Y-51060683D01*
X99623073Y-51052392D01*
X99581482Y-51010801D01*
X99476394Y-50959427D01*
X99408264Y-50949500D01*
X99408260Y-50949500D01*
X98316740Y-50949500D01*
X98316735Y-50949500D01*
X98248606Y-50959427D01*
X98248605Y-50959427D01*
X98143517Y-51010801D01*
X98060801Y-51093517D01*
X98009427Y-51198605D01*
X98009427Y-51198606D01*
X97999500Y-51266735D01*
X97999500Y-51633264D01*
X98009427Y-51701393D01*
X98009427Y-51701394D01*
X98060801Y-51806482D01*
X98127346Y-51873027D01*
X98148738Y-51918903D01*
X98135637Y-51967798D01*
X98127346Y-51977679D01*
X98061214Y-52043810D01*
X98009912Y-52148750D01*
X98000000Y-52216776D01*
X98000000Y-52275000D01*
X98913500Y-52275000D01*
X98961066Y-52292313D01*
X98986376Y-52336150D01*
X98987500Y-52349000D01*
X98987500Y-52451000D01*
X98970187Y-52498566D01*
X98926350Y-52523876D01*
X98913500Y-52525000D01*
X98000001Y-52525000D01*
X98000001Y-52583224D01*
X98009912Y-52651250D01*
X98061213Y-52756188D01*
X98127346Y-52822321D01*
X98148738Y-52868197D01*
X98135637Y-52917092D01*
X98127346Y-52926973D01*
X98060801Y-52993517D01*
X98009427Y-53098605D01*
X98009427Y-53098606D01*
X97999500Y-53166735D01*
X97999500Y-53533264D01*
X98009427Y-53601393D01*
X98009427Y-53601394D01*
X98060801Y-53706482D01*
X98060802Y-53706483D01*
X98143517Y-53789198D01*
X98248607Y-53840573D01*
X98316740Y-53850500D01*
X99306737Y-53850500D01*
X99354303Y-53867813D01*
X99359065Y-53872176D01*
X99391748Y-53904862D01*
X99841007Y-54354161D01*
X99847007Y-54360161D01*
X99868398Y-54406039D01*
X99855294Y-54454932D01*
X99847005Y-54464811D01*
X99693575Y-54618242D01*
X99647699Y-54639634D01*
X99598805Y-54626533D01*
X99588923Y-54618242D01*
X99581482Y-54610801D01*
X99476394Y-54559427D01*
X99408264Y-54549500D01*
X99408260Y-54549500D01*
X98316740Y-54549500D01*
X98316735Y-54549500D01*
X98248606Y-54559427D01*
X98248605Y-54559427D01*
X98143517Y-54610801D01*
X98060801Y-54693517D01*
X98009427Y-54798605D01*
X98009427Y-54798606D01*
X97999500Y-54866735D01*
X97999500Y-55233264D01*
X98009427Y-55301393D01*
X98009427Y-55301394D01*
X98060801Y-55406482D01*
X98127346Y-55473027D01*
X98148738Y-55518903D01*
X98135637Y-55567798D01*
X98127346Y-55577679D01*
X98061214Y-55643810D01*
X98009912Y-55748750D01*
X98000000Y-55816776D01*
X98000000Y-55875000D01*
X98913500Y-55875000D01*
X98961066Y-55892313D01*
X98986376Y-55936150D01*
X98987500Y-55949000D01*
X98987500Y-56051000D01*
X98970187Y-56098566D01*
X98926350Y-56123876D01*
X98913500Y-56125000D01*
X98000001Y-56125000D01*
X98000001Y-56183224D01*
X98009912Y-56251250D01*
X98010493Y-56253129D01*
X98010415Y-56254699D01*
X98010741Y-56256936D01*
X98010301Y-56257000D01*
X98007990Y-56303686D01*
X97973575Y-56340806D01*
X97923351Y-56347120D01*
X97918941Y-56345972D01*
X97916744Y-56345327D01*
X97845472Y-56324400D01*
X97715928Y-56324400D01*
X97591631Y-56360895D01*
X97482654Y-56430931D01*
X97482650Y-56430934D01*
X97397819Y-56528835D01*
X97397818Y-56528836D01*
X97397818Y-56528837D01*
X97381088Y-56565470D01*
X97344002Y-56646676D01*
X97325567Y-56774900D01*
X93100500Y-56774900D01*
X93100500Y-55630252D01*
X93088867Y-55571769D01*
X93085052Y-55566060D01*
X93045993Y-55507605D01*
X93044552Y-55505448D01*
X92999999Y-55475678D01*
X92978232Y-55461133D01*
X92978233Y-55461133D01*
X92948989Y-55455316D01*
X92919748Y-55449500D01*
X92636519Y-55449500D01*
X92588953Y-55432187D01*
X92563643Y-55388350D01*
X92572433Y-55338500D01*
X92595403Y-55313973D01*
X92619317Y-55297995D01*
X92640122Y-55284094D01*
X92640123Y-55284092D01*
X92648137Y-55278738D01*
X92648138Y-55278736D01*
X92663124Y-55268724D01*
X92674444Y-55251781D01*
X92683641Y-55240574D01*
X93008472Y-54915742D01*
X93019676Y-54906547D01*
X93036624Y-54895224D01*
X93053382Y-54870145D01*
X93076266Y-54835896D01*
X93097515Y-54804095D01*
X93113500Y-54723733D01*
X93113500Y-54723732D01*
X93118897Y-54696600D01*
X93117673Y-54690448D01*
X93114922Y-54676615D01*
X93113500Y-54662179D01*
X93113500Y-54481420D01*
X93114922Y-54466983D01*
X93118897Y-54447000D01*
X93112555Y-54415117D01*
X93107041Y-54387397D01*
X93097515Y-54339505D01*
X93063304Y-54288305D01*
X93063304Y-54288304D01*
X93052708Y-54272447D01*
X93051994Y-54271378D01*
X93051992Y-54271376D01*
X93051876Y-54271203D01*
X93049975Y-54268357D01*
X93049974Y-54268356D01*
X93036624Y-54248376D01*
X93036623Y-54248375D01*
X93019683Y-54237056D01*
X93008470Y-54227854D01*
X92950364Y-54169748D01*
X93549500Y-54169748D01*
X93553600Y-54190361D01*
X93561133Y-54228232D01*
X93575344Y-54249499D01*
X93605448Y-54294552D01*
X93641745Y-54318805D01*
X93671767Y-54338866D01*
X93671768Y-54338866D01*
X93671769Y-54338867D01*
X93730252Y-54350500D01*
X93730254Y-54350500D01*
X95569746Y-54350500D01*
X95569748Y-54350500D01*
X95628231Y-54338867D01*
X95694552Y-54294552D01*
X95738867Y-54228231D01*
X95750500Y-54169748D01*
X95750500Y-51930252D01*
X95738867Y-51871769D01*
X95730571Y-51859354D01*
X95722851Y-51847800D01*
X95694552Y-51805448D01*
X95672343Y-51790608D01*
X95628232Y-51761133D01*
X95628233Y-51761133D01*
X95598989Y-51755316D01*
X95569748Y-51749500D01*
X93730252Y-51749500D01*
X93701010Y-51755316D01*
X93671767Y-51761133D01*
X93605449Y-51805447D01*
X93605447Y-51805449D01*
X93561133Y-51871767D01*
X93557666Y-51889198D01*
X93549500Y-51930252D01*
X93549500Y-54169748D01*
X92950364Y-54169748D01*
X89233745Y-50453129D01*
X89224542Y-50441914D01*
X89213226Y-50424978D01*
X89213224Y-50424976D01*
X89213223Y-50424975D01*
X89193244Y-50411626D01*
X89193239Y-50411621D01*
X89164065Y-50392128D01*
X89154937Y-50386029D01*
X89125006Y-50345208D01*
X89128316Y-50294697D01*
X89163319Y-50258132D01*
X89196049Y-50250500D01*
X163955830Y-50250500D01*
X163997364Y-50250500D01*
X164002642Y-50250688D01*
G37*
%TD.AperFunction*%
%TA.AperFunction,Conductor*%
G36*
X77572146Y-65603948D02*
G01*
X77597013Y-65633823D01*
X77605519Y-65652447D01*
X77617218Y-65678063D01*
X77702051Y-65775967D01*
X77811031Y-65846004D01*
X77935328Y-65882500D01*
X78064874Y-65882500D01*
X78091305Y-65874738D01*
X78105151Y-65870673D01*
X78155668Y-65873883D01*
X78192303Y-65908813D01*
X78197346Y-65930345D01*
X78200000Y-65932999D01*
X79200000Y-65932999D01*
X79200000Y-65773666D01*
X79201353Y-65773666D01*
X79212668Y-65729456D01*
X79253804Y-65699958D01*
X79276617Y-65697959D01*
X79276617Y-65697499D01*
X79923383Y-65697499D01*
X79923383Y-65698887D01*
X79967493Y-65710177D01*
X79996990Y-65751314D01*
X79998947Y-65773616D01*
X79999500Y-65773616D01*
X79999500Y-66268649D01*
X79982187Y-66316215D01*
X79938350Y-66341525D01*
X79901060Y-66338497D01*
X79849289Y-66320382D01*
X79849283Y-66320380D01*
X79804778Y-66310222D01*
X79622828Y-66289722D01*
X79577172Y-66289722D01*
X79435016Y-66305738D01*
X79966016Y-66836738D01*
X79987408Y-66882614D01*
X79974307Y-66931509D01*
X79932843Y-66960543D01*
X79882416Y-66956131D01*
X79872004Y-66950206D01*
X79856595Y-66939700D01*
X79797673Y-66899527D01*
X79797672Y-66899526D01*
X79797671Y-66899526D01*
X79737923Y-66881097D01*
X79667902Y-66859499D01*
X79665875Y-66859499D01*
X79664440Y-66858976D01*
X79662418Y-66858672D01*
X79662479Y-66858263D01*
X79618309Y-66842186D01*
X79613549Y-66837825D01*
X79156548Y-66380824D01*
X79135156Y-66334948D01*
X79148257Y-66286053D01*
X79189721Y-66257019D01*
X79198654Y-66255843D01*
X79200000Y-66254498D01*
X79200000Y-66182999D01*
X78825000Y-66182999D01*
X78825000Y-66518999D01*
X78836958Y-66530957D01*
X78858350Y-66576833D01*
X78845249Y-66625728D01*
X78836958Y-66635609D01*
X78816554Y-66656012D01*
X78788079Y-66691718D01*
X78690668Y-66846747D01*
X78670850Y-66887900D01*
X78610388Y-67060693D01*
X78610381Y-67060715D01*
X78600223Y-67105220D01*
X78600223Y-67105221D01*
X78579723Y-67287170D01*
X78579723Y-67332828D01*
X78582065Y-67353616D01*
X78600224Y-67514778D01*
X78610381Y-67559282D01*
X78610388Y-67559304D01*
X78670850Y-67732097D01*
X78690668Y-67773250D01*
X78788079Y-67928279D01*
X78816554Y-67963985D01*
X78946013Y-68093444D01*
X78981719Y-68121919D01*
X79136748Y-68219330D01*
X79143803Y-68222728D01*
X79179147Y-68258965D01*
X79182930Y-68309442D01*
X79153382Y-68350542D01*
X79111696Y-68363400D01*
X76324500Y-68363400D01*
X76276934Y-68346087D01*
X76251624Y-68302250D01*
X76250500Y-68289400D01*
X76250500Y-67515253D01*
X76250406Y-67514778D01*
X76238867Y-67456769D01*
X76194995Y-67391112D01*
X76182964Y-67341945D01*
X76194996Y-67308887D01*
X76211749Y-67283816D01*
X76238867Y-67243231D01*
X76250500Y-67184748D01*
X76250500Y-66259881D01*
X76267813Y-66212315D01*
X76311650Y-66187005D01*
X76361500Y-66195795D01*
X76380426Y-66211422D01*
X76451947Y-66293963D01*
X76451948Y-66293964D01*
X76451951Y-66293967D01*
X76560931Y-66364004D01*
X76685228Y-66400500D01*
X76814772Y-66400500D01*
X76939069Y-66364004D01*
X77048049Y-66293967D01*
X77132882Y-66196063D01*
X77138848Y-66182999D01*
X78200000Y-66182999D01*
X78200000Y-66338696D01*
X78211603Y-66397034D01*
X78255807Y-66463190D01*
X78255808Y-66463191D01*
X78321964Y-66507395D01*
X78380303Y-66518999D01*
X78575000Y-66518999D01*
X78575000Y-66182999D01*
X78200000Y-66182999D01*
X77138848Y-66182999D01*
X77186697Y-66078226D01*
X77205133Y-65950000D01*
X77202168Y-65929381D01*
X77212535Y-65879837D01*
X77223085Y-65866529D01*
X77477376Y-65612238D01*
X77523251Y-65590847D01*
X77572146Y-65603948D01*
G37*
%TD.AperFunction*%
%TA.AperFunction,Conductor*%
G36*
X80058369Y-66932013D02*
G01*
X80072109Y-66942831D01*
X80262500Y-67133222D01*
X80604259Y-67474980D01*
X80619352Y-67341025D01*
X80619914Y-67337419D01*
X80620014Y-67335890D01*
X80620325Y-67332406D01*
X80622760Y-67310853D01*
X80621850Y-67308140D01*
X80622453Y-67306485D01*
X80611654Y-67210643D01*
X80623532Y-67161437D01*
X80664260Y-67131378D01*
X80714781Y-67134531D01*
X80737515Y-67150031D01*
X80849626Y-67262142D01*
X80871018Y-67308018D01*
X80871300Y-67314468D01*
X80871300Y-67768032D01*
X80853987Y-67815598D01*
X80849626Y-67820358D01*
X80328258Y-68341726D01*
X80282382Y-68363118D01*
X80275932Y-68363400D01*
X80088304Y-68363400D01*
X80040738Y-68346087D01*
X80015428Y-68302250D01*
X80024218Y-68252400D01*
X80056197Y-68222728D01*
X80063251Y-68219330D01*
X80218280Y-68121919D01*
X80253986Y-68093444D01*
X80383445Y-67963985D01*
X80411918Y-67928281D01*
X80509333Y-67773246D01*
X80522216Y-67746493D01*
X80522216Y-67746492D01*
X80068427Y-67292703D01*
X80047035Y-67246827D01*
X80046960Y-67245906D01*
X80044317Y-67210643D01*
X80044166Y-67208621D01*
X79994552Y-67082205D01*
X79994550Y-67082203D01*
X79994549Y-67082200D01*
X79961928Y-67041295D01*
X79945806Y-66993312D01*
X79964299Y-66946192D01*
X80008754Y-66921984D01*
X80058369Y-66932013D01*
G37*
%TD.AperFunction*%
%TA.AperFunction,Conductor*%
G36*
X82434807Y-65767813D02*
G01*
X82453721Y-65791998D01*
X82458728Y-65802240D01*
X82460802Y-65806483D01*
X82527346Y-65873027D01*
X82548738Y-65918903D01*
X82535637Y-65967798D01*
X82527346Y-65977679D01*
X82461214Y-66043810D01*
X82409912Y-66148750D01*
X82400000Y-66216776D01*
X82400000Y-66275000D01*
X84124999Y-66275000D01*
X84124999Y-66216789D01*
X84124998Y-66216775D01*
X84115087Y-66148749D01*
X84063786Y-66043811D01*
X83997654Y-65977679D01*
X83976262Y-65931803D01*
X83989363Y-65882908D01*
X83997654Y-65873027D01*
X84028285Y-65842396D01*
X84064198Y-65806483D01*
X84071278Y-65791999D01*
X84107721Y-65756871D01*
X84137759Y-65750500D01*
X84662241Y-65750500D01*
X84709807Y-65767813D01*
X84728721Y-65791998D01*
X84733728Y-65802240D01*
X84735802Y-65806483D01*
X84801993Y-65872674D01*
X84823385Y-65918550D01*
X84810284Y-65967445D01*
X84801993Y-65977326D01*
X84735801Y-66043517D01*
X84684427Y-66148605D01*
X84684427Y-66148606D01*
X84674500Y-66216735D01*
X84674500Y-66583264D01*
X84684427Y-66651393D01*
X84684427Y-66651394D01*
X84735801Y-66756482D01*
X84801993Y-66822674D01*
X84823385Y-66868550D01*
X84810284Y-66917445D01*
X84801993Y-66927326D01*
X84735802Y-66993516D01*
X84735802Y-66993517D01*
X84728721Y-67008000D01*
X84692279Y-67043129D01*
X84662241Y-67049500D01*
X84137759Y-67049500D01*
X84090193Y-67032187D01*
X84071278Y-67008001D01*
X84064198Y-66993517D01*
X83997654Y-66926973D01*
X83976262Y-66881097D01*
X83989363Y-66832202D01*
X83997654Y-66822321D01*
X84063785Y-66756189D01*
X84115087Y-66651249D01*
X84124999Y-66583223D01*
X84125000Y-66583212D01*
X84125000Y-66525000D01*
X82400001Y-66525000D01*
X82400001Y-66583224D01*
X82409912Y-66651250D01*
X82461213Y-66756188D01*
X82527346Y-66822321D01*
X82548738Y-66868197D01*
X82535637Y-66917092D01*
X82527346Y-66926973D01*
X82460802Y-66993516D01*
X82460802Y-66993517D01*
X82453721Y-67008000D01*
X82417279Y-67043129D01*
X82387241Y-67049500D01*
X82002240Y-67049500D01*
X81981989Y-67046675D01*
X81980861Y-67046354D01*
X81978202Y-67045597D01*
X81971381Y-67044966D01*
X81971585Y-67042754D01*
X81932359Y-67032454D01*
X81903118Y-66991135D01*
X81900500Y-66971625D01*
X81900500Y-65824500D01*
X81917813Y-65776934D01*
X81961650Y-65751624D01*
X81974500Y-65750500D01*
X82387241Y-65750500D01*
X82434807Y-65767813D01*
G37*
%TD.AperFunction*%
%TA.AperFunction,Conductor*%
G36*
X87064040Y-61767813D02*
G01*
X87071660Y-61776129D01*
X87075935Y-61780404D01*
X87159596Y-61864065D01*
X87266827Y-61914068D01*
X87315684Y-61920500D01*
X87484166Y-61920500D01*
X87531732Y-61937813D01*
X87536492Y-61942174D01*
X87751433Y-62157115D01*
X87772825Y-62202991D01*
X87759724Y-62251886D01*
X87718260Y-62280920D01*
X87689450Y-62282808D01*
X87664317Y-62279500D01*
X87664316Y-62279500D01*
X87315684Y-62279500D01*
X87304898Y-62280920D01*
X87266828Y-62285931D01*
X87159595Y-62335935D01*
X87159594Y-62335935D01*
X87120297Y-62375232D01*
X87074420Y-62396624D01*
X87034705Y-62386822D01*
X87034080Y-62388193D01*
X87029271Y-62385996D01*
X86904972Y-62349500D01*
X86775428Y-62349500D01*
X86651131Y-62385995D01*
X86542154Y-62456031D01*
X86542150Y-62456034D01*
X86457319Y-62553935D01*
X86403502Y-62671776D01*
X86385067Y-62800000D01*
X86403502Y-62928223D01*
X86403502Y-62928224D01*
X86403503Y-62928226D01*
X86457318Y-63046063D01*
X86542151Y-63143967D01*
X86651131Y-63214004D01*
X86775428Y-63250500D01*
X86904975Y-63250500D01*
X86904975Y-63250499D01*
X87029269Y-63214004D01*
X87029276Y-63213999D01*
X87034086Y-63211804D01*
X87034771Y-63213305D01*
X87077337Y-63203689D01*
X87120299Y-63224768D01*
X87159596Y-63264065D01*
X87254745Y-63308434D01*
X87290537Y-63344226D01*
X87294949Y-63394653D01*
X87265915Y-63436117D01*
X87223470Y-63449500D01*
X87061087Y-63449500D01*
X87049110Y-63447546D01*
X87049023Y-63448174D01*
X87042233Y-63447226D01*
X86996804Y-63449327D01*
X86994772Y-63449421D01*
X86991357Y-63449500D01*
X86972150Y-63449500D01*
X86970336Y-63449840D01*
X86960158Y-63451021D01*
X86930006Y-63452415D01*
X86918358Y-63457558D01*
X86902072Y-63462600D01*
X86900064Y-63462976D01*
X86889569Y-63464938D01*
X86889564Y-63464940D01*
X86863909Y-63480824D01*
X86854850Y-63485599D01*
X86827236Y-63497793D01*
X86827233Y-63497795D01*
X86818230Y-63506797D01*
X86804872Y-63517377D01*
X86794050Y-63524079D01*
X86794044Y-63524084D01*
X86775858Y-63548165D01*
X86769133Y-63555894D01*
X85430708Y-64894319D01*
X85420865Y-64901405D01*
X85421245Y-64901908D01*
X85415773Y-64906040D01*
X85398165Y-64925355D01*
X85353325Y-64948842D01*
X85343480Y-64949500D01*
X84991735Y-64949500D01*
X84923606Y-64959427D01*
X84923605Y-64959427D01*
X84818517Y-65010801D01*
X84735802Y-65093516D01*
X84735802Y-65093517D01*
X84728721Y-65108000D01*
X84692279Y-65143129D01*
X84662241Y-65149500D01*
X84137759Y-65149500D01*
X84090193Y-65132187D01*
X84071278Y-65108001D01*
X84064198Y-65093517D01*
X83981483Y-65010802D01*
X83981482Y-65010801D01*
X83876394Y-64959427D01*
X83808264Y-64949500D01*
X83808260Y-64949500D01*
X82716740Y-64949500D01*
X82716735Y-64949500D01*
X82648606Y-64959427D01*
X82648605Y-64959427D01*
X82543517Y-65010801D01*
X82460802Y-65093516D01*
X82460802Y-65093517D01*
X82453721Y-65108000D01*
X82417279Y-65143129D01*
X82387241Y-65149500D01*
X81652240Y-65149500D01*
X81631989Y-65146675D01*
X81630617Y-65146284D01*
X81628205Y-65145598D01*
X81589518Y-65149184D01*
X81582690Y-65149500D01*
X81572156Y-65149500D01*
X81561792Y-65151436D01*
X81555034Y-65152378D01*
X81516344Y-65155963D01*
X81516334Y-65155966D01*
X81512804Y-65157724D01*
X81493439Y-65164214D01*
X81489569Y-65164937D01*
X81489564Y-65164939D01*
X81456526Y-65185395D01*
X81450558Y-65188719D01*
X81415773Y-65206040D01*
X81413120Y-65208951D01*
X81397397Y-65222007D01*
X81394048Y-65224080D01*
X81394047Y-65224081D01*
X81370626Y-65255095D01*
X81366262Y-65260350D01*
X81340083Y-65289067D01*
X81338660Y-65292741D01*
X81328720Y-65310588D01*
X81326344Y-65313734D01*
X81315708Y-65351114D01*
X81313537Y-65357591D01*
X81308789Y-65369848D01*
X81301699Y-65388152D01*
X81299500Y-65393828D01*
X81299500Y-65397759D01*
X81296675Y-65418010D01*
X81295598Y-65421792D01*
X81299184Y-65460481D01*
X81299500Y-65467309D01*
X81299500Y-66754132D01*
X81282187Y-66801698D01*
X81238350Y-66827008D01*
X81188500Y-66818218D01*
X81173174Y-66806458D01*
X80939735Y-66573019D01*
X80918343Y-66527143D01*
X80931444Y-66478248D01*
X80939735Y-66468367D01*
X80944545Y-66463555D01*
X80944552Y-66463551D01*
X80988867Y-66397230D01*
X81000500Y-66338747D01*
X81000500Y-65777251D01*
X80988867Y-65718768D01*
X80968382Y-65688111D01*
X80956351Y-65638944D01*
X80968382Y-65605887D01*
X80988867Y-65575230D01*
X81000500Y-65516747D01*
X81000500Y-64955251D01*
X80988867Y-64896768D01*
X80957916Y-64850448D01*
X80944552Y-64830447D01*
X80943769Y-64829664D01*
X80943168Y-64828375D01*
X80940503Y-64824387D01*
X80941117Y-64823976D01*
X80922377Y-64783788D01*
X80935478Y-64734893D01*
X80943769Y-64725012D01*
X82403336Y-63265446D01*
X83896608Y-61772174D01*
X83942484Y-61750782D01*
X83948934Y-61750500D01*
X87016474Y-61750500D01*
X87064040Y-61767813D01*
G37*
%TD.AperFunction*%
%TA.AperFunction,Conductor*%
G36*
X87021768Y-57138866D02*
G01*
X87021769Y-57138867D01*
X87080252Y-57150500D01*
X87224088Y-57150500D01*
X87271654Y-57167813D01*
X87296964Y-57211650D01*
X87295010Y-57245619D01*
X87286776Y-57273270D01*
X87285845Y-57276176D01*
X87269700Y-57323209D01*
X87268691Y-57329258D01*
X87268339Y-57329199D01*
X87267987Y-57331616D01*
X87268342Y-57331661D01*
X87267583Y-57337747D01*
X87269637Y-57387407D01*
X87269700Y-57390465D01*
X87269700Y-57431365D01*
X87252387Y-57478931D01*
X87251626Y-57479824D01*
X87237319Y-57496334D01*
X87237318Y-57496336D01*
X87183502Y-57614176D01*
X87167714Y-57723983D01*
X87165390Y-57734567D01*
X87156577Y-57764167D01*
X87155645Y-57767076D01*
X87139500Y-57814109D01*
X87138491Y-57820158D01*
X87138139Y-57820099D01*
X87137787Y-57822516D01*
X87138142Y-57822561D01*
X87137383Y-57828647D01*
X87139437Y-57878307D01*
X87139500Y-57881365D01*
X87139500Y-58125379D01*
X87122187Y-58172945D01*
X87117826Y-58177705D01*
X87075935Y-58219595D01*
X87025931Y-58326828D01*
X87019500Y-58375685D01*
X87019500Y-58824314D01*
X87025931Y-58873171D01*
X87078671Y-58986271D01*
X87077170Y-58986970D01*
X87087800Y-59020681D01*
X87087800Y-59579318D01*
X87077172Y-59613030D01*
X87078671Y-59613729D01*
X87075935Y-59619595D01*
X87075935Y-59619596D01*
X87074239Y-59623233D01*
X87025931Y-59726828D01*
X87019500Y-59775685D01*
X87019500Y-60224314D01*
X87025931Y-60273171D01*
X87075935Y-60380404D01*
X87117826Y-60422295D01*
X87139218Y-60468171D01*
X87139500Y-60474621D01*
X87139500Y-60925379D01*
X87122187Y-60972945D01*
X87117826Y-60977705D01*
X87071357Y-61024174D01*
X87070054Y-61022871D01*
X87035629Y-61046978D01*
X87016474Y-61049500D01*
X83817121Y-61049500D01*
X83801936Y-61047925D01*
X83787785Y-61044958D01*
X83763983Y-61047925D01*
X83755904Y-61048932D01*
X83746751Y-61049500D01*
X83744060Y-61049500D01*
X83744059Y-61049500D01*
X83744048Y-61049501D01*
X83724063Y-61052835D01*
X83721043Y-61053275D01*
X83671706Y-61059426D01*
X83665829Y-61061176D01*
X83665728Y-61060837D01*
X83663400Y-61061583D01*
X83663515Y-61061918D01*
X83657721Y-61063906D01*
X83613998Y-61087568D01*
X83611279Y-61088967D01*
X83566616Y-61110801D01*
X83561629Y-61114362D01*
X83561424Y-61114075D01*
X83559465Y-61115535D01*
X83559682Y-61115814D01*
X83554841Y-61119582D01*
X83521172Y-61156154D01*
X83519057Y-61158359D01*
X80283286Y-64394130D01*
X80271438Y-64403752D01*
X80259333Y-64411661D01*
X80259325Y-64411668D01*
X80239591Y-64437021D01*
X80233536Y-64443880D01*
X80231629Y-64445787D01*
X80231624Y-64445793D01*
X80219849Y-64462285D01*
X80218023Y-64464734D01*
X80187483Y-64503973D01*
X80184567Y-64509362D01*
X80184255Y-64509193D01*
X80183133Y-64511372D01*
X80183452Y-64511528D01*
X80180759Y-64517036D01*
X80166577Y-64564668D01*
X80165645Y-64567576D01*
X80149500Y-64614609D01*
X80148491Y-64620658D01*
X80148139Y-64620599D01*
X80147787Y-64623016D01*
X80148142Y-64623061D01*
X80147383Y-64629147D01*
X80149437Y-64678807D01*
X80149500Y-64681865D01*
X80149500Y-64728049D01*
X80132187Y-64775615D01*
X80116611Y-64789578D01*
X80091111Y-64806616D01*
X80041943Y-64818647D01*
X80008888Y-64806616D01*
X79978231Y-64786132D01*
X79978233Y-64786132D01*
X79948989Y-64780315D01*
X79919748Y-64774499D01*
X79919746Y-64774499D01*
X79527883Y-64774499D01*
X79480317Y-64757186D01*
X79464429Y-64738572D01*
X79398925Y-64629401D01*
X79388237Y-64611587D01*
X79387418Y-64610188D01*
X79362205Y-64565956D01*
X79342999Y-64551050D01*
X79333562Y-64542311D01*
X79317228Y-64524305D01*
X79317224Y-64524302D01*
X79271225Y-64502573D01*
X79269739Y-64501850D01*
X79192828Y-64463394D01*
X79184810Y-64458736D01*
X79157496Y-64440485D01*
X79115911Y-64432212D01*
X79110809Y-64431007D01*
X79069913Y-64419810D01*
X79069912Y-64419810D01*
X79037317Y-64423919D01*
X79028062Y-64424500D01*
X78371944Y-64424500D01*
X78362689Y-64423919D01*
X78351959Y-64422566D01*
X78330088Y-64419809D01*
X78330087Y-64419809D01*
X78289192Y-64431008D01*
X78284087Y-64432213D01*
X78242504Y-64440485D01*
X78215188Y-64458737D01*
X78207171Y-64463395D01*
X77568820Y-64782571D01*
X77550166Y-64788960D01*
X77542508Y-64790483D01*
X77542506Y-64790484D01*
X77515176Y-64808744D01*
X77507174Y-64813394D01*
X77502525Y-64815719D01*
X77502520Y-64815722D01*
X77490885Y-64824751D01*
X77486638Y-64827812D01*
X77474382Y-64836002D01*
X77474373Y-64836009D01*
X77470700Y-64839683D01*
X77463737Y-64845821D01*
X77461217Y-64847776D01*
X77438413Y-64855099D01*
X77437455Y-64866052D01*
X77434683Y-64871413D01*
X77433936Y-64872724D01*
X77421967Y-64888415D01*
X76832558Y-65477826D01*
X76786682Y-65499218D01*
X76780232Y-65499500D01*
X76779667Y-65499500D01*
X76732101Y-65482187D01*
X76706791Y-65438350D01*
X76715581Y-65388500D01*
X76727341Y-65373174D01*
X77010515Y-65090000D01*
X77318064Y-64782451D01*
X77349350Y-64767862D01*
X77353237Y-64749880D01*
X77363527Y-64736987D01*
X82878042Y-59222474D01*
X82923918Y-59201082D01*
X82930368Y-59200800D01*
X83025372Y-59200800D01*
X83149669Y-59164304D01*
X83258649Y-59094267D01*
X83343482Y-58996363D01*
X83373937Y-58929675D01*
X83409444Y-58893601D01*
X83459834Y-58888789D01*
X83493575Y-58908091D01*
X83826154Y-59240670D01*
X83835356Y-59251883D01*
X83846676Y-59268824D01*
X83866654Y-59282173D01*
X83866671Y-59282186D01*
X83869678Y-59284194D01*
X83873608Y-59286820D01*
X83873616Y-59286830D01*
X83873619Y-59286827D01*
X83937805Y-59329715D01*
X84018167Y-59345700D01*
X84018168Y-59345700D01*
X84045299Y-59351097D01*
X84045300Y-59351097D01*
X84065283Y-59347121D01*
X84079720Y-59345700D01*
X84690880Y-59345700D01*
X84705316Y-59347121D01*
X84725300Y-59351097D01*
X84725301Y-59351097D01*
X84729922Y-59350177D01*
X84752432Y-59345700D01*
X84752433Y-59345700D01*
X84832795Y-59329715D01*
X84896981Y-59286827D01*
X84896981Y-59286828D01*
X84896985Y-59286824D01*
X84900922Y-59284194D01*
X84900922Y-59284192D01*
X84908927Y-59278846D01*
X84908937Y-59278837D01*
X84923924Y-59268824D01*
X84935248Y-59251874D01*
X84944441Y-59240673D01*
X86420472Y-57764642D01*
X86431676Y-57755447D01*
X86448624Y-57744124D01*
X86466411Y-57717505D01*
X86509515Y-57652995D01*
X86514810Y-57626376D01*
X86525500Y-57572633D01*
X86525500Y-57572628D01*
X86530896Y-57545500D01*
X86526922Y-57525520D01*
X86525500Y-57511084D01*
X86525500Y-57224500D01*
X86542813Y-57176934D01*
X86586650Y-57151624D01*
X86599500Y-57150500D01*
X86919746Y-57150500D01*
X86919748Y-57150500D01*
X86978231Y-57138867D01*
X86978231Y-57138866D01*
X86985379Y-57137445D01*
X86986083Y-57140989D01*
X87014180Y-57139660D01*
X87014621Y-57137445D01*
X87021768Y-57138866D01*
G37*
%TD.AperFunction*%
%TA.AperFunction,Conductor*%
G36*
X87060288Y-64201162D02*
G01*
X87089322Y-64242626D01*
X87084910Y-64293053D01*
X87078744Y-64303815D01*
X87055630Y-64337301D01*
X87055629Y-64337303D01*
X86995349Y-64496249D01*
X86995347Y-64496253D01*
X86980000Y-64622652D01*
X86980000Y-65090000D01*
X87380000Y-65090000D01*
X87380000Y-65340000D01*
X87111276Y-65340000D01*
X87063710Y-65322687D01*
X87055350Y-65314459D01*
X87048052Y-65306036D01*
X87048050Y-65306035D01*
X87048049Y-65306033D01*
X86957550Y-65247873D01*
X86939068Y-65235995D01*
X86935687Y-65235003D01*
X86931729Y-65232088D01*
X86925512Y-65232015D01*
X86814772Y-65199500D01*
X86685228Y-65199500D01*
X86560931Y-65235995D01*
X86506806Y-65270779D01*
X86457430Y-65281931D01*
X86412439Y-65258735D01*
X86393572Y-65219195D01*
X86390573Y-65198607D01*
X86339198Y-65093517D01*
X86262651Y-65016970D01*
X86241259Y-64971094D01*
X86254360Y-64922199D01*
X86262645Y-64912324D01*
X86965518Y-64209452D01*
X87011394Y-64188061D01*
X87060288Y-64201162D01*
G37*
%TD.AperFunction*%
%TA.AperFunction,Conductor*%
G36*
X88898566Y-64067813D02*
G01*
X88923876Y-64111650D01*
X88925000Y-64124500D01*
X88925000Y-64691000D01*
X88907687Y-64738566D01*
X88863850Y-64763876D01*
X88851000Y-64765000D01*
X88331000Y-64765000D01*
X88283434Y-64747687D01*
X88258124Y-64703850D01*
X88257000Y-64691000D01*
X88257000Y-64589000D01*
X88274313Y-64541434D01*
X88318150Y-64516124D01*
X88331000Y-64515000D01*
X88675000Y-64515000D01*
X88675000Y-64124500D01*
X88692313Y-64076934D01*
X88736150Y-64051624D01*
X88749000Y-64050500D01*
X88851000Y-64050500D01*
X88898566Y-64067813D01*
G37*
%TD.AperFunction*%
%TA.AperFunction,Conductor*%
G36*
X91454530Y-61074303D02*
G01*
X91454531Y-61074304D01*
X91578828Y-61110800D01*
X91708374Y-61110800D01*
X91749532Y-61098714D01*
X91829654Y-61075189D01*
X91880168Y-61078399D01*
X91916803Y-61113330D01*
X91924500Y-61146191D01*
X91924500Y-61169150D01*
X91912029Y-61210262D01*
X91890484Y-61242506D01*
X91889422Y-61246008D01*
X91889063Y-61249654D01*
X91869103Y-61350000D01*
X91873078Y-61369983D01*
X91874500Y-61384420D01*
X91874500Y-62802699D01*
X91857187Y-62850265D01*
X91855198Y-62852286D01*
X91767119Y-62953935D01*
X91767118Y-62953936D01*
X91767118Y-62953937D01*
X91751170Y-62988858D01*
X91713302Y-63071776D01*
X91694867Y-63200000D01*
X91713302Y-63328223D01*
X91713302Y-63328224D01*
X91713303Y-63328226D01*
X91720854Y-63344760D01*
X91724865Y-63395219D01*
X91695504Y-63436452D01*
X91653541Y-63449500D01*
X88775347Y-63449500D01*
X88727781Y-63432187D01*
X88702471Y-63388350D01*
X88711261Y-63338500D01*
X88744073Y-63308433D01*
X88840111Y-63263648D01*
X88840112Y-63263648D01*
X88923648Y-63180112D01*
X88973577Y-63073040D01*
X88980000Y-63024253D01*
X88980000Y-62925000D01*
X88459000Y-62925000D01*
X88411434Y-62907687D01*
X88386124Y-62863850D01*
X88385000Y-62851000D01*
X88385000Y-62749000D01*
X88402313Y-62701434D01*
X88446150Y-62676124D01*
X88459000Y-62675000D01*
X88979999Y-62675000D01*
X88979999Y-62575746D01*
X88973577Y-62526959D01*
X88973574Y-62526951D01*
X88956145Y-62489574D01*
X88951732Y-62439148D01*
X88980766Y-62397683D01*
X89023211Y-62384300D01*
X89242175Y-62384300D01*
X89257359Y-62385874D01*
X89271515Y-62388843D01*
X89301719Y-62385077D01*
X89303403Y-62384868D01*
X89312556Y-62384300D01*
X89315234Y-62384300D01*
X89315240Y-62384300D01*
X89335269Y-62380957D01*
X89338227Y-62380526D01*
X89387593Y-62374373D01*
X89387599Y-62374369D01*
X89393468Y-62372623D01*
X89393571Y-62372970D01*
X89395896Y-62372225D01*
X89395779Y-62371884D01*
X89401577Y-62369893D01*
X89401577Y-62369892D01*
X89401581Y-62369892D01*
X89445343Y-62346207D01*
X89448004Y-62344839D01*
X89459929Y-62339010D01*
X89492684Y-62322998D01*
X89497676Y-62319434D01*
X89497884Y-62319726D01*
X89499840Y-62318268D01*
X89499619Y-62317984D01*
X89504458Y-62314218D01*
X89515543Y-62302176D01*
X89538138Y-62277630D01*
X89540208Y-62275472D01*
X89883508Y-61932173D01*
X89929385Y-61910781D01*
X89935834Y-61910499D01*
X90099900Y-61910499D01*
X90149487Y-61903972D01*
X90258316Y-61853224D01*
X90343224Y-61768316D01*
X90343224Y-61768315D01*
X90347802Y-61763738D01*
X90350124Y-61766060D01*
X90381115Y-61744332D01*
X90431545Y-61748711D01*
X90452640Y-61763472D01*
X90541975Y-61852807D01*
X90650646Y-61903481D01*
X90650645Y-61903481D01*
X90700162Y-61910000D01*
X90755000Y-61910000D01*
X90755000Y-61525000D01*
X91005000Y-61525000D01*
X91005000Y-61910000D01*
X91059838Y-61910000D01*
X91109354Y-61903481D01*
X91218024Y-61852807D01*
X91302807Y-61768024D01*
X91353481Y-61659354D01*
X91360000Y-61609838D01*
X91360000Y-61525000D01*
X91005000Y-61525000D01*
X90755000Y-61525000D01*
X90755000Y-61349000D01*
X90772313Y-61301434D01*
X90816150Y-61276124D01*
X90829000Y-61275000D01*
X91360000Y-61275000D01*
X91360000Y-61190163D01*
X91355165Y-61153443D01*
X91366120Y-61104024D01*
X91406278Y-61073208D01*
X91448792Y-61075063D01*
X91449453Y-61072813D01*
X91454530Y-61074303D01*
G37*
%TD.AperFunction*%
%TA.AperFunction,Conductor*%
G36*
X79666996Y-60657813D02*
G01*
X79675356Y-60666041D01*
X79712547Y-60708963D01*
X79712548Y-60708964D01*
X79712551Y-60708967D01*
X79777771Y-60750881D01*
X79791366Y-60759618D01*
X79822022Y-60799899D01*
X79819613Y-60850460D01*
X79803685Y-60874197D01*
X79340058Y-61337826D01*
X79294182Y-61359218D01*
X79287732Y-61359500D01*
X76324500Y-61359500D01*
X76276934Y-61342187D01*
X76251624Y-61298350D01*
X76250500Y-61285500D01*
X76250500Y-61165253D01*
X76248151Y-61153443D01*
X76238867Y-61106769D01*
X76219910Y-61078399D01*
X76208176Y-61060837D01*
X76194995Y-61041112D01*
X76182964Y-60991945D01*
X76194996Y-60958887D01*
X76196905Y-60956031D01*
X76238867Y-60893231D01*
X76250500Y-60834748D01*
X76250500Y-60714500D01*
X76267813Y-60666934D01*
X76311650Y-60641624D01*
X76324500Y-60640500D01*
X79619430Y-60640500D01*
X79666996Y-60657813D01*
G37*
%TD.AperFunction*%
%TA.AperFunction,Conductor*%
G36*
X92050487Y-59250907D02*
G01*
X92079521Y-59292371D01*
X92081409Y-59321182D01*
X92079500Y-59335684D01*
X92079500Y-59561667D01*
X92067029Y-59602779D01*
X92040485Y-59642504D01*
X92040485Y-59642505D01*
X92024684Y-59721945D01*
X92024500Y-59722868D01*
X92024500Y-60234057D01*
X92007187Y-60281623D01*
X91963350Y-60306933D01*
X91913500Y-60298143D01*
X91910493Y-60296310D01*
X91832668Y-60246295D01*
X91708372Y-60209800D01*
X91578828Y-60209800D01*
X91578827Y-60209800D01*
X91454847Y-60246202D01*
X91404330Y-60242991D01*
X91367696Y-60208059D01*
X91360000Y-60175199D01*
X91360000Y-60125000D01*
X90829000Y-60125000D01*
X90781434Y-60107687D01*
X90756124Y-60063850D01*
X90755000Y-60051000D01*
X90755000Y-59949000D01*
X90772313Y-59901434D01*
X90816150Y-59876124D01*
X90829000Y-59875000D01*
X91360000Y-59875000D01*
X91360000Y-59790161D01*
X91353481Y-59740645D01*
X91302807Y-59631975D01*
X91245958Y-59575126D01*
X91224566Y-59529250D01*
X91237667Y-59480355D01*
X91279131Y-59451321D01*
X91298284Y-59448800D01*
X91617580Y-59448800D01*
X91632016Y-59450221D01*
X91652000Y-59454197D01*
X91652001Y-59454197D01*
X91656622Y-59453277D01*
X91679132Y-59448800D01*
X91679133Y-59448800D01*
X91759495Y-59432815D01*
X91804857Y-59402505D01*
X91827622Y-59387294D01*
X91827622Y-59387293D01*
X91835636Y-59381939D01*
X91835639Y-59381936D01*
X91850624Y-59371924D01*
X91861948Y-59354974D01*
X91871141Y-59343773D01*
X91955717Y-59259197D01*
X92001592Y-59237806D01*
X92050487Y-59250907D01*
G37*
%TD.AperFunction*%
%TA.AperFunction,Conductor*%
G36*
X91737060Y-58288019D02*
G01*
X91756616Y-58334708D01*
X91756700Y-58338229D01*
X91756700Y-58648332D01*
X91739387Y-58695898D01*
X91735026Y-58700658D01*
X91559558Y-58876126D01*
X91513682Y-58897518D01*
X91507232Y-58897800D01*
X91432801Y-58897800D01*
X91385235Y-58880487D01*
X91359925Y-58836650D01*
X91359433Y-58814146D01*
X91360000Y-58809836D01*
X91360000Y-58725000D01*
X90829000Y-58725000D01*
X90781434Y-58707687D01*
X90756124Y-58663850D01*
X90755000Y-58651000D01*
X90755000Y-58549000D01*
X90772313Y-58501434D01*
X90816150Y-58476124D01*
X90829000Y-58475000D01*
X91360000Y-58475000D01*
X91360000Y-58441500D01*
X91377313Y-58393934D01*
X91421150Y-58368624D01*
X91430870Y-58367773D01*
X91432769Y-58367500D01*
X91432772Y-58367500D01*
X91557069Y-58331004D01*
X91642695Y-58275975D01*
X91692067Y-58264824D01*
X91737060Y-58288019D01*
G37*
%TD.AperFunction*%
%TA.AperFunction,Conductor*%
G36*
X86187798Y-55273913D02*
G01*
X86192558Y-55278274D01*
X86237458Y-55323174D01*
X86258850Y-55369050D01*
X86245749Y-55417945D01*
X86204285Y-55446979D01*
X86185132Y-55449500D01*
X86080252Y-55449500D01*
X86021769Y-55461133D01*
X86021768Y-55461133D01*
X86014621Y-55462555D01*
X86014126Y-55460071D01*
X85984797Y-55462948D01*
X85919698Y-55450000D01*
X85875000Y-55450000D01*
X85875000Y-57150000D01*
X85900500Y-57150000D01*
X85948066Y-57167313D01*
X85973376Y-57211150D01*
X85974500Y-57224000D01*
X85974500Y-57400731D01*
X85957187Y-57448297D01*
X85952826Y-57453057D01*
X84805682Y-58600200D01*
X84759805Y-58621592D01*
X84710911Y-58608491D01*
X84681877Y-58567027D01*
X84680109Y-58558405D01*
X84678265Y-58545583D01*
X84669997Y-58488074D01*
X84616182Y-58370237D01*
X84531349Y-58272333D01*
X84531347Y-58272331D01*
X84527883Y-58268334D01*
X84529760Y-58266706D01*
X84509725Y-58230662D01*
X84508800Y-58218999D01*
X84508800Y-58001732D01*
X84526113Y-57954166D01*
X84569950Y-57928856D01*
X84607229Y-57933615D01*
X84607553Y-57932513D01*
X84612630Y-57934003D01*
X84612631Y-57934004D01*
X84736928Y-57970500D01*
X84866472Y-57970500D01*
X84990769Y-57934004D01*
X85099749Y-57863967D01*
X85184582Y-57766063D01*
X85238397Y-57648226D01*
X85256833Y-57520000D01*
X85254715Y-57505271D01*
X85265080Y-57455726D01*
X85304867Y-57424434D01*
X85313515Y-57422162D01*
X85357495Y-57413415D01*
X85448624Y-57352524D01*
X85509515Y-57261395D01*
X85519825Y-57209562D01*
X85546085Y-57166288D01*
X85592403Y-57150000D01*
X85625000Y-57150000D01*
X85625000Y-55450000D01*
X85580302Y-55450000D01*
X85515203Y-55462948D01*
X85485873Y-55460071D01*
X85485379Y-55462555D01*
X85478231Y-55461133D01*
X85419748Y-55449500D01*
X85092303Y-55449500D01*
X85044737Y-55432187D01*
X85019725Y-55389936D01*
X85018785Y-55385211D01*
X85016530Y-55373876D01*
X85010794Y-55345036D01*
X85018494Y-55295007D01*
X85056552Y-55261631D01*
X85083372Y-55256600D01*
X86140232Y-55256600D01*
X86187798Y-55273913D01*
G37*
%TD.AperFunction*%
%TA.AperFunction,Conductor*%
G36*
X76334646Y-55711014D02*
G01*
X76349768Y-55714021D01*
X76387867Y-55721600D01*
X76387868Y-55721600D01*
X76414999Y-55726997D01*
X76415000Y-55726997D01*
X76434984Y-55723021D01*
X76449420Y-55721600D01*
X80825500Y-55721600D01*
X80873066Y-55738913D01*
X80898376Y-55782750D01*
X80899500Y-55795600D01*
X80899500Y-56969748D01*
X80904569Y-56995233D01*
X80911133Y-57028232D01*
X80926012Y-57050499D01*
X80955448Y-57094552D01*
X80991839Y-57118868D01*
X81021767Y-57138866D01*
X81021768Y-57138866D01*
X81021769Y-57138867D01*
X81080252Y-57150500D01*
X81080254Y-57150500D01*
X81305614Y-57150500D01*
X81353180Y-57167813D01*
X81378490Y-57211650D01*
X81369700Y-57261500D01*
X81345623Y-57286750D01*
X81342851Y-57288533D01*
X81342850Y-57288534D01*
X81258019Y-57386435D01*
X81258018Y-57386436D01*
X81258018Y-57386437D01*
X81244410Y-57416234D01*
X81204202Y-57504276D01*
X81185767Y-57632500D01*
X81204202Y-57760723D01*
X81204202Y-57760724D01*
X81204203Y-57760726D01*
X81246891Y-57854198D01*
X81248243Y-57857159D01*
X81252254Y-57907619D01*
X81222892Y-57948852D01*
X81180930Y-57961900D01*
X76811068Y-57961900D01*
X76763502Y-57944587D01*
X76758742Y-57940226D01*
X76473045Y-57654529D01*
X76463842Y-57643314D01*
X76452525Y-57626377D01*
X76452524Y-57626376D01*
X76450465Y-57625000D01*
X76432544Y-57613025D01*
X76432541Y-57613023D01*
X76379101Y-57577316D01*
X76361395Y-57565485D01*
X76342749Y-57561776D01*
X76310063Y-57555274D01*
X76266788Y-57529014D01*
X76250500Y-57482696D01*
X76250500Y-57355253D01*
X76249072Y-57348074D01*
X76238867Y-57296769D01*
X76238091Y-57295608D01*
X76202491Y-57242329D01*
X76194995Y-57231112D01*
X76182964Y-57181945D01*
X76194996Y-57148887D01*
X76200274Y-57140989D01*
X76238867Y-57083231D01*
X76246229Y-57046217D01*
X76272486Y-57002945D01*
X76320418Y-56986673D01*
X76339652Y-56989651D01*
X76393628Y-57005500D01*
X76523172Y-57005500D01*
X76647469Y-56969004D01*
X76756449Y-56898967D01*
X76841282Y-56801063D01*
X76895097Y-56683226D01*
X76913533Y-56555000D01*
X76895097Y-56426774D01*
X76841282Y-56308937D01*
X76756449Y-56211033D01*
X76660700Y-56149499D01*
X76647468Y-56140995D01*
X76523172Y-56104500D01*
X76393628Y-56104500D01*
X76393627Y-56104500D01*
X76339654Y-56120347D01*
X76289137Y-56117136D01*
X76252503Y-56082204D01*
X76246229Y-56063781D01*
X76243687Y-56051000D01*
X76238867Y-56026769D01*
X76194995Y-55961112D01*
X76182964Y-55911945D01*
X76194996Y-55878887D01*
X76196367Y-55876836D01*
X76238867Y-55813231D01*
X76247634Y-55769154D01*
X76273891Y-55725881D01*
X76321824Y-55709610D01*
X76334646Y-55711014D01*
G37*
%TD.AperFunction*%
%TA.AperFunction,Conductor*%
G36*
X87622598Y-54453113D02*
G01*
X87627358Y-54457474D01*
X88452826Y-55282942D01*
X88474218Y-55328818D01*
X88474500Y-55335268D01*
X88474500Y-55375500D01*
X88457187Y-55423066D01*
X88413350Y-55448376D01*
X88400500Y-55449500D01*
X88080252Y-55449500D01*
X88021769Y-55461133D01*
X88021768Y-55461133D01*
X88014621Y-55462555D01*
X88013925Y-55459059D01*
X87985835Y-55460257D01*
X87985379Y-55462555D01*
X87978231Y-55461133D01*
X87919748Y-55449500D01*
X87592304Y-55449500D01*
X87544738Y-55432187D01*
X87519726Y-55389936D01*
X87509516Y-55338606D01*
X87461974Y-55267455D01*
X87461971Y-55267451D01*
X87448624Y-55247476D01*
X87448623Y-55247475D01*
X87431683Y-55236156D01*
X87420470Y-55226954D01*
X86755642Y-54562126D01*
X86734250Y-54516250D01*
X86747351Y-54467355D01*
X86788815Y-54438321D01*
X86807968Y-54435800D01*
X87575032Y-54435800D01*
X87622598Y-54453113D01*
G37*
%TD.AperFunction*%
%TA.AperFunction,Conductor*%
G36*
X88917398Y-50916413D02*
G01*
X88922158Y-50920774D01*
X90944019Y-52942635D01*
X90965411Y-52988511D01*
X90952310Y-53037406D01*
X90910846Y-53066440D01*
X90870845Y-53065964D01*
X90814772Y-53049500D01*
X90685228Y-53049500D01*
X90560931Y-53085995D01*
X90451954Y-53156031D01*
X90451950Y-53156034D01*
X90367119Y-53253935D01*
X90313302Y-53371776D01*
X90294867Y-53500000D01*
X90313302Y-53628223D01*
X90313302Y-53628224D01*
X90313303Y-53628226D01*
X90342813Y-53692842D01*
X90349500Y-53723583D01*
X90349500Y-54888965D01*
X90332187Y-54936531D01*
X90331426Y-54937424D01*
X90317119Y-54953934D01*
X90317118Y-54953936D01*
X90263302Y-55071776D01*
X90244867Y-55200000D01*
X90263302Y-55328223D01*
X90263302Y-55328224D01*
X90263303Y-55328226D01*
X90270854Y-55344760D01*
X90274865Y-55395219D01*
X90245504Y-55436452D01*
X90203541Y-55449500D01*
X90099500Y-55449500D01*
X90051934Y-55432187D01*
X90026624Y-55388350D01*
X90025500Y-55375500D01*
X90025500Y-55166820D01*
X90026922Y-55152383D01*
X90030897Y-55132400D01*
X90030897Y-55132399D01*
X90025500Y-55105267D01*
X90024140Y-55098431D01*
X90009515Y-55024905D01*
X89976036Y-54974800D01*
X89963994Y-54956778D01*
X89963992Y-54956776D01*
X89961974Y-54953755D01*
X89961971Y-54953751D01*
X89948624Y-54933776D01*
X89948623Y-54933775D01*
X89931683Y-54922456D01*
X89920470Y-54913254D01*
X86032642Y-51025426D01*
X86011250Y-50979550D01*
X86024351Y-50930655D01*
X86065815Y-50901621D01*
X86084968Y-50899100D01*
X88869832Y-50899100D01*
X88917398Y-50916413D01*
G37*
%TD.AperFunction*%
%TA.AperFunction,Conductor*%
G36*
X85427698Y-51200113D02*
G01*
X85432458Y-51204474D01*
X88983748Y-54755764D01*
X89005140Y-54801640D01*
X88992039Y-54850535D01*
X88971428Y-54870343D01*
X88929079Y-54897558D01*
X88879704Y-54908709D01*
X88836747Y-54887631D01*
X87938945Y-53989829D01*
X87929742Y-53978614D01*
X87918426Y-53961678D01*
X87918424Y-53961676D01*
X87918423Y-53961675D01*
X87898444Y-53948325D01*
X87898441Y-53948323D01*
X87843241Y-53911440D01*
X87827295Y-53900785D01*
X87746933Y-53884800D01*
X87746932Y-53884800D01*
X87746930Y-53884799D01*
X87719801Y-53879403D01*
X87719800Y-53879403D01*
X87699817Y-53883378D01*
X87685380Y-53884800D01*
X81537320Y-53884800D01*
X81522883Y-53883378D01*
X81502900Y-53879403D01*
X81502899Y-53879403D01*
X81475766Y-53884799D01*
X81475767Y-53884800D01*
X81446744Y-53890573D01*
X81395404Y-53900785D01*
X81329205Y-53945018D01*
X81304276Y-53961675D01*
X81304274Y-53961677D01*
X81292953Y-53978619D01*
X81283753Y-53989828D01*
X81174958Y-54098625D01*
X81129082Y-54120018D01*
X81122632Y-54120300D01*
X80524500Y-54120300D01*
X80476934Y-54102987D01*
X80451624Y-54059150D01*
X80450500Y-54046300D01*
X80450500Y-51930253D01*
X80449868Y-51927074D01*
X80438867Y-51871769D01*
X80430571Y-51859354D01*
X80422851Y-51847800D01*
X80394552Y-51805448D01*
X80372343Y-51790608D01*
X80328232Y-51761133D01*
X80328233Y-51761133D01*
X80298989Y-51755316D01*
X80269748Y-51749500D01*
X78430252Y-51749500D01*
X78401010Y-51755316D01*
X78371767Y-51761133D01*
X78305449Y-51805447D01*
X78305447Y-51805449D01*
X78261133Y-51871767D01*
X78257666Y-51889198D01*
X78251758Y-51918903D01*
X78249500Y-51930253D01*
X78249500Y-54046300D01*
X78232187Y-54093866D01*
X78188350Y-54119176D01*
X78175500Y-54120300D01*
X77341768Y-54120300D01*
X77294202Y-54102987D01*
X77289442Y-54098626D01*
X76224245Y-53033429D01*
X76215042Y-53022214D01*
X76203726Y-53005278D01*
X76203724Y-53005276D01*
X76187306Y-52994306D01*
X76183744Y-52991925D01*
X76183741Y-52991923D01*
X76150414Y-52969655D01*
X76112595Y-52944385D01*
X76103797Y-52942635D01*
X76032233Y-52928400D01*
X76032232Y-52928400D01*
X76032230Y-52928399D01*
X76005101Y-52923003D01*
X76005100Y-52923003D01*
X75985117Y-52926978D01*
X75970680Y-52928400D01*
X74774500Y-52928400D01*
X74726934Y-52911087D01*
X74701624Y-52867250D01*
X74700500Y-52854400D01*
X74700500Y-52567295D01*
X74717813Y-52519729D01*
X74761650Y-52494419D01*
X74795349Y-52496293D01*
X74827726Y-52505800D01*
X74827728Y-52505800D01*
X74957272Y-52505800D01*
X75081569Y-52469304D01*
X75190549Y-52399267D01*
X75275382Y-52301363D01*
X75329197Y-52183526D01*
X75347633Y-52055300D01*
X75329197Y-51927074D01*
X75275382Y-51809237D01*
X75190549Y-51711333D01*
X75190547Y-51711331D01*
X75187083Y-51707334D01*
X75188960Y-51705706D01*
X75168925Y-51669662D01*
X75168000Y-51657999D01*
X75168000Y-51615120D01*
X75169422Y-51600683D01*
X75170849Y-51593508D01*
X75173397Y-51580700D01*
X75167567Y-51551393D01*
X75152015Y-51473205D01*
X75129427Y-51439400D01*
X75106494Y-51405078D01*
X75106493Y-51405077D01*
X75104474Y-51402055D01*
X75104471Y-51402051D01*
X75091124Y-51382076D01*
X75091123Y-51382075D01*
X75074183Y-51370756D01*
X75062970Y-51361554D01*
X75010542Y-51309126D01*
X74989150Y-51263250D01*
X75002251Y-51214355D01*
X75043715Y-51185321D01*
X75062868Y-51182800D01*
X85380132Y-51182800D01*
X85427698Y-51200113D01*
G37*
%TD.AperFunction*%
%TA.AperFunction,Conductor*%
G36*
X60756111Y-53144995D02*
G01*
X60772632Y-53156034D01*
X60821767Y-53188866D01*
X60821768Y-53188866D01*
X60821769Y-53188867D01*
X60880252Y-53200500D01*
X61140600Y-53200500D01*
X61188166Y-53217813D01*
X61213476Y-53261650D01*
X61214600Y-53274500D01*
X61214600Y-53520132D01*
X61197287Y-53567698D01*
X61192926Y-53572458D01*
X61098258Y-53667126D01*
X61052382Y-53688518D01*
X61045932Y-53688800D01*
X60395280Y-53688800D01*
X60347714Y-53671487D01*
X60322404Y-53627650D01*
X60322033Y-53625332D01*
X60315420Y-53579341D01*
X60313297Y-53564574D01*
X60259482Y-53446737D01*
X60174649Y-53348833D01*
X60155849Y-53336751D01*
X60125196Y-53296472D01*
X60127605Y-53245910D01*
X60161951Y-53208726D01*
X60195859Y-53200500D01*
X60549746Y-53200500D01*
X60549748Y-53200500D01*
X60608231Y-53188867D01*
X60673887Y-53144995D01*
X60723055Y-53132964D01*
X60756111Y-53144995D01*
G37*
%TD.AperFunction*%
%TD*%
M02*
