%TF.GenerationSoftware,KiCad,Pcbnew,7.0.11+dfsg-1build4*%
%TF.CreationDate,2026-09-30T10:49:51+00:00*%
%TF.ProjectId,ai_glasses,61695f67-6c61-4737-9365-732e6b696361,1.0*%
%TF.SameCoordinates,Original*%
%TF.FileFunction,Legend,Top*%
%TF.FilePolarity,Positive*%
%FSLAX46Y46*%
G04 Gerber Fmt 4.6, Leading zero omitted, Abs format (unit mm)*
G04 Created by KiCad (PCBNEW 7.0.11+dfsg-1build4) date 2026-09-30 10:49:51*
%MOMM*%
%LPD*%
G01*
G04 APERTURE LIST*
G04 Aperture macros list*
%AMRoundRect*
0 Rectangle with rounded corners*
0 $1 Rounding radius*
0 $2 $3 $4 $5 $6 $7 $8 $9 X,Y pos of 4 corners*
0 Add a 4 corners polygon primitive as box body*
4,1,4,$2,$3,$4,$5,$6,$7,$8,$9,$2,$3,0*
0 Add four circle primitives for the rounded corners*
1,1,$1+$1,$2,$3*
1,1,$1+$1,$4,$5*
1,1,$1+$1,$6,$7*
1,1,$1+$1,$8,$9*
0 Add four rect primitives between the rounded corners*
20,1,$1+$1,$2,$3,$4,$5,0*
20,1,$1+$1,$4,$5,$6,$7,0*
20,1,$1+$1,$6,$7,$8,$9,0*
20,1,$1+$1,$8,$9,$2,$3,0*%
%AMFreePoly0*
4,1,53,0.180798,1.454629,0.352531,1.394537,0.506585,1.297738,0.635238,1.169085,0.732037,1.015031,0.792129,0.843298,0.812500,0.662500,0.792129,0.481702,0.732037,0.309969,0.635238,0.155915,0.506585,0.027262,0.352531,-0.069537,0.180798,-0.129629,0.000000,-0.150000,-0.180798,-0.129629,-0.352531,-0.069537,-0.506585,0.027262,-0.635238,0.155915,-0.732037,0.309969,-0.792129,0.481702,
-0.812500,0.662500,-0.517770,0.662500,-0.496797,0.516627,-0.435576,0.382572,-0.339067,0.271196,-0.215089,0.191520,-0.073686,0.150000,0.073686,0.150000,0.215089,0.191520,0.339067,0.271196,0.435576,0.382572,0.496797,0.516627,0.517770,0.662500,0.496797,0.808373,0.435576,0.942428,0.339067,1.053804,0.215089,1.133480,0.073686,1.175000,-0.073686,1.175000,-0.215089,1.133480,
-0.339067,1.053804,-0.435576,0.942428,-0.496797,0.808373,-0.517770,0.662500,-0.812500,0.662500,-0.792129,0.843298,-0.732037,1.015031,-0.635238,1.169085,-0.506585,1.297738,-0.352531,1.394537,-0.180798,1.454629,0.000000,1.475000,0.180798,1.454629,0.180798,1.454629,$1*%
G04 Aperture macros list end*
%ADD10C,0.150000*%
%ADD11C,0.120000*%
%ADD12RoundRect,0.140000X-0.140000X-0.170000X0.140000X-0.170000X0.140000X0.170000X-0.140000X0.170000X0*%
%ADD13RoundRect,0.150000X-0.512500X-0.150000X0.512500X-0.150000X0.512500X0.150000X-0.512500X0.150000X0*%
%ADD14R,0.900000X1.500000*%
%ADD15R,1.500000X0.900000*%
%ADD16C,0.600000*%
%ADD17R,3.900000X3.900000*%
%ADD18RoundRect,0.135000X-0.135000X-0.185000X0.135000X-0.185000X0.135000X0.185000X-0.135000X0.185000X0*%
%ADD19RoundRect,0.135000X0.185000X-0.135000X0.185000X0.135000X-0.185000X0.135000X-0.185000X-0.135000X0*%
%ADD20RoundRect,0.300000X-0.900000X-0.700000X0.900000X-0.700000X0.900000X0.700000X-0.900000X0.700000X0*%
%ADD21C,0.500000*%
%ADD22R,0.600000X0.522000*%
%ADD23FreePoly0,90.000000*%
%ADD24RoundRect,0.250000X-0.250000X-0.475000X0.250000X-0.475000X0.250000X0.475000X-0.250000X0.475000X0*%
%ADD25R,0.300000X1.300000*%
%ADD26R,1.800000X2.200000*%
%ADD27C,0.650000*%
%ADD28RoundRect,0.150000X-0.150000X-0.425000X0.150000X-0.425000X0.150000X0.425000X-0.150000X0.425000X0*%
%ADD29RoundRect,0.075000X-0.075000X-0.500000X0.075000X-0.500000X0.075000X0.500000X-0.075000X0.500000X0*%
%ADD30O,1.000000X2.100000*%
%ADD31O,1.000000X1.800000*%
%ADD32RoundRect,0.225000X-0.225000X-0.250000X0.225000X-0.250000X0.225000X0.250000X-0.225000X0.250000X0*%
%ADD33RoundRect,0.062500X-0.350000X-0.062500X0.350000X-0.062500X0.350000X0.062500X-0.350000X0.062500X0*%
%ADD34RoundRect,0.062500X-0.062500X-0.350000X0.062500X-0.350000X0.062500X0.350000X-0.062500X0.350000X0*%
%ADD35R,1.230000X1.230000*%
G04 APERTURE END LIST*
D10*
X121595238Y-53419104D02*
X122071428Y-53419104D01*
X121500000Y-53704819D02*
X121833333Y-52704819D01*
X121833333Y-52704819D02*
X122166666Y-53704819D01*
X122500000Y-53704819D02*
X122500000Y-52704819D01*
X124261904Y-52752438D02*
X124166666Y-52704819D01*
X124166666Y-52704819D02*
X124023809Y-52704819D01*
X124023809Y-52704819D02*
X123880952Y-52752438D01*
X123880952Y-52752438D02*
X123785714Y-52847676D01*
X123785714Y-52847676D02*
X123738095Y-52942914D01*
X123738095Y-52942914D02*
X123690476Y-53133390D01*
X123690476Y-53133390D02*
X123690476Y-53276247D01*
X123690476Y-53276247D02*
X123738095Y-53466723D01*
X123738095Y-53466723D02*
X123785714Y-53561961D01*
X123785714Y-53561961D02*
X123880952Y-53657200D01*
X123880952Y-53657200D02*
X124023809Y-53704819D01*
X124023809Y-53704819D02*
X124119047Y-53704819D01*
X124119047Y-53704819D02*
X124261904Y-53657200D01*
X124261904Y-53657200D02*
X124309523Y-53609580D01*
X124309523Y-53609580D02*
X124309523Y-53276247D01*
X124309523Y-53276247D02*
X124119047Y-53276247D01*
X125214285Y-53704819D02*
X124738095Y-53704819D01*
X124738095Y-53704819D02*
X124738095Y-52704819D01*
X125500000Y-53419104D02*
X125976190Y-53419104D01*
X125404762Y-53704819D02*
X125738095Y-52704819D01*
X125738095Y-52704819D02*
X126071428Y-53704819D01*
X126357143Y-53657200D02*
X126500000Y-53704819D01*
X126500000Y-53704819D02*
X126738095Y-53704819D01*
X126738095Y-53704819D02*
X126833333Y-53657200D01*
X126833333Y-53657200D02*
X126880952Y-53609580D01*
X126880952Y-53609580D02*
X126928571Y-53514342D01*
X126928571Y-53514342D02*
X126928571Y-53419104D01*
X126928571Y-53419104D02*
X126880952Y-53323866D01*
X126880952Y-53323866D02*
X126833333Y-53276247D01*
X126833333Y-53276247D02*
X126738095Y-53228628D01*
X126738095Y-53228628D02*
X126547619Y-53181009D01*
X126547619Y-53181009D02*
X126452381Y-53133390D01*
X126452381Y-53133390D02*
X126404762Y-53085771D01*
X126404762Y-53085771D02*
X126357143Y-52990533D01*
X126357143Y-52990533D02*
X126357143Y-52895295D01*
X126357143Y-52895295D02*
X126404762Y-52800057D01*
X126404762Y-52800057D02*
X126452381Y-52752438D01*
X126452381Y-52752438D02*
X126547619Y-52704819D01*
X126547619Y-52704819D02*
X126785714Y-52704819D01*
X126785714Y-52704819D02*
X126928571Y-52752438D01*
X127309524Y-53657200D02*
X127452381Y-53704819D01*
X127452381Y-53704819D02*
X127690476Y-53704819D01*
X127690476Y-53704819D02*
X127785714Y-53657200D01*
X127785714Y-53657200D02*
X127833333Y-53609580D01*
X127833333Y-53609580D02*
X127880952Y-53514342D01*
X127880952Y-53514342D02*
X127880952Y-53419104D01*
X127880952Y-53419104D02*
X127833333Y-53323866D01*
X127833333Y-53323866D02*
X127785714Y-53276247D01*
X127785714Y-53276247D02*
X127690476Y-53228628D01*
X127690476Y-53228628D02*
X127500000Y-53181009D01*
X127500000Y-53181009D02*
X127404762Y-53133390D01*
X127404762Y-53133390D02*
X127357143Y-53085771D01*
X127357143Y-53085771D02*
X127309524Y-52990533D01*
X127309524Y-52990533D02*
X127309524Y-52895295D01*
X127309524Y-52895295D02*
X127357143Y-52800057D01*
X127357143Y-52800057D02*
X127404762Y-52752438D01*
X127404762Y-52752438D02*
X127500000Y-52704819D01*
X127500000Y-52704819D02*
X127738095Y-52704819D01*
X127738095Y-52704819D02*
X127880952Y-52752438D01*
X128309524Y-53181009D02*
X128642857Y-53181009D01*
X128785714Y-53704819D02*
X128309524Y-53704819D01*
X128309524Y-53704819D02*
X128309524Y-52704819D01*
X128309524Y-52704819D02*
X128785714Y-52704819D01*
X129166667Y-53657200D02*
X129309524Y-53704819D01*
X129309524Y-53704819D02*
X129547619Y-53704819D01*
X129547619Y-53704819D02*
X129642857Y-53657200D01*
X129642857Y-53657200D02*
X129690476Y-53609580D01*
X129690476Y-53609580D02*
X129738095Y-53514342D01*
X129738095Y-53514342D02*
X129738095Y-53419104D01*
X129738095Y-53419104D02*
X129690476Y-53323866D01*
X129690476Y-53323866D02*
X129642857Y-53276247D01*
X129642857Y-53276247D02*
X129547619Y-53228628D01*
X129547619Y-53228628D02*
X129357143Y-53181009D01*
X129357143Y-53181009D02*
X129261905Y-53133390D01*
X129261905Y-53133390D02*
X129214286Y-53085771D01*
X129214286Y-53085771D02*
X129166667Y-52990533D01*
X129166667Y-52990533D02*
X129166667Y-52895295D01*
X129166667Y-52895295D02*
X129214286Y-52800057D01*
X129214286Y-52800057D02*
X129261905Y-52752438D01*
X129261905Y-52752438D02*
X129357143Y-52704819D01*
X129357143Y-52704819D02*
X129595238Y-52704819D01*
X129595238Y-52704819D02*
X129738095Y-52752438D01*
X131595239Y-53038152D02*
X131833334Y-53704819D01*
X131833334Y-53704819D02*
X132071429Y-53038152D01*
X132976191Y-53704819D02*
X132404763Y-53704819D01*
X132690477Y-53704819D02*
X132690477Y-52704819D01*
X132690477Y-52704819D02*
X132595239Y-52847676D01*
X132595239Y-52847676D02*
X132500001Y-52942914D01*
X132500001Y-52942914D02*
X132404763Y-52990533D01*
X133404763Y-53609580D02*
X133452382Y-53657200D01*
X133452382Y-53657200D02*
X133404763Y-53704819D01*
X133404763Y-53704819D02*
X133357144Y-53657200D01*
X133357144Y-53657200D02*
X133404763Y-53609580D01*
X133404763Y-53609580D02*
X133404763Y-53704819D01*
X134071429Y-52704819D02*
X134166667Y-52704819D01*
X134166667Y-52704819D02*
X134261905Y-52752438D01*
X134261905Y-52752438D02*
X134309524Y-52800057D01*
X134309524Y-52800057D02*
X134357143Y-52895295D01*
X134357143Y-52895295D02*
X134404762Y-53085771D01*
X134404762Y-53085771D02*
X134404762Y-53323866D01*
X134404762Y-53323866D02*
X134357143Y-53514342D01*
X134357143Y-53514342D02*
X134309524Y-53609580D01*
X134309524Y-53609580D02*
X134261905Y-53657200D01*
X134261905Y-53657200D02*
X134166667Y-53704819D01*
X134166667Y-53704819D02*
X134071429Y-53704819D01*
X134071429Y-53704819D02*
X133976191Y-53657200D01*
X133976191Y-53657200D02*
X133928572Y-53609580D01*
X133928572Y-53609580D02*
X133880953Y-53514342D01*
X133880953Y-53514342D02*
X133833334Y-53323866D01*
X133833334Y-53323866D02*
X133833334Y-53085771D01*
X133833334Y-53085771D02*
X133880953Y-52895295D01*
X133880953Y-52895295D02*
X133928572Y-52800057D01*
X133928572Y-52800057D02*
X133976191Y-52752438D01*
X133976191Y-52752438D02*
X134071429Y-52704819D01*
X155519048Y-64573866D02*
X156280953Y-64573866D01*
X155519048Y-59573866D02*
X156280953Y-59573866D01*
X155900000Y-59954819D02*
X155900000Y-59192914D01*
D11*
%TO.C,C8*%
X103792164Y-56340000D02*
X104007836Y-56340000D01*
X103792164Y-57060000D02*
X104007836Y-57060000D01*
%TO.C,C18*%
X152292164Y-59540000D02*
X152507836Y-59540000D01*
X152292164Y-60260000D02*
X152507836Y-60260000D01*
%TO.C,C11*%
X90292164Y-61040000D02*
X90507836Y-61040000D01*
X90292164Y-61760000D02*
X90507836Y-61760000D01*
%TO.C,U8*%
X84400000Y-64840000D02*
X83600000Y-64840000D01*
X84400000Y-64840000D02*
X85200000Y-64840000D01*
X84400000Y-67960000D02*
X83600000Y-67960000D01*
X84400000Y-67960000D02*
X85200000Y-67960000D01*
X83100000Y-64890000D02*
X82860000Y-64560000D01*
X83340000Y-64560000D01*
X83100000Y-64890000D01*
G36*
X83100000Y-64890000D02*
G01*
X82860000Y-64560000D01*
X83340000Y-64560000D01*
X83100000Y-64890000D01*
G37*
%TO.C,U1*%
X74750000Y-70200000D02*
X75750000Y-70200000D01*
X75750000Y-70200000D02*
X75750000Y-68700000D01*
X75750000Y-51800000D02*
X75750000Y-53300000D01*
X75750000Y-51800000D02*
X74750000Y-51800000D01*
X56775000Y-70700000D02*
X56275000Y-70200000D01*
X56775000Y-70200000D01*
X56775000Y-70700000D01*
G36*
X56775000Y-70700000D02*
G01*
X56275000Y-70200000D01*
X56775000Y-70200000D01*
X56775000Y-70700000D01*
G37*
%TO.C,U4*%
X100000000Y-50840000D02*
X99200000Y-50840000D01*
X100000000Y-50840000D02*
X100800000Y-50840000D01*
X100000000Y-53960000D02*
X99200000Y-53960000D01*
X100000000Y-53960000D02*
X100800000Y-53960000D01*
X98700000Y-50890000D02*
X98460000Y-50560000D01*
X98940000Y-50560000D01*
X98700000Y-50890000D01*
G36*
X98700000Y-50890000D02*
G01*
X98460000Y-50560000D01*
X98940000Y-50560000D01*
X98700000Y-50890000D01*
G37*
%TO.C,R12*%
X87846359Y-59620000D02*
X88153641Y-59620000D01*
X87846359Y-60380000D02*
X88153641Y-60380000D01*
%TO.C,C16*%
X79492164Y-69940000D02*
X79707836Y-69940000D01*
X79492164Y-70660000D02*
X79707836Y-70660000D01*
%TO.C,R2*%
X93820000Y-59153641D02*
X93820000Y-58846359D01*
X94580000Y-59153641D02*
X94580000Y-58846359D01*
%TO.C,R1*%
X92220000Y-59153641D02*
X92220000Y-58846359D01*
X92980000Y-59153641D02*
X92980000Y-58846359D01*
%TO.C,U5*%
X100000000Y-54440000D02*
X99200000Y-54440000D01*
X100000000Y-54440000D02*
X100800000Y-54440000D01*
X100000000Y-57560000D02*
X99200000Y-57560000D01*
X100000000Y-57560000D02*
X100800000Y-57560000D01*
X98700000Y-54490000D02*
X98460000Y-54160000D01*
X98940000Y-54160000D01*
X98700000Y-54490000D01*
G36*
X98700000Y-54490000D02*
G01*
X98460000Y-54160000D01*
X98940000Y-54160000D01*
X98700000Y-54490000D01*
G37*
%TO.C,U6*%
X78175000Y-68449999D02*
X78175000Y-65049999D01*
X78475000Y-64749999D02*
X81025000Y-64749999D01*
X81025000Y-64749999D02*
X81025000Y-68449999D01*
X81025000Y-68449999D02*
X78175000Y-68449999D01*
X78175000Y-64749999D02*
X77895000Y-64749999D01*
X78175000Y-64469999D01*
X78175000Y-64749999D01*
G36*
X78175000Y-64749999D02*
G01*
X77895000Y-64749999D01*
X78175000Y-64469999D01*
X78175000Y-64749999D01*
G37*
%TO.C,R11*%
X87846359Y-58220000D02*
X88153641Y-58220000D01*
X87846359Y-58980000D02*
X88153641Y-58980000D01*
%TO.C,C17*%
X148938748Y-59165000D02*
X149461252Y-59165000D01*
X148938748Y-60635000D02*
X149461252Y-60635000D01*
%TO.C,C9*%
X90292164Y-58240000D02*
X90507836Y-58240000D01*
X90292164Y-58960000D02*
X90507836Y-58960000D01*
%TO.C,J2*%
X94650000Y-55750000D02*
X94650000Y-54410000D01*
X93160000Y-55750000D02*
X94650000Y-55750000D01*
X93160000Y-55750000D02*
X93160000Y-56950000D01*
X80840000Y-55750000D02*
X79350000Y-55750000D01*
X79350000Y-55750000D02*
X79350000Y-54410000D01*
%TO.C,J1*%
X87330000Y-68220000D02*
X87330000Y-66520000D01*
X96670000Y-68220000D02*
X96670000Y-66520000D01*
%TO.C,R15*%
X82046359Y-69920000D02*
X82353641Y-69920000D01*
X82046359Y-70680000D02*
X82353641Y-70680000D01*
%TO.C,C1*%
X93859420Y-61490000D02*
X94140580Y-61490000D01*
X93859420Y-62510000D02*
X94140580Y-62510000D01*
%TO.C,C10*%
X90292164Y-59640000D02*
X90507836Y-59640000D01*
X90292164Y-60360000D02*
X90507836Y-60360000D01*
%TO.C,C5*%
X103792164Y-51240000D02*
X104007836Y-51240000D01*
X103792164Y-51960000D02*
X104007836Y-51960000D01*
%TO.C,U7*%
X148390000Y-53865000D02*
X148390000Y-53630000D01*
X148390000Y-56610000D02*
X148390000Y-56135000D01*
X148865000Y-53390000D02*
X148690000Y-53390000D01*
X148865000Y-56610000D02*
X148390000Y-56610000D01*
X151135000Y-53390000D02*
X151610000Y-53390000D01*
X151135000Y-56610000D02*
X151610000Y-56610000D01*
X151610000Y-53390000D02*
X151610000Y-53865000D01*
X151610000Y-56610000D02*
X151610000Y-56135000D01*
X148390000Y-53390000D02*
X148150000Y-53060000D01*
X148630000Y-53060000D01*
X148390000Y-53390000D01*
G36*
X148390000Y-53390000D02*
G01*
X148150000Y-53060000D01*
X148630000Y-53060000D01*
X148390000Y-53390000D01*
G37*
%TO.C,R14*%
X87846359Y-62420000D02*
X88153641Y-62420000D01*
X87846359Y-63180000D02*
X88153641Y-63180000D01*
%TO.C,C6*%
X103792164Y-52740000D02*
X104007836Y-52740000D01*
X103792164Y-53460000D02*
X104007836Y-53460000D01*
%TO.C,R13*%
X87846359Y-61020000D02*
X88153641Y-61020000D01*
X87846359Y-61780000D02*
X88153641Y-61780000D01*
%TO.C,C7*%
X103792164Y-54840000D02*
X104007836Y-54840000D01*
X103792164Y-55560000D02*
X104007836Y-55560000D01*
%TD*%
%LPC*%
D12*
%TO.C,C8*%
X103420000Y-56700000D03*
X104380000Y-56700000D03*
%TD*%
%TO.C,C18*%
X151920000Y-59900000D03*
X152880000Y-59900000D03*
%TD*%
%TO.C,C11*%
X89920000Y-61400000D03*
X90880000Y-61400000D03*
%TD*%
D13*
%TO.C,U8*%
X83262500Y-65450000D03*
X83262500Y-66400000D03*
X83262500Y-67350000D03*
X85537500Y-67350000D03*
X85537500Y-66400000D03*
X85537500Y-65450000D03*
%TD*%
D14*
%TO.C,U1*%
X57540000Y-69750000D03*
X58810000Y-69750000D03*
X60080000Y-69750000D03*
X61350000Y-69750000D03*
X62620000Y-69750000D03*
X63890000Y-69750000D03*
X65160000Y-69750000D03*
X66430000Y-69750000D03*
X67700000Y-69750000D03*
X68970000Y-69750000D03*
X70240000Y-69750000D03*
X71510000Y-69750000D03*
X72780000Y-69750000D03*
X74050000Y-69750000D03*
D15*
X75300000Y-67985000D03*
X75300000Y-66715000D03*
X75300000Y-65445000D03*
X75300000Y-64175000D03*
X75300000Y-62905000D03*
X75300000Y-61635000D03*
X75300000Y-60365000D03*
X75300000Y-59095000D03*
X75300000Y-57825000D03*
X75300000Y-56555000D03*
X75300000Y-55285000D03*
X75300000Y-54015000D03*
D14*
X74050000Y-52250000D03*
X72780000Y-52250000D03*
X71510000Y-52250000D03*
X70240000Y-52250000D03*
X68970000Y-52250000D03*
X67700000Y-52250000D03*
X66430000Y-52250000D03*
X65160000Y-52250000D03*
X63890000Y-52250000D03*
X62620000Y-52250000D03*
X61350000Y-52250000D03*
X60080000Y-52250000D03*
X58810000Y-52250000D03*
X57540000Y-52250000D03*
D16*
X64560000Y-63900000D03*
X65960000Y-63900000D03*
X63860000Y-63200000D03*
X65260000Y-63200000D03*
X66660000Y-63200000D03*
X64560000Y-62500000D03*
D17*
X65260000Y-62500000D03*
D16*
X65960000Y-62500000D03*
X63860000Y-61800000D03*
X65260000Y-61800000D03*
X66660000Y-61800000D03*
X64560000Y-61100000D03*
X65960000Y-61100000D03*
%TD*%
D13*
%TO.C,U4*%
X98862500Y-51450000D03*
X98862500Y-52400000D03*
X98862500Y-53350000D03*
X101137500Y-53350000D03*
X101137500Y-51450000D03*
%TD*%
D18*
%TO.C,R12*%
X87490000Y-60000000D03*
X88510000Y-60000000D03*
%TD*%
D12*
%TO.C,C16*%
X79120000Y-70300000D03*
X80080000Y-70300000D03*
%TD*%
D19*
%TO.C,R2*%
X94200000Y-59510000D03*
X94200000Y-58490000D03*
%TD*%
%TO.C,R1*%
X92600000Y-59510000D03*
X92600000Y-58490000D03*
%TD*%
D20*
%TO.C,LS1*%
X158500000Y-59500000D03*
X158500000Y-64500000D03*
%TD*%
D13*
%TO.C,U5*%
X98862500Y-55050000D03*
X98862500Y-56000000D03*
X98862500Y-56950000D03*
X101137500Y-56950000D03*
X101137500Y-55050000D03*
%TD*%
D21*
%TO.C,U6*%
X79600000Y-67309999D03*
D22*
X78700000Y-65235999D03*
X78700000Y-66057999D03*
D23*
X80262500Y-67309999D03*
D22*
X80500000Y-66057999D03*
X80500000Y-65235999D03*
X79600000Y-65235999D03*
%TD*%
D18*
%TO.C,R11*%
X87490000Y-58600000D03*
X88510000Y-58600000D03*
%TD*%
D24*
%TO.C,C17*%
X148250000Y-59900000D03*
X150150000Y-59900000D03*
%TD*%
D12*
%TO.C,C9*%
X89920000Y-58600000D03*
X90880000Y-58600000D03*
%TD*%
D25*
%TO.C,J2*%
X92750000Y-56300000D03*
X92250000Y-56300000D03*
X91750000Y-56300000D03*
X91250000Y-56300000D03*
X90750000Y-56300000D03*
X90250000Y-56300000D03*
X89750000Y-56300000D03*
X89250000Y-56300000D03*
X88750000Y-56300000D03*
X88250000Y-56300000D03*
X87750000Y-56300000D03*
X87250000Y-56300000D03*
X86750000Y-56300000D03*
X86250000Y-56300000D03*
X85750000Y-56300000D03*
X85250000Y-56300000D03*
X84750000Y-56300000D03*
X84250000Y-56300000D03*
X83750000Y-56300000D03*
X83250000Y-56300000D03*
X82750000Y-56300000D03*
X82250000Y-56300000D03*
X81750000Y-56300000D03*
X81250000Y-56300000D03*
D26*
X94650000Y-53050000D03*
X79350000Y-53050000D03*
%TD*%
D27*
%TO.C,J1*%
X89110000Y-65715000D03*
X94890000Y-65715000D03*
D28*
X88800000Y-64640000D03*
X89600000Y-64640000D03*
D29*
X90750000Y-64640000D03*
X91750000Y-64640000D03*
X92250000Y-64640000D03*
X93250000Y-64640000D03*
D28*
X94400000Y-64640000D03*
X95200000Y-64640000D03*
X95200000Y-64640000D03*
X94400000Y-64640000D03*
D29*
X93750000Y-64640000D03*
X92750000Y-64640000D03*
X91250000Y-64640000D03*
X90250000Y-64640000D03*
D28*
X89600000Y-64640000D03*
X88800000Y-64640000D03*
D30*
X87680000Y-65215000D03*
D31*
X87680000Y-69395000D03*
D30*
X96320000Y-65215000D03*
D31*
X96320000Y-69395000D03*
%TD*%
D18*
%TO.C,R15*%
X81690000Y-70300000D03*
X82710000Y-70300000D03*
%TD*%
D32*
%TO.C,C1*%
X93225000Y-62000000D03*
X94775000Y-62000000D03*
%TD*%
D12*
%TO.C,C10*%
X89920000Y-60000000D03*
X90880000Y-60000000D03*
%TD*%
%TO.C,C5*%
X103420000Y-51600000D03*
X104380000Y-51600000D03*
%TD*%
D33*
%TO.C,U7*%
X148562500Y-54250000D03*
X148562500Y-54750000D03*
X148562500Y-55250000D03*
X148562500Y-55750000D03*
D34*
X149250000Y-56437500D03*
X149750000Y-56437500D03*
X150250000Y-56437500D03*
X150750000Y-56437500D03*
D33*
X151437500Y-55750000D03*
X151437500Y-55250000D03*
X151437500Y-54750000D03*
X151437500Y-54250000D03*
D34*
X150750000Y-53562500D03*
X150250000Y-53562500D03*
X149750000Y-53562500D03*
X149250000Y-53562500D03*
D35*
X150000000Y-55000000D03*
%TD*%
D18*
%TO.C,R14*%
X87490000Y-62800000D03*
X88510000Y-62800000D03*
%TD*%
D12*
%TO.C,C6*%
X103420000Y-53100000D03*
X104380000Y-53100000D03*
%TD*%
D18*
%TO.C,R13*%
X87490000Y-61400000D03*
X88510000Y-61400000D03*
%TD*%
D12*
%TO.C,C7*%
X103420000Y-55200000D03*
X104380000Y-55200000D03*
%TD*%
%LPD*%
M02*
